M48
; DRILL file {KiCad 9.0.0} date 2025-05-06T20:13:08-0400
; FORMAT={-:-/ absolute / inch / decimal}
; #@! TF.CreationDate,2025-05-06T20:13:08-04:00
; #@! TF.GenerationSoftware,Kicad,Pcbnew,9.0.0
; #@! TF.FileFunction,MixedPlating,1,4
FMAT,2
INCH
; #@! TA.AperFunction,Plated,PTH,ComponentDrill
T1C0.0079
; #@! TA.AperFunction,Plated,PTH,ViaDrill
T2C0.0157
; #@! TA.AperFunction,Plated,PTH,ComponentDrill
T3C0.1132
%
G90
G05
T1
X6.0344Y-4.4791
X6.0344Y-4.5303
X6.0778Y-4.4791
X6.0778Y-4.5303
T2
X4.7685Y-6.1504
X5.0614Y-4.7823
X5.0642Y-4.8437
X5.4173Y-4.5925
X5.4296Y-4.4331
X5.4606Y-5.0453
X5.5374Y-5.0138
X5.5728Y-5.189
X5.5787Y-5.4331
X5.5935Y-4.6978
X5.6535Y-4.4331
X5.6551Y-4.3327
X5.687Y-6.1516
X5.7283Y-4.4331
X5.7677Y-4.6654
X5.8307Y-4.0807
X5.8858Y-4.4945
X5.8898Y-4.5665
X5.8927Y-4.4134
X5.9055Y-5.1575
X5.9449Y-4.7047
X5.9567Y-4.5827
X5.9902Y-4.0807
X6.0394Y-4.5669
X6.126Y-4.0807
X6.1969Y-4.7323
X6.6083Y-4.7087
X6.6102Y-4.3839
X6.6142Y-6.1571
X6.9508Y-4.7067
T3
X4.1988Y-3.8681
X4.1988Y-4.3406
X4.1988Y-4.813
X6.8514Y-4.5768
M30
