%TF.GenerationSoftware,KiCad,Pcbnew,9.0.0*%
%TF.CreationDate,2025-05-06T20:13:05-04:00*%
%TF.ProjectId,xy_faces_CUpayload_v2,78795f66-6163-4657-935f-43557061796c,3.0*%
%TF.SameCoordinates,Original*%
%TF.FileFunction,Copper,L1,Top*%
%TF.FilePolarity,Positive*%
%FSLAX46Y46*%
G04 Gerber Fmt 4.6, Leading zero omitted, Abs format (unit mm)*
G04 Created by KiCad (PCBNEW 9.0.0) date 2025-05-06 20:13:05*
%MOMM*%
%LPD*%
G01*
G04 APERTURE LIST*
G04 Aperture macros list*
%AMRoundRect*
0 Rectangle with rounded corners*
0 $1 Rounding radius*
0 $2 $3 $4 $5 $6 $7 $8 $9 X,Y pos of 4 corners*
0 Add a 4 corners polygon primitive as box body*
4,1,4,$2,$3,$4,$5,$6,$7,$8,$9,$2,$3,0*
0 Add four circle primitives for the rounded corners*
1,1,$1+$1,$2,$3*
1,1,$1+$1,$4,$5*
1,1,$1+$1,$6,$7*
1,1,$1+$1,$8,$9*
0 Add four rect primitives between the rounded corners*
20,1,$1+$1,$2,$3,$4,$5,0*
20,1,$1+$1,$4,$5,$6,$7,0*
20,1,$1+$1,$6,$7,$8,$9,0*
20,1,$1+$1,$8,$9,$2,$3,0*%
G04 Aperture macros list end*
%TA.AperFunction,SMDPad,CuDef*%
%ADD10RoundRect,0.100000X0.687500X0.100000X-0.687500X0.100000X-0.687500X-0.100000X0.687500X-0.100000X0*%
%TD*%
%TA.AperFunction,HeatsinkPad*%
%ADD11C,0.500000*%
%TD*%
%TA.AperFunction,HeatsinkPad*%
%ADD12R,1.500000X1.800000*%
%TD*%
%TA.AperFunction,SMDPad,CuDef*%
%ADD13R,13.000000X3.000000*%
%TD*%
%TA.AperFunction,SMDPad,CuDef*%
%ADD14RoundRect,0.750000X0.750000X-0.750000X0.750000X0.750000X-0.750000X0.750000X-0.750000X-0.750000X0*%
%TD*%
%TA.AperFunction,ComponentPad*%
%ADD15C,4.000000*%
%TD*%
%TA.AperFunction,SMDPad,CuDef*%
%ADD16R,1.700000X2.500000*%
%TD*%
%TA.AperFunction,SMDPad,CuDef*%
%ADD17RoundRect,0.250000X-0.250000X-0.475000X0.250000X-0.475000X0.250000X0.475000X-0.250000X0.475000X0*%
%TD*%
%TA.AperFunction,SMDPad,CuDef*%
%ADD18R,1.600000X0.700000*%
%TD*%
%TA.AperFunction,SMDPad,CuDef*%
%ADD19RoundRect,0.218750X-0.218750X-0.256250X0.218750X-0.256250X0.218750X0.256250X-0.218750X0.256250X0*%
%TD*%
%TA.AperFunction,SMDPad,CuDef*%
%ADD20RoundRect,0.200000X0.200000X0.275000X-0.200000X0.275000X-0.200000X-0.275000X0.200000X-0.275000X0*%
%TD*%
%TA.AperFunction,ViaPad*%
%ADD21C,0.800000*%
%TD*%
%TA.AperFunction,Conductor*%
%ADD22C,0.500000*%
%TD*%
%TA.AperFunction,Conductor*%
%ADD23C,0.250000*%
%TD*%
%TA.AperFunction,Profile*%
%ADD24C,0.050000*%
%TD*%
%TA.AperFunction,Profile*%
%ADD25C,0.100000*%
%TD*%
G04 APERTURE END LIST*
D10*
%TO.P,U2,1,SDA*%
%TO.N,SDA*%
X155937500Y-115395000D03*
%TO.P,U2,2,SCL*%
%TO.N,SCL*%
X155937500Y-114745000D03*
%TO.P,U2,3,Alert*%
%TO.N,unconnected-(U2-Alert-Pad3)*%
X155937500Y-114095000D03*
%TO.P,U2,4,GND*%
%TO.N,GND*%
X155937500Y-113445000D03*
%TO.P,U2,5,A2*%
X151712500Y-113445000D03*
%TO.P,U2,6,A1*%
%TO.N,+3V3*%
X151712500Y-114095000D03*
%TO.P,U2,7,A0*%
X151712500Y-114745000D03*
%TO.P,U2,8,VDD*%
X151712500Y-115395000D03*
D11*
%TO.P,U2,9,EP/GND*%
%TO.N,GND*%
X154375000Y-115070000D03*
X154375000Y-113770000D03*
D12*
X153825000Y-114420000D03*
D11*
X153275000Y-115070000D03*
X153275000Y-113770000D03*
%TD*%
D13*
%TO.P,SC5,1,+*%
%TO.N,Net-(D3-A)*%
X167860000Y-67570000D03*
%TO.P,SC5,2,-*%
%TO.N,Net-(SC5--)*%
X167860000Y-107570000D03*
%TD*%
D14*
%TO.P,TP1,1,1*%
%TO.N,VSOLAR*%
X170500000Y-113300000D03*
%TD*%
D15*
%TO.P,H1,1*%
%TO.N,N/C*%
X174025000Y-116250000D03*
%TD*%
D16*
%TO.P,D3,1,K*%
%TO.N,VSOLAR*%
X166650000Y-117350000D03*
%TO.P,D3,2,A*%
%TO.N,Net-(D3-A)*%
X166650000Y-113350000D03*
%TD*%
D14*
%TO.P,TP2,1,1*%
%TO.N,GND*%
X170250000Y-118225000D03*
%TD*%
D16*
%TO.P,D1,1,K*%
%TO.N,VSOLAR*%
X160200000Y-117350000D03*
%TO.P,D1,2,A*%
%TO.N,Net-(D1-A)*%
X160200000Y-113350000D03*
%TD*%
D13*
%TO.P,SC3,1,+*%
%TO.N,Net-(D2-A)*%
X144490000Y-67570000D03*
%TO.P,SC3,2,-*%
%TO.N,Net-(SC3--)*%
X144490000Y-107570000D03*
%TD*%
%TO.P,SC4,1,+*%
%TO.N,Net-(SC3--)*%
X144450000Y-121940000D03*
%TO.P,SC4,2,-*%
%TO.N,GND*%
X144450000Y-161940000D03*
%TD*%
%TO.P,SC2,1,+*%
%TO.N,Net-(SC1--)*%
X121120000Y-121920000D03*
%TO.P,SC2,2,-*%
%TO.N,GND*%
X121120000Y-161920000D03*
%TD*%
D16*
%TO.P,D2,1,K*%
%TO.N,VSOLAR*%
X163450000Y-117350000D03*
%TO.P,D2,2,A*%
%TO.N,Net-(D2-A)*%
X163450000Y-113350000D03*
%TD*%
D13*
%TO.P,SC6,1,+*%
%TO.N,Net-(SC5--)*%
X167850000Y-121950000D03*
%TO.P,SC6,2,-*%
%TO.N,GND*%
X167850000Y-161950000D03*
%TD*%
D17*
%TO.P,C2,1*%
%TO.N,+3V3*%
X152450000Y-117200000D03*
%TO.P,C2,2*%
%TO.N,GND*%
X154350000Y-117200000D03*
%TD*%
D15*
%TO.P,H1,1*%
%TO.N,N/C*%
X106650000Y-98250000D03*
%TD*%
%TO.P,H1,1*%
%TO.N,N/C*%
X106650000Y-122250000D03*
%TD*%
D18*
%TO.P,U1,1,SCL*%
%TO.N,SCL*%
X148075000Y-115430000D03*
%TO.P,U1,2,VDD*%
%TO.N,+3V3*%
X148075000Y-114160000D03*
%TO.P,U1,3,GND*%
%TO.N,GND*%
X148075000Y-112890000D03*
%TO.P,U1,4,SDA*%
%TO.N,SDA*%
X148075000Y-111620000D03*
%TD*%
D19*
%TO.P,D4,1,K*%
%TO.N,GND*%
X137912500Y-111525000D03*
%TO.P,D4,2,A*%
%TO.N,Net-(D4-A)*%
X139487500Y-111525000D03*
%TD*%
D13*
%TO.P,SC1,1,+*%
%TO.N,Net-(D1-A)*%
X121090000Y-67570000D03*
%TO.P,SC1,2,-*%
%TO.N,Net-(SC1--)*%
X121090000Y-107570000D03*
%TD*%
D15*
%TO.P,H1,1*%
%TO.N,N/C*%
X106650000Y-110250000D03*
%TD*%
D20*
%TO.P,R1,1*%
%TO.N,+3V3*%
X142725000Y-111550000D03*
%TO.P,R1,2*%
%TO.N,Net-(D4-A)*%
X141075000Y-111550000D03*
%TD*%
D21*
%TO.N,GND*%
X176550000Y-119550000D03*
X142075000Y-119325000D03*
%TO.N,+3V3*%
X143600000Y-112600000D03*
X155600000Y-103650000D03*
X149500000Y-114160000D03*
X148100000Y-103650000D03*
X151300000Y-116400000D03*
X152150000Y-103650000D03*
X143640000Y-110050000D03*
X145500000Y-112600000D03*
%TO.N,VSOLAR*%
X141550000Y-131800000D03*
%TO.N,GND*%
X138700000Y-128150000D03*
X168000000Y-156390000D03*
X144450000Y-156250000D03*
X153400000Y-116000000D03*
X137600000Y-116650000D03*
X149675000Y-112100000D03*
%TO.N,VSOLAR*%
X157400000Y-120200000D03*
X140650000Y-127350000D03*
%TO.N,GND*%
X150000000Y-131000000D03*
X121120000Y-156220000D03*
X137912500Y-112600000D03*
X141700000Y-138000000D03*
X151000000Y-119500000D03*
%TO.N,SDA*%
X146500000Y-118500000D03*
X128560000Y-121470000D03*
%TO.N,SCL*%
X128630000Y-123030000D03*
X149600000Y-115990000D03*
%TO.N,Net-(SC5--)*%
X167900000Y-111350000D03*
X167850000Y-119600000D03*
%TD*%
D22*
%TO.N,GND*%
X176425000Y-119675000D02*
X176550000Y-119550000D01*
X171700000Y-119675000D02*
X176425000Y-119675000D01*
X170250000Y-118225000D02*
X171700000Y-119675000D01*
D23*
%TO.N,+3V3*%
X142725000Y-111725000D02*
X143600000Y-112600000D01*
X151300000Y-116400000D02*
X151300000Y-115807500D01*
X151712500Y-114745000D02*
X151712500Y-114095000D01*
X149500000Y-114160000D02*
X148075000Y-114160000D01*
X151300000Y-115807500D02*
X151712500Y-115395000D01*
X152100000Y-117200000D02*
X151300000Y-116400000D01*
X142725000Y-111550000D02*
X142725000Y-111725000D01*
X152450000Y-117200000D02*
X152100000Y-117200000D01*
X151712500Y-115395000D02*
X151712500Y-114745000D01*
%TO.N,GND*%
X153275000Y-115875000D02*
X153275000Y-115070000D01*
D22*
%TO.N,VSOLAR*%
X170050000Y-113950000D02*
X170050000Y-113700000D01*
X166650000Y-117350000D02*
X163550000Y-117350000D01*
D23*
%TO.N,GND*%
X148075000Y-112890000D02*
X148885000Y-112890000D01*
X155937500Y-113445000D02*
X154700000Y-113445000D01*
D22*
X144450000Y-161940000D02*
X144450000Y-156250000D01*
D23*
X151712500Y-113445000D02*
X152950000Y-113445000D01*
X137912500Y-112600000D02*
X137912500Y-111525000D01*
D22*
X168000000Y-161970000D02*
X168000000Y-156390000D01*
%TO.N,VSOLAR*%
X163550000Y-117350000D02*
X160150000Y-117350000D01*
D23*
X163230000Y-116970000D02*
X163300000Y-116900000D01*
%TO.N,GND*%
X153400000Y-116000000D02*
X153275000Y-115875000D01*
D22*
%TO.N,VSOLAR*%
X166650000Y-117350000D02*
X170050000Y-113950000D01*
D23*
%TO.N,GND*%
X154375000Y-115070000D02*
X154375000Y-116975000D01*
D22*
X121120000Y-161920000D02*
X121120000Y-156220000D01*
D23*
X152950000Y-113445000D02*
X153275000Y-113770000D01*
D22*
%TO.N,VSOLAR*%
X157400000Y-120200000D02*
X160050000Y-117550000D01*
D23*
%TO.N,GND*%
X148885000Y-112890000D02*
X149675000Y-112100000D01*
D22*
%TO.N,VSOLAR*%
X160050000Y-117550000D02*
X160050000Y-117350000D01*
D23*
%TO.N,GND*%
X154700000Y-113445000D02*
X154375000Y-113770000D01*
D22*
%TO.N,Net-(D1-A)*%
X121250000Y-90800000D02*
X121250000Y-67400000D01*
X160200000Y-113350000D02*
X148950000Y-102100000D01*
X132550000Y-102100000D02*
X121250000Y-90800000D01*
X148950000Y-102100000D02*
X132550000Y-102100000D01*
%TO.N,Net-(D2-A)*%
X153300000Y-103200000D02*
X153300000Y-74100000D01*
X163450000Y-113350000D02*
X153300000Y-103200000D01*
X153300000Y-74100000D02*
X146600000Y-67400000D01*
X146600000Y-67400000D02*
X145500000Y-67400000D01*
D23*
%TO.N,SDA*%
X146500000Y-118500000D02*
X146510000Y-118510000D01*
X155490000Y-118510000D02*
X155937500Y-118062500D01*
X146510000Y-118510000D02*
X155490000Y-118510000D01*
X146500000Y-112000000D02*
X146880000Y-111620000D01*
X155937500Y-118062500D02*
X155937500Y-115395000D01*
X146880000Y-111620000D02*
X148075000Y-111620000D01*
X146500000Y-118500000D02*
X146500000Y-112000000D01*
%TO.N,SCL*%
X150300000Y-115290000D02*
X150300000Y-113200000D01*
X155937500Y-114745000D02*
X156678812Y-114745000D01*
X157573812Y-113690000D02*
X157573812Y-113850000D01*
X149600000Y-115990000D02*
X148635000Y-115990000D01*
X150300000Y-113200000D02*
X150900000Y-112600000D01*
X149600000Y-115990000D02*
X150300000Y-115290000D01*
X148635000Y-115990000D02*
X148075000Y-115430000D01*
X156678812Y-114745000D02*
X157573812Y-113850000D01*
X156483812Y-112600000D02*
X157573812Y-113690000D01*
X150900000Y-112600000D02*
X156483812Y-112600000D01*
D22*
%TO.N,Net-(D3-A)*%
X167103496Y-113350000D02*
X169453496Y-111000000D01*
X166650000Y-113350000D02*
X167103496Y-113350000D01*
X176150000Y-76150000D02*
X167900000Y-67900000D01*
X169453496Y-111000000D02*
X174250000Y-111000000D01*
X176150000Y-109100000D02*
X176150000Y-76150000D01*
X174250000Y-111000000D02*
X176150000Y-109100000D01*
D23*
%TO.N,Net-(D4-A)*%
X141075000Y-111550000D02*
X139512500Y-111550000D01*
X139512500Y-111550000D02*
X139487500Y-111525000D01*
D22*
%TO.N,Net-(SC1--)*%
X112600000Y-110950000D02*
X115980000Y-107570000D01*
X112600000Y-118490000D02*
X112600000Y-110950000D01*
X116030000Y-121920000D02*
X112600000Y-118490000D01*
X115980000Y-107570000D02*
X121090000Y-107570000D01*
X121120000Y-121920000D02*
X116030000Y-121920000D01*
%TO.N,Net-(SC3--)*%
X144490000Y-121900000D02*
X144450000Y-121940000D01*
X144490000Y-107570000D02*
X144490000Y-121900000D01*
%TO.N,Net-(SC5--)*%
X167850000Y-121950000D02*
X167850000Y-119600000D01*
X167860000Y-121830000D02*
X168000000Y-121970000D01*
X167900000Y-111350000D02*
X167900000Y-107650000D01*
%TD*%
%TA.AperFunction,Conductor*%
%TO.N,+3V3*%
G36*
X114043771Y-65795502D02*
G01*
X114090264Y-65849158D01*
X114100368Y-65919432D01*
X114093706Y-65945528D01*
X114088011Y-65960799D01*
X114088010Y-65960802D01*
X114088009Y-65960803D01*
X114081500Y-66021350D01*
X114081500Y-69118649D01*
X114088009Y-69179196D01*
X114088011Y-69179204D01*
X114139110Y-69316202D01*
X114139112Y-69316207D01*
X114226738Y-69433261D01*
X114343792Y-69520887D01*
X114343794Y-69520888D01*
X114343796Y-69520889D01*
X114402875Y-69542924D01*
X114480795Y-69571988D01*
X114480803Y-69571990D01*
X114541350Y-69578499D01*
X114541355Y-69578499D01*
X114541362Y-69578500D01*
X120365500Y-69578500D01*
X120433621Y-69598502D01*
X120480114Y-69652158D01*
X120491500Y-69704500D01*
X120491500Y-90725295D01*
X120491500Y-90874705D01*
X120520649Y-91021247D01*
X120577826Y-91159284D01*
X120660834Y-91283515D01*
X131960834Y-102583515D01*
X131960835Y-102583516D01*
X132066484Y-102689165D01*
X132190716Y-102772174D01*
X132271576Y-102805667D01*
X132328753Y-102829351D01*
X132385889Y-102840716D01*
X132475294Y-102858500D01*
X132475295Y-102858500D01*
X132624705Y-102858500D01*
X148583629Y-102858500D01*
X148651750Y-102878502D01*
X148672724Y-102895405D01*
X151123724Y-105346405D01*
X151157750Y-105408717D01*
X151152685Y-105479532D01*
X151110138Y-105536368D01*
X151043618Y-105561179D01*
X151034629Y-105561500D01*
X137941350Y-105561500D01*
X137880803Y-105568009D01*
X137880795Y-105568011D01*
X137743797Y-105619110D01*
X137743792Y-105619112D01*
X137626738Y-105706738D01*
X137539112Y-105823792D01*
X137539110Y-105823797D01*
X137488011Y-105960795D01*
X137488009Y-105960803D01*
X137481500Y-106021350D01*
X137481500Y-109118649D01*
X137488009Y-109179196D01*
X137488011Y-109179204D01*
X137539110Y-109316202D01*
X137539112Y-109316207D01*
X137626738Y-109433261D01*
X137743792Y-109520887D01*
X137743794Y-109520888D01*
X137743796Y-109520889D01*
X137802875Y-109542924D01*
X137880795Y-109571988D01*
X137880803Y-109571990D01*
X137941350Y-109578499D01*
X137941355Y-109578499D01*
X137941362Y-109578500D01*
X143605500Y-109578500D01*
X143673621Y-109598502D01*
X143720114Y-109652158D01*
X143731500Y-109704500D01*
X143731500Y-110788584D01*
X143711498Y-110856705D01*
X143657842Y-110903198D01*
X143587568Y-110913302D01*
X143522988Y-110883808D01*
X143497672Y-110853770D01*
X143486421Y-110835159D01*
X143486413Y-110835149D01*
X143364850Y-110713586D01*
X143364840Y-110713578D01*
X143217706Y-110624633D01*
X143053552Y-110573481D01*
X142982223Y-110567000D01*
X142979000Y-110567000D01*
X142979000Y-112532999D01*
X142982222Y-112532999D01*
X143053553Y-112526518D01*
X143217706Y-112475366D01*
X143364840Y-112386421D01*
X143364850Y-112386413D01*
X143486413Y-112264850D01*
X143486421Y-112264840D01*
X143497671Y-112246231D01*
X143550030Y-112198282D01*
X143620000Y-112186252D01*
X143685366Y-112213960D01*
X143725376Y-112272610D01*
X143731500Y-112311415D01*
X143731500Y-119805500D01*
X143711498Y-119873621D01*
X143657842Y-119920114D01*
X143605500Y-119931500D01*
X142995705Y-119931500D01*
X142927584Y-119911498D01*
X142881091Y-119857842D01*
X142870987Y-119787568D01*
X142879296Y-119757281D01*
X142885833Y-119741500D01*
X142948587Y-119590000D01*
X142983500Y-119414479D01*
X142983500Y-119235521D01*
X142948587Y-119060000D01*
X142880102Y-118894664D01*
X142780678Y-118745865D01*
X142654135Y-118619322D01*
X142505336Y-118519898D01*
X142373183Y-118465158D01*
X142340003Y-118451414D01*
X142340001Y-118451413D01*
X142340000Y-118451413D01*
X142251645Y-118433838D01*
X142164481Y-118416500D01*
X142164479Y-118416500D01*
X141985521Y-118416500D01*
X141985518Y-118416500D01*
X141854771Y-118442507D01*
X141810000Y-118451413D01*
X141809999Y-118451413D01*
X141809996Y-118451414D01*
X141644662Y-118519899D01*
X141495869Y-118619319D01*
X141495862Y-118619324D01*
X141369324Y-118745862D01*
X141369319Y-118745869D01*
X141269899Y-118894662D01*
X141201414Y-119059996D01*
X141201413Y-119059999D01*
X141201413Y-119060000D01*
X141193061Y-119101988D01*
X141166500Y-119235518D01*
X141166500Y-119414481D01*
X141175658Y-119460521D01*
X141201309Y-119589479D01*
X141201414Y-119590003D01*
X141214198Y-119620865D01*
X141257971Y-119726543D01*
X141270704Y-119757281D01*
X141278293Y-119827871D01*
X141246514Y-119891358D01*
X141185456Y-119927586D01*
X141154295Y-119931500D01*
X137901350Y-119931500D01*
X137840803Y-119938009D01*
X137840795Y-119938011D01*
X137703797Y-119989110D01*
X137703792Y-119989112D01*
X137586738Y-120076738D01*
X137499112Y-120193792D01*
X137499110Y-120193797D01*
X137448011Y-120330795D01*
X137448009Y-120330803D01*
X137441500Y-120391350D01*
X137441500Y-123360500D01*
X137421498Y-123428621D01*
X137367842Y-123475114D01*
X137315500Y-123486500D01*
X129612838Y-123486500D01*
X129544717Y-123466498D01*
X129498224Y-123412842D01*
X129488120Y-123342568D01*
X129496429Y-123312282D01*
X129503585Y-123295005D01*
X129503585Y-123295004D01*
X129503587Y-123295000D01*
X129538500Y-123119479D01*
X129538500Y-122940521D01*
X129503587Y-122765000D01*
X129435102Y-122599664D01*
X129335678Y-122450865D01*
X129209135Y-122324322D01*
X129209133Y-122324320D01*
X129209130Y-122324318D01*
X129205723Y-122322042D01*
X129160195Y-122267565D01*
X129151348Y-122197122D01*
X129181989Y-122133078D01*
X129186593Y-122128219D01*
X129265678Y-122049135D01*
X129365102Y-121900336D01*
X129433587Y-121735000D01*
X129468500Y-121559479D01*
X129468500Y-121380521D01*
X129433587Y-121205000D01*
X129365102Y-121039664D01*
X129265678Y-120890865D01*
X129139135Y-120764322D01*
X128990336Y-120664898D01*
X128873429Y-120616473D01*
X128825003Y-120596414D01*
X128825001Y-120596413D01*
X128825000Y-120596413D01*
X128721552Y-120575836D01*
X128649481Y-120561500D01*
X128649479Y-120561500D01*
X128470521Y-120561500D01*
X128470518Y-120561500D01*
X128340650Y-120587332D01*
X128295000Y-120596413D01*
X128294999Y-120596413D01*
X128294991Y-120596415D01*
X128291061Y-120597607D01*
X128220067Y-120598232D01*
X128160005Y-120560375D01*
X128129945Y-120496056D01*
X128128500Y-120477028D01*
X128128500Y-120371367D01*
X128128499Y-120371350D01*
X128121990Y-120310803D01*
X128121988Y-120310795D01*
X128098565Y-120247997D01*
X128093499Y-120177182D01*
X128127524Y-120114869D01*
X128165368Y-120088858D01*
X128450433Y-119961940D01*
X128725067Y-119803380D01*
X128725072Y-119803376D01*
X128725076Y-119803374D01*
X128881838Y-119689479D01*
X128981622Y-119616982D01*
X129217287Y-119404787D01*
X129429482Y-119169122D01*
X129579049Y-118963261D01*
X129615874Y-118912576D01*
X129615876Y-118912572D01*
X129615880Y-118912567D01*
X129774440Y-118637933D01*
X129903424Y-118348230D01*
X129908859Y-118331505D01*
X130001418Y-118046636D01*
X130027451Y-117924160D01*
X130067352Y-117736442D01*
X130100500Y-117421060D01*
X130100500Y-117262500D01*
X130100500Y-117254215D01*
X130100500Y-116560518D01*
X136691500Y-116560518D01*
X136691500Y-116739481D01*
X136702564Y-116795102D01*
X136716186Y-116863587D01*
X136726414Y-116915003D01*
X136739064Y-116945542D01*
X136794898Y-117080336D01*
X136894322Y-117229135D01*
X137020865Y-117355678D01*
X137169664Y-117455102D01*
X137335000Y-117523587D01*
X137510521Y-117558500D01*
X137510522Y-117558500D01*
X137689478Y-117558500D01*
X137689479Y-117558500D01*
X137865000Y-117523587D01*
X138030336Y-117455102D01*
X138179135Y-117355678D01*
X138305678Y-117229135D01*
X138405102Y-117080336D01*
X138473587Y-116915000D01*
X138508500Y-116739479D01*
X138508500Y-116560521D01*
X138473587Y-116385000D01*
X138405102Y-116219664D01*
X138305678Y-116070865D01*
X138179135Y-115944322D01*
X138030336Y-115844898D01*
X137913429Y-115796473D01*
X137865003Y-115776414D01*
X137865001Y-115776413D01*
X137865000Y-115776413D01*
X137776645Y-115758838D01*
X137689481Y-115741500D01*
X137689479Y-115741500D01*
X137510521Y-115741500D01*
X137510518Y-115741500D01*
X137379771Y-115767507D01*
X137335000Y-115776413D01*
X137334999Y-115776413D01*
X137334996Y-115776414D01*
X137169662Y-115844899D01*
X137020869Y-115944319D01*
X137020862Y-115944324D01*
X136894324Y-116070862D01*
X136894319Y-116070869D01*
X136798856Y-116213741D01*
X136794898Y-116219664D01*
X136792125Y-116226358D01*
X136726414Y-116384996D01*
X136726413Y-116384999D01*
X136726413Y-116385000D01*
X136722938Y-116402472D01*
X136691500Y-116560518D01*
X130100500Y-116560518D01*
X130100500Y-112276938D01*
X130100500Y-112128940D01*
X130067352Y-111813558D01*
X130005138Y-111520865D01*
X130001418Y-111503363D01*
X129921050Y-111256017D01*
X129921049Y-111256015D01*
X129909439Y-111220280D01*
X136966500Y-111220280D01*
X136966500Y-111829710D01*
X136976379Y-111926409D01*
X136976676Y-111929314D01*
X137017120Y-112051367D01*
X137030152Y-112090694D01*
X137062108Y-112142503D01*
X137080845Y-112210982D01*
X137071276Y-112256866D01*
X137038916Y-112334990D01*
X137038913Y-112334999D01*
X137004000Y-112510518D01*
X137004000Y-112689481D01*
X137017540Y-112757550D01*
X137038913Y-112865000D01*
X137107398Y-113030336D01*
X137206822Y-113179135D01*
X137333365Y-113305678D01*
X137482164Y-113405102D01*
X137647500Y-113473587D01*
X137823021Y-113508500D01*
X137823022Y-113508500D01*
X138001978Y-113508500D01*
X138001979Y-113508500D01*
X138177500Y-113473587D01*
X138342836Y-113405102D01*
X138491635Y-113305678D01*
X138618178Y-113179135D01*
X138717602Y-113030336D01*
X138786087Y-112865000D01*
X138821000Y-112689479D01*
X138821000Y-112573507D01*
X138841002Y-112505386D01*
X138894658Y-112458893D01*
X138964932Y-112448789D01*
X138986627Y-112453901D01*
X139120686Y-112498324D01*
X139220289Y-112508500D01*
X139754710Y-112508499D01*
X139854314Y-112498324D01*
X140015692Y-112444849D01*
X140160387Y-112355600D01*
X140192913Y-112323073D01*
X140255223Y-112289049D01*
X140326039Y-112294113D01*
X140371101Y-112323072D01*
X140434845Y-112386816D01*
X140582087Y-112475827D01*
X140746351Y-112527013D01*
X140817735Y-112533500D01*
X141332264Y-112533499D01*
X141403649Y-112527013D01*
X141567913Y-112475827D01*
X141715155Y-112386816D01*
X141761631Y-112340340D01*
X141811259Y-112290713D01*
X141873571Y-112256687D01*
X141944386Y-112261752D01*
X141989449Y-112290713D01*
X142085149Y-112386413D01*
X142085159Y-112386421D01*
X142232293Y-112475366D01*
X142396446Y-112526518D01*
X142467781Y-112532999D01*
X142470999Y-112532999D01*
X142471000Y-112532998D01*
X142471000Y-110567000D01*
X142467768Y-110567001D01*
X142396446Y-110573481D01*
X142232293Y-110624633D01*
X142085159Y-110713578D01*
X142085149Y-110713586D01*
X141989449Y-110809287D01*
X141927137Y-110843313D01*
X141856322Y-110838248D01*
X141811259Y-110809287D01*
X141715160Y-110713188D01*
X141715155Y-110713184D01*
X141684091Y-110694405D01*
X141567913Y-110624173D01*
X141567912Y-110624172D01*
X141567911Y-110624172D01*
X141567906Y-110624170D01*
X141403646Y-110572986D01*
X141351723Y-110568268D01*
X141332265Y-110566500D01*
X141332262Y-110566500D01*
X140817738Y-110566500D01*
X140746353Y-110572986D01*
X140746352Y-110572986D01*
X140582093Y-110624170D01*
X140582088Y-110624172D01*
X140434844Y-110713184D01*
X140434839Y-110713188D01*
X140396103Y-110751925D01*
X140333791Y-110785951D01*
X140262976Y-110780886D01*
X140217913Y-110751925D01*
X140160393Y-110694405D01*
X140160387Y-110694400D01*
X140015692Y-110605151D01*
X139854314Y-110551676D01*
X139854311Y-110551675D01*
X139854309Y-110551675D01*
X139754719Y-110541500D01*
X139220289Y-110541500D01*
X139120690Y-110551675D01*
X139120687Y-110551675D01*
X139120686Y-110551676D01*
X139040723Y-110578172D01*
X138959307Y-110605151D01*
X138814612Y-110694400D01*
X138814606Y-110694405D01*
X138789095Y-110719917D01*
X138726783Y-110753943D01*
X138655968Y-110748878D01*
X138610905Y-110719917D01*
X138585393Y-110694405D01*
X138585387Y-110694400D01*
X138440692Y-110605151D01*
X138279314Y-110551676D01*
X138279311Y-110551675D01*
X138279309Y-110551675D01*
X138179719Y-110541500D01*
X137645289Y-110541500D01*
X137545690Y-110551675D01*
X137545687Y-110551675D01*
X137545686Y-110551676D01*
X137465723Y-110578172D01*
X137384307Y-110605151D01*
X137239612Y-110694400D01*
X137239606Y-110694405D01*
X137119405Y-110814606D01*
X137119400Y-110814612D01*
X137030151Y-110959307D01*
X137013073Y-111010845D01*
X136988503Y-111084996D01*
X136976675Y-111120690D01*
X136966500Y-111220280D01*
X129909439Y-111220280D01*
X129903428Y-111201779D01*
X129903425Y-111201773D01*
X129902968Y-111200747D01*
X129774440Y-110912067D01*
X129774439Y-110912065D01*
X129774436Y-110912059D01*
X129615874Y-110637423D01*
X129429482Y-110380878D01*
X129429481Y-110380877D01*
X129354111Y-110297171D01*
X129217287Y-110145213D01*
X128981622Y-109933018D01*
X128981621Y-109933017D01*
X128725075Y-109746625D01*
X128725076Y-109746625D01*
X128450440Y-109588063D01*
X128450434Y-109588060D01*
X128160730Y-109459076D01*
X128131392Y-109449543D01*
X128072787Y-109409468D01*
X128045151Y-109344071D01*
X128052275Y-109285677D01*
X128091988Y-109179204D01*
X128091990Y-109179196D01*
X128098499Y-109118649D01*
X128098500Y-109118632D01*
X128098500Y-106021367D01*
X128098499Y-106021350D01*
X128091990Y-105960803D01*
X128091988Y-105960795D01*
X128040889Y-105823797D01*
X128040887Y-105823792D01*
X127953261Y-105706738D01*
X127836207Y-105619112D01*
X127836202Y-105619110D01*
X127699204Y-105568011D01*
X127699196Y-105568009D01*
X127638649Y-105561500D01*
X127638638Y-105561500D01*
X114541362Y-105561500D01*
X114541350Y-105561500D01*
X114480803Y-105568009D01*
X114480795Y-105568011D01*
X114343797Y-105619110D01*
X114343792Y-105619112D01*
X114226738Y-105706738D01*
X114139112Y-105823792D01*
X114139110Y-105823797D01*
X114088011Y-105960795D01*
X114088009Y-105960803D01*
X114081500Y-106021350D01*
X114081500Y-108343629D01*
X114061498Y-108411750D01*
X114044595Y-108432724D01*
X112010838Y-110466480D01*
X112010833Y-110466486D01*
X111939673Y-110572986D01*
X111927826Y-110590716D01*
X111894633Y-110670852D01*
X111894632Y-110670853D01*
X111870652Y-110728742D01*
X111870649Y-110728752D01*
X111841500Y-110875290D01*
X111841500Y-118564709D01*
X111846428Y-118589480D01*
X111861302Y-118664258D01*
X111870649Y-118711247D01*
X111927826Y-118849284D01*
X112010834Y-118973515D01*
X112010838Y-118973519D01*
X114074595Y-121037276D01*
X114108621Y-121099588D01*
X114111500Y-121126371D01*
X114111500Y-123468649D01*
X114118009Y-123529196D01*
X114118011Y-123529204D01*
X114169110Y-123666202D01*
X114169112Y-123666207D01*
X114256738Y-123783261D01*
X114373792Y-123870887D01*
X114373794Y-123870888D01*
X114373796Y-123870889D01*
X114432875Y-123892924D01*
X114510795Y-123921988D01*
X114510803Y-123921990D01*
X114571350Y-123928499D01*
X114571355Y-123928499D01*
X114571362Y-123928500D01*
X125573130Y-123928500D01*
X125641251Y-123948502D01*
X125687744Y-124002158D01*
X125697847Y-124072428D01*
X125690521Y-124123395D01*
X125686500Y-124151364D01*
X125686500Y-143376007D01*
X125698237Y-143485164D01*
X125709441Y-143536667D01*
X125744109Y-143640825D01*
X125823130Y-143763784D01*
X125823131Y-143763786D01*
X125868880Y-143816582D01*
X125868882Y-143816583D01*
X125868884Y-143816586D01*
X125979339Y-143912297D01*
X126057194Y-143947853D01*
X126112284Y-143973013D01*
X126112286Y-143973013D01*
X126112287Y-143973014D01*
X126179326Y-143992699D01*
X126179330Y-143992700D01*
X126324000Y-144013500D01*
X126324004Y-144013500D01*
X161648650Y-144013500D01*
X161694536Y-144011039D01*
X161703533Y-144010557D01*
X161729891Y-144007723D01*
X161770797Y-144001094D01*
X161784145Y-143998932D01*
X161784146Y-143998931D01*
X161784149Y-143998931D01*
X161921091Y-143947854D01*
X161982414Y-143914369D01*
X162099418Y-143826780D01*
X162226780Y-143699418D01*
X162263517Y-143658520D01*
X162280151Y-143637878D01*
X162312353Y-143593212D01*
X162317091Y-143582831D01*
X162335522Y-143554155D01*
X162359388Y-143490165D01*
X162373043Y-143460251D01*
X162373805Y-143457654D01*
X162373804Y-143457653D01*
X162380982Y-143433192D01*
X162380996Y-143433144D01*
X162382258Y-143428848D01*
X162386598Y-143417213D01*
X162389221Y-143405152D01*
X162392059Y-143395490D01*
X162392568Y-143393863D01*
X162392699Y-143393310D01*
X162392700Y-143393308D01*
X162413500Y-143248638D01*
X162413500Y-124151362D01*
X162413500Y-124151349D01*
X162410558Y-124096487D01*
X162410557Y-124096467D01*
X162410554Y-124096444D01*
X162410422Y-124094795D01*
X162410467Y-124094791D01*
X162410467Y-124094783D01*
X162410777Y-124094766D01*
X162411358Y-124094719D01*
X162423230Y-124028288D01*
X162471522Y-123976245D01*
X162535996Y-123958500D01*
X174398632Y-123958500D01*
X174398638Y-123958500D01*
X174398645Y-123958499D01*
X174398649Y-123958499D01*
X174459196Y-123951990D01*
X174459199Y-123951989D01*
X174459201Y-123951989D01*
X174596204Y-123900889D01*
X174713261Y-123813261D01*
X174800889Y-123696204D01*
X174851989Y-123559201D01*
X174855215Y-123529201D01*
X174858499Y-123498649D01*
X174858500Y-123498632D01*
X174858500Y-120559500D01*
X174878502Y-120491379D01*
X174932158Y-120444886D01*
X174984500Y-120433500D01*
X176322426Y-120433500D01*
X176347007Y-120435921D01*
X176460515Y-120458499D01*
X176460518Y-120458499D01*
X176460521Y-120458500D01*
X176460522Y-120458500D01*
X176639478Y-120458500D01*
X176639479Y-120458500D01*
X176815000Y-120423587D01*
X176980336Y-120355102D01*
X177129135Y-120255678D01*
X177255678Y-120129135D01*
X177355102Y-119980336D01*
X177423587Y-119815000D01*
X177458500Y-119639479D01*
X177458500Y-119460521D01*
X177423587Y-119285000D01*
X177355102Y-119119664D01*
X177255678Y-118970865D01*
X177129135Y-118844322D01*
X176980336Y-118744898D01*
X176863429Y-118696473D01*
X176815003Y-118676414D01*
X176815001Y-118676413D01*
X176815000Y-118676413D01*
X176726645Y-118658838D01*
X176639481Y-118641500D01*
X176639479Y-118641500D01*
X176460521Y-118641500D01*
X176460518Y-118641500D01*
X176329771Y-118667507D01*
X176285000Y-118676413D01*
X176284999Y-118676413D01*
X176284996Y-118676414D01*
X176119662Y-118744899D01*
X175970869Y-118844319D01*
X175970862Y-118844324D01*
X175935592Y-118879595D01*
X175873280Y-118913621D01*
X175846497Y-118916500D01*
X174733680Y-118916500D01*
X174665559Y-118896498D01*
X174619066Y-118842842D01*
X174608962Y-118772568D01*
X174638456Y-118707988D01*
X174698182Y-118669604D01*
X174705627Y-118667662D01*
X174720536Y-118664260D01*
X174986474Y-118571204D01*
X175240321Y-118448958D01*
X175478884Y-118299058D01*
X175543799Y-118247290D01*
X175699160Y-118123395D01*
X175898395Y-117924160D01*
X176074057Y-117703885D01*
X176075400Y-117701749D01*
X176223958Y-117465321D01*
X176346204Y-117211474D01*
X176439260Y-116945536D01*
X176501955Y-116670852D01*
X176533500Y-116390874D01*
X176533500Y-116109126D01*
X176531589Y-116092169D01*
X176520543Y-115994127D01*
X176501955Y-115829148D01*
X176439260Y-115554464D01*
X176432409Y-115534886D01*
X176346210Y-115288543D01*
X176346209Y-115288542D01*
X176346204Y-115288526D01*
X176223958Y-115034679D01*
X176223957Y-115034678D01*
X176223956Y-115034675D01*
X176074057Y-114796114D01*
X175898395Y-114575839D01*
X175699160Y-114376604D01*
X175478885Y-114200942D01*
X175240324Y-114051043D01*
X174986483Y-113928800D01*
X174986478Y-113928798D01*
X174986474Y-113928796D01*
X174986468Y-113928793D01*
X174986456Y-113928789D01*
X174720542Y-113835741D01*
X174445854Y-113773045D01*
X174445857Y-113773045D01*
X174165876Y-113741500D01*
X174165874Y-113741500D01*
X173884126Y-113741500D01*
X173884124Y-113741500D01*
X173604144Y-113773045D01*
X173329457Y-113835741D01*
X173063543Y-113928789D01*
X173063516Y-113928800D01*
X172809675Y-114051043D01*
X172701536Y-114118993D01*
X172633215Y-114138299D01*
X172565302Y-114117604D01*
X172519359Y-114063477D01*
X172508500Y-114012306D01*
X172508500Y-112485367D01*
X172508500Y-112485364D01*
X172498030Y-112352331D01*
X172442679Y-112132664D01*
X172378241Y-111990799D01*
X172353627Y-111936608D01*
X172343666Y-111866313D01*
X172373291Y-111801793D01*
X172433096Y-111763532D01*
X172468347Y-111758500D01*
X174324706Y-111758500D01*
X174443933Y-111734784D01*
X174471247Y-111729351D01*
X174609284Y-111672174D01*
X174733515Y-111589166D01*
X176739166Y-109583515D01*
X176822174Y-109459284D01*
X176879351Y-109321246D01*
X176886064Y-109287500D01*
X176908500Y-109174706D01*
X176908500Y-76075294D01*
X176879351Y-75928754D01*
X176839008Y-75831358D01*
X176822174Y-75790716D01*
X176739166Y-75666485D01*
X170866276Y-69793595D01*
X170832250Y-69731283D01*
X170837315Y-69660468D01*
X170879862Y-69603632D01*
X170946382Y-69578821D01*
X170955371Y-69578500D01*
X174408632Y-69578500D01*
X174408638Y-69578500D01*
X174408645Y-69578499D01*
X174408649Y-69578499D01*
X174469196Y-69571990D01*
X174469199Y-69571989D01*
X174469201Y-69571989D01*
X174606204Y-69520889D01*
X174723261Y-69433261D01*
X174810889Y-69316204D01*
X174861989Y-69179201D01*
X174868500Y-69118638D01*
X174868500Y-66021362D01*
X174868499Y-66021350D01*
X174861990Y-65960803D01*
X174861989Y-65960802D01*
X174861989Y-65960799D01*
X174856294Y-65945532D01*
X174851229Y-65874720D01*
X174885252Y-65812407D01*
X174947564Y-65778380D01*
X174974350Y-65775500D01*
X179498500Y-65775500D01*
X179566621Y-65795502D01*
X179613114Y-65849158D01*
X179624500Y-65901500D01*
X179624500Y-163598500D01*
X179604498Y-163666621D01*
X179550842Y-163713114D01*
X179498500Y-163724500D01*
X174971810Y-163724500D01*
X174903689Y-163704498D01*
X174857196Y-163650842D01*
X174847092Y-163580568D01*
X174850566Y-163566960D01*
X174850177Y-163566868D01*
X174851990Y-163559196D01*
X174858499Y-163498649D01*
X174858500Y-163498632D01*
X174858500Y-160401367D01*
X174858499Y-160401350D01*
X174851990Y-160340803D01*
X174851988Y-160340795D01*
X174800889Y-160203797D01*
X174800887Y-160203792D01*
X174713261Y-160086738D01*
X174596207Y-159999112D01*
X174596202Y-159999110D01*
X174459204Y-159948011D01*
X174459196Y-159948009D01*
X174398649Y-159941500D01*
X174398638Y-159941500D01*
X168884500Y-159941500D01*
X168816379Y-159921498D01*
X168769886Y-159867842D01*
X168758500Y-159815500D01*
X168758500Y-156928302D01*
X168778502Y-156860181D01*
X168779735Y-156858300D01*
X168805102Y-156820336D01*
X168873587Y-156655000D01*
X168908500Y-156479479D01*
X168908500Y-156300521D01*
X168873587Y-156125000D01*
X168805102Y-155959664D01*
X168705678Y-155810865D01*
X168579135Y-155684322D01*
X168430336Y-155584898D01*
X168313429Y-155536473D01*
X168265003Y-155516414D01*
X168265001Y-155516413D01*
X168265000Y-155516413D01*
X168176645Y-155498838D01*
X168089481Y-155481500D01*
X168089479Y-155481500D01*
X167910521Y-155481500D01*
X167910518Y-155481500D01*
X167779771Y-155507507D01*
X167735000Y-155516413D01*
X167734999Y-155516413D01*
X167734996Y-155516414D01*
X167569662Y-155584899D01*
X167420869Y-155684319D01*
X167420862Y-155684324D01*
X167294324Y-155810862D01*
X167294319Y-155810869D01*
X167194899Y-155959662D01*
X167126414Y-156124996D01*
X167126413Y-156124999D01*
X167126413Y-156125000D01*
X167119347Y-156160522D01*
X167091500Y-156300518D01*
X167091500Y-156479481D01*
X167098566Y-156515003D01*
X167125485Y-156650337D01*
X167126414Y-156655003D01*
X167136908Y-156680337D01*
X167194898Y-156820336D01*
X167194899Y-156820337D01*
X167220265Y-156858300D01*
X167241480Y-156926053D01*
X167241500Y-156928302D01*
X167241500Y-159815500D01*
X167221498Y-159883621D01*
X167167842Y-159930114D01*
X167115500Y-159941500D01*
X161301350Y-159941500D01*
X161240803Y-159948009D01*
X161240795Y-159948011D01*
X161103797Y-159999110D01*
X161103792Y-159999112D01*
X160986738Y-160086738D01*
X160899112Y-160203792D01*
X160899110Y-160203797D01*
X160848011Y-160340795D01*
X160848009Y-160340803D01*
X160841500Y-160401350D01*
X160841500Y-163498649D01*
X160848009Y-163559196D01*
X160849823Y-163566868D01*
X160847175Y-163567493D01*
X160851313Y-163625274D01*
X160817292Y-163687589D01*
X160754983Y-163721618D01*
X160728190Y-163724500D01*
X151568080Y-163724500D01*
X151499959Y-163704498D01*
X151453466Y-163650842D01*
X151443362Y-163580568D01*
X151450026Y-163554464D01*
X151450059Y-163554372D01*
X151451989Y-163549201D01*
X151454140Y-163529201D01*
X151458499Y-163488649D01*
X151458500Y-163488632D01*
X151458500Y-160391367D01*
X151458499Y-160391350D01*
X151451990Y-160330803D01*
X151451988Y-160330795D01*
X151400889Y-160193797D01*
X151400887Y-160193792D01*
X151313261Y-160076738D01*
X151196207Y-159989112D01*
X151196202Y-159989110D01*
X151059204Y-159938011D01*
X151059196Y-159938009D01*
X150998649Y-159931500D01*
X150998638Y-159931500D01*
X145334500Y-159931500D01*
X145266379Y-159911498D01*
X145219886Y-159857842D01*
X145208500Y-159805500D01*
X145208500Y-156788302D01*
X145228502Y-156720181D01*
X145229735Y-156718300D01*
X145255102Y-156680336D01*
X145323587Y-156515000D01*
X145358500Y-156339479D01*
X145358500Y-156160521D01*
X145323587Y-155985000D01*
X145255102Y-155819664D01*
X145155678Y-155670865D01*
X145029135Y-155544322D01*
X144880336Y-155444898D01*
X144759786Y-155394964D01*
X144715003Y-155376414D01*
X144715001Y-155376413D01*
X144715000Y-155376413D01*
X144626645Y-155358838D01*
X144539481Y-155341500D01*
X144539479Y-155341500D01*
X144360521Y-155341500D01*
X144360518Y-155341500D01*
X144229771Y-155367507D01*
X144185000Y-155376413D01*
X144184999Y-155376413D01*
X144184996Y-155376414D01*
X144019662Y-155444899D01*
X143870869Y-155544319D01*
X143870862Y-155544324D01*
X143744324Y-155670862D01*
X143744319Y-155670869D01*
X143644899Y-155819662D01*
X143576414Y-155984996D01*
X143541500Y-156160518D01*
X143541500Y-156160521D01*
X143541500Y-156339479D01*
X143576413Y-156515000D01*
X143644898Y-156680336D01*
X143670265Y-156718300D01*
X143691480Y-156786053D01*
X143691500Y-156788302D01*
X143691500Y-159805500D01*
X143671498Y-159873621D01*
X143617842Y-159920114D01*
X143565500Y-159931500D01*
X137901350Y-159931500D01*
X137840803Y-159938009D01*
X137840795Y-159938011D01*
X137703797Y-159989110D01*
X137703792Y-159989112D01*
X137586738Y-160076738D01*
X137499112Y-160193792D01*
X137499110Y-160193797D01*
X137448011Y-160330795D01*
X137448009Y-160330803D01*
X137441500Y-160391350D01*
X137441500Y-163488649D01*
X137448009Y-163549196D01*
X137448011Y-163549201D01*
X137449974Y-163554464D01*
X137455041Y-163625280D01*
X137421018Y-163687593D01*
X137358707Y-163721620D01*
X137331920Y-163724500D01*
X128230621Y-163724500D01*
X128162500Y-163704498D01*
X128116007Y-163650842D01*
X128105903Y-163580568D01*
X128112565Y-163554468D01*
X128121989Y-163529200D01*
X128121990Y-163529196D01*
X128128499Y-163468649D01*
X128128500Y-163468632D01*
X128128500Y-160371367D01*
X128128499Y-160371350D01*
X128121990Y-160310803D01*
X128121988Y-160310795D01*
X128082079Y-160203797D01*
X128070889Y-160173796D01*
X128070888Y-160173794D01*
X128070887Y-160173792D01*
X127983261Y-160056738D01*
X127866207Y-159969112D01*
X127866202Y-159969110D01*
X127729204Y-159918011D01*
X127729196Y-159918009D01*
X127668649Y-159911500D01*
X127668638Y-159911500D01*
X122004500Y-159911500D01*
X121936379Y-159891498D01*
X121889886Y-159837842D01*
X121878500Y-159785500D01*
X121878500Y-156758302D01*
X121898502Y-156690181D01*
X121899735Y-156688300D01*
X121925102Y-156650336D01*
X121993587Y-156485000D01*
X122028500Y-156309479D01*
X122028500Y-156130521D01*
X121993587Y-155955000D01*
X121925102Y-155789664D01*
X121825678Y-155640865D01*
X121699135Y-155514322D01*
X121550336Y-155414898D01*
X121433429Y-155366473D01*
X121385003Y-155346414D01*
X121385001Y-155346413D01*
X121385000Y-155346413D01*
X121296645Y-155328838D01*
X121209481Y-155311500D01*
X121209479Y-155311500D01*
X121030521Y-155311500D01*
X121030518Y-155311500D01*
X120899771Y-155337507D01*
X120855000Y-155346413D01*
X120854999Y-155346413D01*
X120854996Y-155346414D01*
X120689662Y-155414899D01*
X120540869Y-155514319D01*
X120540862Y-155514324D01*
X120414324Y-155640862D01*
X120414319Y-155640869D01*
X120385284Y-155684324D01*
X120314898Y-155789664D01*
X120300716Y-155823902D01*
X120246414Y-155954996D01*
X120246413Y-155954999D01*
X120246413Y-155955000D01*
X120240446Y-155985000D01*
X120211500Y-156130518D01*
X120211500Y-156309481D01*
X120228838Y-156396645D01*
X120245315Y-156479481D01*
X120246414Y-156485003D01*
X120258841Y-156515003D01*
X120314898Y-156650336D01*
X120334944Y-156680337D01*
X120340265Y-156688300D01*
X120361480Y-156756053D01*
X120361500Y-156758302D01*
X120361500Y-159785500D01*
X120341498Y-159853621D01*
X120287842Y-159900114D01*
X120235500Y-159911500D01*
X114571350Y-159911500D01*
X114510803Y-159918009D01*
X114510795Y-159918011D01*
X114373797Y-159969110D01*
X114373792Y-159969112D01*
X114256738Y-160056738D01*
X114169112Y-160173792D01*
X114169110Y-160173797D01*
X114118011Y-160310795D01*
X114118009Y-160310803D01*
X114111500Y-160371350D01*
X114111500Y-163468649D01*
X114118009Y-163529196D01*
X114118010Y-163529200D01*
X114127435Y-163554468D01*
X114132499Y-163625284D01*
X114098474Y-163687596D01*
X114036162Y-163721621D01*
X114009379Y-163724500D01*
X103501500Y-163724500D01*
X103433379Y-163704498D01*
X103386886Y-163650842D01*
X103375500Y-163598500D01*
X103375500Y-146844167D01*
X136824500Y-146844167D01*
X136824500Y-153155832D01*
X136860681Y-153465378D01*
X136860682Y-153465384D01*
X136932557Y-153768645D01*
X136932558Y-153768650D01*
X137039146Y-154061497D01*
X137039151Y-154061509D01*
X137179024Y-154340021D01*
X137350279Y-154600400D01*
X137550610Y-154839147D01*
X137777310Y-155053028D01*
X137920893Y-155159921D01*
X138027297Y-155239136D01*
X138297203Y-155394966D01*
X138583374Y-155518408D01*
X138881942Y-155607793D01*
X139188867Y-155661913D01*
X139500000Y-155680034D01*
X139811133Y-155661913D01*
X140118058Y-155607793D01*
X140416626Y-155518408D01*
X140702797Y-155394966D01*
X140972703Y-155239136D01*
X141222693Y-155053025D01*
X141449386Y-154839151D01*
X141649717Y-154600405D01*
X141820978Y-154340017D01*
X141960850Y-154061507D01*
X142067444Y-153768642D01*
X142139318Y-153465383D01*
X142175500Y-153155830D01*
X142175500Y-153000000D01*
X142175500Y-152991715D01*
X142175500Y-146989438D01*
X142175500Y-146844170D01*
X142175500Y-146844167D01*
X146824500Y-146844167D01*
X146824500Y-153155832D01*
X146860681Y-153465378D01*
X146860682Y-153465384D01*
X146932557Y-153768645D01*
X146932558Y-153768650D01*
X147039146Y-154061497D01*
X147039151Y-154061509D01*
X147179024Y-154340021D01*
X147350279Y-154600400D01*
X147550610Y-154839147D01*
X147777310Y-155053028D01*
X147920893Y-155159921D01*
X148027297Y-155239136D01*
X148297203Y-155394966D01*
X148583374Y-155518408D01*
X148881942Y-155607793D01*
X149188867Y-155661913D01*
X149500000Y-155680034D01*
X149811133Y-155661913D01*
X150118058Y-155607793D01*
X150416626Y-155518408D01*
X150702797Y-155394966D01*
X150972703Y-155239136D01*
X151222693Y-155053025D01*
X151449386Y-154839151D01*
X151649717Y-154600405D01*
X151820978Y-154340017D01*
X151960850Y-154061507D01*
X152067444Y-153768642D01*
X152139318Y-153465383D01*
X152175500Y-153155830D01*
X152175500Y-153000000D01*
X152175500Y-152991715D01*
X152175500Y-146989438D01*
X152175500Y-146844170D01*
X152139318Y-146534617D01*
X152067444Y-146231358D01*
X151960850Y-145938493D01*
X151820978Y-145659983D01*
X151820975Y-145659978D01*
X151649720Y-145399599D01*
X151449389Y-145160852D01*
X151222689Y-144946971D01*
X150972718Y-144760875D01*
X150972715Y-144760873D01*
X150972703Y-144760864D01*
X150702797Y-144605034D01*
X150702798Y-144605034D01*
X150702794Y-144605032D01*
X150416633Y-144481595D01*
X150416632Y-144481594D01*
X150416626Y-144481592D01*
X150118058Y-144392207D01*
X150118059Y-144392207D01*
X150023309Y-144375500D01*
X149811133Y-144338087D01*
X149811129Y-144338086D01*
X149811125Y-144338086D01*
X149500000Y-144319966D01*
X149188877Y-144338086D01*
X149188871Y-144338086D01*
X148881941Y-144392207D01*
X148754360Y-144430402D01*
X148583374Y-144481592D01*
X148583372Y-144481593D01*
X148583366Y-144481595D01*
X148297205Y-144605032D01*
X148297200Y-144605035D01*
X148027308Y-144760857D01*
X148027281Y-144760875D01*
X147777310Y-144946971D01*
X147550610Y-145160852D01*
X147350279Y-145399599D01*
X147179024Y-145659978D01*
X147039151Y-145938490D01*
X147039146Y-145938502D01*
X146932558Y-146231349D01*
X146932557Y-146231354D01*
X146860682Y-146534615D01*
X146860681Y-146534621D01*
X146824500Y-146844167D01*
X142175500Y-146844167D01*
X142139318Y-146534617D01*
X142067444Y-146231358D01*
X141960850Y-145938493D01*
X141820978Y-145659983D01*
X141820975Y-145659978D01*
X141649720Y-145399599D01*
X141449389Y-145160852D01*
X141222689Y-144946971D01*
X140972718Y-144760875D01*
X140972715Y-144760873D01*
X140972703Y-144760864D01*
X140702797Y-144605034D01*
X140702798Y-144605034D01*
X140702794Y-144605032D01*
X140416633Y-144481595D01*
X140416632Y-144481594D01*
X140416626Y-144481592D01*
X140118058Y-144392207D01*
X140118059Y-144392207D01*
X140023309Y-144375500D01*
X139811133Y-144338087D01*
X139811129Y-144338086D01*
X139811125Y-144338086D01*
X139500000Y-144319966D01*
X139188877Y-144338086D01*
X139188871Y-144338086D01*
X138881941Y-144392207D01*
X138754360Y-144430402D01*
X138583374Y-144481592D01*
X138583372Y-144481593D01*
X138583366Y-144481595D01*
X138297205Y-144605032D01*
X138297200Y-144605035D01*
X138027308Y-144760857D01*
X138027281Y-144760875D01*
X137777310Y-144946971D01*
X137550610Y-145160852D01*
X137350279Y-145399599D01*
X137179024Y-145659978D01*
X137039151Y-145938490D01*
X137039146Y-145938502D01*
X136932558Y-146231349D01*
X136932557Y-146231354D01*
X136860682Y-146534615D01*
X136860681Y-146534621D01*
X136824500Y-146844167D01*
X103375500Y-146844167D01*
X103375500Y-122109124D01*
X104141500Y-122109124D01*
X104141500Y-122390875D01*
X104173045Y-122670855D01*
X104235741Y-122945542D01*
X104328789Y-123211456D01*
X104328800Y-123211483D01*
X104451043Y-123465324D01*
X104600942Y-123703885D01*
X104776604Y-123924160D01*
X104975839Y-124123395D01*
X105196114Y-124299057D01*
X105434675Y-124448956D01*
X105434678Y-124448957D01*
X105434679Y-124448958D01*
X105688526Y-124571204D01*
X105688542Y-124571209D01*
X105688543Y-124571210D01*
X105954457Y-124664258D01*
X105954460Y-124664258D01*
X105954464Y-124664260D01*
X106229144Y-124726954D01*
X106229145Y-124726954D01*
X106229148Y-124726955D01*
X106394271Y-124745559D01*
X106509124Y-124758500D01*
X106509126Y-124758500D01*
X106790876Y-124758500D01*
X106861977Y-124750488D01*
X107070852Y-124726955D01*
X107345536Y-124664260D01*
X107611474Y-124571204D01*
X107865321Y-124448958D01*
X108103884Y-124299058D01*
X108147940Y-124263924D01*
X108324160Y-124123395D01*
X108523395Y-123924160D01*
X108699057Y-123703885D01*
X108703882Y-123696207D01*
X108848958Y-123465321D01*
X108971204Y-123211474D01*
X109064260Y-122945536D01*
X109126955Y-122670852D01*
X109158500Y-122390874D01*
X109158500Y-122109126D01*
X109126955Y-121829148D01*
X109064260Y-121554464D01*
X109003393Y-121380518D01*
X108971210Y-121288543D01*
X108971209Y-121288542D01*
X108971204Y-121288526D01*
X108848958Y-121034679D01*
X108848957Y-121034678D01*
X108848956Y-121034675D01*
X108699057Y-120796114D01*
X108523395Y-120575839D01*
X108324160Y-120376604D01*
X108103885Y-120200942D01*
X107865324Y-120051043D01*
X107611483Y-119928800D01*
X107611478Y-119928798D01*
X107611474Y-119928796D01*
X107611468Y-119928793D01*
X107611456Y-119928789D01*
X107345542Y-119835741D01*
X107070854Y-119773045D01*
X107070857Y-119773045D01*
X106790876Y-119741500D01*
X106790874Y-119741500D01*
X106509126Y-119741500D01*
X106509124Y-119741500D01*
X106229144Y-119773045D01*
X105954457Y-119835741D01*
X105688543Y-119928789D01*
X105688516Y-119928800D01*
X105434675Y-120051043D01*
X105196114Y-120200942D01*
X104975839Y-120376604D01*
X104776604Y-120575839D01*
X104600942Y-120796114D01*
X104451043Y-121034675D01*
X104328800Y-121288516D01*
X104328789Y-121288543D01*
X104235741Y-121554457D01*
X104173045Y-121829144D01*
X104141500Y-122109124D01*
X103375500Y-122109124D01*
X103375500Y-110109124D01*
X104141500Y-110109124D01*
X104141500Y-110390875D01*
X104173045Y-110670852D01*
X104235741Y-110945542D01*
X104328789Y-111211456D01*
X104328800Y-111211483D01*
X104451043Y-111465324D01*
X104600942Y-111703885D01*
X104776604Y-111924160D01*
X104975839Y-112123395D01*
X105196114Y-112299057D01*
X105434675Y-112448956D01*
X105434678Y-112448957D01*
X105434679Y-112448958D01*
X105688526Y-112571204D01*
X105688542Y-112571209D01*
X105688543Y-112571210D01*
X105954457Y-112664258D01*
X105954460Y-112664258D01*
X105954464Y-112664260D01*
X106229144Y-112726954D01*
X106229145Y-112726954D01*
X106229148Y-112726955D01*
X106394271Y-112745559D01*
X106509124Y-112758500D01*
X106509126Y-112758500D01*
X106790876Y-112758500D01*
X106861977Y-112750488D01*
X107070852Y-112726955D01*
X107345536Y-112664260D01*
X107611474Y-112571204D01*
X107865321Y-112448958D01*
X108103884Y-112299058D01*
X108214328Y-112210982D01*
X108324160Y-112123395D01*
X108523395Y-111924160D01*
X108699057Y-111703885D01*
X108701546Y-111699925D01*
X108848958Y-111465321D01*
X108971204Y-111211474D01*
X109064260Y-110945536D01*
X109126955Y-110670852D01*
X109139850Y-110556400D01*
X109158500Y-110390875D01*
X109158500Y-110109124D01*
X109149323Y-110027681D01*
X109126955Y-109829148D01*
X109064260Y-109554464D01*
X109030882Y-109459076D01*
X108971210Y-109288543D01*
X108971209Y-109288542D01*
X108971204Y-109288526D01*
X108848958Y-109034679D01*
X108848957Y-109034678D01*
X108848956Y-109034675D01*
X108699057Y-108796114D01*
X108523395Y-108575839D01*
X108324160Y-108376604D01*
X108103885Y-108200942D01*
X107865324Y-108051043D01*
X107611483Y-107928800D01*
X107611478Y-107928798D01*
X107611474Y-107928796D01*
X107611468Y-107928793D01*
X107611456Y-107928789D01*
X107345542Y-107835741D01*
X107070854Y-107773045D01*
X107070857Y-107773045D01*
X106790876Y-107741500D01*
X106790874Y-107741500D01*
X106509126Y-107741500D01*
X106509124Y-107741500D01*
X106229144Y-107773045D01*
X105954457Y-107835741D01*
X105688543Y-107928789D01*
X105688516Y-107928800D01*
X105434675Y-108051043D01*
X105196114Y-108200942D01*
X104975839Y-108376604D01*
X104776604Y-108575839D01*
X104600942Y-108796114D01*
X104451043Y-109034675D01*
X104328800Y-109288516D01*
X104328789Y-109288543D01*
X104235741Y-109554457D01*
X104173045Y-109829144D01*
X104141500Y-110109124D01*
X103375500Y-110109124D01*
X103375500Y-98109124D01*
X104141500Y-98109124D01*
X104141500Y-98390875D01*
X104173045Y-98670855D01*
X104235741Y-98945542D01*
X104328789Y-99211456D01*
X104328800Y-99211483D01*
X104451043Y-99465324D01*
X104600942Y-99703885D01*
X104776604Y-99924160D01*
X104975839Y-100123395D01*
X105196114Y-100299057D01*
X105434675Y-100448956D01*
X105434678Y-100448957D01*
X105434679Y-100448958D01*
X105688526Y-100571204D01*
X105688542Y-100571209D01*
X105688543Y-100571210D01*
X105954457Y-100664258D01*
X105954460Y-100664258D01*
X105954464Y-100664260D01*
X106229144Y-100726954D01*
X106229145Y-100726954D01*
X106229148Y-100726955D01*
X106394271Y-100745559D01*
X106509124Y-100758500D01*
X106509126Y-100758500D01*
X106790876Y-100758500D01*
X106861977Y-100750488D01*
X107070852Y-100726955D01*
X107345536Y-100664260D01*
X107611474Y-100571204D01*
X107865321Y-100448958D01*
X108103884Y-100299058D01*
X108147940Y-100263924D01*
X108324160Y-100123395D01*
X108523395Y-99924160D01*
X108699057Y-99703885D01*
X108848956Y-99465324D01*
X108848955Y-99465324D01*
X108848958Y-99465321D01*
X108971204Y-99211474D01*
X109064260Y-98945536D01*
X109126955Y-98670852D01*
X109158500Y-98390874D01*
X109158500Y-98109126D01*
X109126955Y-97829148D01*
X109064260Y-97554464D01*
X109059488Y-97540827D01*
X108971210Y-97288543D01*
X108971209Y-97288542D01*
X108971204Y-97288526D01*
X108848958Y-97034679D01*
X108848957Y-97034678D01*
X108848956Y-97034675D01*
X108699057Y-96796114D01*
X108523395Y-96575839D01*
X108324160Y-96376604D01*
X108103885Y-96200942D01*
X107865324Y-96051043D01*
X107611483Y-95928800D01*
X107611478Y-95928798D01*
X107611474Y-95928796D01*
X107611468Y-95928793D01*
X107611456Y-95928789D01*
X107345542Y-95835741D01*
X107070854Y-95773045D01*
X107070857Y-95773045D01*
X106790876Y-95741500D01*
X106790874Y-95741500D01*
X106509126Y-95741500D01*
X106509124Y-95741500D01*
X106229144Y-95773045D01*
X105954457Y-95835741D01*
X105688543Y-95928789D01*
X105688516Y-95928800D01*
X105434675Y-96051043D01*
X105196114Y-96200942D01*
X104975839Y-96376604D01*
X104776604Y-96575839D01*
X104600942Y-96796114D01*
X104451043Y-97034675D01*
X104328800Y-97288516D01*
X104328789Y-97288543D01*
X104235741Y-97554457D01*
X104173045Y-97829144D01*
X104141500Y-98109124D01*
X103375500Y-98109124D01*
X103375500Y-65901500D01*
X103395502Y-65833379D01*
X103449158Y-65786886D01*
X103501500Y-65775500D01*
X113975650Y-65775500D01*
X114043771Y-65795502D01*
G37*
%TD.AperFunction*%
%TA.AperFunction,Conductor*%
G36*
X160813771Y-65795502D02*
G01*
X160860264Y-65849158D01*
X160870368Y-65919432D01*
X160863706Y-65945528D01*
X160858011Y-65960799D01*
X160858010Y-65960802D01*
X160858009Y-65960803D01*
X160851500Y-66021350D01*
X160851500Y-69118649D01*
X160858009Y-69179196D01*
X160858011Y-69179204D01*
X160909110Y-69316202D01*
X160909112Y-69316207D01*
X160996738Y-69433261D01*
X161113792Y-69520887D01*
X161113794Y-69520888D01*
X161113796Y-69520889D01*
X161172875Y-69542924D01*
X161250795Y-69571988D01*
X161250803Y-69571990D01*
X161311350Y-69578499D01*
X161311355Y-69578499D01*
X161311362Y-69578500D01*
X168453629Y-69578500D01*
X168521750Y-69598502D01*
X168542724Y-69615405D01*
X175354595Y-76427276D01*
X175388621Y-76489588D01*
X175391500Y-76516371D01*
X175391500Y-108733629D01*
X175371498Y-108801750D01*
X175354595Y-108822724D01*
X175083595Y-109093724D01*
X175021283Y-109127750D01*
X174950468Y-109122685D01*
X174893632Y-109080138D01*
X174868821Y-109013618D01*
X174868500Y-109004629D01*
X174868500Y-106021367D01*
X174868499Y-106021350D01*
X174861990Y-105960803D01*
X174861988Y-105960795D01*
X174810889Y-105823797D01*
X174810887Y-105823792D01*
X174723261Y-105706738D01*
X174606207Y-105619112D01*
X174606202Y-105619110D01*
X174469204Y-105568011D01*
X174469196Y-105568009D01*
X174408649Y-105561500D01*
X174408638Y-105561500D01*
X161311362Y-105561500D01*
X161311350Y-105561500D01*
X161250803Y-105568009D01*
X161250795Y-105568011D01*
X161113797Y-105619110D01*
X161113792Y-105619112D01*
X160996738Y-105706738D01*
X160909112Y-105823792D01*
X160909110Y-105823797D01*
X160858011Y-105960795D01*
X160858009Y-105960803D01*
X160851500Y-106021350D01*
X160851500Y-109118649D01*
X160858009Y-109179196D01*
X160858011Y-109179204D01*
X160909110Y-109316202D01*
X160909112Y-109316207D01*
X160996738Y-109433261D01*
X161113792Y-109520887D01*
X161113794Y-109520888D01*
X161113796Y-109520889D01*
X161172875Y-109542924D01*
X161250795Y-109571988D01*
X161250803Y-109571990D01*
X161311350Y-109578499D01*
X161311355Y-109578499D01*
X161311362Y-109578500D01*
X167015500Y-109578500D01*
X167083621Y-109598502D01*
X167130114Y-109652158D01*
X167141500Y-109704500D01*
X167141500Y-110811696D01*
X167121498Y-110879817D01*
X167120267Y-110881696D01*
X167094898Y-110919664D01*
X167026414Y-111084996D01*
X166991500Y-111260518D01*
X166991500Y-111439484D01*
X166991786Y-111440919D01*
X166991717Y-111441685D01*
X166992107Y-111445643D01*
X166991356Y-111445716D01*
X166985458Y-111511633D01*
X166941903Y-111567700D01*
X166874951Y-111591319D01*
X166868207Y-111591500D01*
X165751350Y-111591500D01*
X165690803Y-111598009D01*
X165690795Y-111598011D01*
X165553797Y-111649110D01*
X165553792Y-111649112D01*
X165436738Y-111736738D01*
X165349112Y-111853792D01*
X165349110Y-111853797D01*
X165298011Y-111990795D01*
X165298009Y-111990803D01*
X165291500Y-112051350D01*
X165291500Y-114648649D01*
X165298009Y-114709196D01*
X165298011Y-114709204D01*
X165349110Y-114846202D01*
X165349112Y-114846207D01*
X165436738Y-114963261D01*
X165553792Y-115050887D01*
X165553794Y-115050888D01*
X165553796Y-115050889D01*
X165605340Y-115070114D01*
X165690795Y-115101988D01*
X165690803Y-115101990D01*
X165751350Y-115108499D01*
X165751355Y-115108499D01*
X165751362Y-115108500D01*
X165751368Y-115108500D01*
X167514629Y-115108500D01*
X167582750Y-115128502D01*
X167629243Y-115182158D01*
X167639347Y-115252432D01*
X167609853Y-115317012D01*
X167603724Y-115323595D01*
X167372724Y-115554595D01*
X167310412Y-115588621D01*
X167283629Y-115591500D01*
X165751350Y-115591500D01*
X165690803Y-115598009D01*
X165690795Y-115598011D01*
X165553797Y-115649110D01*
X165553792Y-115649112D01*
X165436738Y-115736738D01*
X165349112Y-115853792D01*
X165349110Y-115853797D01*
X165298011Y-115990795D01*
X165298009Y-115990803D01*
X165291500Y-116051350D01*
X165291500Y-116465500D01*
X165288908Y-116474325D01*
X165290218Y-116483432D01*
X165279062Y-116507857D01*
X165271498Y-116533621D01*
X165264544Y-116539645D01*
X165260724Y-116548012D01*
X165238138Y-116562526D01*
X165217842Y-116580114D01*
X165207155Y-116582438D01*
X165200998Y-116586396D01*
X165165500Y-116591500D01*
X164934500Y-116591500D01*
X164866379Y-116571498D01*
X164819886Y-116517842D01*
X164808500Y-116465500D01*
X164808500Y-116051367D01*
X164808499Y-116051350D01*
X164801990Y-115990803D01*
X164801988Y-115990795D01*
X164750889Y-115853797D01*
X164750887Y-115853792D01*
X164663261Y-115736738D01*
X164546207Y-115649112D01*
X164546202Y-115649110D01*
X164409204Y-115598011D01*
X164409196Y-115598009D01*
X164348649Y-115591500D01*
X164348638Y-115591500D01*
X162551362Y-115591500D01*
X162551350Y-115591500D01*
X162490803Y-115598009D01*
X162490795Y-115598011D01*
X162353797Y-115649110D01*
X162353792Y-115649112D01*
X162236738Y-115736738D01*
X162149112Y-115853792D01*
X162149110Y-115853797D01*
X162098011Y-115990795D01*
X162098009Y-115990803D01*
X162091500Y-116051350D01*
X162091500Y-116465500D01*
X162071498Y-116533621D01*
X162017842Y-116580114D01*
X161965500Y-116591500D01*
X161684500Y-116591500D01*
X161616379Y-116571498D01*
X161569886Y-116517842D01*
X161558500Y-116465500D01*
X161558500Y-116051367D01*
X161558499Y-116051350D01*
X161551990Y-115990803D01*
X161551988Y-115990795D01*
X161500889Y-115853797D01*
X161500887Y-115853792D01*
X161413261Y-115736738D01*
X161296207Y-115649112D01*
X161296202Y-115649110D01*
X161159204Y-115598011D01*
X161159196Y-115598009D01*
X161098649Y-115591500D01*
X161098638Y-115591500D01*
X159301362Y-115591500D01*
X159301350Y-115591500D01*
X159240803Y-115598009D01*
X159240795Y-115598011D01*
X159103797Y-115649110D01*
X159103792Y-115649112D01*
X158986738Y-115736738D01*
X158899112Y-115853792D01*
X158899110Y-115853797D01*
X158848011Y-115990795D01*
X158848009Y-115990803D01*
X158841500Y-116051350D01*
X158841500Y-117633628D01*
X158821498Y-117701749D01*
X158804595Y-117722723D01*
X157244297Y-119283020D01*
X157181985Y-119317046D01*
X157179786Y-119317503D01*
X157135007Y-119326411D01*
X157135000Y-119326413D01*
X156969663Y-119394898D01*
X156820869Y-119494319D01*
X156820862Y-119494324D01*
X156694324Y-119620862D01*
X156694319Y-119620869D01*
X156594899Y-119769662D01*
X156526414Y-119934996D01*
X156526413Y-119934999D01*
X156526413Y-119935000D01*
X156523825Y-119948011D01*
X156491500Y-120110518D01*
X156491500Y-120289481D01*
X156499718Y-120330795D01*
X156526413Y-120465000D01*
X156594898Y-120630336D01*
X156694322Y-120779135D01*
X156820865Y-120905678D01*
X156969664Y-121005102D01*
X157135000Y-121073587D01*
X157310521Y-121108500D01*
X157310522Y-121108500D01*
X157489478Y-121108500D01*
X157489479Y-121108500D01*
X157665000Y-121073587D01*
X157830336Y-121005102D01*
X157979135Y-120905678D01*
X158105678Y-120779135D01*
X158205102Y-120630336D01*
X158273587Y-120465000D01*
X158273588Y-120464993D01*
X158273589Y-120464993D01*
X158282495Y-120420217D01*
X158315401Y-120357307D01*
X158316979Y-120355701D01*
X159527276Y-119145405D01*
X159589588Y-119111379D01*
X159616371Y-119108500D01*
X161098632Y-119108500D01*
X161098638Y-119108500D01*
X161098645Y-119108499D01*
X161098649Y-119108499D01*
X161159196Y-119101990D01*
X161159199Y-119101989D01*
X161159201Y-119101989D01*
X161296204Y-119050889D01*
X161361415Y-119002073D01*
X161413261Y-118963261D01*
X161500887Y-118846207D01*
X161500887Y-118846206D01*
X161500889Y-118846204D01*
X161551989Y-118709201D01*
X161552120Y-118707988D01*
X161558499Y-118648649D01*
X161558500Y-118648632D01*
X161558500Y-118234500D01*
X161578502Y-118166379D01*
X161632158Y-118119886D01*
X161684500Y-118108500D01*
X161965500Y-118108500D01*
X162033621Y-118128502D01*
X162080114Y-118182158D01*
X162091500Y-118234500D01*
X162091500Y-118648649D01*
X162098009Y-118709196D01*
X162098011Y-118709204D01*
X162149110Y-118846202D01*
X162149112Y-118846207D01*
X162236738Y-118963261D01*
X162353792Y-119050887D01*
X162353794Y-119050888D01*
X162353796Y-119050889D01*
X162408782Y-119071398D01*
X162490795Y-119101988D01*
X162490803Y-119101990D01*
X162551350Y-119108499D01*
X162551355Y-119108499D01*
X162551362Y-119108500D01*
X162551368Y-119108500D01*
X164348632Y-119108500D01*
X164348638Y-119108500D01*
X164348645Y-119108499D01*
X164348649Y-119108499D01*
X164409196Y-119101990D01*
X164409199Y-119101989D01*
X164409201Y-119101989D01*
X164546204Y-119050889D01*
X164611415Y-119002073D01*
X164663261Y-118963261D01*
X164750887Y-118846207D01*
X164750887Y-118846206D01*
X164750889Y-118846204D01*
X164801989Y-118709201D01*
X164802120Y-118707988D01*
X164808499Y-118648649D01*
X164808500Y-118648632D01*
X164808500Y-118234500D01*
X164811091Y-118225674D01*
X164809782Y-118216568D01*
X164820937Y-118192142D01*
X164828502Y-118166379D01*
X164835455Y-118160354D01*
X164839276Y-118151988D01*
X164861861Y-118137473D01*
X164882158Y-118119886D01*
X164892844Y-118117561D01*
X164899002Y-118113604D01*
X164934500Y-118108500D01*
X165165500Y-118108500D01*
X165233621Y-118128502D01*
X165280114Y-118182158D01*
X165291500Y-118234500D01*
X165291500Y-118648649D01*
X165298009Y-118709196D01*
X165298011Y-118709204D01*
X165349110Y-118846202D01*
X165349112Y-118846207D01*
X165436738Y-118963261D01*
X165553792Y-119050887D01*
X165553794Y-119050888D01*
X165553796Y-119050889D01*
X165608782Y-119071398D01*
X165690795Y-119101988D01*
X165690803Y-119101990D01*
X165751350Y-119108499D01*
X165751355Y-119108499D01*
X165751362Y-119108500D01*
X166881660Y-119108500D01*
X166949781Y-119128502D01*
X166996274Y-119182158D01*
X167006378Y-119252432D01*
X166998068Y-119282719D01*
X166976415Y-119334992D01*
X166941500Y-119510518D01*
X166941500Y-119689484D01*
X166961677Y-119790919D01*
X166955349Y-119861633D01*
X166911794Y-119917700D01*
X166844842Y-119941319D01*
X166838098Y-119941500D01*
X161301350Y-119941500D01*
X161240803Y-119948009D01*
X161240795Y-119948011D01*
X161103797Y-119999110D01*
X161103792Y-119999112D01*
X160986738Y-120086738D01*
X160899112Y-120203792D01*
X160899110Y-120203797D01*
X160848011Y-120340795D01*
X160848009Y-120340803D01*
X160841500Y-120401350D01*
X160841500Y-123360500D01*
X160821498Y-123428621D01*
X160767842Y-123475114D01*
X160715500Y-123486500D01*
X151584500Y-123486500D01*
X151516379Y-123466498D01*
X151469886Y-123412842D01*
X151458500Y-123360500D01*
X151458500Y-120391367D01*
X151458499Y-120391352D01*
X151456115Y-120369176D01*
X151468721Y-120299307D01*
X151511393Y-120250941D01*
X151518109Y-120246453D01*
X151579135Y-120205678D01*
X151705678Y-120079135D01*
X151805102Y-119930336D01*
X151873587Y-119765000D01*
X151908500Y-119589479D01*
X151908500Y-119410521D01*
X151907359Y-119404787D01*
X151885339Y-119294081D01*
X151891667Y-119223367D01*
X151935221Y-119167300D01*
X152002174Y-119143681D01*
X152008918Y-119143500D01*
X155552393Y-119143500D01*
X155552394Y-119143500D01*
X155674785Y-119119155D01*
X155790075Y-119071400D01*
X155893833Y-119002071D01*
X156429572Y-118466333D01*
X156498901Y-118362575D01*
X156535577Y-118274030D01*
X156546655Y-118247285D01*
X156571000Y-118124894D01*
X156571000Y-116226358D01*
X156591002Y-116158237D01*
X156644658Y-116111744D01*
X156680555Y-116101436D01*
X156783850Y-116087838D01*
X156931876Y-116026524D01*
X157058987Y-115928987D01*
X157156524Y-115801876D01*
X157217838Y-115653850D01*
X157233500Y-115534885D01*
X157233499Y-115255116D01*
X157221960Y-115167466D01*
X157232899Y-115097321D01*
X157257784Y-115061930D01*
X158065883Y-114253833D01*
X158135212Y-114150075D01*
X158182967Y-114034785D01*
X158207312Y-113912394D01*
X158207312Y-113787606D01*
X158207312Y-113627606D01*
X158182967Y-113505215D01*
X158175092Y-113486204D01*
X158135213Y-113389925D01*
X158065884Y-113286167D01*
X156887645Y-112107929D01*
X156783887Y-112038600D01*
X156668597Y-111990845D01*
X156594898Y-111976185D01*
X156546208Y-111966500D01*
X156546206Y-111966500D01*
X150962394Y-111966500D01*
X150837606Y-111966500D01*
X150837603Y-111966500D01*
X150786930Y-111976580D01*
X150715215Y-111990845D01*
X150715212Y-111990846D01*
X150709145Y-111992053D01*
X150708623Y-111989430D01*
X150649165Y-111989874D01*
X150589155Y-111951936D01*
X150560183Y-111893298D01*
X150548587Y-111835000D01*
X150480102Y-111669664D01*
X150380678Y-111520865D01*
X150254135Y-111394322D01*
X150105336Y-111294898D01*
X149966498Y-111237389D01*
X149940003Y-111226414D01*
X149940001Y-111226413D01*
X149940000Y-111226413D01*
X149851645Y-111208838D01*
X149764481Y-111191500D01*
X149764479Y-111191500D01*
X149585521Y-111191500D01*
X149585515Y-111191500D01*
X149507216Y-111207075D01*
X149436502Y-111200747D01*
X149380435Y-111157192D01*
X149364580Y-111127529D01*
X149325889Y-111023796D01*
X149325887Y-111023792D01*
X149238261Y-110906738D01*
X149121207Y-110819112D01*
X149121202Y-110819110D01*
X148984204Y-110768011D01*
X148984196Y-110768009D01*
X148923649Y-110761500D01*
X148923638Y-110761500D01*
X147226362Y-110761500D01*
X147226350Y-110761500D01*
X147165803Y-110768009D01*
X147165795Y-110768011D01*
X147028797Y-110819110D01*
X147028792Y-110819112D01*
X146911738Y-110906738D01*
X146886987Y-110939803D01*
X146830151Y-110982350D01*
X146810701Y-110987873D01*
X146747632Y-111000418D01*
X146695215Y-111010845D01*
X146695213Y-111010845D01*
X146695212Y-111010846D01*
X146579923Y-111058601D01*
X146476171Y-111127926D01*
X146476164Y-111127931D01*
X146007931Y-111596164D01*
X146007926Y-111596171D01*
X145938601Y-111699923D01*
X145890846Y-111815212D01*
X145866500Y-111937603D01*
X145866500Y-117796497D01*
X145846498Y-117864618D01*
X145829595Y-117885592D01*
X145794324Y-117920862D01*
X145794319Y-117920869D01*
X145694899Y-118069662D01*
X145626414Y-118234996D01*
X145626413Y-118234999D01*
X145626413Y-118235000D01*
X145620830Y-118263067D01*
X145591500Y-118410518D01*
X145591500Y-118410521D01*
X145591500Y-118589479D01*
X145622606Y-118745862D01*
X145626414Y-118765003D01*
X145646473Y-118813429D01*
X145694898Y-118930336D01*
X145794322Y-119079135D01*
X145920865Y-119205678D01*
X146069664Y-119305102D01*
X146235000Y-119373587D01*
X146410521Y-119408500D01*
X146410522Y-119408500D01*
X146589478Y-119408500D01*
X146589479Y-119408500D01*
X146765000Y-119373587D01*
X146930336Y-119305102D01*
X147079135Y-119205678D01*
X147104408Y-119180405D01*
X147166720Y-119146379D01*
X147193503Y-119143500D01*
X149991082Y-119143500D01*
X150059203Y-119163502D01*
X150105696Y-119217158D01*
X150115800Y-119287432D01*
X150114661Y-119294081D01*
X150091500Y-119410515D01*
X150091500Y-119589481D01*
X150101446Y-119639481D01*
X150118763Y-119726543D01*
X150126415Y-119765008D01*
X150127607Y-119768939D01*
X150128232Y-119839933D01*
X150090375Y-119899995D01*
X150026056Y-119930055D01*
X150007028Y-119931500D01*
X145374500Y-119931500D01*
X145306379Y-119911498D01*
X145259886Y-119857842D01*
X145248500Y-119805500D01*
X145248500Y-109704500D01*
X145268502Y-109636379D01*
X145322158Y-109589886D01*
X145374500Y-109578500D01*
X151038632Y-109578500D01*
X151038638Y-109578500D01*
X151038645Y-109578499D01*
X151038649Y-109578499D01*
X151099196Y-109571990D01*
X151099199Y-109571989D01*
X151099201Y-109571989D01*
X151104108Y-109570159D01*
X151118045Y-109564960D01*
X151236204Y-109520889D01*
X151318499Y-109459284D01*
X151353261Y-109433261D01*
X151440887Y-109316207D01*
X151440887Y-109316206D01*
X151440889Y-109316204D01*
X151491989Y-109179201D01*
X151492473Y-109174706D01*
X151498499Y-109118649D01*
X151498500Y-109118632D01*
X151498500Y-106025371D01*
X151518502Y-105957250D01*
X151572158Y-105910757D01*
X151642432Y-105900653D01*
X151707012Y-105930147D01*
X151713595Y-105936276D01*
X158804595Y-113027276D01*
X158838621Y-113089588D01*
X158841500Y-113116371D01*
X158841500Y-114648649D01*
X158848009Y-114709196D01*
X158848011Y-114709204D01*
X158899110Y-114846202D01*
X158899112Y-114846207D01*
X158986738Y-114963261D01*
X159103792Y-115050887D01*
X159103794Y-115050888D01*
X159103796Y-115050889D01*
X159155340Y-115070114D01*
X159240795Y-115101988D01*
X159240803Y-115101990D01*
X159301350Y-115108499D01*
X159301355Y-115108499D01*
X159301362Y-115108500D01*
X159301368Y-115108500D01*
X161098632Y-115108500D01*
X161098638Y-115108500D01*
X161098645Y-115108499D01*
X161098649Y-115108499D01*
X161159196Y-115101990D01*
X161159199Y-115101989D01*
X161159201Y-115101989D01*
X161296204Y-115050889D01*
X161317864Y-115034675D01*
X161413261Y-114963261D01*
X161500887Y-114846207D01*
X161500887Y-114846206D01*
X161500889Y-114846204D01*
X161544960Y-114728045D01*
X161551988Y-114709204D01*
X161551990Y-114709196D01*
X161558499Y-114648649D01*
X161558500Y-114648632D01*
X161558500Y-112835371D01*
X161578502Y-112767250D01*
X161632158Y-112720757D01*
X161702432Y-112710653D01*
X161767012Y-112740147D01*
X161773595Y-112746276D01*
X162054595Y-113027276D01*
X162088621Y-113089588D01*
X162091500Y-113116371D01*
X162091500Y-114648649D01*
X162098009Y-114709196D01*
X162098011Y-114709204D01*
X162149110Y-114846202D01*
X162149112Y-114846207D01*
X162236738Y-114963261D01*
X162353792Y-115050887D01*
X162353794Y-115050888D01*
X162353796Y-115050889D01*
X162405340Y-115070114D01*
X162490795Y-115101988D01*
X162490803Y-115101990D01*
X162551350Y-115108499D01*
X162551355Y-115108499D01*
X162551362Y-115108500D01*
X162551368Y-115108500D01*
X164348632Y-115108500D01*
X164348638Y-115108500D01*
X164348645Y-115108499D01*
X164348649Y-115108499D01*
X164409196Y-115101990D01*
X164409199Y-115101989D01*
X164409201Y-115101989D01*
X164546204Y-115050889D01*
X164567864Y-115034675D01*
X164663261Y-114963261D01*
X164750887Y-114846207D01*
X164750887Y-114846206D01*
X164750889Y-114846204D01*
X164794960Y-114728045D01*
X164801988Y-114709204D01*
X164801990Y-114709196D01*
X164808499Y-114648649D01*
X164808500Y-114648632D01*
X164808500Y-112051367D01*
X164808499Y-112051350D01*
X164801990Y-111990803D01*
X164801988Y-111990795D01*
X164761507Y-111882265D01*
X164750889Y-111853796D01*
X164750888Y-111853794D01*
X164750887Y-111853792D01*
X164663261Y-111736738D01*
X164546207Y-111649112D01*
X164546202Y-111649110D01*
X164409204Y-111598011D01*
X164409196Y-111598009D01*
X164348649Y-111591500D01*
X164348638Y-111591500D01*
X162816371Y-111591500D01*
X162748250Y-111571498D01*
X162727276Y-111554595D01*
X154095405Y-102922724D01*
X154061379Y-102860412D01*
X154058500Y-102833629D01*
X154058500Y-98039500D01*
X154078502Y-97971379D01*
X154132158Y-97924886D01*
X154184500Y-97913500D01*
X154988857Y-97913500D01*
X154988862Y-97913500D01*
X155098019Y-97901764D01*
X155149530Y-97890558D01*
X155253689Y-97855890D01*
X155376644Y-97776871D01*
X155376646Y-97776868D01*
X155376648Y-97776868D01*
X155403046Y-97753993D01*
X155429448Y-97731116D01*
X155525159Y-97620661D01*
X155585876Y-97487713D01*
X155605561Y-97420674D01*
X155605562Y-97420670D01*
X155626362Y-97276000D01*
X155626362Y-89324000D01*
X155614626Y-89214843D01*
X155603420Y-89163332D01*
X155568752Y-89059173D01*
X155489733Y-88936218D01*
X155489732Y-88936217D01*
X155489731Y-88936215D01*
X155489730Y-88936213D01*
X155443981Y-88883417D01*
X155427209Y-88868884D01*
X155333523Y-88787703D01*
X155200577Y-88726986D01*
X155133541Y-88707302D01*
X155133537Y-88707301D01*
X155133534Y-88707300D01*
X155133532Y-88707300D01*
X154988862Y-88686500D01*
X154184500Y-88686500D01*
X154116379Y-88666498D01*
X154069886Y-88612842D01*
X154058500Y-88560500D01*
X154058500Y-74025293D01*
X154058499Y-74025290D01*
X154029351Y-73878754D01*
X153972174Y-73740716D01*
X153889165Y-73616484D01*
X153783516Y-73510835D01*
X150066276Y-69793595D01*
X150032250Y-69731283D01*
X150037315Y-69660468D01*
X150079862Y-69603632D01*
X150146382Y-69578821D01*
X150155371Y-69578500D01*
X151038632Y-69578500D01*
X151038638Y-69578500D01*
X151038645Y-69578499D01*
X151038649Y-69578499D01*
X151099196Y-69571990D01*
X151099199Y-69571989D01*
X151099201Y-69571989D01*
X151236204Y-69520889D01*
X151353261Y-69433261D01*
X151440889Y-69316204D01*
X151491989Y-69179201D01*
X151498500Y-69118638D01*
X151498500Y-66021362D01*
X151498499Y-66021350D01*
X151491990Y-65960803D01*
X151491989Y-65960802D01*
X151491989Y-65960799D01*
X151486294Y-65945532D01*
X151481229Y-65874720D01*
X151515252Y-65812407D01*
X151577564Y-65778380D01*
X151604350Y-65775500D01*
X160745650Y-65775500D01*
X160813771Y-65795502D01*
G37*
%TD.AperFunction*%
%TA.AperFunction,Conductor*%
G36*
X150671472Y-115997927D02*
G01*
X150706259Y-116016788D01*
X150718374Y-116026084D01*
X150718378Y-116026087D01*
X150866281Y-116087350D01*
X150985155Y-116102999D01*
X151467302Y-116102999D01*
X151535423Y-116123001D01*
X151581916Y-116176656D01*
X151592020Y-116246930D01*
X151574543Y-116295145D01*
X151508343Y-116402472D01*
X151452606Y-116570678D01*
X151452605Y-116570681D01*
X151442000Y-116674483D01*
X151442000Y-116946000D01*
X152324000Y-116946000D01*
X152392121Y-116966002D01*
X152438614Y-117019658D01*
X152450000Y-117072000D01*
X152450000Y-117328000D01*
X152429998Y-117396121D01*
X152376342Y-117442614D01*
X152324000Y-117454000D01*
X151442000Y-117454000D01*
X151442000Y-117725507D01*
X151443245Y-117737694D01*
X151430270Y-117807495D01*
X151381617Y-117859200D01*
X151317897Y-117876500D01*
X147259500Y-117876500D01*
X147191379Y-117856498D01*
X147144886Y-117802842D01*
X147133500Y-117750500D01*
X147133500Y-116414500D01*
X147153502Y-116346379D01*
X147207158Y-116299886D01*
X147259500Y-116288500D01*
X147985405Y-116288500D01*
X148053526Y-116308502D01*
X148074500Y-116325405D01*
X148231167Y-116482072D01*
X148334925Y-116551401D01*
X148416447Y-116585168D01*
X148450215Y-116599155D01*
X148572606Y-116623500D01*
X148572607Y-116623500D01*
X148697394Y-116623500D01*
X148896497Y-116623500D01*
X148964618Y-116643502D01*
X148985592Y-116660405D01*
X149020865Y-116695678D01*
X149169664Y-116795102D01*
X149335000Y-116863587D01*
X149510521Y-116898500D01*
X149510522Y-116898500D01*
X149689478Y-116898500D01*
X149689479Y-116898500D01*
X149865000Y-116863587D01*
X150030336Y-116795102D01*
X150179135Y-116695678D01*
X150305678Y-116569135D01*
X150405102Y-116420336D01*
X150473587Y-116255000D01*
X150505976Y-116092166D01*
X150538882Y-116029259D01*
X150600577Y-115994127D01*
X150671472Y-115997927D01*
G37*
%TD.AperFunction*%
%TA.AperFunction,Conductor*%
G36*
X151854621Y-114173501D02*
G01*
X151901114Y-114227157D01*
X151912500Y-114279499D01*
X151912500Y-115269000D01*
X151909908Y-115277825D01*
X151911218Y-115286932D01*
X151900062Y-115311357D01*
X151892498Y-115337121D01*
X151885544Y-115343145D01*
X151881724Y-115351512D01*
X151859138Y-115366026D01*
X151838842Y-115383614D01*
X151828155Y-115385938D01*
X151821998Y-115389896D01*
X151786500Y-115395000D01*
X151638500Y-115395000D01*
X151570379Y-115374998D01*
X151523886Y-115321342D01*
X151512500Y-115269000D01*
X151512500Y-114279499D01*
X151532502Y-114211378D01*
X151586158Y-114164885D01*
X151638497Y-114153499D01*
X151786501Y-114153499D01*
X151854621Y-114173501D01*
G37*
%TD.AperFunction*%
%TA.AperFunction,Conductor*%
G36*
X149584534Y-113190539D02*
G01*
X149641369Y-113233086D01*
X149666179Y-113299607D01*
X149666500Y-113308594D01*
X149666500Y-114955500D01*
X149664010Y-114963978D01*
X149665318Y-114972717D01*
X149654160Y-114997523D01*
X149646498Y-115023621D01*
X149639820Y-115029406D01*
X149636196Y-115037466D01*
X149613397Y-115052302D01*
X149592842Y-115070114D01*
X149582535Y-115072386D01*
X149576690Y-115076191D01*
X149542629Y-115081187D01*
X149541222Y-115081498D01*
X149540873Y-115081500D01*
X149510521Y-115081500D01*
X149509620Y-115081679D01*
X149502816Y-115081718D01*
X149474065Y-115073454D01*
X149444675Y-115067876D01*
X149440332Y-115063758D01*
X149434582Y-115062106D01*
X149414863Y-115039611D01*
X149393154Y-115019029D01*
X149390964Y-115012348D01*
X149387782Y-115008718D01*
X149386108Y-114997533D01*
X149379785Y-114978241D01*
X149378803Y-114978474D01*
X149376988Y-114970795D01*
X149327575Y-114838317D01*
X149322509Y-114767502D01*
X149327575Y-114750251D01*
X149376494Y-114619096D01*
X149382999Y-114558597D01*
X149383000Y-114558585D01*
X149383000Y-114414000D01*
X148201000Y-114414000D01*
X148132879Y-114393998D01*
X148086386Y-114340342D01*
X148075000Y-114288000D01*
X148075000Y-114032000D01*
X148095002Y-113963879D01*
X148148658Y-113917386D01*
X148201000Y-113906000D01*
X149383000Y-113906000D01*
X149383000Y-113761414D01*
X149382999Y-113761402D01*
X149376494Y-113700903D01*
X149327575Y-113569748D01*
X149325849Y-113545626D01*
X149319678Y-113522243D01*
X149322967Y-113505345D01*
X149322509Y-113498932D01*
X149325758Y-113486899D01*
X149326602Y-113484291D01*
X149376989Y-113349201D01*
X149380290Y-113318494D01*
X149384303Y-113306102D01*
X149397263Y-113287106D01*
X149406063Y-113265861D01*
X149415063Y-113255840D01*
X149451408Y-113219495D01*
X149513718Y-113185473D01*
X149584534Y-113190539D01*
G37*
%TD.AperFunction*%
%TA.AperFunction,Conductor*%
G36*
X137443771Y-65795502D02*
G01*
X137490264Y-65849158D01*
X137500368Y-65919432D01*
X137493706Y-65945528D01*
X137488011Y-65960799D01*
X137488010Y-65960802D01*
X137488009Y-65960803D01*
X137481500Y-66021350D01*
X137481500Y-69118649D01*
X137488009Y-69179196D01*
X137488011Y-69179204D01*
X137539110Y-69316202D01*
X137539112Y-69316207D01*
X137626738Y-69433261D01*
X137743792Y-69520887D01*
X137743794Y-69520888D01*
X137743796Y-69520889D01*
X137802875Y-69542924D01*
X137880795Y-69571988D01*
X137880803Y-69571990D01*
X137941350Y-69578499D01*
X137941355Y-69578499D01*
X137941362Y-69578500D01*
X147653629Y-69578500D01*
X147721750Y-69598502D01*
X147742724Y-69615405D01*
X152504595Y-74377276D01*
X152538621Y-74439588D01*
X152541500Y-74466371D01*
X152541500Y-88560500D01*
X152521498Y-88628621D01*
X152467842Y-88675114D01*
X152415500Y-88686500D01*
X133923992Y-88686500D01*
X133830104Y-88696595D01*
X133814843Y-88698236D01*
X133814841Y-88698236D01*
X133814835Y-88698237D01*
X133763332Y-88709441D01*
X133659174Y-88744109D01*
X133536215Y-88823130D01*
X133536213Y-88823131D01*
X133483417Y-88868880D01*
X133387704Y-88979337D01*
X133387703Y-88979338D01*
X133326986Y-89112284D01*
X133307302Y-89179320D01*
X133307301Y-89179324D01*
X133307301Y-89179326D01*
X133307300Y-89179330D01*
X133286502Y-89323992D01*
X133286500Y-89324003D01*
X133286500Y-97276007D01*
X133298237Y-97385164D01*
X133309441Y-97436667D01*
X133344109Y-97540825D01*
X133423130Y-97663784D01*
X133423131Y-97663786D01*
X133468880Y-97716582D01*
X133468882Y-97716583D01*
X133468884Y-97716586D01*
X133579339Y-97812297D01*
X133616228Y-97829144D01*
X133712284Y-97873013D01*
X133712286Y-97873013D01*
X133712287Y-97873014D01*
X133779326Y-97892699D01*
X133779330Y-97892700D01*
X133924000Y-97913500D01*
X133924004Y-97913500D01*
X152415500Y-97913500D01*
X152483621Y-97933502D01*
X152530114Y-97987158D01*
X152541500Y-98039500D01*
X152541500Y-103125295D01*
X152541500Y-103274705D01*
X152570649Y-103421247D01*
X152627826Y-103559284D01*
X152710834Y-103683515D01*
X152710838Y-103683519D01*
X160403724Y-111376405D01*
X160437750Y-111438717D01*
X160432685Y-111509532D01*
X160390138Y-111566368D01*
X160323618Y-111591179D01*
X160314629Y-111591500D01*
X159566371Y-111591500D01*
X159498250Y-111571498D01*
X159477276Y-111554595D01*
X149433519Y-101510838D01*
X149433515Y-101510834D01*
X149309284Y-101427826D01*
X149171247Y-101370649D01*
X149097976Y-101356074D01*
X149097975Y-101356073D01*
X149024711Y-101341500D01*
X149024706Y-101341500D01*
X132916371Y-101341500D01*
X132848250Y-101321498D01*
X132827276Y-101304595D01*
X122045405Y-90522724D01*
X122011379Y-90460412D01*
X122008500Y-90433629D01*
X122008500Y-76444167D01*
X136824500Y-76444167D01*
X136824500Y-82755832D01*
X136860681Y-83065378D01*
X136860682Y-83065384D01*
X136932557Y-83368645D01*
X136932558Y-83368650D01*
X137039146Y-83661497D01*
X137039151Y-83661509D01*
X137179024Y-83940021D01*
X137350279Y-84200400D01*
X137550610Y-84439147D01*
X137777310Y-84653028D01*
X137920893Y-84759921D01*
X138027297Y-84839136D01*
X138297203Y-84994966D01*
X138583374Y-85118408D01*
X138881942Y-85207793D01*
X139188867Y-85261913D01*
X139500000Y-85280034D01*
X139811133Y-85261913D01*
X140118058Y-85207793D01*
X140416626Y-85118408D01*
X140702797Y-84994966D01*
X140972703Y-84839136D01*
X141222693Y-84653025D01*
X141449386Y-84439151D01*
X141649717Y-84200405D01*
X141820978Y-83940017D01*
X141960850Y-83661507D01*
X142067444Y-83368642D01*
X142139318Y-83065383D01*
X142175500Y-82755830D01*
X142175500Y-82600000D01*
X142175500Y-82591715D01*
X142175500Y-76589438D01*
X142175500Y-76444170D01*
X142175500Y-76444167D01*
X146824500Y-76444167D01*
X146824500Y-82755832D01*
X146860681Y-83065378D01*
X146860682Y-83065384D01*
X146932557Y-83368645D01*
X146932558Y-83368650D01*
X147039146Y-83661497D01*
X147039151Y-83661509D01*
X147179024Y-83940021D01*
X147350279Y-84200400D01*
X147550610Y-84439147D01*
X147777310Y-84653028D01*
X147920893Y-84759921D01*
X148027297Y-84839136D01*
X148297203Y-84994966D01*
X148583374Y-85118408D01*
X148881942Y-85207793D01*
X149188867Y-85261913D01*
X149500000Y-85280034D01*
X149811133Y-85261913D01*
X150118058Y-85207793D01*
X150416626Y-85118408D01*
X150702797Y-84994966D01*
X150972703Y-84839136D01*
X151222693Y-84653025D01*
X151449386Y-84439151D01*
X151649717Y-84200405D01*
X151820978Y-83940017D01*
X151960850Y-83661507D01*
X152067444Y-83368642D01*
X152139318Y-83065383D01*
X152175500Y-82755830D01*
X152175500Y-82600000D01*
X152175500Y-82591715D01*
X152175500Y-76589438D01*
X152175500Y-76444170D01*
X152173525Y-76427276D01*
X152139318Y-76134621D01*
X152139318Y-76134617D01*
X152067444Y-75831358D01*
X151960850Y-75538493D01*
X151820978Y-75259983D01*
X151820975Y-75259978D01*
X151649720Y-74999599D01*
X151449389Y-74760852D01*
X151222689Y-74546971D01*
X150972718Y-74360875D01*
X150972715Y-74360873D01*
X150972703Y-74360864D01*
X150702797Y-74205034D01*
X150702798Y-74205034D01*
X150702794Y-74205032D01*
X150416633Y-74081595D01*
X150416632Y-74081594D01*
X150416626Y-74081592D01*
X150118058Y-73992207D01*
X150118059Y-73992207D01*
X150023309Y-73975500D01*
X149811133Y-73938087D01*
X149811129Y-73938086D01*
X149811125Y-73938086D01*
X149500000Y-73919966D01*
X149188877Y-73938086D01*
X149188871Y-73938086D01*
X148881941Y-73992207D01*
X148771423Y-74025294D01*
X148583374Y-74081592D01*
X148583372Y-74081593D01*
X148583366Y-74081595D01*
X148297205Y-74205032D01*
X148297200Y-74205035D01*
X148027308Y-74360857D01*
X148027281Y-74360875D01*
X147777310Y-74546971D01*
X147550610Y-74760852D01*
X147350279Y-74999599D01*
X147179024Y-75259978D01*
X147039151Y-75538490D01*
X147039146Y-75538502D01*
X146932558Y-75831349D01*
X146932557Y-75831354D01*
X146860682Y-76134615D01*
X146860681Y-76134621D01*
X146824500Y-76444167D01*
X142175500Y-76444167D01*
X142173525Y-76427276D01*
X142139318Y-76134621D01*
X142139318Y-76134617D01*
X142067444Y-75831358D01*
X141960850Y-75538493D01*
X141820978Y-75259983D01*
X141820975Y-75259978D01*
X141649720Y-74999599D01*
X141449389Y-74760852D01*
X141222689Y-74546971D01*
X140972718Y-74360875D01*
X140972715Y-74360873D01*
X140972703Y-74360864D01*
X140702797Y-74205034D01*
X140702798Y-74205034D01*
X140702794Y-74205032D01*
X140416633Y-74081595D01*
X140416632Y-74081594D01*
X140416626Y-74081592D01*
X140118058Y-73992207D01*
X140118059Y-73992207D01*
X140023309Y-73975500D01*
X139811133Y-73938087D01*
X139811129Y-73938086D01*
X139811125Y-73938086D01*
X139500000Y-73919966D01*
X139188877Y-73938086D01*
X139188871Y-73938086D01*
X138881941Y-73992207D01*
X138771423Y-74025294D01*
X138583374Y-74081592D01*
X138583372Y-74081593D01*
X138583366Y-74081595D01*
X138297205Y-74205032D01*
X138297200Y-74205035D01*
X138027308Y-74360857D01*
X138027281Y-74360875D01*
X137777310Y-74546971D01*
X137550610Y-74760852D01*
X137350279Y-74999599D01*
X137179024Y-75259978D01*
X137039151Y-75538490D01*
X137039146Y-75538502D01*
X136932558Y-75831349D01*
X136932557Y-75831354D01*
X136860682Y-76134615D01*
X136860681Y-76134621D01*
X136824500Y-76444167D01*
X122008500Y-76444167D01*
X122008500Y-69704500D01*
X122028502Y-69636379D01*
X122082158Y-69589886D01*
X122134500Y-69578500D01*
X127638632Y-69578500D01*
X127638638Y-69578500D01*
X127638645Y-69578499D01*
X127638649Y-69578499D01*
X127699196Y-69571990D01*
X127699199Y-69571989D01*
X127699201Y-69571989D01*
X127836204Y-69520889D01*
X127953261Y-69433261D01*
X128040889Y-69316204D01*
X128091989Y-69179201D01*
X128098500Y-69118638D01*
X128098500Y-66021362D01*
X128098499Y-66021350D01*
X128091990Y-65960803D01*
X128091989Y-65960802D01*
X128091989Y-65960799D01*
X128086294Y-65945532D01*
X128081229Y-65874720D01*
X128115252Y-65812407D01*
X128177564Y-65778380D01*
X128204350Y-65775500D01*
X137375650Y-65775500D01*
X137443771Y-65795502D01*
G37*
%TD.AperFunction*%
%TD*%
%TA.AperFunction,NonConductor*%
G36*
X161815677Y-124019685D02*
G01*
X161836319Y-124036319D01*
X161863681Y-124063681D01*
X161897166Y-124125004D01*
X161900000Y-124151362D01*
X161900000Y-143248638D01*
X161891355Y-143278078D01*
X161884832Y-143308065D01*
X161881077Y-143313080D01*
X161880315Y-143315677D01*
X161863681Y-143336319D01*
X161736319Y-143463681D01*
X161674996Y-143497166D01*
X161648638Y-143500000D01*
X126324000Y-143500000D01*
X126256961Y-143480315D01*
X126211206Y-143427511D01*
X126200000Y-143376000D01*
X126200000Y-137910516D01*
X140791500Y-137910516D01*
X140791500Y-138089483D01*
X140826411Y-138264992D01*
X140826413Y-138265000D01*
X140894896Y-138430332D01*
X140894901Y-138430342D01*
X140994321Y-138579134D01*
X140994324Y-138579138D01*
X141120861Y-138705675D01*
X141120865Y-138705678D01*
X141269657Y-138805098D01*
X141269661Y-138805100D01*
X141269664Y-138805102D01*
X141435000Y-138873587D01*
X141610516Y-138908499D01*
X141610520Y-138908500D01*
X141610521Y-138908500D01*
X141789480Y-138908500D01*
X141789481Y-138908499D01*
X141965000Y-138873587D01*
X142130336Y-138805102D01*
X142279135Y-138705678D01*
X142405678Y-138579135D01*
X142505102Y-138430336D01*
X142573587Y-138265000D01*
X142608500Y-138089479D01*
X142608500Y-137910521D01*
X142573587Y-137735000D01*
X142505102Y-137569664D01*
X142505100Y-137569661D01*
X142505098Y-137569657D01*
X142405678Y-137420865D01*
X142405675Y-137420861D01*
X142279138Y-137294324D01*
X142279134Y-137294321D01*
X142130342Y-137194901D01*
X142130332Y-137194896D01*
X141965000Y-137126413D01*
X141964992Y-137126411D01*
X141789483Y-137091500D01*
X141789479Y-137091500D01*
X141610521Y-137091500D01*
X141610516Y-137091500D01*
X141435007Y-137126411D01*
X141434999Y-137126413D01*
X141269667Y-137194896D01*
X141269657Y-137194901D01*
X141120865Y-137294321D01*
X141120861Y-137294324D01*
X140994324Y-137420861D01*
X140994321Y-137420865D01*
X140894901Y-137569657D01*
X140894896Y-137569667D01*
X140826413Y-137734999D01*
X140826411Y-137735007D01*
X140791500Y-137910516D01*
X126200000Y-137910516D01*
X126200000Y-131710516D01*
X140641500Y-131710516D01*
X140641500Y-131889483D01*
X140676411Y-132064992D01*
X140676413Y-132065000D01*
X140744896Y-132230332D01*
X140744901Y-132230342D01*
X140844321Y-132379134D01*
X140844324Y-132379138D01*
X140970861Y-132505675D01*
X140970865Y-132505678D01*
X141119657Y-132605098D01*
X141119661Y-132605100D01*
X141119664Y-132605102D01*
X141285000Y-132673587D01*
X141460516Y-132708499D01*
X141460520Y-132708500D01*
X141460521Y-132708500D01*
X141639480Y-132708500D01*
X141639481Y-132708499D01*
X141815000Y-132673587D01*
X141980336Y-132605102D01*
X142129135Y-132505678D01*
X142255678Y-132379135D01*
X142355102Y-132230336D01*
X142423587Y-132065000D01*
X142458500Y-131889479D01*
X142458500Y-131710521D01*
X142423587Y-131535000D01*
X142355102Y-131369664D01*
X142355100Y-131369661D01*
X142355098Y-131369657D01*
X142255678Y-131220865D01*
X142255675Y-131220861D01*
X142129138Y-131094324D01*
X142129134Y-131094321D01*
X141999244Y-131007531D01*
X141980340Y-130994900D01*
X141980332Y-130994896D01*
X141815000Y-130926413D01*
X141814992Y-130926411D01*
X141735083Y-130910516D01*
X149091500Y-130910516D01*
X149091500Y-131089483D01*
X149126411Y-131264992D01*
X149126413Y-131265000D01*
X149194896Y-131430332D01*
X149194901Y-131430342D01*
X149294321Y-131579134D01*
X149294324Y-131579138D01*
X149420861Y-131705675D01*
X149420865Y-131705678D01*
X149569657Y-131805098D01*
X149569661Y-131805100D01*
X149569664Y-131805102D01*
X149735000Y-131873587D01*
X149910516Y-131908499D01*
X149910520Y-131908500D01*
X149910521Y-131908500D01*
X150089480Y-131908500D01*
X150089481Y-131908499D01*
X150265000Y-131873587D01*
X150430336Y-131805102D01*
X150579135Y-131705678D01*
X150705678Y-131579135D01*
X150805102Y-131430336D01*
X150873587Y-131265000D01*
X150908500Y-131089479D01*
X150908500Y-130910521D01*
X150873587Y-130735000D01*
X150805102Y-130569664D01*
X150805100Y-130569661D01*
X150805098Y-130569657D01*
X150705678Y-130420865D01*
X150705675Y-130420861D01*
X150579138Y-130294324D01*
X150579134Y-130294321D01*
X150430342Y-130194901D01*
X150430332Y-130194896D01*
X150265000Y-130126413D01*
X150264992Y-130126411D01*
X150089483Y-130091500D01*
X150089479Y-130091500D01*
X149910521Y-130091500D01*
X149910516Y-130091500D01*
X149735007Y-130126411D01*
X149734999Y-130126413D01*
X149569667Y-130194896D01*
X149569657Y-130194901D01*
X149420865Y-130294321D01*
X149420861Y-130294324D01*
X149294324Y-130420861D01*
X149294321Y-130420865D01*
X149194901Y-130569657D01*
X149194896Y-130569667D01*
X149126413Y-130734999D01*
X149126411Y-130735007D01*
X149091500Y-130910516D01*
X141735083Y-130910516D01*
X141639483Y-130891500D01*
X141639479Y-130891500D01*
X141460521Y-130891500D01*
X141460516Y-130891500D01*
X141285007Y-130926411D01*
X141284999Y-130926413D01*
X141119667Y-130994896D01*
X141119657Y-130994901D01*
X140970865Y-131094321D01*
X140970861Y-131094324D01*
X140844324Y-131220861D01*
X140844321Y-131220865D01*
X140744901Y-131369657D01*
X140744896Y-131369667D01*
X140676413Y-131534999D01*
X140676411Y-131535007D01*
X140641500Y-131710516D01*
X126200000Y-131710516D01*
X126200000Y-128060516D01*
X137791500Y-128060516D01*
X137791500Y-128239483D01*
X137826411Y-128414992D01*
X137826413Y-128415000D01*
X137894896Y-128580332D01*
X137894901Y-128580342D01*
X137994321Y-128729134D01*
X137994324Y-128729138D01*
X138120861Y-128855675D01*
X138120865Y-128855678D01*
X138269657Y-128955098D01*
X138269661Y-128955100D01*
X138269664Y-128955102D01*
X138435000Y-129023587D01*
X138610516Y-129058499D01*
X138610520Y-129058500D01*
X138610521Y-129058500D01*
X138789480Y-129058500D01*
X138789481Y-129058499D01*
X138965000Y-129023587D01*
X139130336Y-128955102D01*
X139279135Y-128855678D01*
X139405678Y-128729135D01*
X139505102Y-128580336D01*
X139573587Y-128415000D01*
X139608500Y-128239479D01*
X139608500Y-128060521D01*
X139573587Y-127885000D01*
X139505102Y-127719664D01*
X139505100Y-127719661D01*
X139505098Y-127719657D01*
X139405678Y-127570865D01*
X139405675Y-127570861D01*
X139279138Y-127444324D01*
X139279134Y-127444321D01*
X139149244Y-127357531D01*
X139130340Y-127344900D01*
X139130332Y-127344896D01*
X138965000Y-127276413D01*
X138964992Y-127276411D01*
X138885083Y-127260516D01*
X139741500Y-127260516D01*
X139741500Y-127439483D01*
X139776411Y-127614992D01*
X139776413Y-127615000D01*
X139844896Y-127780332D01*
X139844901Y-127780342D01*
X139944321Y-127929134D01*
X139944324Y-127929138D01*
X140070861Y-128055675D01*
X140070865Y-128055678D01*
X140219657Y-128155098D01*
X140219661Y-128155100D01*
X140219664Y-128155102D01*
X140385000Y-128223587D01*
X140560516Y-128258499D01*
X140560520Y-128258500D01*
X140560521Y-128258500D01*
X140739480Y-128258500D01*
X140739481Y-128258499D01*
X140915000Y-128223587D01*
X141080336Y-128155102D01*
X141229135Y-128055678D01*
X141355678Y-127929135D01*
X141455102Y-127780336D01*
X141523587Y-127615000D01*
X141558500Y-127439479D01*
X141558500Y-127260521D01*
X141523587Y-127085000D01*
X141455102Y-126919664D01*
X141455100Y-126919661D01*
X141455098Y-126919657D01*
X141355678Y-126770865D01*
X141355675Y-126770861D01*
X141229138Y-126644324D01*
X141229134Y-126644321D01*
X141080342Y-126544901D01*
X141080332Y-126544896D01*
X140915000Y-126476413D01*
X140914992Y-126476411D01*
X140739483Y-126441500D01*
X140739479Y-126441500D01*
X140560521Y-126441500D01*
X140560516Y-126441500D01*
X140385007Y-126476411D01*
X140384999Y-126476413D01*
X140219667Y-126544896D01*
X140219657Y-126544901D01*
X140070865Y-126644321D01*
X140070861Y-126644324D01*
X139944324Y-126770861D01*
X139944321Y-126770865D01*
X139844901Y-126919657D01*
X139844896Y-126919667D01*
X139776413Y-127084999D01*
X139776411Y-127085007D01*
X139741500Y-127260516D01*
X138885083Y-127260516D01*
X138789483Y-127241500D01*
X138789479Y-127241500D01*
X138610521Y-127241500D01*
X138610516Y-127241500D01*
X138435007Y-127276411D01*
X138434999Y-127276413D01*
X138269667Y-127344896D01*
X138269657Y-127344901D01*
X138120865Y-127444321D01*
X138120861Y-127444324D01*
X137994324Y-127570861D01*
X137994321Y-127570865D01*
X137894901Y-127719657D01*
X137894896Y-127719667D01*
X137826413Y-127884999D01*
X137826411Y-127885007D01*
X137791500Y-128060516D01*
X126200000Y-128060516D01*
X126200000Y-124151362D01*
X126208644Y-124121921D01*
X126215168Y-124091935D01*
X126218922Y-124086919D01*
X126219685Y-124084323D01*
X126236319Y-124063681D01*
X126263681Y-124036319D01*
X126325004Y-124002834D01*
X126351362Y-124000000D01*
X161748638Y-124000000D01*
X161815677Y-124019685D01*
G37*
%TD.AperFunction*%
%TA.AperFunction,NonConductor*%
G36*
X155055901Y-89219685D02*
G01*
X155101656Y-89272489D01*
X155112862Y-89324000D01*
X155112862Y-97276000D01*
X155093177Y-97343039D01*
X155040373Y-97388794D01*
X154988862Y-97400000D01*
X154900000Y-97400000D01*
X154182500Y-97400000D01*
X154115461Y-97380315D01*
X154069706Y-97327511D01*
X154058500Y-97276000D01*
X154058500Y-89324000D01*
X154078185Y-89256961D01*
X154130989Y-89211206D01*
X154182500Y-89200000D01*
X154988862Y-89200000D01*
X155055901Y-89219685D01*
G37*
%TD.AperFunction*%
%TA.AperFunction,NonConductor*%
G36*
X152484539Y-89219685D02*
G01*
X152530294Y-89272489D01*
X152541500Y-89324000D01*
X152541500Y-97276000D01*
X152521815Y-97343039D01*
X152469011Y-97388794D01*
X152417500Y-97400000D01*
X133924000Y-97400000D01*
X133856961Y-97380315D01*
X133811206Y-97327511D01*
X133800000Y-97276000D01*
X133800000Y-89324000D01*
X133819685Y-89256961D01*
X133872489Y-89211206D01*
X133924000Y-89200000D01*
X152417500Y-89200000D01*
X152484539Y-89219685D01*
G37*
%TD.AperFunction*%
D24*
X136850000Y-153000000D02*
X136850000Y-147000000D01*
X142150000Y-153000000D02*
X142150000Y-147000000D01*
X146850000Y-147000000D02*
X146850000Y-153000000D01*
X152150000Y-153000000D02*
X152150000Y-147000000D01*
X142150000Y-76600000D02*
X142150000Y-82600000D01*
X136850000Y-76600000D02*
X136850000Y-82600000D01*
X146850000Y-76600000D02*
X146850000Y-82600000D01*
X152150000Y-76600000D02*
X152150000Y-82600000D01*
X142150000Y-82600000D02*
G75*
G02*
X136850000Y-82600000I-2650000J0D01*
G01*
D25*
X103350000Y-65750000D02*
X179650000Y-65750000D01*
X179650000Y-163750000D01*
X103350000Y-163750000D01*
X103350000Y-65750000D01*
D24*
X130075000Y-117262500D02*
G75*
G02*
X127075000Y-120262500I-3000000J0D01*
G01*
X146850000Y-76600000D02*
G75*
G02*
X152150000Y-76600000I2650000J0D01*
G01*
X136850000Y-76600000D02*
G75*
G02*
X142150000Y-76600000I2650000J0D01*
G01*
X122050000Y-120262500D02*
G75*
G02*
X122075000Y-109287500I12500J5487500D01*
G01*
X136850000Y-147000000D02*
G75*
G02*
X142150000Y-147000000I2650000J0D01*
G01*
X122050000Y-120262500D02*
X127075000Y-120262500D01*
X142150000Y-153000000D02*
G75*
G02*
X136850000Y-153000000I-2650000J0D01*
G01*
X146850000Y-147000000D02*
G75*
G02*
X152150000Y-147000000I2650000J0D01*
G01*
X152150000Y-153000000D02*
G75*
G02*
X146850000Y-153000000I-2650000J0D01*
G01*
X122075000Y-109287500D02*
X127075000Y-109287500D01*
X130075000Y-117262500D02*
X130075000Y-112287500D01*
X152150000Y-82600000D02*
G75*
G02*
X146850000Y-82600000I-2650000J0D01*
G01*
X127075000Y-109287500D02*
G75*
G02*
X130075000Y-112287500I0J-3000000D01*
G01*
M02*
