%TF.GenerationSoftware,KiCad,Pcbnew,9.0.0*%
%TF.CreationDate,2025-04-21T01:22:55-04:00*%
%TF.ProjectId,xy_faces_CUpayload_v2,78795f66-6163-4657-935f-43557061796c,3.0*%
%TF.SameCoordinates,Original*%
%TF.FileFunction,Profile,NP*%
%FSLAX46Y46*%
G04 Gerber Fmt 4.6, Leading zero omitted, Abs format (unit mm)*
G04 Created by KiCad (PCBNEW 9.0.0) date 2025-04-21 01:22:55*
%MOMM*%
%LPD*%
G01*
G04 APERTURE LIST*
%TA.AperFunction,Profile*%
%ADD10C,0.050000*%
%TD*%
%TA.AperFunction,Profile*%
%ADD11C,0.100000*%
%TD*%
%TA.AperFunction,Profile*%
%ADD12C,0.200000*%
%TD*%
G04 APERTURE END LIST*
D10*
X136850000Y-153000000D02*
X136850000Y-147000000D01*
X142150000Y-153000000D02*
X142150000Y-147000000D01*
X146850000Y-147000000D02*
X146850000Y-153000000D01*
X152150000Y-153000000D02*
X152150000Y-147000000D01*
X142150000Y-76600000D02*
X142150000Y-82600000D01*
X136850000Y-76600000D02*
X136850000Y-82600000D01*
X146850000Y-76600000D02*
X146850000Y-82600000D01*
X152150000Y-76600000D02*
X152150000Y-82600000D01*
X142150000Y-82600000D02*
G75*
G02*
X136850000Y-82600000I-2650000J0D01*
G01*
D11*
X106350000Y-65750000D02*
X182650000Y-65750000D01*
X182650000Y-163750000D01*
X106350000Y-163750000D01*
X106350000Y-65750000D01*
D10*
X133075000Y-117262500D02*
G75*
G02*
X130075000Y-120262500I-3000000J0D01*
G01*
X146850000Y-76600000D02*
G75*
G02*
X152150000Y-76600000I2650000J0D01*
G01*
X136850000Y-76600000D02*
G75*
G02*
X142150000Y-76600000I2650000J0D01*
G01*
X125050000Y-120262500D02*
G75*
G02*
X125050000Y-109287500I12500J5487500D01*
G01*
X136850000Y-147000000D02*
G75*
G02*
X142150000Y-147000000I2650000J0D01*
G01*
X125050000Y-120262500D02*
X130075000Y-120262500D01*
X142150000Y-153000000D02*
G75*
G02*
X136850000Y-153000000I-2650000J0D01*
G01*
D12*
X111087500Y-98250000D02*
G75*
G02*
X108212500Y-98250000I-1437500J0D01*
G01*
X108212500Y-98250000D02*
G75*
G02*
X111087500Y-98250000I1437500J0D01*
G01*
D10*
X146850000Y-147000000D02*
G75*
G02*
X152150000Y-147000000I2650000J0D01*
G01*
D12*
X111087500Y-110250000D02*
G75*
G02*
X108212500Y-110250000I-1437500J0D01*
G01*
X108212500Y-110250000D02*
G75*
G02*
X111087500Y-110250000I1437500J0D01*
G01*
X111087500Y-122250000D02*
G75*
G02*
X108212500Y-122250000I-1437500J0D01*
G01*
X108212500Y-122250000D02*
G75*
G02*
X111087500Y-122250000I1437500J0D01*
G01*
D10*
X152150000Y-153000000D02*
G75*
G02*
X146850000Y-153000000I-2650000J0D01*
G01*
X125050000Y-109287500D02*
X130075000Y-109287500D01*
D12*
X178462500Y-116250000D02*
G75*
G02*
X175587500Y-116250000I-1437500J0D01*
G01*
X175587500Y-116250000D02*
G75*
G02*
X178462500Y-116250000I1437500J0D01*
G01*
D10*
X133075000Y-117262500D02*
X133075000Y-112287500D01*
X152150000Y-82600000D02*
G75*
G02*
X146850000Y-82600000I-2650000J0D01*
G01*
X130075000Y-109287500D02*
G75*
G02*
X133075000Y-112287500I0J-3000000D01*
G01*
M02*
