%TF.GenerationSoftware,KiCad,Pcbnew,9.0.0*%
%TF.CreationDate,2025-05-05T21:38:29-04:00*%
%TF.ProjectId,payload_board,7061796c-6f61-4645-9f62-6f6172642e6b,rev?*%
%TF.SameCoordinates,Original*%
%TF.FileFunction,Soldermask,Bot*%
%TF.FilePolarity,Negative*%
%FSLAX45Y45*%
G04 Gerber Fmt 4.5, Leading zero omitted, Abs format (unit mm)*
G04 Created by KiCad (PCBNEW 9.0.0) date 2025-05-05 21:38:29*
%MOMM*%
%LPD*%
G01*
G04 APERTURE LIST*
G04 Aperture macros list*
%AMRoundRect*
0 Rectangle with rounded corners*
0 $1 Rounding radius*
0 $2 $3 $4 $5 $6 $7 $8 $9 X,Y pos of 4 corners*
0 Add a 4 corners polygon primitive as box body*
4,1,4,$2,$3,$4,$5,$6,$7,$8,$9,$2,$3,0*
0 Add four circle primitives for the rounded corners*
1,1,$1+$1,$2,$3*
1,1,$1+$1,$4,$5*
1,1,$1+$1,$6,$7*
1,1,$1+$1,$8,$9*
0 Add four rect primitives between the rounded corners*
20,1,$1+$1,$2,$3,$4,$5,0*
20,1,$1+$1,$4,$5,$6,$7,0*
20,1,$1+$1,$6,$7,$8,$9,0*
20,1,$1+$1,$8,$9,$2,$3,0*%
G04 Aperture macros list end*
%ADD10C,2.000000*%
%ADD11R,1.700000X1.700000*%
%ADD12O,1.700000X1.700000*%
%ADD13O,1.000000X2.200000*%
%ADD14O,1.000000X1.800000*%
%ADD15R,1.350000X1.350000*%
%ADD16C,1.350000*%
%ADD17RoundRect,0.100000X-0.100000X0.130000X-0.100000X-0.130000X0.100000X-0.130000X0.100000X0.130000X0*%
%ADD18RoundRect,0.100000X0.130000X0.100000X-0.130000X0.100000X-0.130000X-0.100000X0.130000X-0.100000X0*%
%ADD19RoundRect,0.100000X-0.130000X-0.100000X0.130000X-0.100000X0.130000X0.100000X-0.130000X0.100000X0*%
%ADD20RoundRect,0.100000X0.100000X-0.130000X0.100000X0.130000X-0.100000X0.130000X-0.100000X-0.130000X0*%
G04 APERTURE END LIST*
D10*
%TO.C,TP7*%
X15350000Y-10735000D03*
%TD*%
D11*
%TO.C,J6*%
X15815000Y-9805000D03*
D12*
X15815000Y-10059000D03*
X15815000Y-10313000D03*
X15815000Y-10567000D03*
%TD*%
D11*
%TO.C,J11*%
X21955000Y-9472000D03*
D12*
X21955000Y-9218000D03*
X21955000Y-8964000D03*
X21955000Y-8710000D03*
%TD*%
D11*
%TO.C,J9*%
X21502500Y-6270000D03*
D12*
X21502500Y-6016000D03*
X21502500Y-5762000D03*
%TD*%
D10*
%TO.C,TP5*%
X15350000Y-9805000D03*
%TD*%
%TO.C,TP8*%
X15350000Y-11200000D03*
%TD*%
D11*
%TO.C,J7*%
X16282500Y-9807500D03*
D12*
X16282500Y-10061500D03*
X16282500Y-10315500D03*
X16282500Y-10569500D03*
%TD*%
D13*
%TO.C,J2*%
X17628000Y-13837500D03*
X18492000Y-13837500D03*
D14*
X17628000Y-13437500D03*
X18492000Y-13437500D03*
%TD*%
D11*
%TO.C,J4*%
X21042500Y-5765000D03*
D12*
X21042500Y-6019000D03*
%TD*%
D15*
%TO.C,J10*%
X16272500Y-11870000D03*
D16*
X16472500Y-11870000D03*
X16272500Y-11670000D03*
X16472500Y-11670000D03*
X16272500Y-11470000D03*
X16472500Y-11470000D03*
X16272500Y-11270000D03*
X16472500Y-11270000D03*
X16272500Y-11070000D03*
X16472500Y-11070000D03*
%TD*%
D10*
%TO.C,TP6*%
X15360000Y-10305000D03*
%TD*%
D11*
%TO.C,J3*%
X15815000Y-11030000D03*
D12*
X15815000Y-11284000D03*
X15815000Y-11538000D03*
X15815000Y-11792000D03*
%TD*%
D11*
%TO.C,J5*%
X21575000Y-8969000D03*
D12*
X21575000Y-8715000D03*
%TD*%
D17*
%TO.C,C42*%
X19345000Y-9347500D03*
X19345000Y-9411500D03*
%TD*%
D18*
%TO.C,R39*%
X19171000Y-9180000D03*
X19107000Y-9180000D03*
%TD*%
D17*
%TO.C,C35*%
X19260000Y-9350000D03*
X19260000Y-9414000D03*
%TD*%
%TO.C,C13*%
X19740000Y-9510000D03*
X19740000Y-9574000D03*
%TD*%
D19*
%TO.C,R24*%
X19828500Y-8940000D03*
X19892500Y-8940000D03*
%TD*%
D18*
%TO.C,C6*%
X19492500Y-9580000D03*
X19428500Y-9580000D03*
%TD*%
D19*
%TO.C,C12*%
X19988500Y-9660000D03*
X20052500Y-9660000D03*
%TD*%
D18*
%TO.C,C17*%
X19492500Y-9735000D03*
X19428500Y-9735000D03*
%TD*%
D19*
%TO.C,C39*%
X19358500Y-9020000D03*
X19422500Y-9020000D03*
%TD*%
D17*
%TO.C,R23*%
X20060000Y-9022000D03*
X20060000Y-9086000D03*
%TD*%
D20*
%TO.C,C33*%
X19180000Y-9340000D03*
X19180000Y-9276000D03*
%TD*%
D17*
%TO.C,C29*%
X19105000Y-9422500D03*
X19105000Y-9486500D03*
%TD*%
%TO.C,C3*%
X19737500Y-9025000D03*
X19737500Y-9089000D03*
%TD*%
D18*
%TO.C,C18*%
X19492500Y-9665000D03*
X19428500Y-9665000D03*
%TD*%
%TO.C,C1*%
X19811500Y-9257500D03*
X19747500Y-9257500D03*
%TD*%
D19*
%TO.C,C22*%
X19428000Y-9100000D03*
X19492000Y-9100000D03*
%TD*%
%TO.C,C9*%
X19588500Y-9660000D03*
X19652500Y-9660000D03*
%TD*%
D18*
%TO.C,C14*%
X19892000Y-9580000D03*
X19828000Y-9580000D03*
%TD*%
D17*
%TO.C,C2*%
X19580000Y-9102500D03*
X19580000Y-9166500D03*
%TD*%
D20*
%TO.C,C28*%
X19902500Y-9254000D03*
X19902500Y-9190000D03*
%TD*%
D17*
%TO.C,R44*%
X18217500Y-9720500D03*
X18217500Y-9784500D03*
%TD*%
D19*
%TO.C,C8*%
X19588500Y-9580000D03*
X19652500Y-9580000D03*
%TD*%
D18*
%TO.C,C27*%
X19732500Y-9177500D03*
X19668500Y-9177500D03*
%TD*%
D20*
%TO.C,C44*%
X19345000Y-9250000D03*
X19345000Y-9186000D03*
%TD*%
%TO.C,C36*%
X19105000Y-9341500D03*
X19105000Y-9277500D03*
%TD*%
D19*
%TO.C,C37*%
X19358500Y-8860000D03*
X19422500Y-8860000D03*
%TD*%
D17*
%TO.C,C31*%
X19180000Y-9420000D03*
X19180000Y-9484000D03*
%TD*%
D18*
%TO.C,C21*%
X19576500Y-8937500D03*
X19512500Y-8937500D03*
%TD*%
D17*
%TO.C,C41*%
X19417500Y-9268500D03*
X19417500Y-9332500D03*
%TD*%
D20*
%TO.C,C52*%
X19577500Y-9334000D03*
X19577500Y-9270000D03*
%TD*%
%TO.C,L1*%
X18957500Y-9459000D03*
X18957500Y-9395000D03*
%TD*%
D19*
%TO.C,C11*%
X19988000Y-9582500D03*
X20052000Y-9582500D03*
%TD*%
D20*
%TO.C,C24*%
X19260000Y-9252500D03*
X19260000Y-9188500D03*
%TD*%
%TO.C,C16*%
X19662500Y-9496500D03*
X19662500Y-9432500D03*
%TD*%
D19*
%TO.C,C23*%
X19428500Y-9180000D03*
X19492500Y-9180000D03*
%TD*%
%TO.C,C40*%
X19508000Y-8700000D03*
X19572000Y-8700000D03*
%TD*%
D18*
%TO.C,C15*%
X19890000Y-9660000D03*
X19826000Y-9660000D03*
%TD*%
D17*
%TO.C,C4*%
X19660000Y-8945000D03*
X19660000Y-9009000D03*
%TD*%
D18*
%TO.C,C26*%
X19580000Y-9027500D03*
X19516000Y-9027500D03*
%TD*%
%TO.C,C30*%
X19577000Y-8860000D03*
X19513000Y-8860000D03*
%TD*%
D17*
%TO.C,C43*%
X19500000Y-9270000D03*
X19500000Y-9334000D03*
%TD*%
D19*
%TO.C,C38*%
X19358500Y-8945000D03*
X19422500Y-8945000D03*
%TD*%
D20*
%TO.C,C25*%
X18957500Y-9312000D03*
X18957500Y-9248000D03*
%TD*%
D18*
%TO.C,C5*%
X19572500Y-9415000D03*
X19508500Y-9415000D03*
%TD*%
M02*
