%TF.GenerationSoftware,KiCad,Pcbnew,9.0.0*%
%TF.CreationDate,2025-05-05T21:38:29-04:00*%
%TF.ProjectId,payload_board,7061796c-6f61-4645-9f62-6f6172642e6b,rev?*%
%TF.SameCoordinates,Original*%
%TF.FileFunction,Paste,Bot*%
%TF.FilePolarity,Positive*%
%FSLAX45Y45*%
G04 Gerber Fmt 4.5, Leading zero omitted, Abs format (unit mm)*
G04 Created by KiCad (PCBNEW 9.0.0) date 2025-05-05 21:38:29*
%MOMM*%
%LPD*%
G01*
G04 APERTURE LIST*
G04 Aperture macros list*
%AMRoundRect*
0 Rectangle with rounded corners*
0 $1 Rounding radius*
0 $2 $3 $4 $5 $6 $7 $8 $9 X,Y pos of 4 corners*
0 Add a 4 corners polygon primitive as box body*
4,1,4,$2,$3,$4,$5,$6,$7,$8,$9,$2,$3,0*
0 Add four circle primitives for the rounded corners*
1,1,$1+$1,$2,$3*
1,1,$1+$1,$4,$5*
1,1,$1+$1,$6,$7*
1,1,$1+$1,$8,$9*
0 Add four rect primitives between the rounded corners*
20,1,$1+$1,$2,$3,$4,$5,0*
20,1,$1+$1,$4,$5,$6,$7,0*
20,1,$1+$1,$6,$7,$8,$9,0*
20,1,$1+$1,$8,$9,$2,$3,0*%
G04 Aperture macros list end*
%ADD10RoundRect,0.079500X-0.100500X0.079500X-0.100500X-0.079500X0.100500X-0.079500X0.100500X0.079500X0*%
%ADD11RoundRect,0.079500X0.079500X0.100500X-0.079500X0.100500X-0.079500X-0.100500X0.079500X-0.100500X0*%
%ADD12RoundRect,0.079500X-0.079500X-0.100500X0.079500X-0.100500X0.079500X0.100500X-0.079500X0.100500X0*%
%ADD13RoundRect,0.079500X0.100500X-0.079500X0.100500X0.079500X-0.100500X0.079500X-0.100500X-0.079500X0*%
G04 APERTURE END LIST*
D10*
%TO.C,C42*%
X19345000Y-9345000D03*
X19345000Y-9414000D03*
%TD*%
D11*
%TO.C,R39*%
X19173500Y-9180000D03*
X19104500Y-9180000D03*
%TD*%
D10*
%TO.C,C35*%
X19260000Y-9347500D03*
X19260000Y-9416500D03*
%TD*%
%TO.C,C13*%
X19740000Y-9507500D03*
X19740000Y-9576500D03*
%TD*%
D12*
%TO.C,R24*%
X19826000Y-8940000D03*
X19895000Y-8940000D03*
%TD*%
D11*
%TO.C,C6*%
X19495000Y-9580000D03*
X19426000Y-9580000D03*
%TD*%
D12*
%TO.C,C12*%
X19986000Y-9660000D03*
X20055000Y-9660000D03*
%TD*%
D11*
%TO.C,C17*%
X19495000Y-9735000D03*
X19426000Y-9735000D03*
%TD*%
D12*
%TO.C,C39*%
X19356000Y-9020000D03*
X19425000Y-9020000D03*
%TD*%
D10*
%TO.C,R23*%
X20060000Y-9019500D03*
X20060000Y-9088500D03*
%TD*%
D13*
%TO.C,C33*%
X19180000Y-9342500D03*
X19180000Y-9273500D03*
%TD*%
D10*
%TO.C,C29*%
X19105000Y-9420000D03*
X19105000Y-9489000D03*
%TD*%
%TO.C,C3*%
X19737500Y-9022500D03*
X19737500Y-9091500D03*
%TD*%
D11*
%TO.C,C18*%
X19495000Y-9665000D03*
X19426000Y-9665000D03*
%TD*%
%TO.C,C1*%
X19814000Y-9257500D03*
X19745000Y-9257500D03*
%TD*%
D12*
%TO.C,C22*%
X19425500Y-9100000D03*
X19494500Y-9100000D03*
%TD*%
%TO.C,C9*%
X19586000Y-9660000D03*
X19655000Y-9660000D03*
%TD*%
D11*
%TO.C,C14*%
X19894500Y-9580000D03*
X19825500Y-9580000D03*
%TD*%
D10*
%TO.C,C2*%
X19580000Y-9100000D03*
X19580000Y-9169000D03*
%TD*%
D13*
%TO.C,C28*%
X19902500Y-9256500D03*
X19902500Y-9187500D03*
%TD*%
D10*
%TO.C,R44*%
X18217500Y-9718000D03*
X18217500Y-9787000D03*
%TD*%
D12*
%TO.C,C8*%
X19586000Y-9580000D03*
X19655000Y-9580000D03*
%TD*%
D11*
%TO.C,C27*%
X19735000Y-9177500D03*
X19666000Y-9177500D03*
%TD*%
D13*
%TO.C,C44*%
X19345000Y-9252500D03*
X19345000Y-9183500D03*
%TD*%
%TO.C,C36*%
X19105000Y-9344000D03*
X19105000Y-9275000D03*
%TD*%
D12*
%TO.C,C37*%
X19356000Y-8860000D03*
X19425000Y-8860000D03*
%TD*%
D10*
%TO.C,C31*%
X19180000Y-9417500D03*
X19180000Y-9486500D03*
%TD*%
D11*
%TO.C,C21*%
X19579000Y-8937500D03*
X19510000Y-8937500D03*
%TD*%
D10*
%TO.C,C41*%
X19417500Y-9266000D03*
X19417500Y-9335000D03*
%TD*%
D13*
%TO.C,C52*%
X19577500Y-9336500D03*
X19577500Y-9267500D03*
%TD*%
%TO.C,L1*%
X18957500Y-9461500D03*
X18957500Y-9392500D03*
%TD*%
D12*
%TO.C,C11*%
X19985500Y-9582500D03*
X20054500Y-9582500D03*
%TD*%
D13*
%TO.C,C24*%
X19260000Y-9255000D03*
X19260000Y-9186000D03*
%TD*%
%TO.C,C16*%
X19662500Y-9499000D03*
X19662500Y-9430000D03*
%TD*%
D12*
%TO.C,C23*%
X19426000Y-9180000D03*
X19495000Y-9180000D03*
%TD*%
%TO.C,C40*%
X19505500Y-8700000D03*
X19574500Y-8700000D03*
%TD*%
D11*
%TO.C,C15*%
X19892500Y-9660000D03*
X19823500Y-9660000D03*
%TD*%
D10*
%TO.C,C4*%
X19660000Y-8942500D03*
X19660000Y-9011500D03*
%TD*%
D11*
%TO.C,C26*%
X19582500Y-9027500D03*
X19513500Y-9027500D03*
%TD*%
%TO.C,C30*%
X19579500Y-8860000D03*
X19510500Y-8860000D03*
%TD*%
D10*
%TO.C,C43*%
X19500000Y-9267500D03*
X19500000Y-9336500D03*
%TD*%
D12*
%TO.C,C38*%
X19356000Y-8945000D03*
X19425000Y-8945000D03*
%TD*%
D13*
%TO.C,C25*%
X18957500Y-9314500D03*
X18957500Y-9245500D03*
%TD*%
D11*
%TO.C,C5*%
X19575000Y-9415000D03*
X19506000Y-9415000D03*
%TD*%
M02*
