%TF.GenerationSoftware,KiCad,Pcbnew,9.0.0*%
%TF.CreationDate,2025-05-05T21:38:29-04:00*%
%TF.ProjectId,payload_board,7061796c-6f61-4645-9f62-6f6172642e6b,rev?*%
%TF.SameCoordinates,Original*%
%TF.FileFunction,Legend,Bot*%
%TF.FilePolarity,Positive*%
%FSLAX45Y45*%
G04 Gerber Fmt 4.5, Leading zero omitted, Abs format (unit mm)*
G04 Created by KiCad (PCBNEW 9.0.0) date 2025-05-05 21:38:29*
%MOMM*%
%LPD*%
G01*
G04 APERTURE LIST*
%ADD10C,0.150000*%
G04 APERTURE END LIST*
D10*
X19924786Y-9090482D02*
X19958119Y-9042863D01*
X19981929Y-9090482D02*
X19981929Y-8990482D01*
X19981929Y-8990482D02*
X19943833Y-8990482D01*
X19943833Y-8990482D02*
X19934310Y-8995244D01*
X19934310Y-8995244D02*
X19929548Y-9000006D01*
X19929548Y-9000006D02*
X19924786Y-9009530D01*
X19924786Y-9009530D02*
X19924786Y-9023815D01*
X19924786Y-9023815D02*
X19929548Y-9033339D01*
X19929548Y-9033339D02*
X19934310Y-9038101D01*
X19934310Y-9038101D02*
X19943833Y-9042863D01*
X19943833Y-9042863D02*
X19981929Y-9042863D01*
X19886690Y-9000006D02*
X19881929Y-8995244D01*
X19881929Y-8995244D02*
X19872405Y-8990482D01*
X19872405Y-8990482D02*
X19848595Y-8990482D01*
X19848595Y-8990482D02*
X19839071Y-8995244D01*
X19839071Y-8995244D02*
X19834310Y-9000006D01*
X19834310Y-9000006D02*
X19829548Y-9009530D01*
X19829548Y-9009530D02*
X19829548Y-9019053D01*
X19829548Y-9019053D02*
X19834310Y-9033339D01*
X19834310Y-9033339D02*
X19891452Y-9090482D01*
X19891452Y-9090482D02*
X19829548Y-9090482D01*
X19743833Y-9023815D02*
X19743833Y-9090482D01*
X19767643Y-8985720D02*
X19791452Y-9057149D01*
X19791452Y-9057149D02*
X19729548Y-9057149D01*
M02*
