%TF.GenerationSoftware,KiCad,Pcbnew,9.0.0*%
%TF.CreationDate,2025-05-05T21:38:29-04:00*%
%TF.ProjectId,payload_board,7061796c-6f61-4645-9f62-6f6172642e6b,rev?*%
%TF.SameCoordinates,Original*%
%TF.FileFunction,Copper,L3,Inr*%
%TF.FilePolarity,Positive*%
%FSLAX45Y45*%
G04 Gerber Fmt 4.5, Leading zero omitted, Abs format (unit mm)*
G04 Created by KiCad (PCBNEW 9.0.0) date 2025-05-05 21:38:29*
%MOMM*%
%LPD*%
G01*
G04 APERTURE LIST*
%TA.AperFunction,ComponentPad*%
%ADD10C,2.000000*%
%TD*%
%TA.AperFunction,ComponentPad*%
%ADD11R,1.700000X1.700000*%
%TD*%
%TA.AperFunction,ComponentPad*%
%ADD12O,1.700000X1.700000*%
%TD*%
%TA.AperFunction,ComponentPad*%
%ADD13O,1.000000X2.200000*%
%TD*%
%TA.AperFunction,ComponentPad*%
%ADD14O,1.000000X1.800000*%
%TD*%
%TA.AperFunction,ComponentPad*%
%ADD15R,1.350000X1.350000*%
%TD*%
%TA.AperFunction,ComponentPad*%
%ADD16C,1.350000*%
%TD*%
%TA.AperFunction,ViaPad*%
%ADD17C,0.300000*%
%TD*%
%TA.AperFunction,Conductor*%
%ADD18C,0.100000*%
%TD*%
%TA.AperFunction,Conductor*%
%ADD19C,0.250000*%
%TD*%
%TA.AperFunction,Conductor*%
%ADD20C,0.200000*%
%TD*%
G04 APERTURE END LIST*
D10*
%TO.N,GND*%
%TO.C,TP7*%
X15350000Y-10735000D03*
%TD*%
D11*
%TO.N,+3V3*%
%TO.C,J6*%
X15815000Y-9805000D03*
D12*
%TO.N,Net-(J6-Pin_2)*%
X15815000Y-10059000D03*
%TO.N,LPI2C3_SCL*%
X15815000Y-10313000D03*
%TO.N,LPI2C3_SDA*%
X15815000Y-10567000D03*
%TD*%
D11*
%TO.N,LPSPI4_PCSO*%
%TO.C,J11*%
X21955000Y-9472000D03*
D12*
%TO.N,LPSPI4_SDI*%
X21955000Y-9218000D03*
%TO.N,LPSPI4_SDO*%
X21955000Y-8964000D03*
%TO.N,LPSPI4_SCK*%
X21955000Y-8710000D03*
%TD*%
D11*
%TO.N,TEST_ANTENNAS*%
%TO.C,J9*%
X21502500Y-6270000D03*
D12*
%TO.N,FIRE_DEPLOY1_A*%
X21502500Y-6016000D03*
%TO.N,FIRE_DEPLOY1_B*%
X21502500Y-5762000D03*
%TD*%
D10*
%TO.N,VBUS*%
%TO.C,TP5*%
X15350000Y-9805000D03*
%TD*%
%TO.N,VBUSP*%
%TO.C,TP8*%
X15350000Y-11200000D03*
%TD*%
D11*
%TO.N,+3V3*%
%TO.C,J7*%
X16282500Y-9807500D03*
D12*
%TO.N,Net-(J7-Pin_2)*%
X16282500Y-10061500D03*
%TO.N,LPI2C4_SCL*%
X16282500Y-10315500D03*
%TO.N,LPI2C4_SDA*%
X16282500Y-10569500D03*
%TD*%
D13*
%TO.N,GND*%
%TO.C,J2*%
X17628000Y-13837500D03*
X18492000Y-13837500D03*
D14*
X17628000Y-13437500D03*
X18492000Y-13437500D03*
%TD*%
D11*
%TO.N,DEPLOY1*%
%TO.C,J4*%
X21042500Y-5765000D03*
D12*
%TO.N,READ_DEPLOY1*%
X21042500Y-6019000D03*
%TD*%
D15*
%TO.N,+3V3*%
%TO.C,J10*%
X16272500Y-11870000D03*
D16*
%TO.N,JTAG_MOD*%
X16472500Y-11870000D03*
%TO.N,GND*%
X16272500Y-11670000D03*
%TO.N,JTAG_TCK*%
X16472500Y-11670000D03*
%TO.N,GND*%
X16272500Y-11470000D03*
%TO.N,JTAG_TDO*%
X16472500Y-11470000D03*
%TO.N,JTAG_TMS*%
X16272500Y-11270000D03*
%TO.N,JTAG_TDI*%
X16472500Y-11270000D03*
%TO.N,GND*%
X16272500Y-11070000D03*
%TO.N,JTAG_TRSTB*%
X16472500Y-11070000D03*
%TD*%
D10*
%TO.N,+3V3*%
%TO.C,TP6*%
X15360000Y-10305000D03*
%TD*%
D11*
%TO.N,VBUS*%
%TO.C,J3*%
X15815000Y-11030000D03*
D12*
%TO.N,+3V3*%
X15815000Y-11284000D03*
%TO.N,DCDC_IN*%
X15815000Y-11538000D03*
%TO.N,GND*%
X15815000Y-11792000D03*
%TD*%
D11*
%TO.N,LPUART2_RX*%
%TO.C,J5*%
X21575000Y-8969000D03*
D12*
%TO.N,LPUART2_TX*%
X21575000Y-8715000D03*
%TD*%
D17*
%TO.N,GND*%
X19800000Y-10250000D03*
X19872500Y-7292500D03*
X20320000Y-9615000D03*
X19060000Y-9620000D03*
X18167500Y-9552500D03*
X19540000Y-9140000D03*
X19160000Y-8025000D03*
X21167500Y-9315000D03*
X19140000Y-8900000D03*
X19060000Y-8580000D03*
X19620000Y-9140000D03*
X18380000Y-13249200D03*
X19140000Y-9540000D03*
X16979000Y-12877800D03*
X19365000Y-6452500D03*
X19540000Y-9060000D03*
X19520000Y-11405000D03*
X19970000Y-9102400D03*
X20020000Y-9300000D03*
X20257500Y-6450000D03*
X19160000Y-8185000D03*
X17740000Y-13248000D03*
X20322500Y-9825000D03*
X19945000Y-8175000D03*
X20257500Y-6667500D03*
X19460000Y-9300000D03*
X21167500Y-9635000D03*
X18965000Y-9245000D03*
X19620000Y-9220000D03*
X19570000Y-7190000D03*
X19320000Y-8185000D03*
X19620000Y-9060000D03*
X20020000Y-8900000D03*
X21030000Y-7440000D03*
X19660000Y-9012500D03*
X18300000Y-12700000D03*
X19140000Y-9300000D03*
X20417500Y-8910000D03*
X20775000Y-8822500D03*
X17867500Y-9752500D03*
X20417500Y-9190000D03*
X20100000Y-9620000D03*
X18840000Y-7945000D03*
X20955000Y-7817500D03*
X19160000Y-7865000D03*
X20775000Y-8987500D03*
X19380000Y-9540000D03*
X19320000Y-7545000D03*
X19060000Y-9540000D03*
X17857500Y-8920000D03*
X19540000Y-9220000D03*
X19380000Y-8660000D03*
X19780000Y-8660000D03*
X20985000Y-8270000D03*
X19520000Y-10260000D03*
X20100000Y-8580000D03*
X19700000Y-9380000D03*
X18167500Y-9752500D03*
X18840000Y-8105000D03*
X18067500Y-9352500D03*
X19700000Y-9300000D03*
X19620000Y-9540000D03*
%TO.N,VDD_SOC*%
X19460000Y-9140000D03*
X18957500Y-9312500D03*
X19700000Y-9220000D03*
X19380000Y-9220000D03*
X19576500Y-8935000D03*
%TO.N,Net-(U1E-NVCC_PLL)*%
X19780000Y-9620000D03*
%TO.N,VBUS*%
X18320000Y-12900000D03*
X19135000Y-9997500D03*
X18288000Y-13385800D03*
X18895000Y-9997500D03*
X19495000Y-9580000D03*
X17830800Y-13385800D03*
%TO.N,PWDN*%
X20020000Y-8740000D03*
X19922500Y-9850000D03*
%TO.N,Net-(U1E-VDD_SNVS_CAP)*%
X19780000Y-9460000D03*
%TO.N,Net-(U1F-VDD_USB_CAP)*%
X19620000Y-9300000D03*
%TO.N,Net-(U1D-DCDC_PSWITCH)*%
X19190000Y-9182500D03*
X19220000Y-9300000D03*
%TO.N,LDO_EN*%
X19800000Y-11005000D03*
X20205000Y-9875000D03*
X20020000Y-8660000D03*
%TO.N,XRS*%
X19800000Y-11105000D03*
X20172500Y-8907500D03*
X20172500Y-9190000D03*
X20585000Y-9875000D03*
X20232500Y-9210000D03*
X20020000Y-8820000D03*
%TO.N,Net-(U1E-VDD_HIGH_CAP)*%
X19620000Y-9620000D03*
%TO.N,/Memory/DQS*%
X19562178Y-8618811D03*
%TO.N,WDT_WDI*%
X20215000Y-7652500D03*
X20215000Y-8680000D03*
%TO.N,+3V3*%
X20100000Y-9540000D03*
X19770000Y-8270000D03*
X19175000Y-11152500D03*
X19700000Y-8900000D03*
X18680000Y-8185000D03*
X18840000Y-7865000D03*
X19940000Y-9620000D03*
X19420000Y-8780000D03*
X19657500Y-8942500D03*
X19570000Y-6864500D03*
X18167500Y-9652500D03*
X17967500Y-9352500D03*
X19060000Y-9380000D03*
X19358500Y-9017500D03*
X19160000Y-7945000D03*
X18680000Y-7545000D03*
X18840000Y-8025000D03*
X17867500Y-9652500D03*
X18030000Y-9900000D03*
X19380000Y-9300000D03*
X19175000Y-11259500D03*
X18840000Y-8185000D03*
X19575000Y-9100000D03*
X19070000Y-9915000D03*
X19740000Y-9025000D03*
X19160000Y-8105000D03*
X18995000Y-9895000D03*
X19780000Y-8980000D03*
X18267500Y-9652500D03*
X19140000Y-9380000D03*
X18680000Y-7320000D03*
X19085000Y-9182500D03*
X19778750Y-9221250D03*
X19650000Y-6722500D03*
X19300000Y-9300000D03*
X19700000Y-9460000D03*
X19460000Y-9220000D03*
%TO.N,DCDC_IN*%
X15815000Y-12225000D03*
X16397500Y-12655000D03*
%TO.N,WDT_BIAS*%
X20420000Y-7305000D03*
X19777500Y-7210000D03*
%TO.N,USB_DP_1*%
X19620000Y-9380000D03*
X19450000Y-9890000D03*
%TO.N,DQ1*%
X18680000Y-8105000D03*
X18957600Y-8949900D03*
X19220000Y-8980000D03*
%TO.N,DQ13*%
X19198250Y-8780948D03*
X19240000Y-8105000D03*
%TO.N,DQ15*%
X19239976Y-8620024D03*
X19300000Y-8900000D03*
X19240000Y-8185000D03*
%TO.N,DQML*%
X18261929Y-8558071D03*
X18850000Y-8540000D03*
%TO.N,A10*%
X18490000Y-8120000D03*
X18680000Y-7625000D03*
X18720000Y-7915000D03*
X19140000Y-9060000D03*
%TO.N,DQ7*%
X19260026Y-9120100D03*
X19010000Y-8979900D03*
%TO.N,DQ0*%
X19220000Y-8900000D03*
X18760000Y-8185000D03*
%TO.N,DQ11*%
X19240000Y-8025000D03*
X19300000Y-8740000D03*
%TO.N,DQ10*%
X19380000Y-8820000D03*
X19320000Y-7945000D03*
%TO.N,DQ9*%
X19380000Y-8740000D03*
X19240000Y-7945000D03*
%TO.N,DQ6*%
X18760000Y-7945000D03*
%TO.N,DQMH*%
X19460000Y-8820000D03*
X19320000Y-7785000D03*
%TO.N,DQ12*%
X19355000Y-8620000D03*
X19300000Y-8820000D03*
X19320000Y-8025000D03*
%TO.N,DQ14*%
X19320000Y-8105000D03*
X19220000Y-8740000D03*
%TO.N,DQ3*%
X18680000Y-8025000D03*
X19300000Y-9060000D03*
%TO.N,DQ2*%
X18760000Y-8105000D03*
%TO.N,~{CS}*%
X19060000Y-8900000D03*
X18755000Y-8900000D03*
%TO.N,DQ8*%
X19460000Y-8740000D03*
X19320000Y-7865000D03*
%TO.N,DQ5*%
X19380000Y-9060000D03*
X18680000Y-7945000D03*
%TO.N,DQ4*%
X18880000Y-8980000D03*
X18760000Y-8025000D03*
X19140000Y-8980000D03*
%TO.N,CSI_DATA05*%
X19740000Y-9342500D03*
X19520000Y-10555000D03*
X19940000Y-9140000D03*
%TO.N,CSI_PIXCLK*%
X19940000Y-9380000D03*
X19520000Y-10355000D03*
%TO.N,LPI2C1_SCL*%
X19645000Y-10902500D03*
X19520000Y-11155000D03*
%TO.N,CSI_DATA08*%
X20090000Y-9719900D03*
X20020000Y-9460000D03*
X19520000Y-10850000D03*
%TO.N,CSI_VSYNC*%
X19935000Y-10362500D03*
X19940000Y-9220000D03*
X19800000Y-10505000D03*
%TO.N,CSI_DATA02*%
X19800000Y-10805000D03*
X20100000Y-9220000D03*
%TO.N,CSI_DATA03*%
X19520000Y-10450000D03*
X19940000Y-9060000D03*
%TO.N,CSI_DATA06*%
X19800000Y-10905000D03*
X20020000Y-9220000D03*
%TO.N,CSI_DATA09*%
X19520000Y-10755000D03*
X19910000Y-9719900D03*
%TO.N,LPI2C1_SDA*%
X19790000Y-11205000D03*
X19860000Y-9300000D03*
%TO.N,CSI_HSYNC*%
X20045000Y-9420000D03*
X19800000Y-10605000D03*
%TO.N,CSI_DATA07*%
X19800000Y-10705000D03*
X20020000Y-9380000D03*
X20000100Y-10295000D03*
X20235000Y-9317500D03*
%TO.N,CSI_MCLK*%
X19940000Y-9300000D03*
X19800000Y-11305000D03*
%TO.N,CSI_DATA04*%
X19860000Y-9140000D03*
X19520000Y-10655000D03*
X19660000Y-9360048D03*
%TO.N,LPUART2_TX*%
X20235000Y-9275000D03*
%TO.N,LPI2C4_SCL*%
X19840048Y-9340000D03*
X16625000Y-10237500D03*
X16480000Y-10262500D03*
X19296000Y-9913000D03*
%TO.N,LPI2C4_SDA*%
X19892500Y-9805000D03*
X20100000Y-9380000D03*
X19338913Y-9912729D03*
%TO.N,LPI2C3_SCL*%
X16955000Y-10109200D03*
X16860000Y-10200000D03*
%TO.N,LPI2C3_SDA*%
X17150000Y-10015000D03*
X16810000Y-10667000D03*
%TO.N,Net-(L1-Pad1)*%
X19060000Y-9460000D03*
X18957500Y-9460000D03*
%TO.N,FIRE_DEPLOY1_A*%
X19192457Y-5948468D03*
X20832766Y-6080100D03*
X20045000Y-6080000D03*
X19607500Y-6195000D03*
%TO.N,FIRE_DEPLOY1_B*%
X19607500Y-5947500D03*
X19190000Y-6190000D03*
%TO.N,VBUSP*%
X19205000Y-5582500D03*
X20012500Y-5672500D03*
%TO.N,JTAG_MOD*%
X20060000Y-9017500D03*
%TO.N,JTAG_TRSTB*%
X19780480Y-9057400D03*
%TO.N,GPIO_B0_04*%
X19620000Y-8740000D03*
X17747500Y-6340000D03*
%TO.N,GPIO_B0_05*%
X17742500Y-7200000D03*
X19620000Y-8660000D03*
%TO.N,GPIO_B0_06*%
X19681247Y-8446253D03*
X17742500Y-7073500D03*
%TO.N,GPIO_B0_07*%
X17745000Y-6945000D03*
X19700000Y-8580000D03*
X19745000Y-8505000D03*
%TO.N,GPIO_B0_08*%
X17744000Y-6820000D03*
X19700000Y-8657500D03*
%TO.N,GPIO_B0_09*%
X19577500Y-8545000D03*
X19700000Y-8740000D03*
X17749000Y-8045000D03*
%TO.N,GPIO_B0_10*%
X17755000Y-8921000D03*
X19700000Y-8820000D03*
%TO.N,GPIO_B0_11*%
X19650000Y-8542500D03*
X17741000Y-7923500D03*
%TO.N,GPIO_B0_12*%
X17745000Y-7796500D03*
X19660000Y-8630000D03*
%TO.N,GPIO_B0_13*%
X19780000Y-8820000D03*
X17751000Y-8794000D03*
%TO.N,GPIO_B0_14*%
X19740000Y-8640048D03*
X17747500Y-7669500D03*
X19740000Y-8800000D03*
%TO.N,GPIO_B0_15*%
X19860000Y-8900000D03*
X17745000Y-6490000D03*
%TO.N,GPIO_AD_B0_04*%
X19860000Y-8980000D03*
X17747500Y-8540000D03*
%TO.N,GPIO_AD_B0_05*%
X17750000Y-8667000D03*
X20100000Y-9060000D03*
%TO.N,/Watchdog/WDT-VP*%
X20800000Y-7305000D03*
X20680000Y-7700000D03*
%TO.N,ODQ7*%
X19380000Y-9380000D03*
X18860000Y-9320000D03*
%TO.N,ODQ6*%
X19380000Y-9460000D03*
X17867500Y-9452500D03*
%TO.N,JTAG_TMS*%
X20267600Y-9067532D03*
%TO.N,JTAG_TCK*%
X19940000Y-8980000D03*
%TO.N,ODQ1*%
X19300000Y-9540000D03*
X17967500Y-9452500D03*
%TO.N,A_OSCLK*%
X18897500Y-9440100D03*
X19300000Y-9380000D03*
%TO.N,JTAG_TDI*%
X20272500Y-9257500D03*
%TO.N,JTAG_TDO*%
X20235000Y-9165000D03*
%TO.N,Net-(U4D--)*%
X21170000Y-8195000D03*
X20733900Y-7781530D03*
X20735000Y-7360000D03*
X20955000Y-7945000D03*
%TO.N,Net-(J6-Pin_2)*%
X16621250Y-10331250D03*
X16812500Y-10567500D03*
%TO.N,Net-(J7-Pin_2)*%
X16738600Y-10058400D03*
X16637000Y-10566400D03*
%TO.N,Net-(JP1-A)*%
X20825000Y-7665000D03*
X21352500Y-7392500D03*
%TO.N,Net-(Q2A-G)*%
X19780000Y-5762500D03*
X20252500Y-5762500D03*
%TO.N,Net-(U3-ERR#)*%
X18267500Y-9752500D03*
%TO.N,Net-(U4B--)*%
X20675000Y-7240000D03*
X20380000Y-8010000D03*
%TO.N,Net-(U4A--)*%
X20385000Y-7880000D03*
X20067500Y-7500000D03*
%TO.N,Net-(U5-ILIM)*%
X19755000Y-6725000D03*
X19822500Y-6960000D03*
%TO.N,Net-(R56-Pad1)*%
X20382500Y-7690000D03*
X20430000Y-8345000D03*
%TO.N,Net-(U4C-+)*%
X21115000Y-7745000D03*
X21115000Y-7612500D03*
%TO.N,~{WE}*%
X19060000Y-8820000D03*
X18680000Y-7785000D03*
%TO.N,A9*%
X19140000Y-8660000D03*
%TO.N,LPSPI4_SDI*%
X19760000Y-8940000D03*
%TO.N,LPSPI4_SCK*%
X20155000Y-8755000D03*
X19840000Y-8780000D03*
X21780000Y-8500000D03*
%TO.N,LPSPI4_SDO*%
X20320000Y-8830000D03*
X19620000Y-8900000D03*
%TO.N,LPSPI4_PCSO*%
X19660000Y-8840000D03*
X20502500Y-8580000D03*
%TD*%
D18*
%TO.N,PWDN*%
X20142500Y-8802500D02*
X20142500Y-9455000D01*
X19983326Y-9614174D02*
X19983326Y-9789174D01*
X20142500Y-9455000D02*
X19983326Y-9614174D01*
X20055000Y-8775000D02*
X20115000Y-8775000D01*
X20115000Y-8775000D02*
X20142500Y-8802500D01*
X20020000Y-8740000D02*
X20055000Y-8775000D01*
X19983326Y-9789174D02*
X19922500Y-9850000D01*
%TO.N,LDO_EN*%
X20205000Y-9875000D02*
X20205000Y-8755000D01*
X20060000Y-8700000D02*
X20020000Y-8660000D01*
X20150000Y-8700000D02*
X20060000Y-8700000D01*
X20205000Y-8755000D02*
X20150000Y-8700000D01*
%TO.N,XRS*%
X20172500Y-9190000D02*
X20172500Y-8907500D01*
D19*
%TO.N,+3V3*%
X19060000Y-9389132D02*
X18995000Y-9454132D01*
X19060000Y-9380000D02*
X19060000Y-9389132D01*
X18995000Y-9454132D02*
X18995000Y-9895000D01*
X19665000Y-9100000D02*
X19740000Y-9025000D01*
X19575000Y-9100000D02*
X19665000Y-9100000D01*
D18*
%TO.N,DQ1*%
X19220000Y-8980000D02*
X19189900Y-8949900D01*
X19189900Y-8949900D02*
X18957600Y-8949900D01*
%TO.N,DQ15*%
X19239952Y-8620000D02*
X19239976Y-8620024D01*
X19250100Y-8630148D02*
X19250100Y-8850100D01*
X19239976Y-8620024D02*
X19250100Y-8630148D01*
X19250100Y-8850100D02*
X19300000Y-8900000D01*
%TO.N,DQML*%
X18280000Y-8540000D02*
X18850000Y-8540000D01*
X18261929Y-8558071D02*
X18280000Y-8540000D01*
%TO.N,A10*%
X18692468Y-7975100D02*
X18634900Y-7975100D01*
X18634900Y-7975100D02*
X18490000Y-8120000D01*
X18720000Y-7947568D02*
X18692468Y-7975100D01*
X18720000Y-7915000D02*
X18720000Y-7947568D01*
%TO.N,DQ12*%
X19330100Y-8644900D02*
X19355000Y-8620000D01*
X19300000Y-8820000D02*
X19330100Y-8789900D01*
X19330100Y-8789900D02*
X19330100Y-8644900D01*
%TO.N,~{CS}*%
X18755000Y-8900000D02*
X19060000Y-8900000D01*
%TO.N,DQ4*%
X19140000Y-8990000D02*
X19110000Y-9020000D01*
X18920000Y-9020000D02*
X18880000Y-8980000D01*
X19140000Y-8980000D02*
X19140000Y-8990000D01*
X19110000Y-9020000D02*
X18920000Y-9020000D01*
%TO.N,CSI_DATA05*%
X19740000Y-9340000D02*
X19940000Y-9140000D01*
X19740000Y-9342500D02*
X19740000Y-9340000D01*
%TO.N,CSI_VSYNC*%
X19917600Y-9762997D02*
X19884900Y-9730297D01*
X19938750Y-10366250D02*
X19935000Y-10362500D01*
X19935000Y-10362500D02*
X19935000Y-10145100D01*
X19884900Y-9390597D02*
X19965100Y-9310397D01*
X19935000Y-10145100D02*
X19897400Y-10107500D01*
X19965100Y-9310397D02*
X19965100Y-9245100D01*
X19884900Y-9730297D02*
X19884900Y-9390597D01*
X19897400Y-10107500D02*
X19897400Y-9839603D01*
X19965100Y-9245100D02*
X19940000Y-9220000D01*
X19917600Y-9819403D02*
X19917600Y-9762997D01*
X19897400Y-9839603D02*
X19917600Y-9819403D01*
%TO.N,CSI_DATA09*%
X19910000Y-9605000D02*
X19910000Y-9719900D01*
X20070000Y-9485000D02*
X19975000Y-9580000D01*
X19935000Y-9580000D02*
X19910000Y-9605000D01*
X20070100Y-9190100D02*
X20070100Y-9484900D01*
X19975000Y-9580000D02*
X19935000Y-9580000D01*
X20070100Y-9484900D02*
X20070000Y-9485000D01*
%TO.N,CSI_DATA07*%
X20000100Y-10144900D02*
X20235000Y-9910000D01*
X20000100Y-10295000D02*
X20000100Y-10144900D01*
X20235000Y-9910000D02*
X20235000Y-9317500D01*
%TO.N,CSI_MCLK*%
X19862500Y-9847500D02*
X19680000Y-10030000D01*
X19940000Y-9300000D02*
X19940000Y-9310000D01*
X19940000Y-9310000D02*
X19862500Y-9387500D01*
X19680000Y-10030000D02*
X19680000Y-11185000D01*
X19862500Y-9387500D02*
X19862500Y-9847500D01*
X19680000Y-11185000D02*
X19800000Y-11305000D01*
%TO.N,CSI_DATA04*%
X19687532Y-9269900D02*
X19662500Y-9294932D01*
X19860000Y-9140000D02*
X19860000Y-9191574D01*
X19860000Y-9191574D02*
X19781674Y-9269900D01*
X19781674Y-9269900D02*
X19687532Y-9269900D01*
X19660000Y-9360048D02*
X19660000Y-9297432D01*
X19660000Y-9297432D02*
X19662500Y-9294932D01*
%TO.N,LPUART2_TX*%
X20400000Y-9440000D02*
X20235000Y-9275000D01*
X20850000Y-9440000D02*
X20400000Y-9440000D01*
X21575000Y-8715000D02*
X20850000Y-9440000D01*
%TO.N,LPI2C3_SDA*%
X17150000Y-10015000D02*
X17150000Y-10327000D01*
X17150000Y-10327000D02*
X16810000Y-10667000D01*
%TO.N,GPIO_B0_04*%
X17714900Y-6372600D02*
X17714900Y-6502468D01*
X19167332Y-8154900D02*
X19460888Y-8154900D01*
X19712500Y-8772500D02*
X19820000Y-8665000D01*
X17747500Y-6340000D02*
X17714900Y-6372600D01*
X19620000Y-8740000D02*
X19652500Y-8772500D01*
X19652500Y-8772500D02*
X19712500Y-8772500D01*
X19820000Y-8514012D02*
X19820000Y-8650000D01*
X19820000Y-8665000D02*
X19820000Y-8650000D01*
X17714900Y-6502468D02*
X19027532Y-7815100D01*
X19027532Y-8015100D02*
X19167332Y-8154900D01*
X19027532Y-7815100D02*
X19027532Y-8015100D01*
X19460888Y-8154900D02*
X19820000Y-8514012D01*
%TO.N,GPIO_B0_05*%
X17742500Y-7200000D02*
X17710900Y-7231600D01*
X19574646Y-8588711D02*
X19620000Y-8634065D01*
X19227485Y-8589900D02*
X19530377Y-8589900D01*
X17710900Y-7231600D02*
X17710900Y-8049468D01*
X19620000Y-8634065D02*
X19620000Y-8660000D01*
X17710900Y-8049468D02*
X18271532Y-8610100D01*
X19530377Y-8589900D02*
X19531566Y-8588711D01*
X19207284Y-8610100D02*
X19227485Y-8589900D01*
X18271532Y-8610100D02*
X19207284Y-8610100D01*
X19531566Y-8588711D02*
X19574646Y-8588711D01*
%TO.N,GPIO_B0_06*%
X17777600Y-7657032D02*
X18487868Y-8367300D01*
X17777600Y-7108600D02*
X17777600Y-7657032D01*
X19602294Y-8367300D02*
X19681247Y-8446253D01*
X18487868Y-8367300D02*
X19602294Y-8367300D01*
X17742500Y-7073500D02*
X17777600Y-7108600D01*
%TO.N,GPIO_B0_07*%
X18380000Y-7580000D02*
X18380000Y-8052568D01*
X19624762Y-8347200D02*
X19745000Y-8467438D01*
X17745000Y-6945000D02*
X18380000Y-7580000D01*
X18674632Y-8347200D02*
X19624762Y-8347200D01*
X18380000Y-8052568D02*
X18674632Y-8347200D01*
X19745000Y-8467438D02*
X19745000Y-8505000D01*
%TO.N,GPIO_B0_08*%
X19269900Y-8898326D02*
X19269900Y-8912468D01*
X19607532Y-8709900D02*
X19608800Y-8709900D01*
X19589900Y-8807300D02*
X19589900Y-8727532D01*
X17690800Y-6873200D02*
X17690800Y-8057794D01*
X17690800Y-8057794D02*
X18491432Y-8858426D01*
X18491432Y-8858426D02*
X19230000Y-8858426D01*
X19607532Y-8709900D02*
X19607632Y-8710000D01*
X19287532Y-8930100D02*
X19467100Y-8930100D01*
X19647500Y-8710000D02*
X19700000Y-8657500D01*
X19589900Y-8727532D02*
X19607532Y-8709900D01*
X19607632Y-8710000D02*
X19647500Y-8710000D01*
X19467100Y-8930100D02*
X19589900Y-8807300D01*
X19269900Y-8912468D02*
X19287532Y-8930100D01*
X17744000Y-6820000D02*
X17690800Y-6873200D01*
X19230000Y-8858426D02*
X19269900Y-8898326D01*
%TO.N,GPIO_B0_09*%
X18191500Y-8487500D02*
X19520000Y-8487500D01*
X17749000Y-8045000D02*
X18191500Y-8487500D01*
X19520000Y-8487500D02*
X19577500Y-8545000D01*
%TO.N,GPIO_B0_10*%
X19737500Y-8857500D02*
X19700000Y-8820000D01*
X19778745Y-9109900D02*
X19814900Y-9073745D01*
X19715000Y-9109900D02*
X19778745Y-9109900D01*
X19814900Y-9073745D02*
X19814900Y-8940000D01*
X19812500Y-8930000D02*
X19808750Y-8926250D01*
X19740000Y-8857500D02*
X19737500Y-8857500D01*
X19350000Y-9150200D02*
X19374800Y-9175000D01*
X19808750Y-8926250D02*
X19740000Y-8857500D01*
X19649900Y-9175000D02*
X19715000Y-9109900D01*
X17752500Y-8920000D02*
X17982700Y-9150200D01*
X19814900Y-8932400D02*
X19808750Y-8926250D01*
X17982700Y-9150200D02*
X19350000Y-9150200D01*
X19374800Y-9175000D02*
X19649900Y-9175000D01*
X19814900Y-8940000D02*
X19814900Y-8932400D01*
%TO.N,GPIO_B0_11*%
X17741000Y-7923500D02*
X18285000Y-8467500D01*
X19601676Y-8511676D02*
X19632500Y-8542500D01*
X19522500Y-8467500D02*
X19557500Y-8467500D01*
X19557500Y-8467500D02*
X19601676Y-8511676D01*
X19632500Y-8542500D02*
X19650000Y-8542500D01*
X18285000Y-8467500D02*
X19522500Y-8467500D01*
%TO.N,GPIO_B0_12*%
X19557500Y-8407500D02*
X19680000Y-8530000D01*
X18356000Y-8407500D02*
X19557500Y-8407500D01*
X19660000Y-8630000D02*
X19660000Y-8575068D01*
X19680000Y-8530000D02*
X19680000Y-8555068D01*
X17745000Y-7796500D02*
X18356000Y-8407500D01*
X19680000Y-8555068D02*
X19660000Y-8575068D01*
%TO.N,GPIO_B0_13*%
X19072532Y-9212600D02*
X19030232Y-9170300D01*
X19658784Y-9191216D02*
X19273884Y-9191216D01*
X19830000Y-9080000D02*
X19780000Y-9130000D01*
X19830000Y-8870000D02*
X19830000Y-9080000D01*
X19780000Y-9130000D02*
X19720000Y-9130000D01*
X19720000Y-9130000D02*
X19658784Y-9191216D01*
X19780000Y-8820000D02*
X19830000Y-8870000D01*
X19252500Y-9212600D02*
X19072532Y-9212600D01*
X17724900Y-8820100D02*
X17751000Y-8794000D01*
X19030232Y-9170300D02*
X17961732Y-9170300D01*
X17724900Y-8933468D02*
X17724900Y-8820100D01*
X17961732Y-9170300D02*
X17724900Y-8933468D01*
X19273884Y-9191216D02*
X19252500Y-9212600D01*
%TO.N,GPIO_B0_14*%
X19740000Y-8640048D02*
X19740000Y-8547433D01*
X19579968Y-8387400D02*
X19740000Y-8547432D01*
X19740000Y-8547433D02*
X19740000Y-8547432D01*
X18465400Y-8387400D02*
X19579968Y-8387400D01*
X17747500Y-7669500D02*
X18465400Y-8387400D01*
%TO.N,GPIO_B0_15*%
X19857500Y-8262500D02*
X18085000Y-6490000D01*
X18085000Y-6490000D02*
X17745000Y-6490000D01*
X19879700Y-8880300D02*
X19879700Y-8487200D01*
X19857500Y-8465000D02*
X19857500Y-8262500D01*
X19860000Y-8900000D02*
X19879700Y-8880300D01*
X19879700Y-8487200D02*
X19857500Y-8465000D01*
%TO.N,GPIO_AD_B0_04*%
X19860000Y-8980000D02*
X19860000Y-8977500D01*
X19780000Y-9165000D02*
X19857500Y-9087500D01*
X17704800Y-8797632D02*
X17704800Y-8941794D01*
X19857500Y-8982500D02*
X19860000Y-8980000D01*
X19707500Y-9165000D02*
X19780000Y-9165000D01*
X19635000Y-9252500D02*
X19650000Y-9237500D01*
X17780100Y-8572600D02*
X17747500Y-8540000D01*
X19325000Y-9252500D02*
X19027500Y-9252500D01*
X18982500Y-9207500D02*
X18895000Y-9207500D01*
X18875000Y-9227500D02*
X17990506Y-9227500D01*
X18895000Y-9207500D02*
X18875000Y-9227500D01*
X19027500Y-9252500D02*
X18982500Y-9207500D01*
X17704800Y-8941794D02*
X17955507Y-9192500D01*
X19650000Y-9222500D02*
X19707500Y-9165000D01*
X17704800Y-8797632D02*
X17780100Y-8722332D01*
X19857500Y-9087500D02*
X19857500Y-8982500D01*
X17780100Y-8722332D02*
X17780100Y-8572600D01*
X19325000Y-9252500D02*
X19635000Y-9252500D01*
X17990506Y-9227500D02*
X17956503Y-9193497D01*
X19650000Y-9237500D02*
X19650000Y-9222500D01*
%TO.N,GPIO_AD_B0_05*%
X19000000Y-9410100D02*
X18173107Y-9410100D01*
X19085000Y-9345000D02*
X19040000Y-9345000D01*
X19127532Y-9410100D02*
X19095000Y-9377568D01*
X18022081Y-9287500D02*
X17684700Y-8950119D01*
X19095000Y-9355000D02*
X19085000Y-9345000D01*
X19952468Y-9170100D02*
X20027568Y-9095000D01*
X20027568Y-9095000D02*
X20065000Y-9095000D01*
X19040000Y-9345000D02*
X19025000Y-9360000D01*
X19952468Y-9170100D02*
X19938326Y-9170100D01*
X18120000Y-9337500D02*
X18070000Y-9287500D01*
X17684700Y-8732300D02*
X17750000Y-8667000D01*
X19714968Y-9409535D02*
X19714968Y-9410100D01*
X19903326Y-9221742D02*
X19902761Y-9221742D01*
X19714968Y-9410100D02*
X19127532Y-9410100D01*
X18173007Y-9410000D02*
X18152500Y-9410000D01*
X20065000Y-9095000D02*
X20100000Y-9060000D01*
X17684700Y-8950119D02*
X17684700Y-8732300D01*
X19938326Y-9170100D02*
X19903326Y-9205100D01*
X19903326Y-9205100D02*
X19903326Y-9221742D01*
X18173107Y-9410100D02*
X18173007Y-9410000D01*
X19025000Y-9360000D02*
X19025000Y-9385100D01*
X18070000Y-9287500D02*
X18022081Y-9287500D01*
X19025000Y-9385100D02*
X19000000Y-9410100D01*
X18152500Y-9410000D02*
X18120000Y-9377500D01*
X18120000Y-9377500D02*
X18120000Y-9337500D01*
X19902761Y-9221742D02*
X19714968Y-9409535D01*
X19095000Y-9377568D02*
X19095000Y-9355000D01*
D20*
%TO.N,/Watchdog/WDT-VP*%
X20800000Y-7580000D02*
X20800000Y-7305000D01*
D19*
X20680000Y-7700000D02*
X20800000Y-7580000D01*
D20*
%TO.N,Net-(U4B--)*%
X20545000Y-8010000D02*
X20380000Y-8010000D01*
X20675000Y-7240000D02*
X20620000Y-7295000D01*
X20620000Y-7935000D02*
X20545000Y-8010000D01*
X20620000Y-7295000D02*
X20620000Y-7935000D01*
D18*
%TO.N,LPSPI4_PCSO*%
X21790000Y-9330000D02*
X21920000Y-9460000D01*
X20530000Y-8580000D02*
X20502500Y-8580000D01*
X21720000Y-8580000D02*
X21790000Y-8650000D01*
X20530000Y-8580000D02*
X21720000Y-8580000D01*
X21790000Y-8650000D02*
X21790000Y-9330000D01*
%TD*%
M02*
