%TF.GenerationSoftware,KiCad,Pcbnew,9.0.0*%
%TF.CreationDate,2025-04-21T01:21:51-04:00*%
%TF.ProjectId,xy_faces_CUpayload_v2,78795f66-6163-4657-935f-43557061796c,3.0*%
%TF.SameCoordinates,Original*%
%TF.FileFunction,Copper,L2,Inr*%
%TF.FilePolarity,Positive*%
%FSLAX46Y46*%
G04 Gerber Fmt 4.6, Leading zero omitted, Abs format (unit mm)*
G04 Created by KiCad (PCBNEW 9.0.0) date 2025-04-21 01:21:51*
%MOMM*%
%LPD*%
G01*
G04 APERTURE LIST*
%TA.AperFunction,HeatsinkPad*%
%ADD10C,0.500000*%
%TD*%
%TA.AperFunction,ViaPad*%
%ADD11C,0.800000*%
%TD*%
%TA.AperFunction,Conductor*%
%ADD12C,0.250000*%
%TD*%
%TA.AperFunction,Profile*%
%ADD13C,0.050000*%
%TD*%
%TA.AperFunction,Profile*%
%ADD14C,0.100000*%
%TD*%
%TA.AperFunction,Profile*%
%ADD15C,0.200000*%
%TD*%
G04 APERTURE END LIST*
D10*
%TO.N,GND*%
%TO.C,U2*%
X154375000Y-115070000D03*
X154375000Y-113770000D03*
X153275000Y-115070000D03*
X153275000Y-113770000D03*
%TD*%
D11*
%TO.N,GND*%
X139500000Y-129500000D03*
X168000000Y-156390000D03*
X144450000Y-156250000D03*
X153400000Y-116000000D03*
X137600000Y-116650000D03*
X143250000Y-119550000D03*
X149675000Y-112100000D03*
X150000000Y-131000000D03*
X121120000Y-156220000D03*
X137912500Y-112600000D03*
X143000000Y-127000000D03*
X174900000Y-118350000D03*
X151000000Y-119500000D03*
%TO.N,+3V3*%
X143600000Y-112600000D03*
X155600000Y-103650000D03*
X149500000Y-114160000D03*
X148100000Y-103650000D03*
X151300000Y-116400000D03*
X152150000Y-103650000D03*
X143640000Y-110050000D03*
X145500000Y-112600000D03*
%TO.N,VSOLAR*%
X139750000Y-124450000D03*
%TO.N,SDA*%
X146500000Y-118500000D03*
X128560000Y-121470000D03*
%TO.N,SCL*%
X128630000Y-123030000D03*
X149600000Y-115990000D03*
%TO.N,Net-(SC5--)*%
X167900000Y-111350000D03*
X167850000Y-119600000D03*
%TD*%
D12*
%TO.N,+3V3*%
X149500000Y-114600000D02*
X149500000Y-114160000D01*
X145500000Y-112600000D02*
X147940000Y-112600000D01*
X147940000Y-112600000D02*
X149500000Y-114160000D01*
X151300000Y-116400000D02*
X149500000Y-114600000D01*
X151300000Y-116400000D02*
X151600000Y-116400000D01*
%TO.N,SDA*%
X137250000Y-118500000D02*
X134280000Y-121470000D01*
X146500000Y-118500000D02*
X137250000Y-118500000D01*
X146500000Y-118500000D02*
X146490000Y-118510000D01*
X134280000Y-121470000D02*
X128560000Y-121470000D01*
%TO.N,SCL*%
X146760000Y-120150000D02*
X137700000Y-120150000D01*
X149600000Y-117310000D02*
X146760000Y-120150000D01*
X149600000Y-115990000D02*
X149600000Y-117310000D01*
X137700000Y-120150000D02*
X134820000Y-123030000D01*
X134820000Y-123030000D02*
X128630000Y-123030000D01*
%TD*%
D13*
X136850000Y-153000000D02*
X136850000Y-147000000D01*
X142150000Y-153000000D02*
X142150000Y-147000000D01*
X146850000Y-147000000D02*
X146850000Y-153000000D01*
X152150000Y-153000000D02*
X152150000Y-147000000D01*
X142150000Y-76600000D02*
X142150000Y-82600000D01*
X136850000Y-76600000D02*
X136850000Y-82600000D01*
X146850000Y-76600000D02*
X146850000Y-82600000D01*
X152150000Y-76600000D02*
X152150000Y-82600000D01*
X142150000Y-82600000D02*
G75*
G02*
X136850000Y-82600000I-2650000J0D01*
G01*
D14*
X106350000Y-65750000D02*
X182650000Y-65750000D01*
X182650000Y-163750000D01*
X106350000Y-163750000D01*
X106350000Y-65750000D01*
D13*
X133075000Y-117262500D02*
G75*
G02*
X130075000Y-120262500I-3000000J0D01*
G01*
X146850000Y-76600000D02*
G75*
G02*
X152150000Y-76600000I2650000J0D01*
G01*
X136850000Y-76600000D02*
G75*
G02*
X142150000Y-76600000I2650000J0D01*
G01*
X125050000Y-120262500D02*
G75*
G02*
X125050000Y-109287500I12500J5487500D01*
G01*
X136850000Y-147000000D02*
G75*
G02*
X142150000Y-147000000I2650000J0D01*
G01*
X125050000Y-120262500D02*
X130075000Y-120262500D01*
X142150000Y-153000000D02*
G75*
G02*
X136850000Y-153000000I-2650000J0D01*
G01*
D15*
X111087500Y-98250000D02*
G75*
G02*
X108212500Y-98250000I-1437500J0D01*
G01*
X108212500Y-98250000D02*
G75*
G02*
X111087500Y-98250000I1437500J0D01*
G01*
D13*
X146850000Y-147000000D02*
G75*
G02*
X152150000Y-147000000I2650000J0D01*
G01*
D15*
X111087500Y-110250000D02*
G75*
G02*
X108212500Y-110250000I-1437500J0D01*
G01*
X108212500Y-110250000D02*
G75*
G02*
X111087500Y-110250000I1437500J0D01*
G01*
X111087500Y-122250000D02*
G75*
G02*
X108212500Y-122250000I-1437500J0D01*
G01*
X108212500Y-122250000D02*
G75*
G02*
X111087500Y-122250000I1437500J0D01*
G01*
D13*
X152150000Y-153000000D02*
G75*
G02*
X146850000Y-153000000I-2650000J0D01*
G01*
X125050000Y-109287500D02*
X130075000Y-109287500D01*
D15*
X178462500Y-116250000D02*
G75*
G02*
X175587500Y-116250000I-1437500J0D01*
G01*
X175587500Y-116250000D02*
G75*
G02*
X178462500Y-116250000I1437500J0D01*
G01*
D13*
X133075000Y-117262500D02*
X133075000Y-112287500D01*
X152150000Y-82600000D02*
G75*
G02*
X146850000Y-82600000I-2650000J0D01*
G01*
X130075000Y-109287500D02*
G75*
G02*
X133075000Y-112287500I0J-3000000D01*
G01*
M02*
