%TF.GenerationSoftware,KiCad,Pcbnew,9.0.0*%
%TF.CreationDate,2025-04-21T01:21:51-04:00*%
%TF.ProjectId,xy_faces_CUpayload_v2,78795f66-6163-4657-935f-43557061796c,3.0*%
%TF.SameCoordinates,Original*%
%TF.FileFunction,Copper,L4,Bot*%
%TF.FilePolarity,Positive*%
%FSLAX46Y46*%
G04 Gerber Fmt 4.6, Leading zero omitted, Abs format (unit mm)*
G04 Created by KiCad (PCBNEW 9.0.0) date 2025-04-21 01:21:51*
%MOMM*%
%LPD*%
G01*
G04 APERTURE LIST*
%TA.AperFunction,HeatsinkPad*%
%ADD10C,0.500000*%
%TD*%
%TA.AperFunction,HeatsinkPad*%
%ADD11R,1.600000X1.800000*%
%TD*%
%TA.AperFunction,SMDPad,CuDef*%
%ADD12R,0.700000X2.000000*%
%TD*%
%TA.AperFunction,SMDPad,CuDef*%
%ADD13R,1.600000X2.200000*%
%TD*%
%TA.AperFunction,SMDPad,CuDef*%
%ADD14R,0.730000X1.800000*%
%TD*%
%TA.AperFunction,SMDPad,CuDef*%
%ADD15R,0.700000X1.800000*%
%TD*%
%TA.AperFunction,SMDPad,CuDef*%
%ADD16R,2.000000X2.400000*%
%TD*%
%TA.AperFunction,ViaPad*%
%ADD17C,0.800000*%
%TD*%
%TA.AperFunction,Conductor*%
%ADD18C,0.500000*%
%TD*%
%TA.AperFunction,Conductor*%
%ADD19C,0.250000*%
%TD*%
%TA.AperFunction,Profile*%
%ADD20C,0.050000*%
%TD*%
%TA.AperFunction,Profile*%
%ADD21C,0.100000*%
%TD*%
%TA.AperFunction,Profile*%
%ADD22C,0.200000*%
%TD*%
G04 APERTURE END LIST*
D10*
%TO.P,U2,9,EP/GND*%
%TO.N,GND*%
X154375000Y-115070000D03*
X154375000Y-113770000D03*
D11*
X153825000Y-114420000D03*
D10*
X153275000Y-115070000D03*
X153275000Y-113770000D03*
%TD*%
D12*
%TO.P,CN1,1,1*%
%TO.N,SDA*%
X147000000Y-121660000D03*
%TO.P,CN1,2,2*%
%TO.N,SCL*%
X145750000Y-121660000D03*
%TO.P,CN1,3,3*%
%TO.N,+3V3*%
X144500000Y-121660000D03*
%TO.P,CN1,4,4*%
%TO.N,GND*%
X143250000Y-121660000D03*
%TO.P,CN1,5,5*%
%TO.N,VSOLAR*%
X142000000Y-121660000D03*
D13*
%TO.P,CN1,6,6*%
%TO.N,GND*%
X139580000Y-118340000D03*
%TO.P,CN1,7,7*%
X149420000Y-118340000D03*
%TD*%
D14*
%TO.P,CN2,1,1*%
%TO.N,SDA*%
X147085000Y-134100000D03*
D15*
%TO.P,CN2,2,2*%
%TO.N,SCL*%
X145850000Y-134100001D03*
%TO.P,CN2,3,3*%
%TO.N,+3V3*%
X144600000Y-134100000D03*
%TO.P,CN2,4,4*%
%TO.N,GND*%
X143350000Y-134100001D03*
%TO.P,CN2,5,5*%
%TO.N,VSOLAR*%
X142100000Y-134100000D03*
D16*
%TO.P,CN2,6,6*%
%TO.N,GND*%
X139349999Y-136880000D03*
%TO.P,CN2,7,7*%
X149850001Y-136880000D03*
%TD*%
D17*
%TO.N,GND*%
X139500000Y-129500000D03*
X168000000Y-156390000D03*
X144450000Y-156250000D03*
X153400000Y-116000000D03*
X137600000Y-116650000D03*
X143250000Y-119550000D03*
X149675000Y-112100000D03*
X150000000Y-131000000D03*
X121120000Y-156220000D03*
X137912500Y-112600000D03*
X143000000Y-127000000D03*
X174900000Y-118350000D03*
X151000000Y-119500000D03*
%TO.N,+3V3*%
X143600000Y-112600000D03*
X155600000Y-103650000D03*
X149500000Y-114160000D03*
X148100000Y-103650000D03*
X151300000Y-116400000D03*
X152150000Y-103650000D03*
X143640000Y-110050000D03*
X145500000Y-112600000D03*
%TO.N,VSOLAR*%
X139750000Y-124450000D03*
%TO.N,SDA*%
X146500000Y-118500000D03*
X128560000Y-121470000D03*
%TO.N,SCL*%
X128630000Y-123030000D03*
X149600000Y-115990000D03*
%TO.N,Net-(SC5--)*%
X167900000Y-111350000D03*
X167850000Y-119600000D03*
%TD*%
D18*
%TO.N,GND*%
X149850001Y-136880000D02*
X149850001Y-131149999D01*
X149850001Y-131149999D02*
X150000000Y-131000000D01*
X139500000Y-129500000D02*
X139500000Y-131000000D01*
X143350000Y-131150000D02*
X143350000Y-134100001D01*
X143250000Y-121660000D02*
X143250000Y-119550000D01*
X139580000Y-118340000D02*
X139290000Y-118340000D01*
X143000000Y-127000000D02*
X143000000Y-130800000D01*
X139500000Y-131000000D02*
X139349999Y-131150001D01*
X139349999Y-131150001D02*
X139349999Y-136880000D01*
X149420000Y-118340000D02*
X149840000Y-118340000D01*
X149840000Y-118340000D02*
X151000000Y-119500000D01*
X139290000Y-118340000D02*
X137600000Y-116650000D01*
X143000000Y-130800000D02*
X143350000Y-131150000D01*
X139580000Y-118340000D02*
X139660000Y-118340000D01*
%TO.N,+3V3*%
X144500000Y-118500000D02*
X148840000Y-114160000D01*
X144600000Y-134100000D02*
X144500000Y-134000000D01*
X148840000Y-114160000D02*
X149500000Y-114160000D01*
X142649000Y-111041000D02*
X143640000Y-110050000D01*
D19*
X152150000Y-103650000D02*
X155600000Y-103650000D01*
D18*
X144396504Y-118500000D02*
X142649000Y-116752496D01*
X144500000Y-118500000D02*
X144396504Y-118500000D01*
X142649000Y-116752496D02*
X142649000Y-111041000D01*
X144500000Y-121660000D02*
X144500000Y-118500000D01*
D19*
X148100000Y-103650000D02*
X152150000Y-103650000D01*
D18*
X144500000Y-134000000D02*
X144500000Y-121660000D01*
D19*
X143600000Y-112600000D02*
X145500000Y-112600000D01*
D18*
%TO.N,VSOLAR*%
X142000000Y-134000000D02*
X142100000Y-134100000D01*
X140490000Y-121660000D02*
X139750000Y-122400000D01*
X139750000Y-122400000D02*
X139750000Y-124450000D01*
X142000000Y-121660000D02*
X140490000Y-121660000D01*
X142000000Y-121660000D02*
X142000000Y-134000000D01*
%TO.N,SDA*%
X147085000Y-121745000D02*
X147000000Y-121660000D01*
D19*
X146500000Y-118500000D02*
X147000000Y-119000000D01*
D18*
X147085000Y-134100000D02*
X147085000Y-121745000D01*
D19*
X147000000Y-119000000D02*
X147000000Y-121660000D01*
D18*
%TO.N,SCL*%
X145850000Y-121760000D02*
X145750000Y-121660000D01*
D19*
X149600000Y-115990000D02*
X147983280Y-115990000D01*
X145750000Y-118223280D02*
X145750000Y-121660000D01*
D18*
X145850000Y-134100001D02*
X145850000Y-121760000D01*
D19*
X147983280Y-115990000D02*
X145750000Y-118223280D01*
D18*
%TO.N,Net-(SC5--)*%
X167850000Y-111400000D02*
X167900000Y-111350000D01*
X167850000Y-119600000D02*
X167850000Y-111400000D01*
%TD*%
%TA.AperFunction,Conductor*%
%TO.N,GND*%
G36*
X182566621Y-65795502D02*
G01*
X182613114Y-65849158D01*
X182624500Y-65901500D01*
X182624500Y-163598500D01*
X182604498Y-163666621D01*
X182550842Y-163713114D01*
X182498500Y-163724500D01*
X106526000Y-163724500D01*
X106457879Y-163704498D01*
X106411386Y-163650842D01*
X106400000Y-163598500D01*
X106400000Y-146844167D01*
X136824500Y-146844167D01*
X136824500Y-153155832D01*
X136860681Y-153465378D01*
X136860682Y-153465384D01*
X136932557Y-153768645D01*
X136932558Y-153768650D01*
X137039146Y-154061497D01*
X137039151Y-154061509D01*
X137179024Y-154340021D01*
X137350279Y-154600400D01*
X137550610Y-154839147D01*
X137777310Y-155053028D01*
X137920893Y-155159921D01*
X138027297Y-155239136D01*
X138297203Y-155394966D01*
X138583374Y-155518408D01*
X138881942Y-155607793D01*
X139188867Y-155661913D01*
X139500000Y-155680034D01*
X139811133Y-155661913D01*
X140118058Y-155607793D01*
X140416626Y-155518408D01*
X140702797Y-155394966D01*
X140972703Y-155239136D01*
X141222693Y-155053025D01*
X141449386Y-154839151D01*
X141649717Y-154600405D01*
X141820978Y-154340017D01*
X141960850Y-154061507D01*
X142067444Y-153768642D01*
X142139318Y-153465383D01*
X142175500Y-153155830D01*
X142175500Y-153000000D01*
X142175500Y-152991715D01*
X142175500Y-146989438D01*
X142175500Y-146844170D01*
X142175500Y-146844167D01*
X146824500Y-146844167D01*
X146824500Y-153155832D01*
X146860681Y-153465378D01*
X146860682Y-153465384D01*
X146932557Y-153768645D01*
X146932558Y-153768650D01*
X147039146Y-154061497D01*
X147039151Y-154061509D01*
X147179024Y-154340021D01*
X147350279Y-154600400D01*
X147550610Y-154839147D01*
X147777310Y-155053028D01*
X147920893Y-155159921D01*
X148027297Y-155239136D01*
X148297203Y-155394966D01*
X148583374Y-155518408D01*
X148881942Y-155607793D01*
X149188867Y-155661913D01*
X149500000Y-155680034D01*
X149811133Y-155661913D01*
X150118058Y-155607793D01*
X150416626Y-155518408D01*
X150702797Y-155394966D01*
X150972703Y-155239136D01*
X151222693Y-155053025D01*
X151449386Y-154839151D01*
X151649717Y-154600405D01*
X151820978Y-154340017D01*
X151960850Y-154061507D01*
X152067444Y-153768642D01*
X152139318Y-153465383D01*
X152175500Y-153155830D01*
X152175500Y-153000000D01*
X152175500Y-152991715D01*
X152175500Y-146989438D01*
X152175500Y-146844170D01*
X152139318Y-146534617D01*
X152067444Y-146231358D01*
X151960850Y-145938493D01*
X151820978Y-145659983D01*
X151820975Y-145659978D01*
X151649720Y-145399599D01*
X151449389Y-145160852D01*
X151222689Y-144946971D01*
X150972718Y-144760875D01*
X150972715Y-144760873D01*
X150972703Y-144760864D01*
X150702797Y-144605034D01*
X150702798Y-144605034D01*
X150702794Y-144605032D01*
X150416633Y-144481595D01*
X150416632Y-144481594D01*
X150416626Y-144481592D01*
X150118058Y-144392207D01*
X150118059Y-144392207D01*
X150023309Y-144375500D01*
X149811133Y-144338087D01*
X149811129Y-144338086D01*
X149811125Y-144338086D01*
X149500000Y-144319966D01*
X149188877Y-144338086D01*
X149188871Y-144338086D01*
X148881941Y-144392207D01*
X148754360Y-144430402D01*
X148583374Y-144481592D01*
X148583372Y-144481593D01*
X148583366Y-144481595D01*
X148297205Y-144605032D01*
X148297200Y-144605035D01*
X148027308Y-144760857D01*
X148027281Y-144760875D01*
X147777310Y-144946971D01*
X147550610Y-145160852D01*
X147350279Y-145399599D01*
X147179024Y-145659978D01*
X147039151Y-145938490D01*
X147039146Y-145938502D01*
X146932558Y-146231349D01*
X146932557Y-146231354D01*
X146860682Y-146534615D01*
X146860681Y-146534621D01*
X146824500Y-146844167D01*
X142175500Y-146844167D01*
X142139318Y-146534617D01*
X142067444Y-146231358D01*
X141960850Y-145938493D01*
X141820978Y-145659983D01*
X141820975Y-145659978D01*
X141649720Y-145399599D01*
X141449389Y-145160852D01*
X141222689Y-144946971D01*
X140972718Y-144760875D01*
X140972715Y-144760873D01*
X140972703Y-144760864D01*
X140702797Y-144605034D01*
X140702798Y-144605034D01*
X140702794Y-144605032D01*
X140416633Y-144481595D01*
X140416632Y-144481594D01*
X140416626Y-144481592D01*
X140118058Y-144392207D01*
X140118059Y-144392207D01*
X140023309Y-144375500D01*
X139811133Y-144338087D01*
X139811129Y-144338086D01*
X139811125Y-144338086D01*
X139500000Y-144319966D01*
X139188877Y-144338086D01*
X139188871Y-144338086D01*
X138881941Y-144392207D01*
X138754360Y-144430402D01*
X138583374Y-144481592D01*
X138583372Y-144481593D01*
X138583366Y-144481595D01*
X138297205Y-144605032D01*
X138297200Y-144605035D01*
X138027308Y-144760857D01*
X138027281Y-144760875D01*
X137777310Y-144946971D01*
X137550610Y-145160852D01*
X137350279Y-145399599D01*
X137179024Y-145659978D01*
X137039151Y-145938490D01*
X137039146Y-145938502D01*
X136932558Y-146231349D01*
X136932557Y-146231354D01*
X136860682Y-146534615D01*
X136860681Y-146534621D01*
X136824500Y-146844167D01*
X106400000Y-146844167D01*
X106400000Y-138128597D01*
X137841999Y-138128597D01*
X137848504Y-138189093D01*
X137899554Y-138325964D01*
X137899554Y-138325965D01*
X137987094Y-138442904D01*
X138104033Y-138530444D01*
X138240905Y-138581494D01*
X138301401Y-138587999D01*
X138301414Y-138588000D01*
X139095999Y-138588000D01*
X139603999Y-138588000D01*
X140398584Y-138588000D01*
X140398596Y-138587999D01*
X140459092Y-138581494D01*
X140595963Y-138530444D01*
X140595964Y-138530444D01*
X140712903Y-138442904D01*
X140800443Y-138325965D01*
X140800443Y-138325964D01*
X140851493Y-138189093D01*
X140857998Y-138128597D01*
X148342001Y-138128597D01*
X148348506Y-138189093D01*
X148399556Y-138325964D01*
X148399556Y-138325965D01*
X148487096Y-138442904D01*
X148604035Y-138530444D01*
X148740907Y-138581494D01*
X148801403Y-138587999D01*
X148801416Y-138588000D01*
X149596001Y-138588000D01*
X150104001Y-138588000D01*
X150898586Y-138588000D01*
X150898598Y-138587999D01*
X150959094Y-138581494D01*
X151095965Y-138530444D01*
X151095966Y-138530444D01*
X151212905Y-138442904D01*
X151300445Y-138325965D01*
X151300445Y-138325964D01*
X151351495Y-138189093D01*
X151358000Y-138128597D01*
X151358001Y-138128585D01*
X151358001Y-137134000D01*
X150104001Y-137134000D01*
X150104001Y-138588000D01*
X149596001Y-138588000D01*
X149596001Y-137134000D01*
X148342001Y-137134000D01*
X148342001Y-138128597D01*
X140857998Y-138128597D01*
X140857999Y-138128585D01*
X140857999Y-137134000D01*
X139603999Y-137134000D01*
X139603999Y-138588000D01*
X139095999Y-138588000D01*
X139095999Y-137134000D01*
X137841999Y-137134000D01*
X137841999Y-138128597D01*
X106400000Y-138128597D01*
X106400000Y-135631402D01*
X137841999Y-135631402D01*
X137841999Y-136626000D01*
X139095999Y-136626000D01*
X139603999Y-136626000D01*
X140857999Y-136626000D01*
X140857999Y-135631414D01*
X140857998Y-135631402D01*
X148342001Y-135631402D01*
X148342001Y-136626000D01*
X149596001Y-136626000D01*
X150104001Y-136626000D01*
X151358001Y-136626000D01*
X151358001Y-135631414D01*
X151358000Y-135631402D01*
X151351495Y-135570906D01*
X151300445Y-135434035D01*
X151300445Y-135434034D01*
X151212905Y-135317095D01*
X151095966Y-135229555D01*
X150959094Y-135178505D01*
X150898598Y-135172000D01*
X150104001Y-135172000D01*
X150104001Y-136626000D01*
X149596001Y-136626000D01*
X149596001Y-135172000D01*
X148801403Y-135172000D01*
X148740907Y-135178505D01*
X148604036Y-135229555D01*
X148604035Y-135229555D01*
X148487096Y-135317095D01*
X148399556Y-135434034D01*
X148399556Y-135434035D01*
X148348506Y-135570906D01*
X148342001Y-135631402D01*
X140857998Y-135631402D01*
X140851493Y-135570906D01*
X140800443Y-135434035D01*
X140800443Y-135434034D01*
X140712903Y-135317095D01*
X140595964Y-135229555D01*
X140459092Y-135178505D01*
X140398596Y-135172000D01*
X139603999Y-135172000D01*
X139603999Y-136626000D01*
X139095999Y-136626000D01*
X139095999Y-135172000D01*
X138301401Y-135172000D01*
X138240905Y-135178505D01*
X138104034Y-135229555D01*
X138104033Y-135229555D01*
X137987094Y-135317095D01*
X137899554Y-135434034D01*
X137899554Y-135434035D01*
X137848504Y-135570906D01*
X137841999Y-135631402D01*
X106400000Y-135631402D01*
X106400000Y-124360518D01*
X138841500Y-124360518D01*
X138841500Y-124360521D01*
X138841500Y-124539479D01*
X138876413Y-124715000D01*
X138944898Y-124880336D01*
X139044322Y-125029135D01*
X139170865Y-125155678D01*
X139319664Y-125255102D01*
X139485000Y-125323587D01*
X139660521Y-125358500D01*
X139660522Y-125358500D01*
X139839478Y-125358500D01*
X139839479Y-125358500D01*
X140015000Y-125323587D01*
X140180336Y-125255102D01*
X140329135Y-125155678D01*
X140455678Y-125029135D01*
X140555102Y-124880336D01*
X140623587Y-124715000D01*
X140658500Y-124539479D01*
X140658500Y-124360521D01*
X140623587Y-124185000D01*
X140555102Y-124019664D01*
X140529732Y-123981695D01*
X140508520Y-123913943D01*
X140508500Y-123911696D01*
X140508500Y-122766371D01*
X140528502Y-122698250D01*
X140545405Y-122677276D01*
X140767276Y-122455405D01*
X140794644Y-122440460D01*
X140820873Y-122423604D01*
X140827171Y-122422698D01*
X140829588Y-122421379D01*
X140856371Y-122418500D01*
X141015500Y-122418500D01*
X141083621Y-122438502D01*
X141130114Y-122492158D01*
X141141500Y-122544500D01*
X141141500Y-122708649D01*
X141148009Y-122769196D01*
X141148011Y-122769201D01*
X141199111Y-122906204D01*
X141216367Y-122929255D01*
X141241179Y-122995774D01*
X141241500Y-123004765D01*
X141241500Y-135048649D01*
X141248009Y-135109196D01*
X141248011Y-135109204D01*
X141299110Y-135246202D01*
X141299112Y-135246207D01*
X141386738Y-135363261D01*
X141503792Y-135450887D01*
X141503794Y-135450888D01*
X141503796Y-135450889D01*
X141534036Y-135462168D01*
X141640795Y-135501988D01*
X141640803Y-135501990D01*
X141701350Y-135508499D01*
X141701355Y-135508499D01*
X141701362Y-135508500D01*
X141701368Y-135508500D01*
X142498632Y-135508500D01*
X142498638Y-135508500D01*
X142498645Y-135508499D01*
X142498649Y-135508499D01*
X142559196Y-135501990D01*
X142559199Y-135501989D01*
X142559201Y-135501989D01*
X142559204Y-135501988D01*
X142681681Y-135456306D01*
X142752497Y-135451240D01*
X142769747Y-135456305D01*
X142890907Y-135501495D01*
X142951402Y-135508000D01*
X142951415Y-135508001D01*
X143096000Y-135508001D01*
X143096000Y-132692001D01*
X142951397Y-132692001D01*
X142897968Y-132697746D01*
X142828100Y-132685140D01*
X142776138Y-132636762D01*
X142758500Y-132572468D01*
X142758500Y-123294000D01*
X142778502Y-123225879D01*
X142832158Y-123179386D01*
X142884500Y-123168000D01*
X142996000Y-123168000D01*
X142996000Y-120152000D01*
X142851402Y-120152000D01*
X142790905Y-120158505D01*
X142669746Y-120203695D01*
X142598930Y-120208759D01*
X142581681Y-120203694D01*
X142459204Y-120158011D01*
X142459196Y-120158009D01*
X142398649Y-120151500D01*
X142398638Y-120151500D01*
X141601362Y-120151500D01*
X141601350Y-120151500D01*
X141540803Y-120158009D01*
X141540795Y-120158011D01*
X141403797Y-120209110D01*
X141403792Y-120209112D01*
X141286738Y-120296738D01*
X141199112Y-120413792D01*
X141199110Y-120413797D01*
X141148011Y-120550795D01*
X141148009Y-120550803D01*
X141141500Y-120611350D01*
X141141500Y-120775500D01*
X141121498Y-120843621D01*
X141067842Y-120890114D01*
X141015500Y-120901500D01*
X140415288Y-120901500D01*
X140342024Y-120916073D01*
X140342024Y-120916074D01*
X140268753Y-120930649D01*
X140268751Y-120930649D01*
X140268750Y-120930650D01*
X140268749Y-120930650D01*
X140130715Y-120987826D01*
X140006489Y-121070831D01*
X140006482Y-121070836D01*
X139160838Y-121916480D01*
X139160833Y-121916486D01*
X139158235Y-121920375D01*
X139077826Y-122040716D01*
X139074339Y-122049135D01*
X139054155Y-122097864D01*
X139054154Y-122097865D01*
X139020652Y-122178742D01*
X139020649Y-122178752D01*
X138991500Y-122325290D01*
X138991500Y-123911696D01*
X138971498Y-123979817D01*
X138970267Y-123981696D01*
X138944898Y-124019664D01*
X138876414Y-124184996D01*
X138841500Y-124360518D01*
X106400000Y-124360518D01*
X106400000Y-122134859D01*
X108187000Y-122134859D01*
X108187000Y-122139216D01*
X108187000Y-122365141D01*
X108223024Y-122592587D01*
X108294185Y-122811597D01*
X108398730Y-123016779D01*
X108534086Y-123203081D01*
X108534088Y-123203083D01*
X108534090Y-123203086D01*
X108696913Y-123365909D01*
X108696916Y-123365911D01*
X108696919Y-123365914D01*
X108883221Y-123501270D01*
X109088403Y-123605815D01*
X109307413Y-123676976D01*
X109534859Y-123713000D01*
X109534862Y-123713000D01*
X109765138Y-123713000D01*
X109765141Y-123713000D01*
X109992587Y-123676976D01*
X110211597Y-123605815D01*
X110416779Y-123501270D01*
X110603081Y-123365914D01*
X110765914Y-123203081D01*
X110901270Y-123016779D01*
X111005815Y-122811597D01*
X111076976Y-122592587D01*
X111113000Y-122365141D01*
X111113000Y-122134859D01*
X111076976Y-121907413D01*
X111005815Y-121688403D01*
X110901270Y-121483221D01*
X110826652Y-121380518D01*
X127651500Y-121380518D01*
X127651500Y-121380521D01*
X127651500Y-121559479D01*
X127686413Y-121735000D01*
X127754898Y-121900336D01*
X127854322Y-122049135D01*
X127980865Y-122175678D01*
X127984279Y-122177959D01*
X128029805Y-122232437D01*
X128038651Y-122302881D01*
X128008008Y-122366924D01*
X128003370Y-122371817D01*
X127924320Y-122450867D01*
X127924319Y-122450869D01*
X127824899Y-122599662D01*
X127756414Y-122764996D01*
X127756413Y-122764999D01*
X127756413Y-122765000D01*
X127754052Y-122776868D01*
X127721500Y-122940518D01*
X127721500Y-123119481D01*
X127731151Y-123168000D01*
X127756413Y-123295000D01*
X127824898Y-123460336D01*
X127924322Y-123609135D01*
X128050865Y-123735678D01*
X128199664Y-123835102D01*
X128365000Y-123903587D01*
X128540521Y-123938500D01*
X128540522Y-123938500D01*
X128719478Y-123938500D01*
X128719479Y-123938500D01*
X128895000Y-123903587D01*
X129060336Y-123835102D01*
X129209135Y-123735678D01*
X129335678Y-123609135D01*
X129435102Y-123460336D01*
X129503587Y-123295000D01*
X129538500Y-123119479D01*
X129538500Y-122940521D01*
X129503587Y-122765000D01*
X129435102Y-122599664D01*
X129335678Y-122450865D01*
X129209135Y-122324322D01*
X129209133Y-122324320D01*
X129209130Y-122324318D01*
X129205723Y-122322042D01*
X129160195Y-122267565D01*
X129151348Y-122197122D01*
X129181989Y-122133078D01*
X129186593Y-122128219D01*
X129265678Y-122049135D01*
X129365102Y-121900336D01*
X129433587Y-121735000D01*
X129468500Y-121559479D01*
X129468500Y-121380521D01*
X129433587Y-121205000D01*
X129365102Y-121039664D01*
X129265678Y-120890865D01*
X129139135Y-120764322D01*
X128990336Y-120664898D01*
X128861061Y-120611350D01*
X128825003Y-120596414D01*
X128825001Y-120596413D01*
X128825000Y-120596413D01*
X128736645Y-120578838D01*
X128649481Y-120561500D01*
X128649479Y-120561500D01*
X128470521Y-120561500D01*
X128470518Y-120561500D01*
X128339771Y-120587507D01*
X128295000Y-120596413D01*
X128294999Y-120596413D01*
X128294996Y-120596414D01*
X128129662Y-120664899D01*
X127980869Y-120764319D01*
X127980862Y-120764324D01*
X127854324Y-120890862D01*
X127854319Y-120890869D01*
X127754899Y-121039662D01*
X127686414Y-121204996D01*
X127651500Y-121380518D01*
X110826652Y-121380518D01*
X110765914Y-121296919D01*
X110765911Y-121296916D01*
X110765909Y-121296913D01*
X110603086Y-121134090D01*
X110603083Y-121134088D01*
X110603081Y-121134086D01*
X110416779Y-120998730D01*
X110211597Y-120894185D01*
X109992587Y-120823024D01*
X109765141Y-120787000D01*
X109534859Y-120787000D01*
X109307413Y-120823024D01*
X109307410Y-120823024D01*
X109307409Y-120823025D01*
X109088403Y-120894185D01*
X109088401Y-120894186D01*
X108883217Y-120998732D01*
X108696916Y-121134088D01*
X108696913Y-121134090D01*
X108534090Y-121296913D01*
X108534088Y-121296916D01*
X108398732Y-121483217D01*
X108398730Y-121483221D01*
X108294185Y-121688403D01*
X108223024Y-121907413D01*
X108187000Y-122134859D01*
X106400000Y-122134859D01*
X106400000Y-114547311D01*
X119549473Y-114547311D01*
X119549473Y-115002689D01*
X119582359Y-115400146D01*
X119587023Y-115456518D01*
X119587026Y-115456544D01*
X119661867Y-115905702D01*
X119661867Y-115905705D01*
X119773493Y-116347169D01*
X119773498Y-116347185D01*
X119773499Y-116347188D01*
X119921153Y-116777964D01*
X120102214Y-117191414D01*
X120103828Y-117195100D01*
X120196108Y-117365911D01*
X120320275Y-117595747D01*
X120569024Y-117977184D01*
X120848379Y-118336810D01*
X120848386Y-118336817D01*
X120848391Y-118336824D01*
X120848392Y-118336826D01*
X121156424Y-118672163D01*
X121156429Y-118672168D01*
X121156433Y-118672171D01*
X121156437Y-118672176D01*
X121491100Y-118980997D01*
X121529373Y-119010867D01*
X121850076Y-119261161D01*
X121850085Y-119261167D01*
X121850089Y-119261170D01*
X122230554Y-119510522D01*
X122230963Y-119510790D01*
X122333242Y-119566346D01*
X122631113Y-119728147D01*
X122631129Y-119728154D01*
X122631135Y-119728157D01*
X122733531Y-119773277D01*
X123047829Y-119911771D01*
X123478268Y-120060406D01*
X123478269Y-120060406D01*
X123478271Y-120060407D01*
X123837069Y-120152000D01*
X123919497Y-120173042D01*
X124368512Y-120248910D01*
X124822253Y-120287494D01*
X125031995Y-120287959D01*
X125039414Y-120287976D01*
X125039438Y-120288000D01*
X125049941Y-120288000D01*
X125050004Y-120288000D01*
X125058227Y-120288019D01*
X125058227Y-120288018D01*
X125077854Y-120288063D01*
X125078258Y-120288000D01*
X130233557Y-120288000D01*
X130233560Y-120288000D01*
X130548942Y-120254852D01*
X130859132Y-120188919D01*
X130859133Y-120188918D01*
X130859136Y-120188918D01*
X131160725Y-120090926D01*
X131160725Y-120090925D01*
X131160730Y-120090924D01*
X131450433Y-119961940D01*
X131725067Y-119803380D01*
X131725072Y-119803376D01*
X131725076Y-119803374D01*
X131834325Y-119723999D01*
X131981622Y-119616982D01*
X132124207Y-119488597D01*
X138272000Y-119488597D01*
X138278505Y-119549093D01*
X138329555Y-119685964D01*
X138329555Y-119685965D01*
X138417095Y-119802904D01*
X138534034Y-119890444D01*
X138670906Y-119941494D01*
X138731402Y-119947999D01*
X138731415Y-119948000D01*
X139326000Y-119948000D01*
X139834000Y-119948000D01*
X140428585Y-119948000D01*
X140428597Y-119947999D01*
X140489093Y-119941494D01*
X140625964Y-119890444D01*
X140625965Y-119890444D01*
X140742904Y-119802904D01*
X140830444Y-119685965D01*
X140830444Y-119685964D01*
X140881494Y-119549093D01*
X140887999Y-119488597D01*
X140888000Y-119488585D01*
X140888000Y-118594000D01*
X139834000Y-118594000D01*
X139834000Y-119948000D01*
X139326000Y-119948000D01*
X139326000Y-118594000D01*
X138272000Y-118594000D01*
X138272000Y-119488597D01*
X132124207Y-119488597D01*
X132217287Y-119404787D01*
X132429482Y-119169122D01*
X132574249Y-118969867D01*
X132615874Y-118912576D01*
X132615876Y-118912572D01*
X132615880Y-118912567D01*
X132774440Y-118637933D01*
X132845691Y-118477902D01*
X132875690Y-118410521D01*
X132903424Y-118348230D01*
X132907130Y-118336826D01*
X133001418Y-118046636D01*
X133001419Y-118046632D01*
X133067352Y-117736442D01*
X133100500Y-117421060D01*
X133100500Y-117262500D01*
X133100500Y-117254215D01*
X133100500Y-117191402D01*
X138272000Y-117191402D01*
X138272000Y-118086000D01*
X139326000Y-118086000D01*
X139834000Y-118086000D01*
X140888000Y-118086000D01*
X140888000Y-117191414D01*
X140887999Y-117191402D01*
X140881494Y-117130906D01*
X140830444Y-116994035D01*
X140830444Y-116994034D01*
X140742904Y-116877095D01*
X140625965Y-116789555D01*
X140489093Y-116738505D01*
X140428597Y-116732000D01*
X139834000Y-116732000D01*
X139834000Y-118086000D01*
X139326000Y-118086000D01*
X139326000Y-116732000D01*
X138731402Y-116732000D01*
X138670906Y-116738505D01*
X138534035Y-116789555D01*
X138534034Y-116789555D01*
X138417095Y-116877095D01*
X138329555Y-116994034D01*
X138329555Y-116994035D01*
X138278505Y-117130906D01*
X138272000Y-117191402D01*
X133100500Y-117191402D01*
X133100500Y-112276938D01*
X133100500Y-112128940D01*
X133067352Y-111813558D01*
X133001419Y-111503368D01*
X133001418Y-111503363D01*
X132903426Y-111201774D01*
X132903425Y-111201773D01*
X132887952Y-111167021D01*
X132798583Y-110966294D01*
X141890500Y-110966294D01*
X141890500Y-110973442D01*
X141890500Y-116827202D01*
X141897738Y-116863588D01*
X141905996Y-116905104D01*
X141919649Y-116973743D01*
X141976826Y-117111780D01*
X142059834Y-117236011D01*
X142059838Y-117236015D01*
X143704595Y-118880772D01*
X143738621Y-118943084D01*
X143741500Y-118969867D01*
X143741500Y-120026000D01*
X143721498Y-120094121D01*
X143667842Y-120140614D01*
X143615500Y-120152000D01*
X143504000Y-120152000D01*
X143504000Y-123168000D01*
X143615500Y-123168000D01*
X143683621Y-123188002D01*
X143730114Y-123241658D01*
X143741500Y-123294000D01*
X143741500Y-132566001D01*
X143721498Y-132634122D01*
X143667842Y-132680615D01*
X143615500Y-132692001D01*
X143604000Y-132692001D01*
X143604000Y-135508001D01*
X143748585Y-135508001D01*
X143748597Y-135508000D01*
X143809092Y-135501495D01*
X143930253Y-135456305D01*
X144001069Y-135451240D01*
X144018319Y-135456306D01*
X144140795Y-135501988D01*
X144140803Y-135501990D01*
X144201350Y-135508499D01*
X144201355Y-135508499D01*
X144201362Y-135508500D01*
X144201368Y-135508500D01*
X144998632Y-135508500D01*
X144998638Y-135508500D01*
X144998645Y-135508499D01*
X144998649Y-135508499D01*
X145059196Y-135501990D01*
X145059201Y-135501989D01*
X145060525Y-135501495D01*
X145180968Y-135456571D01*
X145251780Y-135451506D01*
X145269022Y-135456569D01*
X145351824Y-135487453D01*
X145390798Y-135501990D01*
X145390803Y-135501991D01*
X145451350Y-135508500D01*
X145451355Y-135508500D01*
X145451362Y-135508501D01*
X145451368Y-135508501D01*
X146248632Y-135508501D01*
X146248638Y-135508501D01*
X146248645Y-135508500D01*
X146248649Y-135508500D01*
X146309196Y-135501991D01*
X146309199Y-135501990D01*
X146309201Y-135501990D01*
X146309204Y-135501989D01*
X146415968Y-135462168D01*
X146486784Y-135457102D01*
X146504030Y-135462165D01*
X146610799Y-135501989D01*
X146610802Y-135501989D01*
X146610803Y-135501990D01*
X146671350Y-135508499D01*
X146671355Y-135508499D01*
X146671362Y-135508500D01*
X146671368Y-135508500D01*
X147498632Y-135508500D01*
X147498638Y-135508500D01*
X147498645Y-135508499D01*
X147498649Y-135508499D01*
X147552063Y-135502757D01*
X147559196Y-135501990D01*
X147559199Y-135501989D01*
X147559201Y-135501989D01*
X147560526Y-135501495D01*
X147578045Y-135494960D01*
X147696204Y-135450889D01*
X147718719Y-135434035D01*
X147813261Y-135363261D01*
X147900887Y-135246207D01*
X147900887Y-135246206D01*
X147900889Y-135246204D01*
X147951989Y-135109201D01*
X147958500Y-135048638D01*
X147958500Y-133151362D01*
X147958499Y-133151350D01*
X147951990Y-133090803D01*
X147951988Y-133090795D01*
X147900889Y-132953797D01*
X147900887Y-132953792D01*
X147868632Y-132910705D01*
X147843821Y-132844185D01*
X147843500Y-132835196D01*
X147843500Y-122814693D01*
X147850319Y-122776901D01*
X147850177Y-122776868D01*
X147850803Y-122774218D01*
X147851446Y-122770656D01*
X147851989Y-122769201D01*
X147852294Y-122766371D01*
X147858499Y-122708649D01*
X147858500Y-122708632D01*
X147858500Y-120611367D01*
X147858499Y-120611350D01*
X147851990Y-120550803D01*
X147851988Y-120550795D01*
X147800889Y-120413797D01*
X147800887Y-120413792D01*
X147713261Y-120296738D01*
X147683990Y-120274826D01*
X147641444Y-120217990D01*
X147633500Y-120173959D01*
X147633500Y-119488597D01*
X148112000Y-119488597D01*
X148118505Y-119549093D01*
X148169555Y-119685964D01*
X148169555Y-119685965D01*
X148257095Y-119802904D01*
X148374034Y-119890444D01*
X148510906Y-119941494D01*
X148571402Y-119947999D01*
X148571415Y-119948000D01*
X149166000Y-119948000D01*
X149674000Y-119948000D01*
X150268585Y-119948000D01*
X150268597Y-119947999D01*
X150329093Y-119941494D01*
X150465964Y-119890444D01*
X150465965Y-119890444D01*
X150582904Y-119802904D01*
X150670444Y-119685965D01*
X150670444Y-119685964D01*
X150721494Y-119549093D01*
X150725642Y-119510518D01*
X166941500Y-119510518D01*
X166941500Y-119510521D01*
X166941500Y-119689479D01*
X166976413Y-119865000D01*
X167044898Y-120030336D01*
X167144322Y-120179135D01*
X167270865Y-120305678D01*
X167419664Y-120405102D01*
X167585000Y-120473587D01*
X167760521Y-120508500D01*
X167760522Y-120508500D01*
X167939478Y-120508500D01*
X167939479Y-120508500D01*
X168115000Y-120473587D01*
X168280336Y-120405102D01*
X168429135Y-120305678D01*
X168555678Y-120179135D01*
X168655102Y-120030336D01*
X168723587Y-119865000D01*
X168758500Y-119689479D01*
X168758500Y-119510521D01*
X168723587Y-119335000D01*
X168655102Y-119169664D01*
X168629732Y-119131695D01*
X168608520Y-119063943D01*
X168608500Y-119061696D01*
X168608500Y-116134859D01*
X175562000Y-116134859D01*
X175562000Y-116139216D01*
X175562000Y-116365141D01*
X175598024Y-116592587D01*
X175669185Y-116811597D01*
X175773730Y-117016779D01*
X175909086Y-117203081D01*
X175909088Y-117203083D01*
X175909090Y-117203086D01*
X176071913Y-117365909D01*
X176071916Y-117365911D01*
X176071919Y-117365914D01*
X176258221Y-117501270D01*
X176463403Y-117605815D01*
X176682413Y-117676976D01*
X176909859Y-117713000D01*
X176909862Y-117713000D01*
X177140138Y-117713000D01*
X177140141Y-117713000D01*
X177367587Y-117676976D01*
X177586597Y-117605815D01*
X177791779Y-117501270D01*
X177978081Y-117365914D01*
X178140914Y-117203081D01*
X178276270Y-117016779D01*
X178380815Y-116811597D01*
X178451976Y-116592587D01*
X178488000Y-116365141D01*
X178488000Y-116134859D01*
X178451976Y-115907413D01*
X178380815Y-115688403D01*
X178276270Y-115483221D01*
X178140914Y-115296919D01*
X178140911Y-115296916D01*
X178140909Y-115296913D01*
X177978086Y-115134090D01*
X177978083Y-115134088D01*
X177978081Y-115134086D01*
X177791779Y-114998730D01*
X177586597Y-114894185D01*
X177367587Y-114823024D01*
X177140141Y-114787000D01*
X176909859Y-114787000D01*
X176682413Y-114823024D01*
X176682410Y-114823024D01*
X176682409Y-114823025D01*
X176463403Y-114894185D01*
X176463401Y-114894186D01*
X176258217Y-114998732D01*
X176071916Y-115134088D01*
X176071913Y-115134090D01*
X175909090Y-115296913D01*
X175909088Y-115296916D01*
X175773732Y-115483217D01*
X175669186Y-115688401D01*
X175669185Y-115688403D01*
X175633292Y-115798871D01*
X175598024Y-115907413D01*
X175562000Y-116134859D01*
X168608500Y-116134859D01*
X168608500Y-111963132D01*
X168628502Y-111895011D01*
X168629735Y-111893130D01*
X168705102Y-111780336D01*
X168773587Y-111615000D01*
X168808500Y-111439479D01*
X168808500Y-111260521D01*
X168773587Y-111085000D01*
X168705102Y-110919664D01*
X168605678Y-110770865D01*
X168479135Y-110644322D01*
X168330336Y-110544898D01*
X168213429Y-110496473D01*
X168165003Y-110476414D01*
X168165001Y-110476413D01*
X168165000Y-110476413D01*
X168076645Y-110458838D01*
X167989481Y-110441500D01*
X167989479Y-110441500D01*
X167810521Y-110441500D01*
X167810518Y-110441500D01*
X167679771Y-110467507D01*
X167635000Y-110476413D01*
X167634999Y-110476413D01*
X167634996Y-110476414D01*
X167469662Y-110544899D01*
X167320869Y-110644319D01*
X167320862Y-110644324D01*
X167194324Y-110770862D01*
X167194319Y-110770869D01*
X167122850Y-110877831D01*
X167094898Y-110919664D01*
X167086495Y-110939951D01*
X167026414Y-111084996D01*
X166991500Y-111260518D01*
X166991500Y-111260521D01*
X166991500Y-111439479D01*
X167014382Y-111554518D01*
X167026414Y-111615003D01*
X167052084Y-111676974D01*
X167067006Y-111713000D01*
X167081909Y-111748977D01*
X167091500Y-111797196D01*
X167091500Y-119061696D01*
X167071498Y-119129817D01*
X167070267Y-119131696D01*
X167044898Y-119169664D01*
X166976414Y-119334996D01*
X166941500Y-119510518D01*
X150725642Y-119510518D01*
X150727756Y-119490861D01*
X150727999Y-119488597D01*
X150728000Y-119488585D01*
X150728000Y-118594000D01*
X149674000Y-118594000D01*
X149674000Y-119948000D01*
X149166000Y-119948000D01*
X149166000Y-118594000D01*
X148112000Y-118594000D01*
X148112000Y-119488597D01*
X147633500Y-119488597D01*
X147633500Y-118937607D01*
X147633499Y-118937603D01*
X147609155Y-118815215D01*
X147602884Y-118800075D01*
X147561401Y-118699925D01*
X147492072Y-118596167D01*
X147442914Y-118547009D01*
X147440574Y-118544392D01*
X147426775Y-118515383D01*
X147411379Y-118487188D01*
X147410799Y-118481798D01*
X147410077Y-118480279D01*
X147410380Y-118477902D01*
X147408500Y-118460405D01*
X147408500Y-118410522D01*
X147408499Y-118410518D01*
X147373587Y-118235000D01*
X147305102Y-118069664D01*
X147205678Y-117920865D01*
X147205674Y-117920861D01*
X147166092Y-117881278D01*
X147132067Y-117818966D01*
X147137133Y-117748150D01*
X147166089Y-117703093D01*
X147935121Y-116934061D01*
X147997430Y-116900039D01*
X148068246Y-116905104D01*
X148125081Y-116947651D01*
X148149892Y-117014171D01*
X148142269Y-117067192D01*
X148118505Y-117130905D01*
X148112000Y-117191402D01*
X148112000Y-118086000D01*
X150728000Y-118086000D01*
X150728000Y-117334995D01*
X150748002Y-117266874D01*
X150801658Y-117220381D01*
X150871932Y-117210277D01*
X150902219Y-117218587D01*
X151034992Y-117273584D01*
X151034993Y-117273584D01*
X151035000Y-117273587D01*
X151210521Y-117308500D01*
X151210522Y-117308500D01*
X151389478Y-117308500D01*
X151389479Y-117308500D01*
X151565000Y-117273587D01*
X151730336Y-117205102D01*
X151879135Y-117105678D01*
X152005678Y-116979135D01*
X152105102Y-116830336D01*
X152173587Y-116665000D01*
X152208500Y-116489479D01*
X152208500Y-116310521D01*
X152173587Y-116135000D01*
X152105102Y-115969664D01*
X152005678Y-115820865D01*
X151938513Y-115753700D01*
X152944852Y-115753700D01*
X153053901Y-115798870D01*
X153053900Y-115798870D01*
X153200340Y-115827999D01*
X153200344Y-115828000D01*
X153349656Y-115828000D01*
X153349662Y-115827999D01*
X153496098Y-115798871D01*
X153496101Y-115798870D01*
X153605147Y-115753700D01*
X154044852Y-115753700D01*
X154153901Y-115798870D01*
X154153900Y-115798870D01*
X154300340Y-115827999D01*
X154300344Y-115828000D01*
X154449656Y-115828000D01*
X154449662Y-115827999D01*
X154596098Y-115798871D01*
X154596101Y-115798870D01*
X154705147Y-115753700D01*
X154375001Y-115423554D01*
X154375000Y-115423554D01*
X154044852Y-115753700D01*
X153605147Y-115753700D01*
X153275001Y-115423554D01*
X153275000Y-115423554D01*
X152944852Y-115753700D01*
X151938513Y-115753700D01*
X151879135Y-115694322D01*
X151730336Y-115594898D01*
X151613429Y-115546473D01*
X151565003Y-115526414D01*
X151565001Y-115526413D01*
X151565000Y-115526413D01*
X151476645Y-115508838D01*
X151389481Y-115491500D01*
X151389479Y-115491500D01*
X151210521Y-115491500D01*
X151210518Y-115491500D01*
X151106293Y-115512232D01*
X151035000Y-115526413D01*
X151034999Y-115526413D01*
X151034996Y-115526414D01*
X150869662Y-115594899D01*
X150720869Y-115694319D01*
X150720867Y-115694320D01*
X150670368Y-115744819D01*
X150608055Y-115778844D01*
X150537239Y-115773778D01*
X150480404Y-115731231D01*
X150464864Y-115703942D01*
X150460880Y-115694324D01*
X150405102Y-115559664D01*
X150305678Y-115410865D01*
X150179135Y-115284322D01*
X150030336Y-115184898D01*
X150030337Y-115184898D01*
X150030335Y-115184897D01*
X150030331Y-115184895D01*
X149983324Y-115165424D01*
X149975284Y-115158945D01*
X149965325Y-115156213D01*
X149948107Y-115137045D01*
X149928043Y-115120876D01*
X149924781Y-115111076D01*
X149917882Y-115103395D01*
X149913760Y-115077962D01*
X149905623Y-115053512D01*
X149908176Y-115043506D01*
X149906525Y-115033313D01*
X149916809Y-115009685D01*
X149920471Y-114995340D01*
X152517000Y-114995340D01*
X152517000Y-115144659D01*
X152546131Y-115291108D01*
X152591297Y-115400146D01*
X152591298Y-115400147D01*
X152921446Y-115069999D01*
X152901556Y-115050109D01*
X153175000Y-115050109D01*
X153175000Y-115089891D01*
X153190224Y-115126645D01*
X153218355Y-115154776D01*
X153255109Y-115170000D01*
X153294891Y-115170000D01*
X153331645Y-115154776D01*
X153359776Y-115126645D01*
X153375000Y-115089891D01*
X153375000Y-115069999D01*
X153628554Y-115069999D01*
X153628554Y-115070001D01*
X153824999Y-115266446D01*
X153825001Y-115266446D01*
X154021446Y-115070001D01*
X154021446Y-115069999D01*
X154001556Y-115050109D01*
X154275000Y-115050109D01*
X154275000Y-115089891D01*
X154290224Y-115126645D01*
X154318355Y-115154776D01*
X154355109Y-115170000D01*
X154394891Y-115170000D01*
X154431645Y-115154776D01*
X154459776Y-115126645D01*
X154475000Y-115089891D01*
X154475000Y-115069999D01*
X154728554Y-115069999D01*
X154728554Y-115070001D01*
X155058700Y-115400147D01*
X155103870Y-115291101D01*
X155103871Y-115291098D01*
X155132999Y-115144662D01*
X155133000Y-115144655D01*
X155133000Y-114995344D01*
X155132999Y-114995340D01*
X155103870Y-114848900D01*
X155058700Y-114739852D01*
X154728554Y-115069999D01*
X154475000Y-115069999D01*
X154475000Y-115050109D01*
X154459776Y-115013355D01*
X154431645Y-114985224D01*
X154394891Y-114970000D01*
X154355109Y-114970000D01*
X154318355Y-114985224D01*
X154290224Y-115013355D01*
X154275000Y-115050109D01*
X154001556Y-115050109D01*
X153825001Y-114873554D01*
X153824999Y-114873554D01*
X153628554Y-115069999D01*
X153375000Y-115069999D01*
X153375000Y-115050109D01*
X153359776Y-115013355D01*
X153331645Y-114985224D01*
X153294891Y-114970000D01*
X153255109Y-114970000D01*
X153218355Y-114985224D01*
X153190224Y-115013355D01*
X153175000Y-115050109D01*
X152901556Y-115050109D01*
X152591298Y-114739851D01*
X152591297Y-114739851D01*
X152546131Y-114848893D01*
X152546129Y-114848898D01*
X152517000Y-114995340D01*
X149920471Y-114995340D01*
X149923182Y-114984721D01*
X149931493Y-114975952D01*
X149934861Y-114968216D01*
X149961542Y-114944251D01*
X150051129Y-114884391D01*
X150051129Y-114884390D01*
X150079135Y-114865678D01*
X150205678Y-114739135D01*
X150305102Y-114590336D01*
X150373587Y-114425000D01*
X150374582Y-114419999D01*
X152978554Y-114419999D01*
X152978554Y-114420001D01*
X153274999Y-114716446D01*
X153275001Y-114716446D01*
X153571446Y-114420001D01*
X153571446Y-114419999D01*
X154078554Y-114419999D01*
X154078554Y-114420001D01*
X154374999Y-114716446D01*
X154375001Y-114716446D01*
X154671446Y-114420001D01*
X154671446Y-114419999D01*
X154375001Y-114123554D01*
X154374999Y-114123554D01*
X154078554Y-114419999D01*
X153571446Y-114419999D01*
X153275001Y-114123554D01*
X153274999Y-114123554D01*
X152978554Y-114419999D01*
X150374582Y-114419999D01*
X150408500Y-114249479D01*
X150408500Y-114070521D01*
X150373587Y-113895000D01*
X150305102Y-113729664D01*
X150282168Y-113695340D01*
X152517000Y-113695340D01*
X152517000Y-113844659D01*
X152546131Y-113991108D01*
X152591297Y-114100146D01*
X152591298Y-114100147D01*
X152921446Y-113769999D01*
X152901556Y-113750109D01*
X153175000Y-113750109D01*
X153175000Y-113789891D01*
X153190224Y-113826645D01*
X153218355Y-113854776D01*
X153255109Y-113870000D01*
X153294891Y-113870000D01*
X153331645Y-113854776D01*
X153359776Y-113826645D01*
X153375000Y-113789891D01*
X153375000Y-113769999D01*
X153628554Y-113769999D01*
X153628554Y-113770001D01*
X153824999Y-113966446D01*
X153825001Y-113966446D01*
X154021446Y-113770001D01*
X154021446Y-113769999D01*
X154001556Y-113750109D01*
X154275000Y-113750109D01*
X154275000Y-113789891D01*
X154290224Y-113826645D01*
X154318355Y-113854776D01*
X154355109Y-113870000D01*
X154394891Y-113870000D01*
X154431645Y-113854776D01*
X154459776Y-113826645D01*
X154475000Y-113789891D01*
X154475000Y-113769999D01*
X154728554Y-113769999D01*
X154728554Y-113770001D01*
X155058700Y-114100147D01*
X155103870Y-113991101D01*
X155103871Y-113991098D01*
X155132999Y-113844662D01*
X155133000Y-113844655D01*
X155133000Y-113695344D01*
X155132999Y-113695340D01*
X155103870Y-113548900D01*
X155058700Y-113439852D01*
X154728554Y-113769999D01*
X154475000Y-113769999D01*
X154475000Y-113750109D01*
X154459776Y-113713355D01*
X154431645Y-113685224D01*
X154394891Y-113670000D01*
X154355109Y-113670000D01*
X154318355Y-113685224D01*
X154290224Y-113713355D01*
X154275000Y-113750109D01*
X154001556Y-113750109D01*
X153825001Y-113573554D01*
X153824999Y-113573554D01*
X153628554Y-113769999D01*
X153375000Y-113769999D01*
X153375000Y-113750109D01*
X153359776Y-113713355D01*
X153331645Y-113685224D01*
X153294891Y-113670000D01*
X153255109Y-113670000D01*
X153218355Y-113685224D01*
X153190224Y-113713355D01*
X153175000Y-113750109D01*
X152901556Y-113750109D01*
X152591298Y-113439851D01*
X152591297Y-113439851D01*
X152546131Y-113548893D01*
X152546129Y-113548898D01*
X152517000Y-113695340D01*
X150282168Y-113695340D01*
X150205678Y-113580865D01*
X150079135Y-113454322D01*
X149930336Y-113354898D01*
X149811502Y-113305675D01*
X149765003Y-113286414D01*
X149765001Y-113286413D01*
X149765000Y-113286413D01*
X149684522Y-113270405D01*
X149589482Y-113251500D01*
X149589479Y-113251500D01*
X149410521Y-113251500D01*
X149410518Y-113251500D01*
X149315478Y-113270405D01*
X149235000Y-113286413D01*
X149234999Y-113286413D01*
X149234996Y-113286414D01*
X149069662Y-113354899D01*
X149031700Y-113380265D01*
X148963947Y-113401480D01*
X148961698Y-113401500D01*
X148765288Y-113401500D01*
X148692024Y-113416073D01*
X148692024Y-113416074D01*
X148618753Y-113430649D01*
X148618751Y-113430649D01*
X148618750Y-113430650D01*
X148480714Y-113487827D01*
X148356486Y-113570833D01*
X148356480Y-113570838D01*
X144537347Y-117389972D01*
X144475035Y-117423998D01*
X144404220Y-117418933D01*
X144359157Y-117389972D01*
X143444405Y-116475220D01*
X143410379Y-116412908D01*
X143407500Y-116386125D01*
X143407500Y-113634500D01*
X143427502Y-113566379D01*
X143481158Y-113519886D01*
X143533500Y-113508500D01*
X143689478Y-113508500D01*
X143689479Y-113508500D01*
X143865000Y-113473587D01*
X144030336Y-113405102D01*
X144179135Y-113305678D01*
X144214408Y-113270405D01*
X144276720Y-113236379D01*
X144303503Y-113233500D01*
X144796497Y-113233500D01*
X144864618Y-113253502D01*
X144885592Y-113270405D01*
X144920865Y-113305678D01*
X145069664Y-113405102D01*
X145235000Y-113473587D01*
X145410521Y-113508500D01*
X145410522Y-113508500D01*
X145589478Y-113508500D01*
X145589479Y-113508500D01*
X145765000Y-113473587D01*
X145930336Y-113405102D01*
X146079135Y-113305678D01*
X146205678Y-113179135D01*
X146267710Y-113086297D01*
X152944851Y-113086297D01*
X152944851Y-113086298D01*
X153274999Y-113416446D01*
X153275000Y-113416446D01*
X153605147Y-113086298D01*
X153605146Y-113086297D01*
X154044851Y-113086297D01*
X154044851Y-113086298D01*
X154374999Y-113416446D01*
X154375000Y-113416446D01*
X154705147Y-113086298D01*
X154705146Y-113086297D01*
X154596108Y-113041131D01*
X154449659Y-113012000D01*
X154300340Y-113012000D01*
X154153898Y-113041129D01*
X154153893Y-113041131D01*
X154044851Y-113086297D01*
X153605146Y-113086297D01*
X153496108Y-113041131D01*
X153349659Y-113012000D01*
X153200340Y-113012000D01*
X153053898Y-113041129D01*
X153053893Y-113041131D01*
X152944851Y-113086297D01*
X146267710Y-113086297D01*
X146305102Y-113030336D01*
X146373587Y-112865000D01*
X146408500Y-112689479D01*
X146408500Y-112510521D01*
X146373587Y-112335000D01*
X146305102Y-112169664D01*
X146205678Y-112020865D01*
X146079135Y-111894322D01*
X145930336Y-111794898D01*
X145813429Y-111746473D01*
X145765003Y-111726414D01*
X145765001Y-111726413D01*
X145765000Y-111726413D01*
X145676645Y-111708838D01*
X145589481Y-111691500D01*
X145589479Y-111691500D01*
X145410521Y-111691500D01*
X145410518Y-111691500D01*
X145302432Y-111713000D01*
X145235000Y-111726413D01*
X145234999Y-111726413D01*
X145234996Y-111726414D01*
X145069662Y-111794899D01*
X144920869Y-111894319D01*
X144920862Y-111894324D01*
X144885592Y-111929595D01*
X144823280Y-111963621D01*
X144796497Y-111966500D01*
X144303503Y-111966500D01*
X144235382Y-111946498D01*
X144214408Y-111929595D01*
X144179137Y-111894324D01*
X144179135Y-111894322D01*
X144030336Y-111794898D01*
X143913429Y-111746473D01*
X143865003Y-111726414D01*
X143865001Y-111726413D01*
X143865000Y-111726413D01*
X143776645Y-111708838D01*
X143689481Y-111691500D01*
X143689479Y-111691500D01*
X143533500Y-111691500D01*
X143524674Y-111688908D01*
X143515568Y-111690218D01*
X143491142Y-111679062D01*
X143465379Y-111671498D01*
X143459354Y-111664544D01*
X143450988Y-111660724D01*
X143436473Y-111638138D01*
X143418886Y-111617842D01*
X143416561Y-111607155D01*
X143412604Y-111600998D01*
X143407500Y-111565500D01*
X143407500Y-111407371D01*
X143427502Y-111339250D01*
X143444400Y-111318280D01*
X143795703Y-110966976D01*
X143858014Y-110932953D01*
X143860125Y-110932512D01*
X143905000Y-110923587D01*
X144070336Y-110855102D01*
X144219135Y-110755678D01*
X144345678Y-110629135D01*
X144445102Y-110480336D01*
X144513587Y-110315000D01*
X144548500Y-110139479D01*
X144548500Y-109960521D01*
X144513587Y-109785000D01*
X144445102Y-109619664D01*
X144345678Y-109470865D01*
X144219135Y-109344322D01*
X144070336Y-109244898D01*
X143953429Y-109196473D01*
X143905003Y-109176414D01*
X143905001Y-109176413D01*
X143905000Y-109176413D01*
X143816645Y-109158838D01*
X143729481Y-109141500D01*
X143729479Y-109141500D01*
X143550521Y-109141500D01*
X143550518Y-109141500D01*
X143419771Y-109167507D01*
X143375000Y-109176413D01*
X143374999Y-109176413D01*
X143374996Y-109176414D01*
X143209662Y-109244899D01*
X143060869Y-109344319D01*
X143060862Y-109344324D01*
X142934324Y-109470862D01*
X142934319Y-109470869D01*
X142834898Y-109619663D01*
X142766413Y-109785000D01*
X142766411Y-109785006D01*
X142757503Y-109829786D01*
X142724594Y-109892695D01*
X142723021Y-109894296D01*
X142059836Y-110557482D01*
X142059835Y-110557483D01*
X141976826Y-110681715D01*
X141927423Y-110800983D01*
X141927421Y-110800990D01*
X141923028Y-110811597D01*
X141919649Y-110819754D01*
X141890500Y-110966294D01*
X132798583Y-110966294D01*
X132774440Y-110912067D01*
X132774439Y-110912065D01*
X132774436Y-110912059D01*
X132641446Y-110681715D01*
X132615880Y-110637433D01*
X132615878Y-110637431D01*
X132615874Y-110637423D01*
X132429482Y-110380878D01*
X132429481Y-110380877D01*
X132415312Y-110365141D01*
X132217287Y-110145213D01*
X131981622Y-109933018D01*
X131981621Y-109933017D01*
X131725075Y-109746625D01*
X131725076Y-109746625D01*
X131450440Y-109588063D01*
X131450434Y-109588060D01*
X131160726Y-109459074D01*
X131160725Y-109459073D01*
X130859136Y-109361081D01*
X130548944Y-109295148D01*
X130233563Y-109262000D01*
X130233560Y-109262000D01*
X130085562Y-109262000D01*
X125058253Y-109262000D01*
X125058227Y-109261981D01*
X125049942Y-109262000D01*
X125039438Y-109262000D01*
X125015556Y-109262000D01*
X125015160Y-109262076D01*
X124823608Y-109262502D01*
X124822253Y-109262506D01*
X124666863Y-109275719D01*
X124368518Y-109301089D01*
X123919506Y-109376956D01*
X123919497Y-109376957D01*
X123478271Y-109489592D01*
X123478266Y-109489594D01*
X123047833Y-109638227D01*
X123047821Y-109638232D01*
X122631135Y-109821842D01*
X122631109Y-109821855D01*
X122230963Y-110039209D01*
X121850076Y-110288838D01*
X121491102Y-110569001D01*
X121156429Y-110877831D01*
X121156424Y-110877836D01*
X120848392Y-111213173D01*
X120848391Y-111213175D01*
X120848381Y-111213187D01*
X120848379Y-111213190D01*
X120569024Y-111572816D01*
X120320275Y-111954253D01*
X120320270Y-111954261D01*
X120320269Y-111954263D01*
X120103828Y-112354899D01*
X120103827Y-112354902D01*
X119921153Y-112772036D01*
X119844147Y-112996696D01*
X119773498Y-113202814D01*
X119773493Y-113202830D01*
X119661867Y-113644294D01*
X119661867Y-113644297D01*
X119587026Y-114093455D01*
X119587023Y-114093481D01*
X119584535Y-114123554D01*
X119549473Y-114547311D01*
X106400000Y-114547311D01*
X106400000Y-110134859D01*
X108187000Y-110134859D01*
X108187000Y-110139216D01*
X108187000Y-110365141D01*
X108223024Y-110592587D01*
X108294185Y-110811597D01*
X108398730Y-111016779D01*
X108534086Y-111203081D01*
X108534088Y-111203083D01*
X108534090Y-111203086D01*
X108696913Y-111365909D01*
X108696916Y-111365911D01*
X108696919Y-111365914D01*
X108883221Y-111501270D01*
X109088403Y-111605815D01*
X109307413Y-111676976D01*
X109534859Y-111713000D01*
X109534862Y-111713000D01*
X109765138Y-111713000D01*
X109765141Y-111713000D01*
X109992587Y-111676976D01*
X110211597Y-111605815D01*
X110416779Y-111501270D01*
X110603081Y-111365914D01*
X110765914Y-111203081D01*
X110901270Y-111016779D01*
X111005815Y-110811597D01*
X111076976Y-110592587D01*
X111113000Y-110365141D01*
X111113000Y-110134859D01*
X111076976Y-109907413D01*
X111005815Y-109688403D01*
X110901270Y-109483221D01*
X110765914Y-109296919D01*
X110765911Y-109296916D01*
X110765909Y-109296913D01*
X110603086Y-109134090D01*
X110603083Y-109134088D01*
X110603081Y-109134086D01*
X110416779Y-108998730D01*
X110211597Y-108894185D01*
X109992587Y-108823024D01*
X109765141Y-108787000D01*
X109534859Y-108787000D01*
X109307413Y-108823024D01*
X109307410Y-108823024D01*
X109307409Y-108823025D01*
X109088403Y-108894185D01*
X109088401Y-108894186D01*
X108883217Y-108998732D01*
X108696916Y-109134088D01*
X108696913Y-109134090D01*
X108534090Y-109296913D01*
X108534088Y-109296916D01*
X108398732Y-109483217D01*
X108294186Y-109688401D01*
X108294185Y-109688403D01*
X108248247Y-109829786D01*
X108223024Y-109907413D01*
X108187000Y-110134859D01*
X106400000Y-110134859D01*
X106400000Y-103560518D01*
X147191500Y-103560518D01*
X147191500Y-103560521D01*
X147191500Y-103739479D01*
X147226413Y-103915000D01*
X147294898Y-104080336D01*
X147394322Y-104229135D01*
X147520865Y-104355678D01*
X147669664Y-104455102D01*
X147835000Y-104523587D01*
X148010521Y-104558500D01*
X148010522Y-104558500D01*
X148189478Y-104558500D01*
X148189479Y-104558500D01*
X148365000Y-104523587D01*
X148530336Y-104455102D01*
X148679135Y-104355678D01*
X148714408Y-104320405D01*
X148776720Y-104286379D01*
X148803503Y-104283500D01*
X151446497Y-104283500D01*
X151514618Y-104303502D01*
X151535592Y-104320405D01*
X151570865Y-104355678D01*
X151719664Y-104455102D01*
X151885000Y-104523587D01*
X152060521Y-104558500D01*
X152060522Y-104558500D01*
X152239478Y-104558500D01*
X152239479Y-104558500D01*
X152415000Y-104523587D01*
X152580336Y-104455102D01*
X152729135Y-104355678D01*
X152764408Y-104320405D01*
X152826720Y-104286379D01*
X152853503Y-104283500D01*
X154896497Y-104283500D01*
X154964618Y-104303502D01*
X154985592Y-104320405D01*
X155020865Y-104355678D01*
X155169664Y-104455102D01*
X155335000Y-104523587D01*
X155510521Y-104558500D01*
X155510522Y-104558500D01*
X155689478Y-104558500D01*
X155689479Y-104558500D01*
X155865000Y-104523587D01*
X156030336Y-104455102D01*
X156179135Y-104355678D01*
X156305678Y-104229135D01*
X156405102Y-104080336D01*
X156473587Y-103915000D01*
X156508500Y-103739479D01*
X156508500Y-103560521D01*
X156473587Y-103385000D01*
X156405102Y-103219664D01*
X156305678Y-103070865D01*
X156179135Y-102944322D01*
X156030336Y-102844898D01*
X155913429Y-102796473D01*
X155865003Y-102776414D01*
X155865001Y-102776413D01*
X155865000Y-102776413D01*
X155776645Y-102758838D01*
X155689481Y-102741500D01*
X155689479Y-102741500D01*
X155510521Y-102741500D01*
X155510518Y-102741500D01*
X155379771Y-102767507D01*
X155335000Y-102776413D01*
X155334999Y-102776413D01*
X155334996Y-102776414D01*
X155169662Y-102844899D01*
X155020869Y-102944319D01*
X155020862Y-102944324D01*
X154985592Y-102979595D01*
X154923280Y-103013621D01*
X154896497Y-103016500D01*
X152853503Y-103016500D01*
X152785382Y-102996498D01*
X152764408Y-102979595D01*
X152729137Y-102944324D01*
X152729135Y-102944322D01*
X152580336Y-102844898D01*
X152463429Y-102796473D01*
X152415003Y-102776414D01*
X152415001Y-102776413D01*
X152415000Y-102776413D01*
X152326645Y-102758838D01*
X152239481Y-102741500D01*
X152239479Y-102741500D01*
X152060521Y-102741500D01*
X152060518Y-102741500D01*
X151929771Y-102767507D01*
X151885000Y-102776413D01*
X151884999Y-102776413D01*
X151884996Y-102776414D01*
X151719662Y-102844899D01*
X151570869Y-102944319D01*
X151570862Y-102944324D01*
X151535592Y-102979595D01*
X151473280Y-103013621D01*
X151446497Y-103016500D01*
X148803503Y-103016500D01*
X148735382Y-102996498D01*
X148714408Y-102979595D01*
X148679137Y-102944324D01*
X148679135Y-102944322D01*
X148530336Y-102844898D01*
X148413429Y-102796473D01*
X148365003Y-102776414D01*
X148365001Y-102776413D01*
X148365000Y-102776413D01*
X148276645Y-102758838D01*
X148189481Y-102741500D01*
X148189479Y-102741500D01*
X148010521Y-102741500D01*
X148010518Y-102741500D01*
X147879771Y-102767507D01*
X147835000Y-102776413D01*
X147834999Y-102776413D01*
X147834996Y-102776414D01*
X147669662Y-102844899D01*
X147520869Y-102944319D01*
X147520862Y-102944324D01*
X147394324Y-103070862D01*
X147394319Y-103070869D01*
X147294899Y-103219662D01*
X147226414Y-103384996D01*
X147191500Y-103560518D01*
X106400000Y-103560518D01*
X106400000Y-98134859D01*
X108187000Y-98134859D01*
X108187000Y-98139216D01*
X108187000Y-98365141D01*
X108223024Y-98592587D01*
X108294185Y-98811597D01*
X108398730Y-99016779D01*
X108534086Y-99203081D01*
X108534088Y-99203083D01*
X108534090Y-99203086D01*
X108696913Y-99365909D01*
X108696916Y-99365911D01*
X108696919Y-99365914D01*
X108883221Y-99501270D01*
X109088403Y-99605815D01*
X109307413Y-99676976D01*
X109534859Y-99713000D01*
X109534862Y-99713000D01*
X109765138Y-99713000D01*
X109765141Y-99713000D01*
X109992587Y-99676976D01*
X110211597Y-99605815D01*
X110416779Y-99501270D01*
X110603081Y-99365914D01*
X110765914Y-99203081D01*
X110901270Y-99016779D01*
X111005815Y-98811597D01*
X111076976Y-98592587D01*
X111113000Y-98365141D01*
X111113000Y-98134859D01*
X111076976Y-97907413D01*
X111005815Y-97688403D01*
X110901270Y-97483221D01*
X110765914Y-97296919D01*
X110765911Y-97296916D01*
X110765909Y-97296913D01*
X110603086Y-97134090D01*
X110603083Y-97134088D01*
X110603081Y-97134086D01*
X110416779Y-96998730D01*
X110211597Y-96894185D01*
X109992587Y-96823024D01*
X109765141Y-96787000D01*
X109534859Y-96787000D01*
X109307413Y-96823024D01*
X109307410Y-96823024D01*
X109307409Y-96823025D01*
X109088403Y-96894185D01*
X109088401Y-96894186D01*
X108883217Y-96998732D01*
X108696916Y-97134088D01*
X108696913Y-97134090D01*
X108534090Y-97296913D01*
X108534088Y-97296916D01*
X108398732Y-97483217D01*
X108398730Y-97483221D01*
X108294185Y-97688403D01*
X108223024Y-97907413D01*
X108187000Y-98134859D01*
X106400000Y-98134859D01*
X106400000Y-76444167D01*
X136824500Y-76444167D01*
X136824500Y-82755832D01*
X136860681Y-83065378D01*
X136860682Y-83065384D01*
X136932557Y-83368645D01*
X136932558Y-83368650D01*
X137039146Y-83661497D01*
X137039151Y-83661509D01*
X137179024Y-83940021D01*
X137350279Y-84200400D01*
X137550610Y-84439147D01*
X137777310Y-84653028D01*
X137920893Y-84759921D01*
X138027297Y-84839136D01*
X138297203Y-84994966D01*
X138583374Y-85118408D01*
X138881942Y-85207793D01*
X139188867Y-85261913D01*
X139500000Y-85280034D01*
X139811133Y-85261913D01*
X140118058Y-85207793D01*
X140416626Y-85118408D01*
X140702797Y-84994966D01*
X140972703Y-84839136D01*
X141222693Y-84653025D01*
X141449386Y-84439151D01*
X141649717Y-84200405D01*
X141820978Y-83940017D01*
X141960850Y-83661507D01*
X142067444Y-83368642D01*
X142139318Y-83065383D01*
X142175500Y-82755830D01*
X142175500Y-82600000D01*
X142175500Y-82591715D01*
X142175500Y-76589438D01*
X142175500Y-76444170D01*
X142175500Y-76444167D01*
X146824500Y-76444167D01*
X146824500Y-82755832D01*
X146860681Y-83065378D01*
X146860682Y-83065384D01*
X146932557Y-83368645D01*
X146932558Y-83368650D01*
X147039146Y-83661497D01*
X147039151Y-83661509D01*
X147179024Y-83940021D01*
X147350279Y-84200400D01*
X147550610Y-84439147D01*
X147777310Y-84653028D01*
X147920893Y-84759921D01*
X148027297Y-84839136D01*
X148297203Y-84994966D01*
X148583374Y-85118408D01*
X148881942Y-85207793D01*
X149188867Y-85261913D01*
X149500000Y-85280034D01*
X149811133Y-85261913D01*
X150118058Y-85207793D01*
X150416626Y-85118408D01*
X150702797Y-84994966D01*
X150972703Y-84839136D01*
X151222693Y-84653025D01*
X151449386Y-84439151D01*
X151649717Y-84200405D01*
X151820978Y-83940017D01*
X151960850Y-83661507D01*
X152067444Y-83368642D01*
X152139318Y-83065383D01*
X152175500Y-82755830D01*
X152175500Y-82600000D01*
X152175500Y-82591715D01*
X152175500Y-76589438D01*
X152175500Y-76444170D01*
X152139318Y-76134617D01*
X152067444Y-75831358D01*
X151960850Y-75538493D01*
X151820978Y-75259983D01*
X151820975Y-75259978D01*
X151649720Y-74999599D01*
X151449389Y-74760852D01*
X151222689Y-74546971D01*
X150972718Y-74360875D01*
X150972715Y-74360873D01*
X150972703Y-74360864D01*
X150702797Y-74205034D01*
X150702798Y-74205034D01*
X150702794Y-74205032D01*
X150416633Y-74081595D01*
X150416632Y-74081594D01*
X150416626Y-74081592D01*
X150118058Y-73992207D01*
X150118059Y-73992207D01*
X150023309Y-73975500D01*
X149811133Y-73938087D01*
X149811129Y-73938086D01*
X149811125Y-73938086D01*
X149500000Y-73919966D01*
X149188877Y-73938086D01*
X149188871Y-73938086D01*
X148881941Y-73992207D01*
X148754360Y-74030402D01*
X148583374Y-74081592D01*
X148583372Y-74081593D01*
X148583366Y-74081595D01*
X148297205Y-74205032D01*
X148297200Y-74205035D01*
X148027308Y-74360857D01*
X148027281Y-74360875D01*
X147777310Y-74546971D01*
X147550610Y-74760852D01*
X147350279Y-74999599D01*
X147179024Y-75259978D01*
X147039151Y-75538490D01*
X147039146Y-75538502D01*
X146932558Y-75831349D01*
X146932557Y-75831354D01*
X146860682Y-76134615D01*
X146860681Y-76134621D01*
X146824500Y-76444167D01*
X142175500Y-76444167D01*
X142139318Y-76134617D01*
X142067444Y-75831358D01*
X141960850Y-75538493D01*
X141820978Y-75259983D01*
X141820975Y-75259978D01*
X141649720Y-74999599D01*
X141449389Y-74760852D01*
X141222689Y-74546971D01*
X140972718Y-74360875D01*
X140972715Y-74360873D01*
X140972703Y-74360864D01*
X140702797Y-74205034D01*
X140702798Y-74205034D01*
X140702794Y-74205032D01*
X140416633Y-74081595D01*
X140416632Y-74081594D01*
X140416626Y-74081592D01*
X140118058Y-73992207D01*
X140118059Y-73992207D01*
X140023309Y-73975500D01*
X139811133Y-73938087D01*
X139811129Y-73938086D01*
X139811125Y-73938086D01*
X139500000Y-73919966D01*
X139188877Y-73938086D01*
X139188871Y-73938086D01*
X138881941Y-73992207D01*
X138754360Y-74030402D01*
X138583374Y-74081592D01*
X138583372Y-74081593D01*
X138583366Y-74081595D01*
X138297205Y-74205032D01*
X138297200Y-74205035D01*
X138027308Y-74360857D01*
X138027281Y-74360875D01*
X137777310Y-74546971D01*
X137550610Y-74760852D01*
X137350279Y-74999599D01*
X137179024Y-75259978D01*
X137039151Y-75538490D01*
X137039146Y-75538502D01*
X136932558Y-75831349D01*
X136932557Y-75831354D01*
X136860682Y-76134615D01*
X136860681Y-76134621D01*
X136824500Y-76444167D01*
X106400000Y-76444167D01*
X106400000Y-65901500D01*
X106420002Y-65833379D01*
X106473658Y-65786886D01*
X106526000Y-65775500D01*
X182498500Y-65775500D01*
X182566621Y-65795502D01*
G37*
%TD.AperFunction*%
%TD*%
D20*
X136850000Y-153000000D02*
X136850000Y-147000000D01*
X142150000Y-153000000D02*
X142150000Y-147000000D01*
X146850000Y-147000000D02*
X146850000Y-153000000D01*
X152150000Y-153000000D02*
X152150000Y-147000000D01*
X142150000Y-76600000D02*
X142150000Y-82600000D01*
X136850000Y-76600000D02*
X136850000Y-82600000D01*
X146850000Y-76600000D02*
X146850000Y-82600000D01*
X152150000Y-76600000D02*
X152150000Y-82600000D01*
X142150000Y-82600000D02*
G75*
G02*
X136850000Y-82600000I-2650000J0D01*
G01*
D21*
X106350000Y-65750000D02*
X182650000Y-65750000D01*
X182650000Y-163750000D01*
X106350000Y-163750000D01*
X106350000Y-65750000D01*
D20*
X133075000Y-117262500D02*
G75*
G02*
X130075000Y-120262500I-3000000J0D01*
G01*
X146850000Y-76600000D02*
G75*
G02*
X152150000Y-76600000I2650000J0D01*
G01*
X136850000Y-76600000D02*
G75*
G02*
X142150000Y-76600000I2650000J0D01*
G01*
X125050000Y-120262500D02*
G75*
G02*
X125050000Y-109287500I12500J5487500D01*
G01*
X136850000Y-147000000D02*
G75*
G02*
X142150000Y-147000000I2650000J0D01*
G01*
X125050000Y-120262500D02*
X130075000Y-120262500D01*
X142150000Y-153000000D02*
G75*
G02*
X136850000Y-153000000I-2650000J0D01*
G01*
D22*
X111087500Y-98250000D02*
G75*
G02*
X108212500Y-98250000I-1437500J0D01*
G01*
X108212500Y-98250000D02*
G75*
G02*
X111087500Y-98250000I1437500J0D01*
G01*
D20*
X146850000Y-147000000D02*
G75*
G02*
X152150000Y-147000000I2650000J0D01*
G01*
D22*
X111087500Y-110250000D02*
G75*
G02*
X108212500Y-110250000I-1437500J0D01*
G01*
X108212500Y-110250000D02*
G75*
G02*
X111087500Y-110250000I1437500J0D01*
G01*
X111087500Y-122250000D02*
G75*
G02*
X108212500Y-122250000I-1437500J0D01*
G01*
X108212500Y-122250000D02*
G75*
G02*
X111087500Y-122250000I1437500J0D01*
G01*
D20*
X152150000Y-153000000D02*
G75*
G02*
X146850000Y-153000000I-2650000J0D01*
G01*
X125050000Y-109287500D02*
X130075000Y-109287500D01*
D22*
X178462500Y-116250000D02*
G75*
G02*
X175587500Y-116250000I-1437500J0D01*
G01*
X175587500Y-116250000D02*
G75*
G02*
X178462500Y-116250000I1437500J0D01*
G01*
D20*
X133075000Y-117262500D02*
X133075000Y-112287500D01*
X152150000Y-82600000D02*
G75*
G02*
X146850000Y-82600000I-2650000J0D01*
G01*
X130075000Y-109287500D02*
G75*
G02*
X133075000Y-112287500I0J-3000000D01*
G01*
M02*
