%TF.GenerationSoftware,KiCad,Pcbnew,9.0.0*%
%TF.CreationDate,2025-04-21T01:21:51-04:00*%
%TF.ProjectId,xy_faces_CUpayload_v2,78795f66-6163-4657-935f-43557061796c,3.0*%
%TF.SameCoordinates,Original*%
%TF.FileFunction,Legend,Top*%
%TF.FilePolarity,Positive*%
%FSLAX46Y46*%
G04 Gerber Fmt 4.6, Leading zero omitted, Abs format (unit mm)*
G04 Created by KiCad (PCBNEW 9.0.0) date 2025-04-21 01:21:51*
%MOMM*%
%LPD*%
G01*
G04 APERTURE LIST*
%ADD10C,0.150000*%
%ADD11C,0.500000*%
%ADD12C,0.120000*%
%ADD13C,0.100000*%
%ADD14C,0.127000*%
%ADD15C,0.200000*%
%TA.AperFunction,Profile*%
%ADD16C,0.050000*%
%TD*%
%TA.AperFunction,Profile*%
%ADD17C,0.100000*%
%TD*%
%TA.AperFunction,Profile*%
%ADD18C,0.200000*%
%TD*%
G04 APERTURE END LIST*
D10*
X171088095Y-119202438D02*
X170992857Y-119154819D01*
X170992857Y-119154819D02*
X170850000Y-119154819D01*
X170850000Y-119154819D02*
X170707143Y-119202438D01*
X170707143Y-119202438D02*
X170611905Y-119297676D01*
X170611905Y-119297676D02*
X170564286Y-119392914D01*
X170564286Y-119392914D02*
X170516667Y-119583390D01*
X170516667Y-119583390D02*
X170516667Y-119726247D01*
X170516667Y-119726247D02*
X170564286Y-119916723D01*
X170564286Y-119916723D02*
X170611905Y-120011961D01*
X170611905Y-120011961D02*
X170707143Y-120107200D01*
X170707143Y-120107200D02*
X170850000Y-120154819D01*
X170850000Y-120154819D02*
X170945238Y-120154819D01*
X170945238Y-120154819D02*
X171088095Y-120107200D01*
X171088095Y-120107200D02*
X171135714Y-120059580D01*
X171135714Y-120059580D02*
X171135714Y-119726247D01*
X171135714Y-119726247D02*
X170945238Y-119726247D01*
X171564286Y-120154819D02*
X171564286Y-119154819D01*
X171564286Y-119154819D02*
X172135714Y-120154819D01*
X172135714Y-120154819D02*
X172135714Y-119154819D01*
X172611905Y-120154819D02*
X172611905Y-119154819D01*
X172611905Y-119154819D02*
X172850000Y-119154819D01*
X172850000Y-119154819D02*
X172992857Y-119202438D01*
X172992857Y-119202438D02*
X173088095Y-119297676D01*
X173088095Y-119297676D02*
X173135714Y-119392914D01*
X173135714Y-119392914D02*
X173183333Y-119583390D01*
X173183333Y-119583390D02*
X173183333Y-119726247D01*
X173183333Y-119726247D02*
X173135714Y-119916723D01*
X173135714Y-119916723D02*
X173088095Y-120011961D01*
X173088095Y-120011961D02*
X172992857Y-120107200D01*
X172992857Y-120107200D02*
X172850000Y-120154819D01*
X172850000Y-120154819D02*
X172611905Y-120154819D01*
X109355826Y-114771527D02*
X109320112Y-114807242D01*
X109320112Y-114807242D02*
X109212969Y-114842956D01*
X109212969Y-114842956D02*
X109141541Y-114842956D01*
X109141541Y-114842956D02*
X109034398Y-114807242D01*
X109034398Y-114807242D02*
X108962969Y-114735813D01*
X108962969Y-114735813D02*
X108927255Y-114664384D01*
X108927255Y-114664384D02*
X108891541Y-114521527D01*
X108891541Y-114521527D02*
X108891541Y-114414384D01*
X108891541Y-114414384D02*
X108927255Y-114271527D01*
X108927255Y-114271527D02*
X108962969Y-114200099D01*
X108962969Y-114200099D02*
X109034398Y-114128670D01*
X109034398Y-114128670D02*
X109141541Y-114092956D01*
X109141541Y-114092956D02*
X109212969Y-114092956D01*
X109212969Y-114092956D02*
X109320112Y-114128670D01*
X109320112Y-114128670D02*
X109355826Y-114164384D01*
X109641541Y-114628670D02*
X109998684Y-114628670D01*
X109570112Y-114842956D02*
X109820112Y-114092956D01*
X109820112Y-114092956D02*
X110070112Y-114842956D01*
X110320112Y-114842956D02*
X110320112Y-114092956D01*
X110320112Y-114092956D02*
X110570112Y-114628670D01*
X110570112Y-114628670D02*
X110820112Y-114092956D01*
X110820112Y-114092956D02*
X110820112Y-114842956D01*
X111177255Y-114450099D02*
X111427255Y-114450099D01*
X111534398Y-114842956D02*
X111177255Y-114842956D01*
X111177255Y-114842956D02*
X111177255Y-114092956D01*
X111177255Y-114092956D02*
X111534398Y-114092956D01*
X112284397Y-114842956D02*
X112034397Y-114485813D01*
X111855826Y-114842956D02*
X111855826Y-114092956D01*
X111855826Y-114092956D02*
X112141540Y-114092956D01*
X112141540Y-114092956D02*
X112212969Y-114128670D01*
X112212969Y-114128670D02*
X112248683Y-114164384D01*
X112248683Y-114164384D02*
X112284397Y-114235813D01*
X112284397Y-114235813D02*
X112284397Y-114342956D01*
X112284397Y-114342956D02*
X112248683Y-114414384D01*
X112248683Y-114414384D02*
X112212969Y-114450099D01*
X112212969Y-114450099D02*
X112141540Y-114485813D01*
X112141540Y-114485813D02*
X111855826Y-114485813D01*
X112570112Y-114628670D02*
X112927255Y-114628670D01*
X112498683Y-114842956D02*
X112748683Y-114092956D01*
X112748683Y-114092956D02*
X112998683Y-114842956D01*
X113820112Y-114842956D02*
X113820112Y-114092956D01*
X113820112Y-114450099D02*
X114248683Y-114450099D01*
X114248683Y-114842956D02*
X114248683Y-114092956D01*
X114748683Y-114092956D02*
X114891540Y-114092956D01*
X114891540Y-114092956D02*
X114962969Y-114128670D01*
X114962969Y-114128670D02*
X115034397Y-114200099D01*
X115034397Y-114200099D02*
X115070112Y-114342956D01*
X115070112Y-114342956D02*
X115070112Y-114592956D01*
X115070112Y-114592956D02*
X115034397Y-114735813D01*
X115034397Y-114735813D02*
X114962969Y-114807242D01*
X114962969Y-114807242D02*
X114891540Y-114842956D01*
X114891540Y-114842956D02*
X114748683Y-114842956D01*
X114748683Y-114842956D02*
X114677255Y-114807242D01*
X114677255Y-114807242D02*
X114605826Y-114735813D01*
X114605826Y-114735813D02*
X114570112Y-114592956D01*
X114570112Y-114592956D02*
X114570112Y-114342956D01*
X114570112Y-114342956D02*
X114605826Y-114200099D01*
X114605826Y-114200099D02*
X114677255Y-114128670D01*
X114677255Y-114128670D02*
X114748683Y-114092956D01*
X115748683Y-114842956D02*
X115391540Y-114842956D01*
X115391540Y-114842956D02*
X115391540Y-114092956D01*
X115998683Y-114450099D02*
X116248683Y-114450099D01*
X116355826Y-114842956D02*
X115998683Y-114842956D01*
X115998683Y-114842956D02*
X115998683Y-114092956D01*
X115998683Y-114092956D02*
X116355826Y-114092956D01*
X117248683Y-114557242D02*
X117820112Y-114557242D01*
X118177254Y-114342956D02*
X118748683Y-114557242D01*
X118748683Y-114557242D02*
X118177254Y-114771527D01*
X108927255Y-116050414D02*
X108927255Y-115300414D01*
X108927255Y-115300414D02*
X109105826Y-115300414D01*
X109105826Y-115300414D02*
X109212969Y-115336128D01*
X109212969Y-115336128D02*
X109284398Y-115407557D01*
X109284398Y-115407557D02*
X109320112Y-115478985D01*
X109320112Y-115478985D02*
X109355826Y-115621842D01*
X109355826Y-115621842D02*
X109355826Y-115728985D01*
X109355826Y-115728985D02*
X109320112Y-115871842D01*
X109320112Y-115871842D02*
X109284398Y-115943271D01*
X109284398Y-115943271D02*
X109212969Y-116014700D01*
X109212969Y-116014700D02*
X109105826Y-116050414D01*
X109105826Y-116050414D02*
X108927255Y-116050414D01*
X109784398Y-116050414D02*
X109712969Y-116014700D01*
X109712969Y-116014700D02*
X109677255Y-115978985D01*
X109677255Y-115978985D02*
X109641541Y-115907557D01*
X109641541Y-115907557D02*
X109641541Y-115693271D01*
X109641541Y-115693271D02*
X109677255Y-115621842D01*
X109677255Y-115621842D02*
X109712969Y-115586128D01*
X109712969Y-115586128D02*
X109784398Y-115550414D01*
X109784398Y-115550414D02*
X109891541Y-115550414D01*
X109891541Y-115550414D02*
X109962969Y-115586128D01*
X109962969Y-115586128D02*
X109998684Y-115621842D01*
X109998684Y-115621842D02*
X110034398Y-115693271D01*
X110034398Y-115693271D02*
X110034398Y-115907557D01*
X110034398Y-115907557D02*
X109998684Y-115978985D01*
X109998684Y-115978985D02*
X109962969Y-116014700D01*
X109962969Y-116014700D02*
X109891541Y-116050414D01*
X109891541Y-116050414D02*
X109784398Y-116050414D01*
X110355826Y-115550414D02*
X110355826Y-116050414D01*
X110355826Y-115621842D02*
X110391540Y-115586128D01*
X110391540Y-115586128D02*
X110462969Y-115550414D01*
X110462969Y-115550414D02*
X110570112Y-115550414D01*
X110570112Y-115550414D02*
X110641540Y-115586128D01*
X110641540Y-115586128D02*
X110677255Y-115657557D01*
X110677255Y-115657557D02*
X110677255Y-116050414D01*
X111070111Y-115300414D02*
X110998683Y-115443271D01*
X111284397Y-115550414D02*
X111570111Y-115550414D01*
X111391540Y-115300414D02*
X111391540Y-115943271D01*
X111391540Y-115943271D02*
X111427254Y-116014700D01*
X111427254Y-116014700D02*
X111498683Y-116050414D01*
X111498683Y-116050414D02*
X111570111Y-116050414D01*
X112284397Y-115550414D02*
X112570111Y-115550414D01*
X112391540Y-116050414D02*
X112391540Y-115407557D01*
X112391540Y-115407557D02*
X112427254Y-115336128D01*
X112427254Y-115336128D02*
X112498683Y-115300414D01*
X112498683Y-115300414D02*
X112570111Y-115300414D01*
X113141540Y-116050414D02*
X113141540Y-115657557D01*
X113141540Y-115657557D02*
X113105825Y-115586128D01*
X113105825Y-115586128D02*
X113034397Y-115550414D01*
X113034397Y-115550414D02*
X112891540Y-115550414D01*
X112891540Y-115550414D02*
X112820111Y-115586128D01*
X113141540Y-116014700D02*
X113070111Y-116050414D01*
X113070111Y-116050414D02*
X112891540Y-116050414D01*
X112891540Y-116050414D02*
X112820111Y-116014700D01*
X112820111Y-116014700D02*
X112784397Y-115943271D01*
X112784397Y-115943271D02*
X112784397Y-115871842D01*
X112784397Y-115871842D02*
X112820111Y-115800414D01*
X112820111Y-115800414D02*
X112891540Y-115764700D01*
X112891540Y-115764700D02*
X113070111Y-115764700D01*
X113070111Y-115764700D02*
X113141540Y-115728985D01*
X113605825Y-116050414D02*
X113534396Y-116014700D01*
X113534396Y-116014700D02*
X113498682Y-115943271D01*
X113498682Y-115943271D02*
X113498682Y-115300414D01*
X113998682Y-116050414D02*
X113927253Y-116014700D01*
X113927253Y-116014700D02*
X113891539Y-115943271D01*
X113891539Y-115943271D02*
X113891539Y-115300414D01*
X114855825Y-116050414D02*
X114855825Y-115550414D01*
X114855825Y-115300414D02*
X114820111Y-115336128D01*
X114820111Y-115336128D02*
X114855825Y-115371842D01*
X114855825Y-115371842D02*
X114891539Y-115336128D01*
X114891539Y-115336128D02*
X114855825Y-115300414D01*
X114855825Y-115300414D02*
X114855825Y-115371842D01*
X115212968Y-115550414D02*
X115212968Y-116050414D01*
X115212968Y-115621842D02*
X115248682Y-115586128D01*
X115248682Y-115586128D02*
X115320111Y-115550414D01*
X115320111Y-115550414D02*
X115427254Y-115550414D01*
X115427254Y-115550414D02*
X115498682Y-115586128D01*
X115498682Y-115586128D02*
X115534397Y-115657557D01*
X115534397Y-115657557D02*
X115534397Y-116050414D01*
X115891539Y-115978985D02*
X115927253Y-116014700D01*
X115927253Y-116014700D02*
X115891539Y-116050414D01*
X115891539Y-116050414D02*
X115855825Y-116014700D01*
X115855825Y-116014700D02*
X115891539Y-115978985D01*
X115891539Y-115978985D02*
X115891539Y-116050414D01*
X115891539Y-115764700D02*
X115855825Y-115336128D01*
X115855825Y-115336128D02*
X115891539Y-115300414D01*
X115891539Y-115300414D02*
X115927253Y-115336128D01*
X115927253Y-115336128D02*
X115891539Y-115764700D01*
X115891539Y-115764700D02*
X115891539Y-115300414D01*
X149621905Y-111854819D02*
X149621905Y-110854819D01*
X149621905Y-110854819D02*
X149955238Y-111569104D01*
X149955238Y-111569104D02*
X150288571Y-110854819D01*
X150288571Y-110854819D02*
X150288571Y-111854819D01*
X151336190Y-111759580D02*
X151288571Y-111807200D01*
X151288571Y-111807200D02*
X151145714Y-111854819D01*
X151145714Y-111854819D02*
X151050476Y-111854819D01*
X151050476Y-111854819D02*
X150907619Y-111807200D01*
X150907619Y-111807200D02*
X150812381Y-111711961D01*
X150812381Y-111711961D02*
X150764762Y-111616723D01*
X150764762Y-111616723D02*
X150717143Y-111426247D01*
X150717143Y-111426247D02*
X150717143Y-111283390D01*
X150717143Y-111283390D02*
X150764762Y-111092914D01*
X150764762Y-111092914D02*
X150812381Y-110997676D01*
X150812381Y-110997676D02*
X150907619Y-110902438D01*
X150907619Y-110902438D02*
X151050476Y-110854819D01*
X151050476Y-110854819D02*
X151145714Y-110854819D01*
X151145714Y-110854819D02*
X151288571Y-110902438D01*
X151288571Y-110902438D02*
X151336190Y-110950057D01*
X151764762Y-111854819D02*
X151764762Y-110854819D01*
X151764762Y-110854819D02*
X152145714Y-110854819D01*
X152145714Y-110854819D02*
X152240952Y-110902438D01*
X152240952Y-110902438D02*
X152288571Y-110950057D01*
X152288571Y-110950057D02*
X152336190Y-111045295D01*
X152336190Y-111045295D02*
X152336190Y-111188152D01*
X152336190Y-111188152D02*
X152288571Y-111283390D01*
X152288571Y-111283390D02*
X152240952Y-111331009D01*
X152240952Y-111331009D02*
X152145714Y-111378628D01*
X152145714Y-111378628D02*
X151764762Y-111378628D01*
X152812381Y-111854819D02*
X153002857Y-111854819D01*
X153002857Y-111854819D02*
X153098095Y-111807200D01*
X153098095Y-111807200D02*
X153145714Y-111759580D01*
X153145714Y-111759580D02*
X153240952Y-111616723D01*
X153240952Y-111616723D02*
X153288571Y-111426247D01*
X153288571Y-111426247D02*
X153288571Y-111045295D01*
X153288571Y-111045295D02*
X153240952Y-110950057D01*
X153240952Y-110950057D02*
X153193333Y-110902438D01*
X153193333Y-110902438D02*
X153098095Y-110854819D01*
X153098095Y-110854819D02*
X152907619Y-110854819D01*
X152907619Y-110854819D02*
X152812381Y-110902438D01*
X152812381Y-110902438D02*
X152764762Y-110950057D01*
X152764762Y-110950057D02*
X152717143Y-111045295D01*
X152717143Y-111045295D02*
X152717143Y-111283390D01*
X152717143Y-111283390D02*
X152764762Y-111378628D01*
X152764762Y-111378628D02*
X152812381Y-111426247D01*
X152812381Y-111426247D02*
X152907619Y-111473866D01*
X152907619Y-111473866D02*
X153098095Y-111473866D01*
X153098095Y-111473866D02*
X153193333Y-111426247D01*
X153193333Y-111426247D02*
X153240952Y-111378628D01*
X153240952Y-111378628D02*
X153288571Y-111283390D01*
X153860000Y-111283390D02*
X153764762Y-111235771D01*
X153764762Y-111235771D02*
X153717143Y-111188152D01*
X153717143Y-111188152D02*
X153669524Y-111092914D01*
X153669524Y-111092914D02*
X153669524Y-111045295D01*
X153669524Y-111045295D02*
X153717143Y-110950057D01*
X153717143Y-110950057D02*
X153764762Y-110902438D01*
X153764762Y-110902438D02*
X153860000Y-110854819D01*
X153860000Y-110854819D02*
X154050476Y-110854819D01*
X154050476Y-110854819D02*
X154145714Y-110902438D01*
X154145714Y-110902438D02*
X154193333Y-110950057D01*
X154193333Y-110950057D02*
X154240952Y-111045295D01*
X154240952Y-111045295D02*
X154240952Y-111092914D01*
X154240952Y-111092914D02*
X154193333Y-111188152D01*
X154193333Y-111188152D02*
X154145714Y-111235771D01*
X154145714Y-111235771D02*
X154050476Y-111283390D01*
X154050476Y-111283390D02*
X153860000Y-111283390D01*
X153860000Y-111283390D02*
X153764762Y-111331009D01*
X153764762Y-111331009D02*
X153717143Y-111378628D01*
X153717143Y-111378628D02*
X153669524Y-111473866D01*
X153669524Y-111473866D02*
X153669524Y-111664342D01*
X153669524Y-111664342D02*
X153717143Y-111759580D01*
X153717143Y-111759580D02*
X153764762Y-111807200D01*
X153764762Y-111807200D02*
X153860000Y-111854819D01*
X153860000Y-111854819D02*
X154050476Y-111854819D01*
X154050476Y-111854819D02*
X154145714Y-111807200D01*
X154145714Y-111807200D02*
X154193333Y-111759580D01*
X154193333Y-111759580D02*
X154240952Y-111664342D01*
X154240952Y-111664342D02*
X154240952Y-111473866D01*
X154240952Y-111473866D02*
X154193333Y-111378628D01*
X154193333Y-111378628D02*
X154145714Y-111331009D01*
X154145714Y-111331009D02*
X154050476Y-111283390D01*
X154860000Y-110854819D02*
X154955238Y-110854819D01*
X154955238Y-110854819D02*
X155050476Y-110902438D01*
X155050476Y-110902438D02*
X155098095Y-110950057D01*
X155098095Y-110950057D02*
X155145714Y-111045295D01*
X155145714Y-111045295D02*
X155193333Y-111235771D01*
X155193333Y-111235771D02*
X155193333Y-111473866D01*
X155193333Y-111473866D02*
X155145714Y-111664342D01*
X155145714Y-111664342D02*
X155098095Y-111759580D01*
X155098095Y-111759580D02*
X155050476Y-111807200D01*
X155050476Y-111807200D02*
X154955238Y-111854819D01*
X154955238Y-111854819D02*
X154860000Y-111854819D01*
X154860000Y-111854819D02*
X154764762Y-111807200D01*
X154764762Y-111807200D02*
X154717143Y-111759580D01*
X154717143Y-111759580D02*
X154669524Y-111664342D01*
X154669524Y-111664342D02*
X154621905Y-111473866D01*
X154621905Y-111473866D02*
X154621905Y-111235771D01*
X154621905Y-111235771D02*
X154669524Y-111045295D01*
X154669524Y-111045295D02*
X154717143Y-110950057D01*
X154717143Y-110950057D02*
X154764762Y-110902438D01*
X154764762Y-110902438D02*
X154860000Y-110854819D01*
X155764762Y-111283390D02*
X155669524Y-111235771D01*
X155669524Y-111235771D02*
X155621905Y-111188152D01*
X155621905Y-111188152D02*
X155574286Y-111092914D01*
X155574286Y-111092914D02*
X155574286Y-111045295D01*
X155574286Y-111045295D02*
X155621905Y-110950057D01*
X155621905Y-110950057D02*
X155669524Y-110902438D01*
X155669524Y-110902438D02*
X155764762Y-110854819D01*
X155764762Y-110854819D02*
X155955238Y-110854819D01*
X155955238Y-110854819D02*
X156050476Y-110902438D01*
X156050476Y-110902438D02*
X156098095Y-110950057D01*
X156098095Y-110950057D02*
X156145714Y-111045295D01*
X156145714Y-111045295D02*
X156145714Y-111092914D01*
X156145714Y-111092914D02*
X156098095Y-111188152D01*
X156098095Y-111188152D02*
X156050476Y-111235771D01*
X156050476Y-111235771D02*
X155955238Y-111283390D01*
X155955238Y-111283390D02*
X155764762Y-111283390D01*
X155764762Y-111283390D02*
X155669524Y-111331009D01*
X155669524Y-111331009D02*
X155621905Y-111378628D01*
X155621905Y-111378628D02*
X155574286Y-111473866D01*
X155574286Y-111473866D02*
X155574286Y-111664342D01*
X155574286Y-111664342D02*
X155621905Y-111759580D01*
X155621905Y-111759580D02*
X155669524Y-111807200D01*
X155669524Y-111807200D02*
X155764762Y-111854819D01*
X155764762Y-111854819D02*
X155955238Y-111854819D01*
X155955238Y-111854819D02*
X156050476Y-111807200D01*
X156050476Y-111807200D02*
X156098095Y-111759580D01*
X156098095Y-111759580D02*
X156145714Y-111664342D01*
X156145714Y-111664342D02*
X156145714Y-111473866D01*
X156145714Y-111473866D02*
X156098095Y-111378628D01*
X156098095Y-111378628D02*
X156050476Y-111331009D01*
X156050476Y-111331009D02*
X155955238Y-111283390D01*
X144114819Y-117176666D02*
X145114819Y-116843333D01*
X145114819Y-116843333D02*
X144114819Y-116510000D01*
X144591009Y-116176666D02*
X144591009Y-115843333D01*
X145114819Y-115700476D02*
X145114819Y-116176666D01*
X145114819Y-116176666D02*
X144114819Y-116176666D01*
X144114819Y-116176666D02*
X144114819Y-115700476D01*
X145114819Y-115271904D02*
X144114819Y-115271904D01*
X144114819Y-115271904D02*
X144829104Y-114938571D01*
X144829104Y-114938571D02*
X144114819Y-114605238D01*
X144114819Y-114605238D02*
X145114819Y-114605238D01*
X145114819Y-113652857D02*
X145114819Y-114129047D01*
X145114819Y-114129047D02*
X144114819Y-114129047D01*
X144114819Y-113414761D02*
X144114819Y-112748095D01*
X144114819Y-112748095D02*
X145114819Y-113176666D01*
X144114819Y-112462380D02*
X144114819Y-111795714D01*
X144114819Y-111795714D02*
X145114819Y-112224285D01*
X144114819Y-111224285D02*
X144114819Y-111129047D01*
X144114819Y-111129047D02*
X144162438Y-111033809D01*
X144162438Y-111033809D02*
X144210057Y-110986190D01*
X144210057Y-110986190D02*
X144305295Y-110938571D01*
X144305295Y-110938571D02*
X144495771Y-110890952D01*
X144495771Y-110890952D02*
X144733866Y-110890952D01*
X144733866Y-110890952D02*
X144924342Y-110938571D01*
X144924342Y-110938571D02*
X145019580Y-110986190D01*
X145019580Y-110986190D02*
X145067200Y-111033809D01*
X145067200Y-111033809D02*
X145114819Y-111129047D01*
X145114819Y-111129047D02*
X145114819Y-111224285D01*
X145114819Y-111224285D02*
X145067200Y-111319523D01*
X145067200Y-111319523D02*
X145019580Y-111367142D01*
X145019580Y-111367142D02*
X144924342Y-111414761D01*
X144924342Y-111414761D02*
X144733866Y-111462380D01*
X144733866Y-111462380D02*
X144495771Y-111462380D01*
X144495771Y-111462380D02*
X144305295Y-111414761D01*
X144305295Y-111414761D02*
X144210057Y-111367142D01*
X144210057Y-111367142D02*
X144162438Y-111319523D01*
X144162438Y-111319523D02*
X144114819Y-111224285D01*
X144114819Y-110271904D02*
X144114819Y-110176666D01*
X144114819Y-110176666D02*
X144162438Y-110081428D01*
X144162438Y-110081428D02*
X144210057Y-110033809D01*
X144210057Y-110033809D02*
X144305295Y-109986190D01*
X144305295Y-109986190D02*
X144495771Y-109938571D01*
X144495771Y-109938571D02*
X144733866Y-109938571D01*
X144733866Y-109938571D02*
X144924342Y-109986190D01*
X144924342Y-109986190D02*
X145019580Y-110033809D01*
X145019580Y-110033809D02*
X145067200Y-110081428D01*
X145067200Y-110081428D02*
X145114819Y-110176666D01*
X145114819Y-110176666D02*
X145114819Y-110271904D01*
X145114819Y-110271904D02*
X145067200Y-110367142D01*
X145067200Y-110367142D02*
X145019580Y-110414761D01*
X145019580Y-110414761D02*
X144924342Y-110462380D01*
X144924342Y-110462380D02*
X144733866Y-110509999D01*
X144733866Y-110509999D02*
X144495771Y-110509999D01*
X144495771Y-110509999D02*
X144305295Y-110462380D01*
X144305295Y-110462380D02*
X144210057Y-110414761D01*
X144210057Y-110414761D02*
X144162438Y-110367142D01*
X144162438Y-110367142D02*
X144114819Y-110271904D01*
X168883333Y-109504819D02*
X169216666Y-110504819D01*
X169216666Y-110504819D02*
X169549999Y-109504819D01*
X169835714Y-110457200D02*
X169978571Y-110504819D01*
X169978571Y-110504819D02*
X170216666Y-110504819D01*
X170216666Y-110504819D02*
X170311904Y-110457200D01*
X170311904Y-110457200D02*
X170359523Y-110409580D01*
X170359523Y-110409580D02*
X170407142Y-110314342D01*
X170407142Y-110314342D02*
X170407142Y-110219104D01*
X170407142Y-110219104D02*
X170359523Y-110123866D01*
X170359523Y-110123866D02*
X170311904Y-110076247D01*
X170311904Y-110076247D02*
X170216666Y-110028628D01*
X170216666Y-110028628D02*
X170026190Y-109981009D01*
X170026190Y-109981009D02*
X169930952Y-109933390D01*
X169930952Y-109933390D02*
X169883333Y-109885771D01*
X169883333Y-109885771D02*
X169835714Y-109790533D01*
X169835714Y-109790533D02*
X169835714Y-109695295D01*
X169835714Y-109695295D02*
X169883333Y-109600057D01*
X169883333Y-109600057D02*
X169930952Y-109552438D01*
X169930952Y-109552438D02*
X170026190Y-109504819D01*
X170026190Y-109504819D02*
X170264285Y-109504819D01*
X170264285Y-109504819D02*
X170407142Y-109552438D01*
X171026190Y-109504819D02*
X171216666Y-109504819D01*
X171216666Y-109504819D02*
X171311904Y-109552438D01*
X171311904Y-109552438D02*
X171407142Y-109647676D01*
X171407142Y-109647676D02*
X171454761Y-109838152D01*
X171454761Y-109838152D02*
X171454761Y-110171485D01*
X171454761Y-110171485D02*
X171407142Y-110361961D01*
X171407142Y-110361961D02*
X171311904Y-110457200D01*
X171311904Y-110457200D02*
X171216666Y-110504819D01*
X171216666Y-110504819D02*
X171026190Y-110504819D01*
X171026190Y-110504819D02*
X170930952Y-110457200D01*
X170930952Y-110457200D02*
X170835714Y-110361961D01*
X170835714Y-110361961D02*
X170788095Y-110171485D01*
X170788095Y-110171485D02*
X170788095Y-109838152D01*
X170788095Y-109838152D02*
X170835714Y-109647676D01*
X170835714Y-109647676D02*
X170930952Y-109552438D01*
X170930952Y-109552438D02*
X171026190Y-109504819D01*
X172359523Y-110504819D02*
X171883333Y-110504819D01*
X171883333Y-110504819D02*
X171883333Y-109504819D01*
X172645238Y-110219104D02*
X173121428Y-110219104D01*
X172550000Y-110504819D02*
X172883333Y-109504819D01*
X172883333Y-109504819D02*
X173216666Y-110504819D01*
X174121428Y-110504819D02*
X173788095Y-110028628D01*
X173550000Y-110504819D02*
X173550000Y-109504819D01*
X173550000Y-109504819D02*
X173930952Y-109504819D01*
X173930952Y-109504819D02*
X174026190Y-109552438D01*
X174026190Y-109552438D02*
X174073809Y-109600057D01*
X174073809Y-109600057D02*
X174121428Y-109695295D01*
X174121428Y-109695295D02*
X174121428Y-109838152D01*
X174121428Y-109838152D02*
X174073809Y-109933390D01*
X174073809Y-109933390D02*
X174026190Y-109981009D01*
X174026190Y-109981009D02*
X173930952Y-110028628D01*
X173930952Y-110028628D02*
X173550000Y-110028628D01*
X156138095Y-116354819D02*
X156138095Y-117164342D01*
X156138095Y-117164342D02*
X156185714Y-117259580D01*
X156185714Y-117259580D02*
X156233333Y-117307200D01*
X156233333Y-117307200D02*
X156328571Y-117354819D01*
X156328571Y-117354819D02*
X156519047Y-117354819D01*
X156519047Y-117354819D02*
X156614285Y-117307200D01*
X156614285Y-117307200D02*
X156661904Y-117259580D01*
X156661904Y-117259580D02*
X156709523Y-117164342D01*
X156709523Y-117164342D02*
X156709523Y-116354819D01*
X157138095Y-116450057D02*
X157185714Y-116402438D01*
X157185714Y-116402438D02*
X157280952Y-116354819D01*
X157280952Y-116354819D02*
X157519047Y-116354819D01*
X157519047Y-116354819D02*
X157614285Y-116402438D01*
X157614285Y-116402438D02*
X157661904Y-116450057D01*
X157661904Y-116450057D02*
X157709523Y-116545295D01*
X157709523Y-116545295D02*
X157709523Y-116640533D01*
X157709523Y-116640533D02*
X157661904Y-116783390D01*
X157661904Y-116783390D02*
X157090476Y-117354819D01*
X157090476Y-117354819D02*
X157709523Y-117354819D01*
X166598095Y-88477200D02*
X166740952Y-88524819D01*
X166740952Y-88524819D02*
X166979047Y-88524819D01*
X166979047Y-88524819D02*
X167074285Y-88477200D01*
X167074285Y-88477200D02*
X167121904Y-88429580D01*
X167121904Y-88429580D02*
X167169523Y-88334342D01*
X167169523Y-88334342D02*
X167169523Y-88239104D01*
X167169523Y-88239104D02*
X167121904Y-88143866D01*
X167121904Y-88143866D02*
X167074285Y-88096247D01*
X167074285Y-88096247D02*
X166979047Y-88048628D01*
X166979047Y-88048628D02*
X166788571Y-88001009D01*
X166788571Y-88001009D02*
X166693333Y-87953390D01*
X166693333Y-87953390D02*
X166645714Y-87905771D01*
X166645714Y-87905771D02*
X166598095Y-87810533D01*
X166598095Y-87810533D02*
X166598095Y-87715295D01*
X166598095Y-87715295D02*
X166645714Y-87620057D01*
X166645714Y-87620057D02*
X166693333Y-87572438D01*
X166693333Y-87572438D02*
X166788571Y-87524819D01*
X166788571Y-87524819D02*
X167026666Y-87524819D01*
X167026666Y-87524819D02*
X167169523Y-87572438D01*
X168169523Y-88429580D02*
X168121904Y-88477200D01*
X168121904Y-88477200D02*
X167979047Y-88524819D01*
X167979047Y-88524819D02*
X167883809Y-88524819D01*
X167883809Y-88524819D02*
X167740952Y-88477200D01*
X167740952Y-88477200D02*
X167645714Y-88381961D01*
X167645714Y-88381961D02*
X167598095Y-88286723D01*
X167598095Y-88286723D02*
X167550476Y-88096247D01*
X167550476Y-88096247D02*
X167550476Y-87953390D01*
X167550476Y-87953390D02*
X167598095Y-87762914D01*
X167598095Y-87762914D02*
X167645714Y-87667676D01*
X167645714Y-87667676D02*
X167740952Y-87572438D01*
X167740952Y-87572438D02*
X167883809Y-87524819D01*
X167883809Y-87524819D02*
X167979047Y-87524819D01*
X167979047Y-87524819D02*
X168121904Y-87572438D01*
X168121904Y-87572438D02*
X168169523Y-87620057D01*
X169074285Y-87524819D02*
X168598095Y-87524819D01*
X168598095Y-87524819D02*
X168550476Y-88001009D01*
X168550476Y-88001009D02*
X168598095Y-87953390D01*
X168598095Y-87953390D02*
X168693333Y-87905771D01*
X168693333Y-87905771D02*
X168931428Y-87905771D01*
X168931428Y-87905771D02*
X169026666Y-87953390D01*
X169026666Y-87953390D02*
X169074285Y-88001009D01*
X169074285Y-88001009D02*
X169121904Y-88096247D01*
X169121904Y-88096247D02*
X169121904Y-88334342D01*
X169121904Y-88334342D02*
X169074285Y-88429580D01*
X169074285Y-88429580D02*
X169026666Y-88477200D01*
X169026666Y-88477200D02*
X168931428Y-88524819D01*
X168931428Y-88524819D02*
X168693333Y-88524819D01*
X168693333Y-88524819D02*
X168598095Y-88477200D01*
X168598095Y-88477200D02*
X168550476Y-88429580D01*
D11*
X166717142Y-71789000D02*
X169002857Y-71789000D01*
X167859999Y-72931857D02*
X167859999Y-70646142D01*
X166717142Y-103539000D02*
X169002857Y-103539000D01*
D10*
X174304819Y-114411904D02*
X174304819Y-113840476D01*
X175304819Y-114126190D02*
X174304819Y-114126190D01*
X175304819Y-113507142D02*
X174304819Y-113507142D01*
X174304819Y-113507142D02*
X174304819Y-113126190D01*
X174304819Y-113126190D02*
X174352438Y-113030952D01*
X174352438Y-113030952D02*
X174400057Y-112983333D01*
X174400057Y-112983333D02*
X174495295Y-112935714D01*
X174495295Y-112935714D02*
X174638152Y-112935714D01*
X174638152Y-112935714D02*
X174733390Y-112983333D01*
X174733390Y-112983333D02*
X174781009Y-113030952D01*
X174781009Y-113030952D02*
X174828628Y-113126190D01*
X174828628Y-113126190D02*
X174828628Y-113507142D01*
X175304819Y-111983333D02*
X175304819Y-112554761D01*
X175304819Y-112269047D02*
X174304819Y-112269047D01*
X174304819Y-112269047D02*
X174447676Y-112364285D01*
X174447676Y-112364285D02*
X174542914Y-112459523D01*
X174542914Y-112459523D02*
X174590533Y-112554761D01*
X167104819Y-111438094D02*
X166104819Y-111438094D01*
X166104819Y-111438094D02*
X166104819Y-111199999D01*
X166104819Y-111199999D02*
X166152438Y-111057142D01*
X166152438Y-111057142D02*
X166247676Y-110961904D01*
X166247676Y-110961904D02*
X166342914Y-110914285D01*
X166342914Y-110914285D02*
X166533390Y-110866666D01*
X166533390Y-110866666D02*
X166676247Y-110866666D01*
X166676247Y-110866666D02*
X166866723Y-110914285D01*
X166866723Y-110914285D02*
X166961961Y-110961904D01*
X166961961Y-110961904D02*
X167057200Y-111057142D01*
X167057200Y-111057142D02*
X167104819Y-111199999D01*
X167104819Y-111199999D02*
X167104819Y-111438094D01*
X166104819Y-110533332D02*
X166104819Y-109914285D01*
X166104819Y-109914285D02*
X166485771Y-110247618D01*
X166485771Y-110247618D02*
X166485771Y-110104761D01*
X166485771Y-110104761D02*
X166533390Y-110009523D01*
X166533390Y-110009523D02*
X166581009Y-109961904D01*
X166581009Y-109961904D02*
X166676247Y-109914285D01*
X166676247Y-109914285D02*
X166914342Y-109914285D01*
X166914342Y-109914285D02*
X167009580Y-109961904D01*
X167009580Y-109961904D02*
X167057200Y-110009523D01*
X167057200Y-110009523D02*
X167104819Y-110104761D01*
X167104819Y-110104761D02*
X167104819Y-110390475D01*
X167104819Y-110390475D02*
X167057200Y-110485713D01*
X167057200Y-110485713D02*
X167009580Y-110533332D01*
X174304819Y-118711904D02*
X174304819Y-118140476D01*
X175304819Y-118426190D02*
X174304819Y-118426190D01*
X175304819Y-117807142D02*
X174304819Y-117807142D01*
X174304819Y-117807142D02*
X174304819Y-117426190D01*
X174304819Y-117426190D02*
X174352438Y-117330952D01*
X174352438Y-117330952D02*
X174400057Y-117283333D01*
X174400057Y-117283333D02*
X174495295Y-117235714D01*
X174495295Y-117235714D02*
X174638152Y-117235714D01*
X174638152Y-117235714D02*
X174733390Y-117283333D01*
X174733390Y-117283333D02*
X174781009Y-117330952D01*
X174781009Y-117330952D02*
X174828628Y-117426190D01*
X174828628Y-117426190D02*
X174828628Y-117807142D01*
X174400057Y-116854761D02*
X174352438Y-116807142D01*
X174352438Y-116807142D02*
X174304819Y-116711904D01*
X174304819Y-116711904D02*
X174304819Y-116473809D01*
X174304819Y-116473809D02*
X174352438Y-116378571D01*
X174352438Y-116378571D02*
X174400057Y-116330952D01*
X174400057Y-116330952D02*
X174495295Y-116283333D01*
X174495295Y-116283333D02*
X174590533Y-116283333D01*
X174590533Y-116283333D02*
X174733390Y-116330952D01*
X174733390Y-116330952D02*
X175304819Y-116902380D01*
X175304819Y-116902380D02*
X175304819Y-116283333D01*
X160624819Y-111428094D02*
X159624819Y-111428094D01*
X159624819Y-111428094D02*
X159624819Y-111189999D01*
X159624819Y-111189999D02*
X159672438Y-111047142D01*
X159672438Y-111047142D02*
X159767676Y-110951904D01*
X159767676Y-110951904D02*
X159862914Y-110904285D01*
X159862914Y-110904285D02*
X160053390Y-110856666D01*
X160053390Y-110856666D02*
X160196247Y-110856666D01*
X160196247Y-110856666D02*
X160386723Y-110904285D01*
X160386723Y-110904285D02*
X160481961Y-110951904D01*
X160481961Y-110951904D02*
X160577200Y-111047142D01*
X160577200Y-111047142D02*
X160624819Y-111189999D01*
X160624819Y-111189999D02*
X160624819Y-111428094D01*
X160624819Y-109904285D02*
X160624819Y-110475713D01*
X160624819Y-110189999D02*
X159624819Y-110189999D01*
X159624819Y-110189999D02*
X159767676Y-110285237D01*
X159767676Y-110285237D02*
X159862914Y-110380475D01*
X159862914Y-110380475D02*
X159910533Y-110475713D01*
X143228095Y-88477200D02*
X143370952Y-88524819D01*
X143370952Y-88524819D02*
X143609047Y-88524819D01*
X143609047Y-88524819D02*
X143704285Y-88477200D01*
X143704285Y-88477200D02*
X143751904Y-88429580D01*
X143751904Y-88429580D02*
X143799523Y-88334342D01*
X143799523Y-88334342D02*
X143799523Y-88239104D01*
X143799523Y-88239104D02*
X143751904Y-88143866D01*
X143751904Y-88143866D02*
X143704285Y-88096247D01*
X143704285Y-88096247D02*
X143609047Y-88048628D01*
X143609047Y-88048628D02*
X143418571Y-88001009D01*
X143418571Y-88001009D02*
X143323333Y-87953390D01*
X143323333Y-87953390D02*
X143275714Y-87905771D01*
X143275714Y-87905771D02*
X143228095Y-87810533D01*
X143228095Y-87810533D02*
X143228095Y-87715295D01*
X143228095Y-87715295D02*
X143275714Y-87620057D01*
X143275714Y-87620057D02*
X143323333Y-87572438D01*
X143323333Y-87572438D02*
X143418571Y-87524819D01*
X143418571Y-87524819D02*
X143656666Y-87524819D01*
X143656666Y-87524819D02*
X143799523Y-87572438D01*
X144799523Y-88429580D02*
X144751904Y-88477200D01*
X144751904Y-88477200D02*
X144609047Y-88524819D01*
X144609047Y-88524819D02*
X144513809Y-88524819D01*
X144513809Y-88524819D02*
X144370952Y-88477200D01*
X144370952Y-88477200D02*
X144275714Y-88381961D01*
X144275714Y-88381961D02*
X144228095Y-88286723D01*
X144228095Y-88286723D02*
X144180476Y-88096247D01*
X144180476Y-88096247D02*
X144180476Y-87953390D01*
X144180476Y-87953390D02*
X144228095Y-87762914D01*
X144228095Y-87762914D02*
X144275714Y-87667676D01*
X144275714Y-87667676D02*
X144370952Y-87572438D01*
X144370952Y-87572438D02*
X144513809Y-87524819D01*
X144513809Y-87524819D02*
X144609047Y-87524819D01*
X144609047Y-87524819D02*
X144751904Y-87572438D01*
X144751904Y-87572438D02*
X144799523Y-87620057D01*
X145132857Y-87524819D02*
X145751904Y-87524819D01*
X145751904Y-87524819D02*
X145418571Y-87905771D01*
X145418571Y-87905771D02*
X145561428Y-87905771D01*
X145561428Y-87905771D02*
X145656666Y-87953390D01*
X145656666Y-87953390D02*
X145704285Y-88001009D01*
X145704285Y-88001009D02*
X145751904Y-88096247D01*
X145751904Y-88096247D02*
X145751904Y-88334342D01*
X145751904Y-88334342D02*
X145704285Y-88429580D01*
X145704285Y-88429580D02*
X145656666Y-88477200D01*
X145656666Y-88477200D02*
X145561428Y-88524819D01*
X145561428Y-88524819D02*
X145275714Y-88524819D01*
X145275714Y-88524819D02*
X145180476Y-88477200D01*
X145180476Y-88477200D02*
X145132857Y-88429580D01*
D11*
X143347142Y-103539000D02*
X145632857Y-103539000D01*
X143347142Y-71789000D02*
X145632857Y-71789000D01*
X144489999Y-72931857D02*
X144489999Y-70646142D01*
X143307142Y-157909000D02*
X145592857Y-157909000D01*
D10*
X119858095Y-142827200D02*
X120000952Y-142874819D01*
X120000952Y-142874819D02*
X120239047Y-142874819D01*
X120239047Y-142874819D02*
X120334285Y-142827200D01*
X120334285Y-142827200D02*
X120381904Y-142779580D01*
X120381904Y-142779580D02*
X120429523Y-142684342D01*
X120429523Y-142684342D02*
X120429523Y-142589104D01*
X120429523Y-142589104D02*
X120381904Y-142493866D01*
X120381904Y-142493866D02*
X120334285Y-142446247D01*
X120334285Y-142446247D02*
X120239047Y-142398628D01*
X120239047Y-142398628D02*
X120048571Y-142351009D01*
X120048571Y-142351009D02*
X119953333Y-142303390D01*
X119953333Y-142303390D02*
X119905714Y-142255771D01*
X119905714Y-142255771D02*
X119858095Y-142160533D01*
X119858095Y-142160533D02*
X119858095Y-142065295D01*
X119858095Y-142065295D02*
X119905714Y-141970057D01*
X119905714Y-141970057D02*
X119953333Y-141922438D01*
X119953333Y-141922438D02*
X120048571Y-141874819D01*
X120048571Y-141874819D02*
X120286666Y-141874819D01*
X120286666Y-141874819D02*
X120429523Y-141922438D01*
X121429523Y-142779580D02*
X121381904Y-142827200D01*
X121381904Y-142827200D02*
X121239047Y-142874819D01*
X121239047Y-142874819D02*
X121143809Y-142874819D01*
X121143809Y-142874819D02*
X121000952Y-142827200D01*
X121000952Y-142827200D02*
X120905714Y-142731961D01*
X120905714Y-142731961D02*
X120858095Y-142636723D01*
X120858095Y-142636723D02*
X120810476Y-142446247D01*
X120810476Y-142446247D02*
X120810476Y-142303390D01*
X120810476Y-142303390D02*
X120858095Y-142112914D01*
X120858095Y-142112914D02*
X120905714Y-142017676D01*
X120905714Y-142017676D02*
X121000952Y-141922438D01*
X121000952Y-141922438D02*
X121143809Y-141874819D01*
X121143809Y-141874819D02*
X121239047Y-141874819D01*
X121239047Y-141874819D02*
X121381904Y-141922438D01*
X121381904Y-141922438D02*
X121429523Y-141970057D01*
X121810476Y-141970057D02*
X121858095Y-141922438D01*
X121858095Y-141922438D02*
X121953333Y-141874819D01*
X121953333Y-141874819D02*
X122191428Y-141874819D01*
X122191428Y-141874819D02*
X122286666Y-141922438D01*
X122286666Y-141922438D02*
X122334285Y-141970057D01*
X122334285Y-141970057D02*
X122381904Y-142065295D01*
X122381904Y-142065295D02*
X122381904Y-142160533D01*
X122381904Y-142160533D02*
X122334285Y-142303390D01*
X122334285Y-142303390D02*
X121762857Y-142874819D01*
X121762857Y-142874819D02*
X122381904Y-142874819D01*
D11*
X119977142Y-126139000D02*
X122262857Y-126139000D01*
X121119999Y-127281857D02*
X121119999Y-124996142D01*
X119977142Y-157889000D02*
X122262857Y-157889000D01*
D10*
X163884819Y-111318094D02*
X162884819Y-111318094D01*
X162884819Y-111318094D02*
X162884819Y-111079999D01*
X162884819Y-111079999D02*
X162932438Y-110937142D01*
X162932438Y-110937142D02*
X163027676Y-110841904D01*
X163027676Y-110841904D02*
X163122914Y-110794285D01*
X163122914Y-110794285D02*
X163313390Y-110746666D01*
X163313390Y-110746666D02*
X163456247Y-110746666D01*
X163456247Y-110746666D02*
X163646723Y-110794285D01*
X163646723Y-110794285D02*
X163741961Y-110841904D01*
X163741961Y-110841904D02*
X163837200Y-110937142D01*
X163837200Y-110937142D02*
X163884819Y-111079999D01*
X163884819Y-111079999D02*
X163884819Y-111318094D01*
X162980057Y-110365713D02*
X162932438Y-110318094D01*
X162932438Y-110318094D02*
X162884819Y-110222856D01*
X162884819Y-110222856D02*
X162884819Y-109984761D01*
X162884819Y-109984761D02*
X162932438Y-109889523D01*
X162932438Y-109889523D02*
X162980057Y-109841904D01*
X162980057Y-109841904D02*
X163075295Y-109794285D01*
X163075295Y-109794285D02*
X163170533Y-109794285D01*
X163170533Y-109794285D02*
X163313390Y-109841904D01*
X163313390Y-109841904D02*
X163884819Y-110413332D01*
X163884819Y-110413332D02*
X163884819Y-109794285D01*
X166588095Y-142857200D02*
X166730952Y-142904819D01*
X166730952Y-142904819D02*
X166969047Y-142904819D01*
X166969047Y-142904819D02*
X167064285Y-142857200D01*
X167064285Y-142857200D02*
X167111904Y-142809580D01*
X167111904Y-142809580D02*
X167159523Y-142714342D01*
X167159523Y-142714342D02*
X167159523Y-142619104D01*
X167159523Y-142619104D02*
X167111904Y-142523866D01*
X167111904Y-142523866D02*
X167064285Y-142476247D01*
X167064285Y-142476247D02*
X166969047Y-142428628D01*
X166969047Y-142428628D02*
X166778571Y-142381009D01*
X166778571Y-142381009D02*
X166683333Y-142333390D01*
X166683333Y-142333390D02*
X166635714Y-142285771D01*
X166635714Y-142285771D02*
X166588095Y-142190533D01*
X166588095Y-142190533D02*
X166588095Y-142095295D01*
X166588095Y-142095295D02*
X166635714Y-142000057D01*
X166635714Y-142000057D02*
X166683333Y-141952438D01*
X166683333Y-141952438D02*
X166778571Y-141904819D01*
X166778571Y-141904819D02*
X167016666Y-141904819D01*
X167016666Y-141904819D02*
X167159523Y-141952438D01*
X168159523Y-142809580D02*
X168111904Y-142857200D01*
X168111904Y-142857200D02*
X167969047Y-142904819D01*
X167969047Y-142904819D02*
X167873809Y-142904819D01*
X167873809Y-142904819D02*
X167730952Y-142857200D01*
X167730952Y-142857200D02*
X167635714Y-142761961D01*
X167635714Y-142761961D02*
X167588095Y-142666723D01*
X167588095Y-142666723D02*
X167540476Y-142476247D01*
X167540476Y-142476247D02*
X167540476Y-142333390D01*
X167540476Y-142333390D02*
X167588095Y-142142914D01*
X167588095Y-142142914D02*
X167635714Y-142047676D01*
X167635714Y-142047676D02*
X167730952Y-141952438D01*
X167730952Y-141952438D02*
X167873809Y-141904819D01*
X167873809Y-141904819D02*
X167969047Y-141904819D01*
X167969047Y-141904819D02*
X168111904Y-141952438D01*
X168111904Y-141952438D02*
X168159523Y-142000057D01*
X169016666Y-141904819D02*
X168826190Y-141904819D01*
X168826190Y-141904819D02*
X168730952Y-141952438D01*
X168730952Y-141952438D02*
X168683333Y-142000057D01*
X168683333Y-142000057D02*
X168588095Y-142142914D01*
X168588095Y-142142914D02*
X168540476Y-142333390D01*
X168540476Y-142333390D02*
X168540476Y-142714342D01*
X168540476Y-142714342D02*
X168588095Y-142809580D01*
X168588095Y-142809580D02*
X168635714Y-142857200D01*
X168635714Y-142857200D02*
X168730952Y-142904819D01*
X168730952Y-142904819D02*
X168921428Y-142904819D01*
X168921428Y-142904819D02*
X169016666Y-142857200D01*
X169016666Y-142857200D02*
X169064285Y-142809580D01*
X169064285Y-142809580D02*
X169111904Y-142714342D01*
X169111904Y-142714342D02*
X169111904Y-142476247D01*
X169111904Y-142476247D02*
X169064285Y-142381009D01*
X169064285Y-142381009D02*
X169016666Y-142333390D01*
X169016666Y-142333390D02*
X168921428Y-142285771D01*
X168921428Y-142285771D02*
X168730952Y-142285771D01*
X168730952Y-142285771D02*
X168635714Y-142333390D01*
X168635714Y-142333390D02*
X168588095Y-142381009D01*
X168588095Y-142381009D02*
X168540476Y-142476247D01*
D11*
X166707142Y-157919000D02*
X168992857Y-157919000D01*
X166707142Y-126169000D02*
X168992857Y-126169000D01*
X167849999Y-127311857D02*
X167849999Y-125026142D01*
D10*
X153193333Y-119319580D02*
X153145714Y-119367200D01*
X153145714Y-119367200D02*
X153002857Y-119414819D01*
X153002857Y-119414819D02*
X152907619Y-119414819D01*
X152907619Y-119414819D02*
X152764762Y-119367200D01*
X152764762Y-119367200D02*
X152669524Y-119271961D01*
X152669524Y-119271961D02*
X152621905Y-119176723D01*
X152621905Y-119176723D02*
X152574286Y-118986247D01*
X152574286Y-118986247D02*
X152574286Y-118843390D01*
X152574286Y-118843390D02*
X152621905Y-118652914D01*
X152621905Y-118652914D02*
X152669524Y-118557676D01*
X152669524Y-118557676D02*
X152764762Y-118462438D01*
X152764762Y-118462438D02*
X152907619Y-118414819D01*
X152907619Y-118414819D02*
X153002857Y-118414819D01*
X153002857Y-118414819D02*
X153145714Y-118462438D01*
X153145714Y-118462438D02*
X153193333Y-118510057D01*
X153574286Y-118510057D02*
X153621905Y-118462438D01*
X153621905Y-118462438D02*
X153717143Y-118414819D01*
X153717143Y-118414819D02*
X153955238Y-118414819D01*
X153955238Y-118414819D02*
X154050476Y-118462438D01*
X154050476Y-118462438D02*
X154098095Y-118510057D01*
X154098095Y-118510057D02*
X154145714Y-118605295D01*
X154145714Y-118605295D02*
X154145714Y-118700533D01*
X154145714Y-118700533D02*
X154098095Y-118843390D01*
X154098095Y-118843390D02*
X153526667Y-119414819D01*
X153526667Y-119414819D02*
X154145714Y-119414819D01*
X146318095Y-117414819D02*
X146318095Y-118224342D01*
X146318095Y-118224342D02*
X146365714Y-118319580D01*
X146365714Y-118319580D02*
X146413333Y-118367200D01*
X146413333Y-118367200D02*
X146508571Y-118414819D01*
X146508571Y-118414819D02*
X146699047Y-118414819D01*
X146699047Y-118414819D02*
X146794285Y-118367200D01*
X146794285Y-118367200D02*
X146841904Y-118319580D01*
X146841904Y-118319580D02*
X146889523Y-118224342D01*
X146889523Y-118224342D02*
X146889523Y-117414819D01*
X147889523Y-118414819D02*
X147318095Y-118414819D01*
X147603809Y-118414819D02*
X147603809Y-117414819D01*
X147603809Y-117414819D02*
X147508571Y-117557676D01*
X147508571Y-117557676D02*
X147413333Y-117652914D01*
X147413333Y-117652914D02*
X147318095Y-117700533D01*
X137961905Y-110549819D02*
X137961905Y-109549819D01*
X137961905Y-109549819D02*
X138200000Y-109549819D01*
X138200000Y-109549819D02*
X138342857Y-109597438D01*
X138342857Y-109597438D02*
X138438095Y-109692676D01*
X138438095Y-109692676D02*
X138485714Y-109787914D01*
X138485714Y-109787914D02*
X138533333Y-109978390D01*
X138533333Y-109978390D02*
X138533333Y-110121247D01*
X138533333Y-110121247D02*
X138485714Y-110311723D01*
X138485714Y-110311723D02*
X138438095Y-110406961D01*
X138438095Y-110406961D02*
X138342857Y-110502200D01*
X138342857Y-110502200D02*
X138200000Y-110549819D01*
X138200000Y-110549819D02*
X137961905Y-110549819D01*
X139390476Y-109883152D02*
X139390476Y-110549819D01*
X139152381Y-109502200D02*
X138914286Y-110216485D01*
X138914286Y-110216485D02*
X139533333Y-110216485D01*
X119828095Y-88477200D02*
X119970952Y-88524819D01*
X119970952Y-88524819D02*
X120209047Y-88524819D01*
X120209047Y-88524819D02*
X120304285Y-88477200D01*
X120304285Y-88477200D02*
X120351904Y-88429580D01*
X120351904Y-88429580D02*
X120399523Y-88334342D01*
X120399523Y-88334342D02*
X120399523Y-88239104D01*
X120399523Y-88239104D02*
X120351904Y-88143866D01*
X120351904Y-88143866D02*
X120304285Y-88096247D01*
X120304285Y-88096247D02*
X120209047Y-88048628D01*
X120209047Y-88048628D02*
X120018571Y-88001009D01*
X120018571Y-88001009D02*
X119923333Y-87953390D01*
X119923333Y-87953390D02*
X119875714Y-87905771D01*
X119875714Y-87905771D02*
X119828095Y-87810533D01*
X119828095Y-87810533D02*
X119828095Y-87715295D01*
X119828095Y-87715295D02*
X119875714Y-87620057D01*
X119875714Y-87620057D02*
X119923333Y-87572438D01*
X119923333Y-87572438D02*
X120018571Y-87524819D01*
X120018571Y-87524819D02*
X120256666Y-87524819D01*
X120256666Y-87524819D02*
X120399523Y-87572438D01*
X121399523Y-88429580D02*
X121351904Y-88477200D01*
X121351904Y-88477200D02*
X121209047Y-88524819D01*
X121209047Y-88524819D02*
X121113809Y-88524819D01*
X121113809Y-88524819D02*
X120970952Y-88477200D01*
X120970952Y-88477200D02*
X120875714Y-88381961D01*
X120875714Y-88381961D02*
X120828095Y-88286723D01*
X120828095Y-88286723D02*
X120780476Y-88096247D01*
X120780476Y-88096247D02*
X120780476Y-87953390D01*
X120780476Y-87953390D02*
X120828095Y-87762914D01*
X120828095Y-87762914D02*
X120875714Y-87667676D01*
X120875714Y-87667676D02*
X120970952Y-87572438D01*
X120970952Y-87572438D02*
X121113809Y-87524819D01*
X121113809Y-87524819D02*
X121209047Y-87524819D01*
X121209047Y-87524819D02*
X121351904Y-87572438D01*
X121351904Y-87572438D02*
X121399523Y-87620057D01*
X122351904Y-88524819D02*
X121780476Y-88524819D01*
X122066190Y-88524819D02*
X122066190Y-87524819D01*
X122066190Y-87524819D02*
X121970952Y-87667676D01*
X121970952Y-87667676D02*
X121875714Y-87762914D01*
X121875714Y-87762914D02*
X121780476Y-87810533D01*
D11*
X119947142Y-71789000D02*
X122232857Y-71789000D01*
X121089999Y-72931857D02*
X121089999Y-70646142D01*
X119947142Y-103539000D02*
X122232857Y-103539000D01*
D10*
X141733333Y-113434819D02*
X141400000Y-112958628D01*
X141161905Y-113434819D02*
X141161905Y-112434819D01*
X141161905Y-112434819D02*
X141542857Y-112434819D01*
X141542857Y-112434819D02*
X141638095Y-112482438D01*
X141638095Y-112482438D02*
X141685714Y-112530057D01*
X141685714Y-112530057D02*
X141733333Y-112625295D01*
X141733333Y-112625295D02*
X141733333Y-112768152D01*
X141733333Y-112768152D02*
X141685714Y-112863390D01*
X141685714Y-112863390D02*
X141638095Y-112911009D01*
X141638095Y-112911009D02*
X141542857Y-112958628D01*
X141542857Y-112958628D02*
X141161905Y-112958628D01*
X142685714Y-113434819D02*
X142114286Y-113434819D01*
X142400000Y-113434819D02*
X142400000Y-112434819D01*
X142400000Y-112434819D02*
X142304762Y-112577676D01*
X142304762Y-112577676D02*
X142209524Y-112672914D01*
X142209524Y-112672914D02*
X142114286Y-112720533D01*
D12*
%TO.C,U2*%
X153825000Y-112810000D02*
X152325000Y-112810000D01*
X153825000Y-112810000D02*
X155325000Y-112810000D01*
X153825000Y-116030000D02*
X152325000Y-116030000D01*
X153825000Y-116030000D02*
X155325000Y-116030000D01*
X156265000Y-116185000D02*
X155785000Y-116185000D01*
X156025000Y-115855000D01*
X156265000Y-116185000D01*
G36*
X156265000Y-116185000D02*
G01*
X155785000Y-116185000D01*
X156025000Y-115855000D01*
X156265000Y-116185000D01*
G37*
%TO.C,SC5*%
X156360000Y-66570000D02*
X156360000Y-71320000D01*
X156360000Y-66570000D02*
X161110000Y-66570000D01*
X156360000Y-77570000D02*
X156360000Y-97570000D01*
X156360000Y-87570000D02*
X156360000Y-77570000D01*
X156360000Y-108570000D02*
X156360000Y-103820000D01*
X156360000Y-108570000D02*
X161110000Y-108570000D01*
X161110000Y-66570000D02*
X156360000Y-66570000D01*
X174610000Y-66570000D02*
X179360000Y-66570000D01*
X174610000Y-108570000D02*
X179360000Y-108570000D01*
X179360000Y-66570000D02*
X179360000Y-71320000D01*
X179360000Y-77570000D02*
X179360000Y-95820000D01*
X179360000Y-87570000D02*
X179360000Y-77570000D01*
X179360000Y-87570000D02*
X179360000Y-97570000D01*
X179360000Y-95820000D02*
X179360000Y-87570000D01*
X179360000Y-108570000D02*
X179360000Y-103820000D01*
%TO.C,D3*%
X165200000Y-117725000D02*
X165200000Y-112975000D01*
X165837200Y-115781800D02*
X167386600Y-115781800D01*
X168100000Y-112975000D02*
X165200000Y-112975000D01*
X168100000Y-117725000D02*
X165200000Y-117725000D01*
X168100000Y-117725000D02*
X168100000Y-112975000D01*
D13*
X166624600Y-115654800D02*
X166015000Y-114842000D01*
X167361200Y-114842000D01*
X166624600Y-115654800D01*
G36*
X166624600Y-115654800D02*
G01*
X166015000Y-114842000D01*
X167361200Y-114842000D01*
X166624600Y-115654800D01*
G37*
D12*
%TO.C,D1*%
X158750000Y-117725000D02*
X158750000Y-112975000D01*
X159387200Y-115781800D02*
X160936600Y-115781800D01*
X161650000Y-112975000D02*
X158750000Y-112975000D01*
X161650000Y-117725000D02*
X158750000Y-117725000D01*
X161650000Y-117725000D02*
X161650000Y-112975000D01*
D13*
X160174600Y-115654800D02*
X159565000Y-114842000D01*
X160911200Y-114842000D01*
X160174600Y-115654800D01*
G36*
X160174600Y-115654800D02*
G01*
X159565000Y-114842000D01*
X160911200Y-114842000D01*
X160174600Y-115654800D01*
G37*
D12*
%TO.C,SC3*%
X132990000Y-66570000D02*
X132990000Y-71320000D01*
X132990000Y-66570000D02*
X137740000Y-66570000D01*
X132990000Y-77570000D02*
X132990000Y-97570000D01*
X132990000Y-87570000D02*
X132990000Y-77570000D01*
X132990000Y-108570000D02*
X132990000Y-103820000D01*
X132990000Y-108570000D02*
X137740000Y-108570000D01*
X137740000Y-66570000D02*
X132990000Y-66570000D01*
X151240000Y-66570000D02*
X155990000Y-66570000D01*
X151240000Y-108570000D02*
X155990000Y-108570000D01*
X155990000Y-66570000D02*
X155990000Y-71320000D01*
X155990000Y-77570000D02*
X155990000Y-95820000D01*
X155990000Y-87570000D02*
X155990000Y-77570000D01*
X155990000Y-87570000D02*
X155990000Y-97570000D01*
X155990000Y-95820000D02*
X155990000Y-87570000D01*
X155990000Y-108570000D02*
X155990000Y-103820000D01*
%TO.C,SC4*%
X132950000Y-120940000D02*
X137700000Y-120940000D01*
X132950000Y-162940000D02*
X132950000Y-158190000D01*
X132950000Y-162940000D02*
X137700000Y-162940000D01*
X137700000Y-120940000D02*
X132950000Y-120940000D01*
X151200000Y-120940000D02*
X155950000Y-120940000D01*
X151200000Y-162940000D02*
X155950000Y-162940000D01*
X155950000Y-162940000D02*
X155950000Y-158190000D01*
%TO.C,SC2*%
X109620000Y-120920000D02*
X109620000Y-125670000D01*
X109620000Y-120920000D02*
X114370000Y-120920000D01*
X109620000Y-131920000D02*
X109620000Y-151920000D01*
X109620000Y-141920000D02*
X109620000Y-131920000D01*
X109620000Y-162920000D02*
X109620000Y-158170000D01*
X109620000Y-162920000D02*
X114370000Y-162920000D01*
X114370000Y-120920000D02*
X109620000Y-120920000D01*
X127870000Y-120920000D02*
X132620000Y-120920000D01*
X127870000Y-162920000D02*
X132620000Y-162920000D01*
X132620000Y-162920000D02*
X132620000Y-158170000D01*
%TO.C,D2*%
X162000000Y-117725000D02*
X162000000Y-112975000D01*
X162637200Y-115781800D02*
X164186600Y-115781800D01*
X164900000Y-112975000D02*
X162000000Y-112975000D01*
X164900000Y-117725000D02*
X162000000Y-117725000D01*
X164900000Y-117725000D02*
X164900000Y-112975000D01*
D13*
X163424600Y-115654800D02*
X162815000Y-114842000D01*
X164161200Y-114842000D01*
X163424600Y-115654800D01*
G36*
X163424600Y-115654800D02*
G01*
X162815000Y-114842000D01*
X164161200Y-114842000D01*
X163424600Y-115654800D01*
G37*
D12*
%TO.C,SC6*%
X156350000Y-120950000D02*
X161100000Y-120950000D01*
X156350000Y-162950000D02*
X156350000Y-158200000D01*
X156350000Y-162950000D02*
X161100000Y-162950000D01*
X161100000Y-120950000D02*
X156350000Y-120950000D01*
X174600000Y-120950000D02*
X179350000Y-120950000D01*
X174600000Y-162950000D02*
X179350000Y-162950000D01*
X179350000Y-120950000D02*
X179350000Y-125700000D01*
X179350000Y-131950000D02*
X179350000Y-150200000D01*
X179350000Y-141950000D02*
X179350000Y-131950000D01*
X179350000Y-141950000D02*
X179350000Y-151950000D01*
X179350000Y-150200000D02*
X179350000Y-141950000D01*
X179350000Y-162950000D02*
X179350000Y-158200000D01*
%TO.C,C2*%
X153138748Y-116465000D02*
X153661252Y-116465000D01*
X153138748Y-117935000D02*
X153661252Y-117935000D01*
D14*
%TO.C,U1*%
X145675000Y-110125000D02*
X148675000Y-110125000D01*
X145675000Y-116925000D02*
X145675000Y-110125000D01*
X148675000Y-110125000D02*
X148675000Y-110950000D01*
X148675000Y-116100000D02*
X148675000Y-116925000D01*
X148675000Y-116925000D02*
X145675000Y-116925000D01*
D15*
X149975000Y-115430000D02*
G75*
G02*
X149775000Y-115430000I-100000J0D01*
G01*
X149775000Y-115430000D02*
G75*
G02*
X149975000Y-115430000I100000J0D01*
G01*
D12*
%TO.C,D4*%
X137215000Y-110790000D02*
X137215000Y-112260000D01*
X137215000Y-112260000D02*
X139500000Y-112260000D01*
X139500000Y-110790000D02*
X137215000Y-110790000D01*
%TO.C,SC1*%
X109590000Y-66570000D02*
X109590000Y-71320000D01*
X109590000Y-66570000D02*
X114340000Y-66570000D01*
X109590000Y-77570000D02*
X109590000Y-97570000D01*
X109590000Y-87570000D02*
X109590000Y-77570000D01*
X109590000Y-108570000D02*
X109590000Y-103820000D01*
X109590000Y-108570000D02*
X114340000Y-108570000D01*
X114340000Y-66570000D02*
X109590000Y-66570000D01*
X127840000Y-66570000D02*
X132590000Y-66570000D01*
X127840000Y-108570000D02*
X132590000Y-108570000D01*
X132590000Y-66570000D02*
X132590000Y-71320000D01*
X132590000Y-77570000D02*
X132590000Y-95820000D01*
X132590000Y-87570000D02*
X132590000Y-77570000D01*
X132590000Y-87570000D02*
X132590000Y-97570000D01*
X132590000Y-95820000D02*
X132590000Y-87570000D01*
X132590000Y-108570000D02*
X132590000Y-103820000D01*
%TO.C,R1*%
X142137258Y-111027500D02*
X141662742Y-111027500D01*
X142137258Y-112072500D02*
X141662742Y-112072500D01*
%TD*%
D16*
X136850000Y-153000000D02*
X136850000Y-147000000D01*
X142150000Y-153000000D02*
X142150000Y-147000000D01*
X146850000Y-147000000D02*
X146850000Y-153000000D01*
X152150000Y-153000000D02*
X152150000Y-147000000D01*
X142150000Y-76600000D02*
X142150000Y-82600000D01*
X136850000Y-76600000D02*
X136850000Y-82600000D01*
X146850000Y-76600000D02*
X146850000Y-82600000D01*
X152150000Y-76600000D02*
X152150000Y-82600000D01*
X142150000Y-82600000D02*
G75*
G02*
X136850000Y-82600000I-2650000J0D01*
G01*
D17*
X106350000Y-65750000D02*
X182650000Y-65750000D01*
X182650000Y-163750000D01*
X106350000Y-163750000D01*
X106350000Y-65750000D01*
D16*
X133075000Y-117262500D02*
G75*
G02*
X130075000Y-120262500I-3000000J0D01*
G01*
X146850000Y-76600000D02*
G75*
G02*
X152150000Y-76600000I2650000J0D01*
G01*
X136850000Y-76600000D02*
G75*
G02*
X142150000Y-76600000I2650000J0D01*
G01*
X125050000Y-120262500D02*
G75*
G02*
X125050000Y-109287500I12500J5487500D01*
G01*
X136850000Y-147000000D02*
G75*
G02*
X142150000Y-147000000I2650000J0D01*
G01*
X125050000Y-120262500D02*
X130075000Y-120262500D01*
X142150000Y-153000000D02*
G75*
G02*
X136850000Y-153000000I-2650000J0D01*
G01*
D18*
X111087500Y-98250000D02*
G75*
G02*
X108212500Y-98250000I-1437500J0D01*
G01*
X108212500Y-98250000D02*
G75*
G02*
X111087500Y-98250000I1437500J0D01*
G01*
D16*
X146850000Y-147000000D02*
G75*
G02*
X152150000Y-147000000I2650000J0D01*
G01*
D18*
X111087500Y-110250000D02*
G75*
G02*
X108212500Y-110250000I-1437500J0D01*
G01*
X108212500Y-110250000D02*
G75*
G02*
X111087500Y-110250000I1437500J0D01*
G01*
X111087500Y-122250000D02*
G75*
G02*
X108212500Y-122250000I-1437500J0D01*
G01*
X108212500Y-122250000D02*
G75*
G02*
X111087500Y-122250000I1437500J0D01*
G01*
D16*
X152150000Y-153000000D02*
G75*
G02*
X146850000Y-153000000I-2650000J0D01*
G01*
X125050000Y-109287500D02*
X130075000Y-109287500D01*
D18*
X178462500Y-116250000D02*
G75*
G02*
X175587500Y-116250000I-1437500J0D01*
G01*
X175587500Y-116250000D02*
G75*
G02*
X178462500Y-116250000I1437500J0D01*
G01*
D16*
X133075000Y-117262500D02*
X133075000Y-112287500D01*
X152150000Y-82600000D02*
G75*
G02*
X146850000Y-82600000I-2650000J0D01*
G01*
X130075000Y-109287500D02*
G75*
G02*
X133075000Y-112287500I0J-3000000D01*
G01*
M02*
