%TF.GenerationSoftware,KiCad,Pcbnew,9.0.0*%
%TF.CreationDate,2025-04-21T01:21:51-04:00*%
%TF.ProjectId,xy_faces_CUpayload_v2,78795f66-6163-4657-935f-43557061796c,3.0*%
%TF.SameCoordinates,Original*%
%TF.FileFunction,Copper,L1,Top*%
%TF.FilePolarity,Positive*%
%FSLAX46Y46*%
G04 Gerber Fmt 4.6, Leading zero omitted, Abs format (unit mm)*
G04 Created by KiCad (PCBNEW 9.0.0) date 2025-04-21 01:21:51*
%MOMM*%
%LPD*%
G01*
G04 APERTURE LIST*
G04 Aperture macros list*
%AMRoundRect*
0 Rectangle with rounded corners*
0 $1 Rounding radius*
0 $2 $3 $4 $5 $6 $7 $8 $9 X,Y pos of 4 corners*
0 Add a 4 corners polygon primitive as box body*
4,1,4,$2,$3,$4,$5,$6,$7,$8,$9,$2,$3,0*
0 Add four circle primitives for the rounded corners*
1,1,$1+$1,$2,$3*
1,1,$1+$1,$4,$5*
1,1,$1+$1,$6,$7*
1,1,$1+$1,$8,$9*
0 Add four rect primitives between the rounded corners*
20,1,$1+$1,$2,$3,$4,$5,0*
20,1,$1+$1,$4,$5,$6,$7,0*
20,1,$1+$1,$6,$7,$8,$9,0*
20,1,$1+$1,$8,$9,$2,$3,0*%
G04 Aperture macros list end*
%TA.AperFunction,SMDPad,CuDef*%
%ADD10RoundRect,0.100000X0.687500X0.100000X-0.687500X0.100000X-0.687500X-0.100000X0.687500X-0.100000X0*%
%TD*%
%TA.AperFunction,HeatsinkPad*%
%ADD11C,0.500000*%
%TD*%
%TA.AperFunction,HeatsinkPad*%
%ADD12R,1.500000X1.800000*%
%TD*%
%TA.AperFunction,SMDPad,CuDef*%
%ADD13R,13.000000X3.000000*%
%TD*%
%TA.AperFunction,SMDPad,CuDef*%
%ADD14RoundRect,0.750000X0.750000X-0.750000X0.750000X0.750000X-0.750000X0.750000X-0.750000X-0.750000X0*%
%TD*%
%TA.AperFunction,SMDPad,CuDef*%
%ADD15R,1.700000X2.500000*%
%TD*%
%TA.AperFunction,SMDPad,CuDef*%
%ADD16RoundRect,0.250000X-0.250000X-0.475000X0.250000X-0.475000X0.250000X0.475000X-0.250000X0.475000X0*%
%TD*%
%TA.AperFunction,SMDPad,CuDef*%
%ADD17R,1.600000X0.700000*%
%TD*%
%TA.AperFunction,SMDPad,CuDef*%
%ADD18RoundRect,0.218750X-0.218750X-0.256250X0.218750X-0.256250X0.218750X0.256250X-0.218750X0.256250X0*%
%TD*%
%TA.AperFunction,SMDPad,CuDef*%
%ADD19RoundRect,0.200000X0.200000X0.275000X-0.200000X0.275000X-0.200000X-0.275000X0.200000X-0.275000X0*%
%TD*%
%TA.AperFunction,ViaPad*%
%ADD20C,0.800000*%
%TD*%
%TA.AperFunction,Conductor*%
%ADD21C,0.250000*%
%TD*%
%TA.AperFunction,Conductor*%
%ADD22C,0.500000*%
%TD*%
%TA.AperFunction,Profile*%
%ADD23C,0.050000*%
%TD*%
%TA.AperFunction,Profile*%
%ADD24C,0.100000*%
%TD*%
%TA.AperFunction,Profile*%
%ADD25C,0.200000*%
%TD*%
G04 APERTURE END LIST*
D10*
%TO.P,U2,1,SDA*%
%TO.N,SDA*%
X155937500Y-115395000D03*
%TO.P,U2,2,SCL*%
%TO.N,SCL*%
X155937500Y-114745000D03*
%TO.P,U2,3,Alert*%
%TO.N,unconnected-(U2-Alert-Pad3)*%
X155937500Y-114095000D03*
%TO.P,U2,4,GND*%
%TO.N,GND*%
X155937500Y-113445000D03*
%TO.P,U2,5,A2*%
X151712500Y-113445000D03*
%TO.P,U2,6,A1*%
%TO.N,+3V3*%
X151712500Y-114095000D03*
%TO.P,U2,7,A0*%
X151712500Y-114745000D03*
%TO.P,U2,8,VDD*%
X151712500Y-115395000D03*
D11*
%TO.P,U2,9,EP/GND*%
%TO.N,GND*%
X154375000Y-115070000D03*
X154375000Y-113770000D03*
D12*
X153825000Y-114420000D03*
D11*
X153275000Y-115070000D03*
X153275000Y-113770000D03*
%TD*%
D13*
%TO.P,SC5,1,+*%
%TO.N,Net-(D3-A)*%
X167860000Y-67570000D03*
%TO.P,SC5,2,-*%
%TO.N,Net-(SC5--)*%
X167860000Y-107570000D03*
%TD*%
D14*
%TO.P,TP1,1,1*%
%TO.N,VSOLAR*%
X172200000Y-113300000D03*
%TD*%
D15*
%TO.P,D3,1,K*%
%TO.N,VSOLAR*%
X166650000Y-117350000D03*
%TO.P,D3,2,A*%
%TO.N,Net-(D3-A)*%
X166650000Y-113350000D03*
%TD*%
D14*
%TO.P,TP2,1,1*%
%TO.N,GND*%
X172225000Y-117300000D03*
%TD*%
D15*
%TO.P,D1,1,K*%
%TO.N,VSOLAR*%
X160200000Y-117350000D03*
%TO.P,D1,2,A*%
%TO.N,Net-(D1-A)*%
X160200000Y-113350000D03*
%TD*%
D13*
%TO.P,SC3,1,+*%
%TO.N,Net-(D2-A)*%
X144490000Y-67570000D03*
%TO.P,SC3,2,-*%
%TO.N,Net-(SC3--)*%
X144490000Y-107570000D03*
%TD*%
%TO.P,SC4,1,+*%
%TO.N,Net-(SC3--)*%
X144450000Y-121940000D03*
%TO.P,SC4,2,-*%
%TO.N,GND*%
X144450000Y-161940000D03*
%TD*%
%TO.P,SC2,1,+*%
%TO.N,Net-(SC1--)*%
X121120000Y-121920000D03*
%TO.P,SC2,2,-*%
%TO.N,GND*%
X121120000Y-161920000D03*
%TD*%
D15*
%TO.P,D2,1,K*%
%TO.N,VSOLAR*%
X163450000Y-117350000D03*
%TO.P,D2,2,A*%
%TO.N,Net-(D2-A)*%
X163450000Y-113350000D03*
%TD*%
D13*
%TO.P,SC6,1,+*%
%TO.N,Net-(SC5--)*%
X167850000Y-121950000D03*
%TO.P,SC6,2,-*%
%TO.N,GND*%
X167850000Y-161950000D03*
%TD*%
D16*
%TO.P,C2,1*%
%TO.N,+3V3*%
X152450000Y-117200000D03*
%TO.P,C2,2*%
%TO.N,GND*%
X154350000Y-117200000D03*
%TD*%
D17*
%TO.P,U1,1,SCL*%
%TO.N,SCL*%
X148075000Y-115430000D03*
%TO.P,U1,2,VDD*%
%TO.N,+3V3*%
X148075000Y-114160000D03*
%TO.P,U1,3,GND*%
%TO.N,GND*%
X148075000Y-112890000D03*
%TO.P,U1,4,SDA*%
%TO.N,SDA*%
X148075000Y-111620000D03*
%TD*%
D18*
%TO.P,D4,1,K*%
%TO.N,GND*%
X137912500Y-111525000D03*
%TO.P,D4,2,A*%
%TO.N,Net-(D4-A)*%
X139487500Y-111525000D03*
%TD*%
D13*
%TO.P,SC1,1,+*%
%TO.N,Net-(D1-A)*%
X121090000Y-67570000D03*
%TO.P,SC1,2,-*%
%TO.N,Net-(SC1--)*%
X121090000Y-107570000D03*
%TD*%
D19*
%TO.P,R1,1*%
%TO.N,+3V3*%
X142725000Y-111550000D03*
%TO.P,R1,2*%
%TO.N,Net-(D4-A)*%
X141075000Y-111550000D03*
%TD*%
D20*
%TO.N,GND*%
X139500000Y-129500000D03*
X168000000Y-156390000D03*
X144450000Y-156250000D03*
X153400000Y-116000000D03*
X137600000Y-116650000D03*
X143250000Y-119550000D03*
X149675000Y-112100000D03*
X150000000Y-131000000D03*
X121120000Y-156220000D03*
X137912500Y-112600000D03*
X143000000Y-127000000D03*
X174900000Y-118350000D03*
X151000000Y-119500000D03*
%TO.N,+3V3*%
X143600000Y-112600000D03*
X155600000Y-103650000D03*
X149500000Y-114160000D03*
X148100000Y-103650000D03*
X151300000Y-116400000D03*
X152150000Y-103650000D03*
X143640000Y-110050000D03*
X145500000Y-112600000D03*
%TO.N,VSOLAR*%
X139750000Y-124450000D03*
%TO.N,SDA*%
X146500000Y-118500000D03*
X128560000Y-121470000D03*
%TO.N,SCL*%
X128630000Y-123030000D03*
X149600000Y-115990000D03*
%TO.N,Net-(SC5--)*%
X167900000Y-111350000D03*
X167850000Y-119600000D03*
%TD*%
D21*
%TO.N,GND*%
X153275000Y-115875000D02*
X153275000Y-115070000D01*
X148075000Y-112890000D02*
X148885000Y-112890000D01*
X155937500Y-113445000D02*
X154700000Y-113445000D01*
D22*
X144450000Y-161940000D02*
X144450000Y-156250000D01*
D21*
X151712500Y-113445000D02*
X152950000Y-113445000D01*
X137912500Y-112600000D02*
X137912500Y-111525000D01*
D22*
X168000000Y-161970000D02*
X168000000Y-156390000D01*
X172225000Y-117300000D02*
X173850000Y-117300000D01*
D21*
X153400000Y-116000000D02*
X153275000Y-115875000D01*
X154375000Y-115070000D02*
X154375000Y-116975000D01*
D22*
X121120000Y-161920000D02*
X121120000Y-156220000D01*
D21*
X152950000Y-113445000D02*
X153275000Y-113770000D01*
X148885000Y-112890000D02*
X149675000Y-112100000D01*
D22*
X173850000Y-117300000D02*
X174900000Y-118350000D01*
D21*
X154700000Y-113445000D02*
X154375000Y-113770000D01*
%TO.N,+3V3*%
X142725000Y-111725000D02*
X143600000Y-112600000D01*
X151300000Y-116400000D02*
X151300000Y-115807500D01*
X151712500Y-114745000D02*
X151712500Y-114095000D01*
X149500000Y-114160000D02*
X148075000Y-114160000D01*
X151300000Y-115807500D02*
X151712500Y-115395000D01*
X152100000Y-117200000D02*
X151300000Y-116400000D01*
X142725000Y-111550000D02*
X142725000Y-111725000D01*
X152450000Y-117200000D02*
X152100000Y-117200000D01*
X151712500Y-115395000D02*
X151712500Y-114745000D01*
D22*
%TO.N,VSOLAR*%
X166650000Y-117350000D02*
X163550000Y-117350000D01*
X148700000Y-128900000D02*
X160000000Y-117600000D01*
X139750000Y-126450000D02*
X142200000Y-128900000D01*
X163550000Y-117350000D02*
X160150000Y-117350000D01*
D21*
X163230000Y-116970000D02*
X163300000Y-116900000D01*
D22*
X139750000Y-124450000D02*
X139750000Y-126450000D01*
X166650000Y-117350000D02*
X168050000Y-117350000D01*
X168050000Y-117350000D02*
X172100000Y-113300000D01*
X142200000Y-128900000D02*
X148700000Y-128900000D01*
%TO.N,Net-(D1-A)*%
X121250000Y-90800000D02*
X121250000Y-67400000D01*
X160200000Y-113350000D02*
X148950000Y-102100000D01*
X132550000Y-102100000D02*
X121250000Y-90800000D01*
X148950000Y-102100000D02*
X132550000Y-102100000D01*
%TO.N,Net-(D2-A)*%
X153300000Y-103200000D02*
X153300000Y-74100000D01*
X163450000Y-113350000D02*
X153300000Y-103200000D01*
X153300000Y-74100000D02*
X146600000Y-67400000D01*
X146600000Y-67400000D02*
X145500000Y-67400000D01*
D21*
%TO.N,SDA*%
X146500000Y-118500000D02*
X146510000Y-118510000D01*
X155490000Y-118510000D02*
X155937500Y-118062500D01*
X146510000Y-118510000D02*
X155490000Y-118510000D01*
X146500000Y-112000000D02*
X146880000Y-111620000D01*
X155937500Y-118062500D02*
X155937500Y-115395000D01*
X146880000Y-111620000D02*
X148075000Y-111620000D01*
X146500000Y-118500000D02*
X146500000Y-112000000D01*
%TO.N,SCL*%
X150300000Y-115290000D02*
X150300000Y-113200000D01*
X155937500Y-114745000D02*
X156678812Y-114745000D01*
X157573812Y-113690000D02*
X157573812Y-113850000D01*
X149600000Y-115990000D02*
X148635000Y-115990000D01*
X150300000Y-113200000D02*
X150900000Y-112600000D01*
X149600000Y-115990000D02*
X150300000Y-115290000D01*
X148635000Y-115990000D02*
X148075000Y-115430000D01*
X156678812Y-114745000D02*
X157573812Y-113850000D01*
X156483812Y-112600000D02*
X157573812Y-113690000D01*
X150900000Y-112600000D02*
X156483812Y-112600000D01*
D22*
%TO.N,Net-(D3-A)*%
X167103496Y-113350000D02*
X169453496Y-111000000D01*
X166650000Y-113350000D02*
X167103496Y-113350000D01*
X176150000Y-76150000D02*
X167900000Y-67900000D01*
X169453496Y-111000000D02*
X174250000Y-111000000D01*
X176150000Y-109100000D02*
X176150000Y-76150000D01*
X174250000Y-111000000D02*
X176150000Y-109100000D01*
D21*
%TO.N,Net-(D4-A)*%
X141075000Y-111550000D02*
X139512500Y-111550000D01*
X139512500Y-111550000D02*
X139487500Y-111525000D01*
D22*
%TO.N,Net-(SC1--)*%
X112600000Y-110950000D02*
X115980000Y-107570000D01*
X112600000Y-118490000D02*
X112600000Y-110950000D01*
X116030000Y-121920000D02*
X112600000Y-118490000D01*
X115980000Y-107570000D02*
X121090000Y-107570000D01*
X121120000Y-121920000D02*
X116030000Y-121920000D01*
%TO.N,Net-(SC3--)*%
X144490000Y-121900000D02*
X144450000Y-121940000D01*
X144490000Y-107570000D02*
X144490000Y-121900000D01*
%TO.N,Net-(SC5--)*%
X167850000Y-121950000D02*
X167850000Y-119600000D01*
X167860000Y-121830000D02*
X168000000Y-121970000D01*
X167900000Y-111350000D02*
X167900000Y-107650000D01*
%TD*%
%TA.AperFunction,Conductor*%
%TO.N,+3V3*%
G36*
X114043771Y-65795502D02*
G01*
X114090264Y-65849158D01*
X114100368Y-65919432D01*
X114093706Y-65945528D01*
X114088011Y-65960799D01*
X114088010Y-65960802D01*
X114088009Y-65960803D01*
X114081500Y-66021350D01*
X114081500Y-69118649D01*
X114088009Y-69179196D01*
X114088011Y-69179204D01*
X114139110Y-69316202D01*
X114139112Y-69316207D01*
X114226738Y-69433261D01*
X114343792Y-69520887D01*
X114343794Y-69520888D01*
X114343796Y-69520889D01*
X114402875Y-69542924D01*
X114480795Y-69571988D01*
X114480803Y-69571990D01*
X114541350Y-69578499D01*
X114541355Y-69578499D01*
X114541362Y-69578500D01*
X120365500Y-69578500D01*
X120433621Y-69598502D01*
X120480114Y-69652158D01*
X120491500Y-69704500D01*
X120491500Y-90725295D01*
X120491500Y-90874705D01*
X120520649Y-91021247D01*
X120577826Y-91159284D01*
X120660834Y-91283515D01*
X131960834Y-102583515D01*
X131960835Y-102583516D01*
X132066484Y-102689165D01*
X132190716Y-102772174D01*
X132271576Y-102805667D01*
X132328753Y-102829351D01*
X132385889Y-102840716D01*
X132475294Y-102858500D01*
X132475295Y-102858500D01*
X132624705Y-102858500D01*
X148583629Y-102858500D01*
X148651750Y-102878502D01*
X148672724Y-102895405D01*
X151123724Y-105346405D01*
X151157750Y-105408717D01*
X151152685Y-105479532D01*
X151110138Y-105536368D01*
X151043618Y-105561179D01*
X151034629Y-105561500D01*
X137941350Y-105561500D01*
X137880803Y-105568009D01*
X137880795Y-105568011D01*
X137743797Y-105619110D01*
X137743792Y-105619112D01*
X137626738Y-105706738D01*
X137539112Y-105823792D01*
X137539110Y-105823797D01*
X137488011Y-105960795D01*
X137488009Y-105960803D01*
X137481500Y-106021350D01*
X137481500Y-109118649D01*
X137488009Y-109179196D01*
X137488011Y-109179204D01*
X137539110Y-109316202D01*
X137539112Y-109316207D01*
X137626738Y-109433261D01*
X137743792Y-109520887D01*
X137743794Y-109520888D01*
X137743796Y-109520889D01*
X137802875Y-109542924D01*
X137880795Y-109571988D01*
X137880803Y-109571990D01*
X137941350Y-109578499D01*
X137941355Y-109578499D01*
X137941362Y-109578500D01*
X143605500Y-109578500D01*
X143673621Y-109598502D01*
X143720114Y-109652158D01*
X143731500Y-109704500D01*
X143731500Y-110788584D01*
X143711498Y-110856705D01*
X143657842Y-110903198D01*
X143587568Y-110913302D01*
X143522988Y-110883808D01*
X143497672Y-110853770D01*
X143486421Y-110835159D01*
X143486413Y-110835149D01*
X143364850Y-110713586D01*
X143364840Y-110713578D01*
X143217706Y-110624633D01*
X143053552Y-110573481D01*
X142982223Y-110567000D01*
X142979000Y-110567000D01*
X142979000Y-112532999D01*
X142982222Y-112532999D01*
X143053553Y-112526518D01*
X143217706Y-112475366D01*
X143364840Y-112386421D01*
X143364850Y-112386413D01*
X143486413Y-112264850D01*
X143486421Y-112264840D01*
X143497671Y-112246231D01*
X143550030Y-112198282D01*
X143620000Y-112186252D01*
X143685366Y-112213960D01*
X143725376Y-112272610D01*
X143731500Y-112311415D01*
X143731500Y-118577517D01*
X143711498Y-118645638D01*
X143657842Y-118692131D01*
X143587568Y-118702235D01*
X143557282Y-118693926D01*
X143515005Y-118676414D01*
X143339481Y-118641500D01*
X143339479Y-118641500D01*
X143160521Y-118641500D01*
X143160518Y-118641500D01*
X143029771Y-118667507D01*
X142985000Y-118676413D01*
X142984999Y-118676413D01*
X142984996Y-118676414D01*
X142819662Y-118744899D01*
X142670869Y-118844319D01*
X142670862Y-118844324D01*
X142544324Y-118970862D01*
X142544319Y-118970869D01*
X142444899Y-119119662D01*
X142376414Y-119284996D01*
X142376413Y-119284999D01*
X142376413Y-119285000D01*
X142371739Y-119308500D01*
X142341500Y-119460518D01*
X142341500Y-119639481D01*
X142358171Y-119723294D01*
X142366467Y-119765000D01*
X142369634Y-119780918D01*
X142363306Y-119851632D01*
X142319752Y-119907700D01*
X142252799Y-119931319D01*
X142246055Y-119931500D01*
X137901350Y-119931500D01*
X137840803Y-119938009D01*
X137840795Y-119938011D01*
X137703797Y-119989110D01*
X137703792Y-119989112D01*
X137586738Y-120076738D01*
X137499112Y-120193792D01*
X137499110Y-120193797D01*
X137448011Y-120330795D01*
X137448009Y-120330803D01*
X137441500Y-120391350D01*
X137441500Y-123360500D01*
X137421498Y-123428621D01*
X137367842Y-123475114D01*
X137315500Y-123486500D01*
X129612838Y-123486500D01*
X129544717Y-123466498D01*
X129498224Y-123412842D01*
X129488120Y-123342568D01*
X129496429Y-123312282D01*
X129503585Y-123295005D01*
X129503585Y-123295004D01*
X129503587Y-123295000D01*
X129538500Y-123119479D01*
X129538500Y-122940521D01*
X129503587Y-122765000D01*
X129435102Y-122599664D01*
X129335678Y-122450865D01*
X129209135Y-122324322D01*
X129209133Y-122324320D01*
X129209130Y-122324318D01*
X129205723Y-122322042D01*
X129160195Y-122267565D01*
X129151348Y-122197122D01*
X129181989Y-122133078D01*
X129186593Y-122128219D01*
X129265678Y-122049135D01*
X129365102Y-121900336D01*
X129433587Y-121735000D01*
X129468500Y-121559479D01*
X129468500Y-121380521D01*
X129433587Y-121205000D01*
X129365102Y-121039664D01*
X129265678Y-120890865D01*
X129139135Y-120764322D01*
X128990336Y-120664898D01*
X128873429Y-120616473D01*
X128825003Y-120596414D01*
X128825001Y-120596413D01*
X128825000Y-120596413D01*
X128736645Y-120578838D01*
X128649481Y-120561500D01*
X128649479Y-120561500D01*
X128470521Y-120561500D01*
X128470518Y-120561500D01*
X128340650Y-120587332D01*
X128295000Y-120596413D01*
X128294999Y-120596413D01*
X128294991Y-120596415D01*
X128291061Y-120597607D01*
X128220067Y-120598232D01*
X128160005Y-120560375D01*
X128129945Y-120496056D01*
X128128500Y-120477028D01*
X128128500Y-120414000D01*
X128148502Y-120345879D01*
X128202158Y-120299386D01*
X128254500Y-120288000D01*
X130233557Y-120288000D01*
X130233560Y-120288000D01*
X130548942Y-120254852D01*
X130859132Y-120188919D01*
X130859133Y-120188918D01*
X130859136Y-120188918D01*
X131160725Y-120090926D01*
X131160725Y-120090925D01*
X131160730Y-120090924D01*
X131450433Y-119961940D01*
X131725067Y-119803380D01*
X131725072Y-119803376D01*
X131725076Y-119803374D01*
X131881841Y-119689477D01*
X131981622Y-119616982D01*
X132217287Y-119404787D01*
X132429482Y-119169122D01*
X132579049Y-118963261D01*
X132615874Y-118912576D01*
X132615876Y-118912572D01*
X132615880Y-118912567D01*
X132774440Y-118637933D01*
X132903424Y-118348230D01*
X132907130Y-118336826D01*
X133001418Y-118046636D01*
X133006618Y-118022173D01*
X133067352Y-117736442D01*
X133100500Y-117421060D01*
X133100500Y-117262500D01*
X133100500Y-117254215D01*
X133100500Y-116560518D01*
X136691500Y-116560518D01*
X136691500Y-116739481D01*
X136702564Y-116795102D01*
X136726413Y-116915000D01*
X136794898Y-117080336D01*
X136894322Y-117229135D01*
X137020865Y-117355678D01*
X137169664Y-117455102D01*
X137335000Y-117523587D01*
X137510521Y-117558500D01*
X137510522Y-117558500D01*
X137689478Y-117558500D01*
X137689479Y-117558500D01*
X137865000Y-117523587D01*
X138030336Y-117455102D01*
X138179135Y-117355678D01*
X138305678Y-117229135D01*
X138405102Y-117080336D01*
X138473587Y-116915000D01*
X138508500Y-116739479D01*
X138508500Y-116560521D01*
X138473587Y-116385000D01*
X138405102Y-116219664D01*
X138305678Y-116070865D01*
X138179135Y-115944322D01*
X138030336Y-115844898D01*
X137913429Y-115796473D01*
X137865003Y-115776414D01*
X137865001Y-115776413D01*
X137865000Y-115776413D01*
X137776645Y-115758838D01*
X137689481Y-115741500D01*
X137689479Y-115741500D01*
X137510521Y-115741500D01*
X137510518Y-115741500D01*
X137379771Y-115767507D01*
X137335000Y-115776413D01*
X137334999Y-115776413D01*
X137334996Y-115776414D01*
X137169662Y-115844899D01*
X137020869Y-115944319D01*
X137020862Y-115944324D01*
X136894324Y-116070862D01*
X136894319Y-116070869D01*
X136794899Y-116219662D01*
X136726414Y-116384996D01*
X136726413Y-116384999D01*
X136726413Y-116385000D01*
X136722938Y-116402472D01*
X136691500Y-116560518D01*
X133100500Y-116560518D01*
X133100500Y-112276938D01*
X133100500Y-112128940D01*
X133067352Y-111813558D01*
X133005138Y-111520865D01*
X133001418Y-111503363D01*
X132921050Y-111256017D01*
X132921049Y-111256015D01*
X132909439Y-111220280D01*
X136966500Y-111220280D01*
X136966500Y-111829710D01*
X136976379Y-111926409D01*
X136976676Y-111929314D01*
X137017120Y-112051367D01*
X137030152Y-112090694D01*
X137062108Y-112142503D01*
X137080845Y-112210982D01*
X137071276Y-112256866D01*
X137038916Y-112334990D01*
X137038913Y-112334999D01*
X137004000Y-112510518D01*
X137004000Y-112689481D01*
X137019469Y-112767250D01*
X137038913Y-112865000D01*
X137107398Y-113030336D01*
X137206822Y-113179135D01*
X137333365Y-113305678D01*
X137482164Y-113405102D01*
X137647500Y-113473587D01*
X137823021Y-113508500D01*
X137823022Y-113508500D01*
X138001978Y-113508500D01*
X138001979Y-113508500D01*
X138177500Y-113473587D01*
X138342836Y-113405102D01*
X138491635Y-113305678D01*
X138618178Y-113179135D01*
X138717602Y-113030336D01*
X138786087Y-112865000D01*
X138821000Y-112689479D01*
X138821000Y-112573507D01*
X138841002Y-112505386D01*
X138894658Y-112458893D01*
X138964932Y-112448789D01*
X138986627Y-112453901D01*
X139120686Y-112498324D01*
X139220289Y-112508500D01*
X139754710Y-112508499D01*
X139854314Y-112498324D01*
X140015692Y-112444849D01*
X140160387Y-112355600D01*
X140192913Y-112323073D01*
X140255223Y-112289049D01*
X140326039Y-112294113D01*
X140371101Y-112323072D01*
X140434845Y-112386816D01*
X140582087Y-112475827D01*
X140746351Y-112527013D01*
X140817735Y-112533500D01*
X141332264Y-112533499D01*
X141403649Y-112527013D01*
X141567913Y-112475827D01*
X141715155Y-112386816D01*
X141749645Y-112352326D01*
X141811259Y-112290713D01*
X141873571Y-112256687D01*
X141944386Y-112261752D01*
X141989449Y-112290713D01*
X142085149Y-112386413D01*
X142085159Y-112386421D01*
X142232293Y-112475366D01*
X142396446Y-112526518D01*
X142467781Y-112532999D01*
X142470999Y-112532999D01*
X142471000Y-112532998D01*
X142471000Y-110567000D01*
X142467768Y-110567001D01*
X142396446Y-110573481D01*
X142232293Y-110624633D01*
X142085159Y-110713578D01*
X142085149Y-110713586D01*
X141989449Y-110809287D01*
X141927137Y-110843313D01*
X141856322Y-110838248D01*
X141811259Y-110809287D01*
X141715160Y-110713188D01*
X141715155Y-110713184D01*
X141684091Y-110694405D01*
X141567913Y-110624173D01*
X141567912Y-110624172D01*
X141567911Y-110624172D01*
X141567906Y-110624170D01*
X141403646Y-110572986D01*
X141351723Y-110568268D01*
X141332265Y-110566500D01*
X141332262Y-110566500D01*
X140817738Y-110566500D01*
X140746353Y-110572986D01*
X140746352Y-110572986D01*
X140582093Y-110624170D01*
X140582088Y-110624172D01*
X140434844Y-110713184D01*
X140434839Y-110713188D01*
X140396103Y-110751925D01*
X140333791Y-110785951D01*
X140262976Y-110780886D01*
X140217913Y-110751925D01*
X140160393Y-110694405D01*
X140160387Y-110694400D01*
X140015692Y-110605151D01*
X139977776Y-110592587D01*
X139854314Y-110551676D01*
X139854311Y-110551675D01*
X139854309Y-110551675D01*
X139754719Y-110541500D01*
X139220289Y-110541500D01*
X139120690Y-110551675D01*
X139120687Y-110551675D01*
X139120686Y-110551676D01*
X139040723Y-110578172D01*
X138959307Y-110605151D01*
X138814612Y-110694400D01*
X138814606Y-110694405D01*
X138789095Y-110719917D01*
X138726783Y-110753943D01*
X138655968Y-110748878D01*
X138610905Y-110719917D01*
X138585393Y-110694405D01*
X138585387Y-110694400D01*
X138440692Y-110605151D01*
X138402776Y-110592587D01*
X138279314Y-110551676D01*
X138279311Y-110551675D01*
X138279309Y-110551675D01*
X138179719Y-110541500D01*
X137645289Y-110541500D01*
X137545690Y-110551675D01*
X137545687Y-110551675D01*
X137545686Y-110551676D01*
X137465723Y-110578172D01*
X137384307Y-110605151D01*
X137239612Y-110694400D01*
X137239606Y-110694405D01*
X137119405Y-110814606D01*
X137119400Y-110814612D01*
X137030151Y-110959307D01*
X137013073Y-111010845D01*
X136988503Y-111084996D01*
X136976675Y-111120690D01*
X136966500Y-111220280D01*
X132909439Y-111220280D01*
X132903428Y-111201779D01*
X132903425Y-111201773D01*
X132902968Y-111200747D01*
X132774440Y-110912067D01*
X132774439Y-110912065D01*
X132774436Y-110912059D01*
X132615874Y-110637423D01*
X132429482Y-110380878D01*
X132429481Y-110380877D01*
X132415312Y-110365141D01*
X132217287Y-110145213D01*
X131981622Y-109933018D01*
X131981621Y-109933017D01*
X131725075Y-109746625D01*
X131725076Y-109746625D01*
X131450440Y-109588063D01*
X131450434Y-109588060D01*
X131160726Y-109459074D01*
X131160725Y-109459073D01*
X130859136Y-109361081D01*
X130548944Y-109295148D01*
X130233563Y-109262000D01*
X130233560Y-109262000D01*
X130085562Y-109262000D01*
X128223360Y-109262000D01*
X128155239Y-109241998D01*
X128108746Y-109188342D01*
X128098081Y-109122537D01*
X128098194Y-109121475D01*
X128098500Y-109118638D01*
X128098500Y-106021362D01*
X128098499Y-106021350D01*
X128091990Y-105960803D01*
X128091988Y-105960795D01*
X128040889Y-105823797D01*
X128040887Y-105823792D01*
X127953261Y-105706738D01*
X127836207Y-105619112D01*
X127836202Y-105619110D01*
X127699204Y-105568011D01*
X127699196Y-105568009D01*
X127638649Y-105561500D01*
X127638638Y-105561500D01*
X114541362Y-105561500D01*
X114541350Y-105561500D01*
X114480803Y-105568009D01*
X114480795Y-105568011D01*
X114343797Y-105619110D01*
X114343792Y-105619112D01*
X114226738Y-105706738D01*
X114139112Y-105823792D01*
X114139110Y-105823797D01*
X114088011Y-105960795D01*
X114088009Y-105960803D01*
X114081500Y-106021350D01*
X114081500Y-108343628D01*
X114061498Y-108411749D01*
X114044595Y-108432723D01*
X112010837Y-110466480D01*
X112010834Y-110466484D01*
X112009065Y-110469132D01*
X111960712Y-110541500D01*
X111953913Y-110551675D01*
X111953912Y-110551676D01*
X111927826Y-110590716D01*
X111870650Y-110728750D01*
X111870649Y-110728753D01*
X111841500Y-110875290D01*
X111841500Y-118564707D01*
X111842801Y-118571247D01*
X111870649Y-118711247D01*
X111870650Y-118711250D01*
X111891770Y-118762239D01*
X111927826Y-118849284D01*
X112010834Y-118973515D01*
X112010838Y-118973519D01*
X114074595Y-121037276D01*
X114108621Y-121099588D01*
X114111500Y-121126371D01*
X114111500Y-123468649D01*
X114118009Y-123529196D01*
X114118011Y-123529204D01*
X114169110Y-123666202D01*
X114169112Y-123666207D01*
X114256738Y-123783261D01*
X114373792Y-123870887D01*
X114373794Y-123870888D01*
X114373796Y-123870889D01*
X114432875Y-123892924D01*
X114510795Y-123921988D01*
X114510803Y-123921990D01*
X114571350Y-123928499D01*
X114571355Y-123928499D01*
X114571362Y-123928500D01*
X125573130Y-123928500D01*
X125641251Y-123948502D01*
X125687744Y-124002158D01*
X125697847Y-124072428D01*
X125694392Y-124096467D01*
X125686500Y-124151364D01*
X125686500Y-143376007D01*
X125698237Y-143485164D01*
X125709441Y-143536667D01*
X125743125Y-143637869D01*
X125744110Y-143640827D01*
X125755481Y-143658520D01*
X125823130Y-143763784D01*
X125823131Y-143763786D01*
X125868880Y-143816582D01*
X125868882Y-143816583D01*
X125868884Y-143816586D01*
X125979339Y-143912297D01*
X126057194Y-143947853D01*
X126112284Y-143973013D01*
X126112286Y-143973013D01*
X126112287Y-143973014D01*
X126179326Y-143992699D01*
X126179330Y-143992700D01*
X126324000Y-144013500D01*
X126324004Y-144013500D01*
X161648650Y-144013500D01*
X161694536Y-144011039D01*
X161703533Y-144010557D01*
X161729891Y-144007723D01*
X161770797Y-144001094D01*
X161784145Y-143998932D01*
X161784146Y-143998931D01*
X161784149Y-143998931D01*
X161921091Y-143947854D01*
X161982414Y-143914369D01*
X162099418Y-143826780D01*
X162226780Y-143699418D01*
X162263517Y-143658520D01*
X162280151Y-143637878D01*
X162312297Y-143593299D01*
X162373014Y-143460351D01*
X162392699Y-143393312D01*
X162392700Y-143393308D01*
X162413500Y-143248638D01*
X162413500Y-124151362D01*
X162413500Y-124151349D01*
X162410558Y-124096487D01*
X162410557Y-124096467D01*
X162410554Y-124096444D01*
X162410422Y-124094795D01*
X162410467Y-124094791D01*
X162410467Y-124094783D01*
X162410777Y-124094766D01*
X162411358Y-124094719D01*
X162423230Y-124028288D01*
X162471522Y-123976245D01*
X162535996Y-123958500D01*
X174398632Y-123958500D01*
X174398638Y-123958500D01*
X174398645Y-123958499D01*
X174398649Y-123958499D01*
X174459196Y-123951990D01*
X174459199Y-123951989D01*
X174459201Y-123951989D01*
X174596204Y-123900889D01*
X174713261Y-123813261D01*
X174735719Y-123783261D01*
X174800887Y-123696207D01*
X174800887Y-123696206D01*
X174800889Y-123696204D01*
X174851989Y-123559201D01*
X174852493Y-123554518D01*
X174858499Y-123498649D01*
X174858500Y-123498632D01*
X174858500Y-120401367D01*
X174858499Y-120401350D01*
X174851990Y-120340803D01*
X174851988Y-120340795D01*
X174818473Y-120250941D01*
X174800889Y-120203796D01*
X174800888Y-120203794D01*
X174800887Y-120203792D01*
X174713261Y-120086738D01*
X174596207Y-119999112D01*
X174596202Y-119999110D01*
X174459204Y-119948011D01*
X174459196Y-119948009D01*
X174398649Y-119941500D01*
X174398638Y-119941500D01*
X168861902Y-119941500D01*
X168793781Y-119921498D01*
X168747288Y-119867842D01*
X168737184Y-119797568D01*
X168738323Y-119790919D01*
X168758499Y-119689484D01*
X168758500Y-119689477D01*
X168758500Y-119510522D01*
X168758499Y-119510518D01*
X168748554Y-119460521D01*
X168723587Y-119335000D01*
X168655102Y-119169664D01*
X168555678Y-119020865D01*
X168429135Y-118894322D01*
X168280336Y-118794898D01*
X168115000Y-118726413D01*
X168114998Y-118726412D01*
X168109911Y-118725400D01*
X168047003Y-118692489D01*
X168011875Y-118630792D01*
X168008500Y-118601823D01*
X168008500Y-118234144D01*
X168017753Y-118202629D01*
X168025610Y-118170749D01*
X168027693Y-118168776D01*
X168028502Y-118166023D01*
X168053324Y-118144514D01*
X168077170Y-118121942D01*
X168080501Y-118120964D01*
X168082158Y-118119530D01*
X168111103Y-118110335D01*
X168120812Y-118108500D01*
X168124705Y-118108500D01*
X168124706Y-118108500D01*
X168197976Y-118093925D01*
X168271247Y-118079351D01*
X168409284Y-118022174D01*
X168533515Y-117939166D01*
X170001405Y-116471274D01*
X170063717Y-116437250D01*
X170134532Y-116442314D01*
X170191368Y-116484861D01*
X170216179Y-116551381D01*
X170216500Y-116560370D01*
X170216500Y-118114636D01*
X170226970Y-118247669D01*
X170226970Y-118247672D01*
X170226971Y-118247673D01*
X170282320Y-118467332D01*
X170282323Y-118467341D01*
X170376004Y-118673588D01*
X170376009Y-118673597D01*
X170505011Y-118859799D01*
X170505015Y-118859804D01*
X170665195Y-119019984D01*
X170665200Y-119019988D01*
X170851402Y-119148990D01*
X170851411Y-119148995D01*
X170891711Y-119167300D01*
X171057664Y-119242679D01*
X171277331Y-119298030D01*
X171410364Y-119308500D01*
X171410367Y-119308500D01*
X173039633Y-119308500D01*
X173039636Y-119308500D01*
X173172669Y-119298030D01*
X173392336Y-119242679D01*
X173598591Y-119148994D01*
X173603772Y-119145405D01*
X173783533Y-119020865D01*
X173784802Y-119019986D01*
X173944986Y-118859802D01*
X173944994Y-118859790D01*
X173948611Y-118855459D01*
X173950295Y-118856865D01*
X173998085Y-118818260D01*
X174068666Y-118810586D01*
X174132191Y-118842290D01*
X174151207Y-118864609D01*
X174194322Y-118929135D01*
X174320865Y-119055678D01*
X174469664Y-119155102D01*
X174635000Y-119223587D01*
X174810521Y-119258500D01*
X174810522Y-119258500D01*
X174989478Y-119258500D01*
X174989479Y-119258500D01*
X175165000Y-119223587D01*
X175330336Y-119155102D01*
X175479135Y-119055678D01*
X175605678Y-118929135D01*
X175705102Y-118780336D01*
X175773587Y-118615000D01*
X175808500Y-118439479D01*
X175808500Y-118260521D01*
X175773587Y-118085000D01*
X175705102Y-117919664D01*
X175605678Y-117770865D01*
X175479135Y-117644322D01*
X175330336Y-117544898D01*
X175165000Y-117476413D01*
X175120211Y-117467503D01*
X175057303Y-117434595D01*
X175055701Y-117433020D01*
X174333517Y-116710836D01*
X174333515Y-116710834D01*
X174289497Y-116681422D01*
X174243970Y-116626944D01*
X174233500Y-116576657D01*
X174233500Y-116485367D01*
X174233241Y-116482072D01*
X174223030Y-116352331D01*
X174168232Y-116134859D01*
X175562000Y-116134859D01*
X175562000Y-116139216D01*
X175562000Y-116365141D01*
X175598024Y-116592587D01*
X175669185Y-116811597D01*
X175773730Y-117016779D01*
X175909086Y-117203081D01*
X175909088Y-117203083D01*
X175909090Y-117203086D01*
X176071913Y-117365909D01*
X176071916Y-117365911D01*
X176071919Y-117365914D01*
X176258221Y-117501270D01*
X176463403Y-117605815D01*
X176682413Y-117676976D01*
X176909859Y-117713000D01*
X176909862Y-117713000D01*
X177140138Y-117713000D01*
X177140141Y-117713000D01*
X177367587Y-117676976D01*
X177586597Y-117605815D01*
X177791779Y-117501270D01*
X177978081Y-117365914D01*
X178140914Y-117203081D01*
X178276270Y-117016779D01*
X178380815Y-116811597D01*
X178451976Y-116592587D01*
X178488000Y-116365141D01*
X178488000Y-116134859D01*
X178451976Y-115907413D01*
X178380815Y-115688403D01*
X178276270Y-115483221D01*
X178140914Y-115296919D01*
X178140911Y-115296916D01*
X178140909Y-115296913D01*
X177978086Y-115134090D01*
X177978083Y-115134088D01*
X177978081Y-115134086D01*
X177821038Y-115019988D01*
X177791782Y-114998732D01*
X177791781Y-114998731D01*
X177791779Y-114998730D01*
X177586597Y-114894185D01*
X177367587Y-114823024D01*
X177140141Y-114787000D01*
X176909859Y-114787000D01*
X176682413Y-114823024D01*
X176682410Y-114823024D01*
X176682409Y-114823025D01*
X176463403Y-114894185D01*
X176463401Y-114894186D01*
X176258217Y-114998732D01*
X176071916Y-115134088D01*
X176071913Y-115134090D01*
X175909090Y-115296913D01*
X175909088Y-115296916D01*
X175773732Y-115483217D01*
X175669186Y-115688401D01*
X175669185Y-115688403D01*
X175615447Y-115853792D01*
X175598024Y-115907413D01*
X175562000Y-116134859D01*
X174168232Y-116134859D01*
X174167679Y-116132664D01*
X174073994Y-115926409D01*
X174073993Y-115926408D01*
X174073990Y-115926402D01*
X173944988Y-115740200D01*
X173944984Y-115740195D01*
X173784804Y-115580015D01*
X173784799Y-115580011D01*
X173598597Y-115451009D01*
X173598588Y-115451004D01*
X173506204Y-115409042D01*
X173452453Y-115362659D01*
X173432312Y-115294579D01*
X173452175Y-115226418D01*
X173505736Y-115179816D01*
X173505962Y-115179712D01*
X173573591Y-115148994D01*
X173579781Y-115144706D01*
X173759799Y-115019988D01*
X173759798Y-115019988D01*
X173759802Y-115019986D01*
X173919986Y-114859802D01*
X174048994Y-114673591D01*
X174142679Y-114467336D01*
X174198030Y-114247669D01*
X174208500Y-114114636D01*
X174208500Y-112485364D01*
X174198030Y-112352331D01*
X174142679Y-112132664D01*
X174078241Y-111990799D01*
X174053627Y-111936608D01*
X174043666Y-111866313D01*
X174073291Y-111801793D01*
X174133096Y-111763532D01*
X174168347Y-111758500D01*
X174324706Y-111758500D01*
X174443933Y-111734784D01*
X174471247Y-111729351D01*
X174609284Y-111672174D01*
X174733515Y-111589166D01*
X176739166Y-109583515D01*
X176822174Y-109459284D01*
X176879351Y-109321246D01*
X176886076Y-109287439D01*
X176908500Y-109174706D01*
X176908500Y-76075294D01*
X176879351Y-75928754D01*
X176839008Y-75831358D01*
X176822174Y-75790716D01*
X176739166Y-75666485D01*
X170866276Y-69793595D01*
X170832250Y-69731283D01*
X170837315Y-69660468D01*
X170879862Y-69603632D01*
X170946382Y-69578821D01*
X170955371Y-69578500D01*
X174408632Y-69578500D01*
X174408638Y-69578500D01*
X174408645Y-69578499D01*
X174408649Y-69578499D01*
X174469196Y-69571990D01*
X174469199Y-69571989D01*
X174469201Y-69571989D01*
X174606204Y-69520889D01*
X174723261Y-69433261D01*
X174810889Y-69316204D01*
X174861989Y-69179201D01*
X174868500Y-69118638D01*
X174868500Y-66021362D01*
X174868499Y-66021350D01*
X174861990Y-65960803D01*
X174861989Y-65960802D01*
X174861989Y-65960799D01*
X174856294Y-65945532D01*
X174851229Y-65874720D01*
X174885252Y-65812407D01*
X174947564Y-65778380D01*
X174974350Y-65775500D01*
X182498500Y-65775500D01*
X182566621Y-65795502D01*
X182613114Y-65849158D01*
X182624500Y-65901500D01*
X182624500Y-163598500D01*
X182604498Y-163666621D01*
X182550842Y-163713114D01*
X182498500Y-163724500D01*
X174971810Y-163724500D01*
X174903689Y-163704498D01*
X174857196Y-163650842D01*
X174847092Y-163580568D01*
X174850566Y-163566960D01*
X174850177Y-163566868D01*
X174851990Y-163559196D01*
X174858499Y-163498649D01*
X174858500Y-163498632D01*
X174858500Y-160401367D01*
X174858499Y-160401350D01*
X174851990Y-160340803D01*
X174851988Y-160340795D01*
X174800889Y-160203797D01*
X174800887Y-160203792D01*
X174713261Y-160086738D01*
X174596207Y-159999112D01*
X174596202Y-159999110D01*
X174459204Y-159948011D01*
X174459196Y-159948009D01*
X174398649Y-159941500D01*
X174398638Y-159941500D01*
X168884500Y-159941500D01*
X168816379Y-159921498D01*
X168769886Y-159867842D01*
X168758500Y-159815500D01*
X168758500Y-156928302D01*
X168778502Y-156860181D01*
X168779735Y-156858300D01*
X168805102Y-156820336D01*
X168873587Y-156655000D01*
X168908500Y-156479479D01*
X168908500Y-156300521D01*
X168873587Y-156125000D01*
X168805102Y-155959664D01*
X168705678Y-155810865D01*
X168579135Y-155684322D01*
X168430336Y-155584898D01*
X168313429Y-155536473D01*
X168265003Y-155516414D01*
X168265001Y-155516413D01*
X168265000Y-155516413D01*
X168176645Y-155498838D01*
X168089481Y-155481500D01*
X168089479Y-155481500D01*
X167910521Y-155481500D01*
X167910518Y-155481500D01*
X167779771Y-155507507D01*
X167735000Y-155516413D01*
X167734999Y-155516413D01*
X167734996Y-155516414D01*
X167569662Y-155584899D01*
X167420869Y-155684319D01*
X167420862Y-155684324D01*
X167294324Y-155810862D01*
X167294319Y-155810869D01*
X167194899Y-155959662D01*
X167126414Y-156124996D01*
X167126413Y-156124999D01*
X167126413Y-156125000D01*
X167119347Y-156160522D01*
X167091500Y-156300518D01*
X167091500Y-156479481D01*
X167098566Y-156515003D01*
X167125485Y-156650337D01*
X167126414Y-156655003D01*
X167136908Y-156680337D01*
X167194898Y-156820336D01*
X167194899Y-156820337D01*
X167220265Y-156858300D01*
X167241480Y-156926053D01*
X167241500Y-156928302D01*
X167241500Y-159815500D01*
X167221498Y-159883621D01*
X167167842Y-159930114D01*
X167115500Y-159941500D01*
X161301350Y-159941500D01*
X161240803Y-159948009D01*
X161240795Y-159948011D01*
X161103797Y-159999110D01*
X161103792Y-159999112D01*
X160986738Y-160086738D01*
X160899112Y-160203792D01*
X160899110Y-160203797D01*
X160848011Y-160340795D01*
X160848009Y-160340803D01*
X160841500Y-160401350D01*
X160841500Y-163498649D01*
X160848009Y-163559196D01*
X160849823Y-163566868D01*
X160847175Y-163567493D01*
X160851313Y-163625274D01*
X160817292Y-163687589D01*
X160754983Y-163721618D01*
X160728190Y-163724500D01*
X151568080Y-163724500D01*
X151499959Y-163704498D01*
X151453466Y-163650842D01*
X151443362Y-163580568D01*
X151450026Y-163554464D01*
X151450059Y-163554372D01*
X151451989Y-163549201D01*
X151454140Y-163529201D01*
X151458499Y-163488649D01*
X151458500Y-163488632D01*
X151458500Y-160391367D01*
X151458499Y-160391350D01*
X151451990Y-160330803D01*
X151451988Y-160330795D01*
X151400889Y-160193797D01*
X151400887Y-160193792D01*
X151313261Y-160076738D01*
X151196207Y-159989112D01*
X151196202Y-159989110D01*
X151059204Y-159938011D01*
X151059196Y-159938009D01*
X150998649Y-159931500D01*
X150998638Y-159931500D01*
X145334500Y-159931500D01*
X145266379Y-159911498D01*
X145219886Y-159857842D01*
X145208500Y-159805500D01*
X145208500Y-156788302D01*
X145228502Y-156720181D01*
X145229735Y-156718300D01*
X145255102Y-156680336D01*
X145323587Y-156515000D01*
X145358500Y-156339479D01*
X145358500Y-156160521D01*
X145323587Y-155985000D01*
X145255102Y-155819664D01*
X145155678Y-155670865D01*
X145029135Y-155544322D01*
X144880336Y-155444898D01*
X144759786Y-155394964D01*
X144715003Y-155376414D01*
X144715001Y-155376413D01*
X144715000Y-155376413D01*
X144626645Y-155358838D01*
X144539481Y-155341500D01*
X144539479Y-155341500D01*
X144360521Y-155341500D01*
X144360518Y-155341500D01*
X144229771Y-155367507D01*
X144185000Y-155376413D01*
X144184999Y-155376413D01*
X144184996Y-155376414D01*
X144019662Y-155444899D01*
X143870869Y-155544319D01*
X143870862Y-155544324D01*
X143744324Y-155670862D01*
X143744319Y-155670869D01*
X143644899Y-155819662D01*
X143576414Y-155984996D01*
X143541500Y-156160518D01*
X143541500Y-156160521D01*
X143541500Y-156339479D01*
X143576413Y-156515000D01*
X143644898Y-156680336D01*
X143670265Y-156718300D01*
X143691480Y-156786053D01*
X143691500Y-156788302D01*
X143691500Y-159805500D01*
X143671498Y-159873621D01*
X143617842Y-159920114D01*
X143565500Y-159931500D01*
X137901350Y-159931500D01*
X137840803Y-159938009D01*
X137840795Y-159938011D01*
X137703797Y-159989110D01*
X137703792Y-159989112D01*
X137586738Y-160076738D01*
X137499112Y-160193792D01*
X137499110Y-160193797D01*
X137448011Y-160330795D01*
X137448009Y-160330803D01*
X137441500Y-160391350D01*
X137441500Y-163488649D01*
X137448009Y-163549196D01*
X137448011Y-163549201D01*
X137449974Y-163554464D01*
X137455041Y-163625280D01*
X137421018Y-163687593D01*
X137358707Y-163721620D01*
X137331920Y-163724500D01*
X128230621Y-163724500D01*
X128162500Y-163704498D01*
X128116007Y-163650842D01*
X128105903Y-163580568D01*
X128112565Y-163554468D01*
X128121989Y-163529200D01*
X128121990Y-163529196D01*
X128128499Y-163468649D01*
X128128500Y-163468632D01*
X128128500Y-160371367D01*
X128128499Y-160371350D01*
X128121990Y-160310803D01*
X128121988Y-160310795D01*
X128082079Y-160203797D01*
X128070889Y-160173796D01*
X128070888Y-160173794D01*
X128070887Y-160173792D01*
X127983261Y-160056738D01*
X127866207Y-159969112D01*
X127866202Y-159969110D01*
X127729204Y-159918011D01*
X127729196Y-159918009D01*
X127668649Y-159911500D01*
X127668638Y-159911500D01*
X122004500Y-159911500D01*
X121936379Y-159891498D01*
X121889886Y-159837842D01*
X121878500Y-159785500D01*
X121878500Y-156758302D01*
X121898502Y-156690181D01*
X121899735Y-156688300D01*
X121925102Y-156650336D01*
X121993587Y-156485000D01*
X122028500Y-156309479D01*
X122028500Y-156130521D01*
X121993587Y-155955000D01*
X121925102Y-155789664D01*
X121825678Y-155640865D01*
X121699135Y-155514322D01*
X121550336Y-155414898D01*
X121433429Y-155366473D01*
X121385003Y-155346414D01*
X121385001Y-155346413D01*
X121385000Y-155346413D01*
X121296645Y-155328838D01*
X121209481Y-155311500D01*
X121209479Y-155311500D01*
X121030521Y-155311500D01*
X121030518Y-155311500D01*
X120899771Y-155337507D01*
X120855000Y-155346413D01*
X120854999Y-155346413D01*
X120854996Y-155346414D01*
X120689662Y-155414899D01*
X120540869Y-155514319D01*
X120540862Y-155514324D01*
X120414324Y-155640862D01*
X120414319Y-155640869D01*
X120385284Y-155684324D01*
X120314898Y-155789664D01*
X120300716Y-155823902D01*
X120246414Y-155954996D01*
X120246413Y-155954999D01*
X120246413Y-155955000D01*
X120240446Y-155985000D01*
X120211500Y-156130518D01*
X120211500Y-156309481D01*
X120228838Y-156396645D01*
X120245315Y-156479481D01*
X120246414Y-156485003D01*
X120258841Y-156515003D01*
X120314898Y-156650336D01*
X120334944Y-156680337D01*
X120340265Y-156688300D01*
X120361480Y-156756053D01*
X120361500Y-156758302D01*
X120361500Y-159785500D01*
X120341498Y-159853621D01*
X120287842Y-159900114D01*
X120235500Y-159911500D01*
X114571350Y-159911500D01*
X114510803Y-159918009D01*
X114510795Y-159918011D01*
X114373797Y-159969110D01*
X114373792Y-159969112D01*
X114256738Y-160056738D01*
X114169112Y-160173792D01*
X114169110Y-160173797D01*
X114118011Y-160310795D01*
X114118009Y-160310803D01*
X114111500Y-160371350D01*
X114111500Y-163468649D01*
X114118009Y-163529196D01*
X114118010Y-163529200D01*
X114127435Y-163554468D01*
X114132499Y-163625284D01*
X114098474Y-163687596D01*
X114036162Y-163721621D01*
X114009379Y-163724500D01*
X106501500Y-163724500D01*
X106433379Y-163704498D01*
X106386886Y-163650842D01*
X106375500Y-163598500D01*
X106375500Y-146844167D01*
X136824500Y-146844167D01*
X136824500Y-153155832D01*
X136860681Y-153465378D01*
X136860682Y-153465384D01*
X136932557Y-153768645D01*
X136932558Y-153768650D01*
X137039146Y-154061497D01*
X137039151Y-154061509D01*
X137179024Y-154340021D01*
X137350279Y-154600400D01*
X137550610Y-154839147D01*
X137777310Y-155053028D01*
X137920893Y-155159921D01*
X138027297Y-155239136D01*
X138297203Y-155394966D01*
X138583374Y-155518408D01*
X138881942Y-155607793D01*
X139188867Y-155661913D01*
X139500000Y-155680034D01*
X139811133Y-155661913D01*
X140118058Y-155607793D01*
X140416626Y-155518408D01*
X140702797Y-155394966D01*
X140972703Y-155239136D01*
X141222693Y-155053025D01*
X141449386Y-154839151D01*
X141649717Y-154600405D01*
X141820978Y-154340017D01*
X141960850Y-154061507D01*
X142067444Y-153768642D01*
X142139318Y-153465383D01*
X142175500Y-153155830D01*
X142175500Y-153000000D01*
X142175500Y-152991715D01*
X142175500Y-146989438D01*
X142175500Y-146844170D01*
X142175500Y-146844167D01*
X146824500Y-146844167D01*
X146824500Y-153155832D01*
X146860681Y-153465378D01*
X146860682Y-153465384D01*
X146932557Y-153768645D01*
X146932558Y-153768650D01*
X147039146Y-154061497D01*
X147039151Y-154061509D01*
X147179024Y-154340021D01*
X147350279Y-154600400D01*
X147550610Y-154839147D01*
X147777310Y-155053028D01*
X147920893Y-155159921D01*
X148027297Y-155239136D01*
X148297203Y-155394966D01*
X148583374Y-155518408D01*
X148881942Y-155607793D01*
X149188867Y-155661913D01*
X149500000Y-155680034D01*
X149811133Y-155661913D01*
X150118058Y-155607793D01*
X150416626Y-155518408D01*
X150702797Y-155394966D01*
X150972703Y-155239136D01*
X151222693Y-155053025D01*
X151449386Y-154839151D01*
X151649717Y-154600405D01*
X151820978Y-154340017D01*
X151960850Y-154061507D01*
X152067444Y-153768642D01*
X152139318Y-153465383D01*
X152175500Y-153155830D01*
X152175500Y-153000000D01*
X152175500Y-152991715D01*
X152175500Y-146989438D01*
X152175500Y-146844170D01*
X152139318Y-146534617D01*
X152067444Y-146231358D01*
X151960850Y-145938493D01*
X151820978Y-145659983D01*
X151820975Y-145659978D01*
X151649720Y-145399599D01*
X151449389Y-145160852D01*
X151222689Y-144946971D01*
X150972718Y-144760875D01*
X150972715Y-144760873D01*
X150972703Y-144760864D01*
X150702797Y-144605034D01*
X150702798Y-144605034D01*
X150702794Y-144605032D01*
X150416633Y-144481595D01*
X150416632Y-144481594D01*
X150416626Y-144481592D01*
X150118058Y-144392207D01*
X150118059Y-144392207D01*
X150023309Y-144375500D01*
X149811133Y-144338087D01*
X149811129Y-144338086D01*
X149811125Y-144338086D01*
X149500000Y-144319966D01*
X149188877Y-144338086D01*
X149188871Y-144338086D01*
X148881941Y-144392207D01*
X148754360Y-144430402D01*
X148583374Y-144481592D01*
X148583372Y-144481593D01*
X148583366Y-144481595D01*
X148297205Y-144605032D01*
X148297200Y-144605035D01*
X148027308Y-144760857D01*
X148027281Y-144760875D01*
X147777310Y-144946971D01*
X147550610Y-145160852D01*
X147350279Y-145399599D01*
X147179024Y-145659978D01*
X147039151Y-145938490D01*
X147039146Y-145938502D01*
X146932558Y-146231349D01*
X146932557Y-146231354D01*
X146860682Y-146534615D01*
X146860681Y-146534621D01*
X146824500Y-146844167D01*
X142175500Y-146844167D01*
X142139318Y-146534617D01*
X142067444Y-146231358D01*
X141960850Y-145938493D01*
X141820978Y-145659983D01*
X141820975Y-145659978D01*
X141649720Y-145399599D01*
X141449389Y-145160852D01*
X141222689Y-144946971D01*
X140972718Y-144760875D01*
X140972715Y-144760873D01*
X140972703Y-144760864D01*
X140702797Y-144605034D01*
X140702798Y-144605034D01*
X140702794Y-144605032D01*
X140416633Y-144481595D01*
X140416632Y-144481594D01*
X140416626Y-144481592D01*
X140118058Y-144392207D01*
X140118059Y-144392207D01*
X140023309Y-144375500D01*
X139811133Y-144338087D01*
X139811129Y-144338086D01*
X139811125Y-144338086D01*
X139500000Y-144319966D01*
X139188877Y-144338086D01*
X139188871Y-144338086D01*
X138881941Y-144392207D01*
X138754360Y-144430402D01*
X138583374Y-144481592D01*
X138583372Y-144481593D01*
X138583366Y-144481595D01*
X138297205Y-144605032D01*
X138297200Y-144605035D01*
X138027308Y-144760857D01*
X138027281Y-144760875D01*
X137777310Y-144946971D01*
X137550610Y-145160852D01*
X137350279Y-145399599D01*
X137179024Y-145659978D01*
X137039151Y-145938490D01*
X137039146Y-145938502D01*
X136932558Y-146231349D01*
X136932557Y-146231354D01*
X136860682Y-146534615D01*
X136860681Y-146534621D01*
X136824500Y-146844167D01*
X106375500Y-146844167D01*
X106375500Y-122134859D01*
X108187000Y-122134859D01*
X108187000Y-122139216D01*
X108187000Y-122365141D01*
X108223024Y-122592587D01*
X108294185Y-122811597D01*
X108398730Y-123016779D01*
X108534086Y-123203081D01*
X108534088Y-123203083D01*
X108534090Y-123203086D01*
X108696913Y-123365909D01*
X108696916Y-123365911D01*
X108696919Y-123365914D01*
X108883221Y-123501270D01*
X109088403Y-123605815D01*
X109307413Y-123676976D01*
X109534859Y-123713000D01*
X109534862Y-123713000D01*
X109765138Y-123713000D01*
X109765141Y-123713000D01*
X109992587Y-123676976D01*
X110211597Y-123605815D01*
X110416779Y-123501270D01*
X110603081Y-123365914D01*
X110765914Y-123203081D01*
X110901270Y-123016779D01*
X111005815Y-122811597D01*
X111076976Y-122592587D01*
X111113000Y-122365141D01*
X111113000Y-122134859D01*
X111076976Y-121907413D01*
X111005815Y-121688403D01*
X110901270Y-121483221D01*
X110765914Y-121296919D01*
X110765911Y-121296916D01*
X110765909Y-121296913D01*
X110603086Y-121134090D01*
X110603083Y-121134088D01*
X110603081Y-121134086D01*
X110416779Y-120998730D01*
X110211597Y-120894185D01*
X109992587Y-120823024D01*
X109765141Y-120787000D01*
X109534859Y-120787000D01*
X109307413Y-120823024D01*
X109307410Y-120823024D01*
X109307409Y-120823025D01*
X109088403Y-120894185D01*
X109088401Y-120894186D01*
X108883217Y-120998732D01*
X108696916Y-121134088D01*
X108696913Y-121134090D01*
X108534090Y-121296913D01*
X108534088Y-121296916D01*
X108398732Y-121483217D01*
X108398730Y-121483221D01*
X108294185Y-121688403D01*
X108223024Y-121907413D01*
X108187000Y-122134859D01*
X106375500Y-122134859D01*
X106375500Y-110134859D01*
X108187000Y-110134859D01*
X108187000Y-110139216D01*
X108187000Y-110365141D01*
X108223024Y-110592587D01*
X108294185Y-110811597D01*
X108398730Y-111016779D01*
X108534086Y-111203081D01*
X108534088Y-111203083D01*
X108534090Y-111203086D01*
X108696913Y-111365909D01*
X108696916Y-111365911D01*
X108696919Y-111365914D01*
X108883221Y-111501270D01*
X109088403Y-111605815D01*
X109307413Y-111676976D01*
X109534859Y-111713000D01*
X109534862Y-111713000D01*
X109765138Y-111713000D01*
X109765141Y-111713000D01*
X109992587Y-111676976D01*
X110211597Y-111605815D01*
X110416779Y-111501270D01*
X110603081Y-111365914D01*
X110765914Y-111203081D01*
X110901270Y-111016779D01*
X111005815Y-110811597D01*
X111076976Y-110592587D01*
X111113000Y-110365141D01*
X111113000Y-110134859D01*
X111076976Y-109907413D01*
X111005815Y-109688403D01*
X110901270Y-109483221D01*
X110765914Y-109296919D01*
X110765911Y-109296916D01*
X110765909Y-109296913D01*
X110603086Y-109134090D01*
X110603083Y-109134088D01*
X110603081Y-109134086D01*
X110437271Y-109013618D01*
X110416782Y-108998732D01*
X110416781Y-108998731D01*
X110416779Y-108998730D01*
X110211597Y-108894185D01*
X109992587Y-108823024D01*
X109765141Y-108787000D01*
X109534859Y-108787000D01*
X109307413Y-108823024D01*
X109307410Y-108823024D01*
X109307409Y-108823025D01*
X109088403Y-108894185D01*
X109088401Y-108894186D01*
X108883217Y-108998732D01*
X108696916Y-109134088D01*
X108696913Y-109134090D01*
X108534090Y-109296913D01*
X108534088Y-109296916D01*
X108398732Y-109483217D01*
X108294186Y-109688401D01*
X108294185Y-109688403D01*
X108250824Y-109821855D01*
X108223024Y-109907413D01*
X108187000Y-110134859D01*
X106375500Y-110134859D01*
X106375500Y-98134859D01*
X108187000Y-98134859D01*
X108187000Y-98139216D01*
X108187000Y-98365141D01*
X108223024Y-98592587D01*
X108294185Y-98811597D01*
X108398730Y-99016779D01*
X108534086Y-99203081D01*
X108534088Y-99203083D01*
X108534090Y-99203086D01*
X108696913Y-99365909D01*
X108696916Y-99365911D01*
X108696919Y-99365914D01*
X108883221Y-99501270D01*
X109088403Y-99605815D01*
X109307413Y-99676976D01*
X109534859Y-99713000D01*
X109534862Y-99713000D01*
X109765138Y-99713000D01*
X109765141Y-99713000D01*
X109992587Y-99676976D01*
X110211597Y-99605815D01*
X110416779Y-99501270D01*
X110603081Y-99365914D01*
X110765914Y-99203081D01*
X110901270Y-99016779D01*
X111005815Y-98811597D01*
X111076976Y-98592587D01*
X111113000Y-98365141D01*
X111113000Y-98134859D01*
X111076976Y-97907413D01*
X111005815Y-97688403D01*
X110901270Y-97483221D01*
X110765914Y-97296919D01*
X110765911Y-97296916D01*
X110765909Y-97296913D01*
X110603086Y-97134090D01*
X110603083Y-97134088D01*
X110603081Y-97134086D01*
X110416779Y-96998730D01*
X110211597Y-96894185D01*
X109992587Y-96823024D01*
X109765141Y-96787000D01*
X109534859Y-96787000D01*
X109307413Y-96823024D01*
X109307410Y-96823024D01*
X109307409Y-96823025D01*
X109088403Y-96894185D01*
X109088401Y-96894186D01*
X108883217Y-96998732D01*
X108696916Y-97134088D01*
X108696913Y-97134090D01*
X108534090Y-97296913D01*
X108534088Y-97296916D01*
X108398732Y-97483217D01*
X108294186Y-97688401D01*
X108294185Y-97688403D01*
X108227805Y-97892700D01*
X108223024Y-97907413D01*
X108187000Y-98134859D01*
X106375500Y-98134859D01*
X106375500Y-65901500D01*
X106395502Y-65833379D01*
X106449158Y-65786886D01*
X106501500Y-65775500D01*
X113975650Y-65775500D01*
X114043771Y-65795502D01*
G37*
%TD.AperFunction*%
%TA.AperFunction,Conductor*%
G36*
X160813771Y-65795502D02*
G01*
X160860264Y-65849158D01*
X160870368Y-65919432D01*
X160863706Y-65945528D01*
X160858011Y-65960799D01*
X160858010Y-65960802D01*
X160858009Y-65960803D01*
X160851500Y-66021350D01*
X160851500Y-69118649D01*
X160858009Y-69179196D01*
X160858011Y-69179204D01*
X160909110Y-69316202D01*
X160909112Y-69316207D01*
X160996738Y-69433261D01*
X161113792Y-69520887D01*
X161113794Y-69520888D01*
X161113796Y-69520889D01*
X161172875Y-69542924D01*
X161250795Y-69571988D01*
X161250803Y-69571990D01*
X161311350Y-69578499D01*
X161311355Y-69578499D01*
X161311362Y-69578500D01*
X168453629Y-69578500D01*
X168521750Y-69598502D01*
X168542724Y-69615405D01*
X175354595Y-76427276D01*
X175388621Y-76489588D01*
X175391500Y-76516371D01*
X175391500Y-108733629D01*
X175371498Y-108801750D01*
X175354595Y-108822724D01*
X175083595Y-109093724D01*
X175021283Y-109127750D01*
X174950468Y-109122685D01*
X174893632Y-109080138D01*
X174868821Y-109013618D01*
X174868500Y-109004629D01*
X174868500Y-106021367D01*
X174868499Y-106021350D01*
X174861990Y-105960803D01*
X174861988Y-105960795D01*
X174810889Y-105823797D01*
X174810887Y-105823792D01*
X174723261Y-105706738D01*
X174606207Y-105619112D01*
X174606202Y-105619110D01*
X174469204Y-105568011D01*
X174469196Y-105568009D01*
X174408649Y-105561500D01*
X174408638Y-105561500D01*
X161311362Y-105561500D01*
X161311350Y-105561500D01*
X161250803Y-105568009D01*
X161250795Y-105568011D01*
X161113797Y-105619110D01*
X161113792Y-105619112D01*
X160996738Y-105706738D01*
X160909112Y-105823792D01*
X160909110Y-105823797D01*
X160858011Y-105960795D01*
X160858009Y-105960803D01*
X160851500Y-106021350D01*
X160851500Y-109118649D01*
X160858009Y-109179196D01*
X160858011Y-109179204D01*
X160909110Y-109316202D01*
X160909112Y-109316207D01*
X160996738Y-109433261D01*
X161113792Y-109520887D01*
X161113794Y-109520888D01*
X161113796Y-109520889D01*
X161172875Y-109542924D01*
X161250795Y-109571988D01*
X161250803Y-109571990D01*
X161311350Y-109578499D01*
X161311355Y-109578499D01*
X161311362Y-109578500D01*
X167015500Y-109578500D01*
X167083621Y-109598502D01*
X167130114Y-109652158D01*
X167141500Y-109704500D01*
X167141500Y-110811696D01*
X167121498Y-110879817D01*
X167120267Y-110881696D01*
X167094898Y-110919664D01*
X167026414Y-111084996D01*
X166991500Y-111260518D01*
X166991500Y-111439484D01*
X166991786Y-111440919D01*
X166991717Y-111441685D01*
X166992107Y-111445643D01*
X166991356Y-111445716D01*
X166985458Y-111511633D01*
X166941903Y-111567700D01*
X166874951Y-111591319D01*
X166868207Y-111591500D01*
X165751350Y-111591500D01*
X165690803Y-111598009D01*
X165690795Y-111598011D01*
X165553797Y-111649110D01*
X165553792Y-111649112D01*
X165436738Y-111736738D01*
X165349112Y-111853792D01*
X165349110Y-111853797D01*
X165298011Y-111990795D01*
X165298009Y-111990803D01*
X165291500Y-112051350D01*
X165291500Y-114648649D01*
X165298009Y-114709196D01*
X165298011Y-114709204D01*
X165349110Y-114846202D01*
X165349112Y-114846207D01*
X165436738Y-114963261D01*
X165553792Y-115050887D01*
X165553794Y-115050888D01*
X165553796Y-115050889D01*
X165605340Y-115070114D01*
X165690795Y-115101988D01*
X165690803Y-115101990D01*
X165751350Y-115108499D01*
X165751355Y-115108499D01*
X165751362Y-115108500D01*
X165751368Y-115108500D01*
X167548632Y-115108500D01*
X167548638Y-115108500D01*
X167548645Y-115108499D01*
X167548649Y-115108499D01*
X167609196Y-115101990D01*
X167609199Y-115101989D01*
X167609201Y-115101989D01*
X167746204Y-115050889D01*
X167787486Y-115019986D01*
X167863261Y-114963261D01*
X167950887Y-114846207D01*
X167950887Y-114846206D01*
X167950889Y-114846204D01*
X167994960Y-114728045D01*
X168001988Y-114709204D01*
X168001990Y-114709196D01*
X168008499Y-114648649D01*
X168008500Y-114648632D01*
X168008500Y-113569867D01*
X168028502Y-113501746D01*
X168045405Y-113480772D01*
X169730772Y-111795405D01*
X169793084Y-111761379D01*
X169819867Y-111758500D01*
X170231653Y-111758500D01*
X170299774Y-111778502D01*
X170346267Y-111832158D01*
X170356371Y-111902432D01*
X170346373Y-111936608D01*
X170257323Y-112132658D01*
X170257320Y-112132667D01*
X170206340Y-112334990D01*
X170201970Y-112352331D01*
X170191500Y-112485364D01*
X170191500Y-112485367D01*
X170191500Y-114083628D01*
X170171498Y-114151749D01*
X170154595Y-114172723D01*
X168220685Y-116106633D01*
X168158373Y-116140659D01*
X168087558Y-116135594D01*
X168030722Y-116093047D01*
X168006312Y-116031006D01*
X168001990Y-115990803D01*
X168001988Y-115990795D01*
X167950889Y-115853797D01*
X167950887Y-115853792D01*
X167863261Y-115736738D01*
X167746207Y-115649112D01*
X167746202Y-115649110D01*
X167609204Y-115598011D01*
X167609196Y-115598009D01*
X167548649Y-115591500D01*
X167548638Y-115591500D01*
X165751362Y-115591500D01*
X165751350Y-115591500D01*
X165690803Y-115598009D01*
X165690795Y-115598011D01*
X165553797Y-115649110D01*
X165553792Y-115649112D01*
X165436738Y-115736738D01*
X165349112Y-115853792D01*
X165349110Y-115853797D01*
X165298011Y-115990795D01*
X165298009Y-115990803D01*
X165291500Y-116051350D01*
X165291500Y-116465500D01*
X165288908Y-116474325D01*
X165290218Y-116483432D01*
X165279062Y-116507857D01*
X165271498Y-116533621D01*
X165264544Y-116539645D01*
X165260724Y-116548012D01*
X165238138Y-116562526D01*
X165217842Y-116580114D01*
X165207155Y-116582438D01*
X165200998Y-116586396D01*
X165165500Y-116591500D01*
X164934500Y-116591500D01*
X164866379Y-116571498D01*
X164819886Y-116517842D01*
X164808500Y-116465500D01*
X164808500Y-116051367D01*
X164808499Y-116051350D01*
X164801990Y-115990803D01*
X164801988Y-115990795D01*
X164750889Y-115853797D01*
X164750887Y-115853792D01*
X164663261Y-115736738D01*
X164546207Y-115649112D01*
X164546202Y-115649110D01*
X164409204Y-115598011D01*
X164409196Y-115598009D01*
X164348649Y-115591500D01*
X164348638Y-115591500D01*
X162551362Y-115591500D01*
X162551350Y-115591500D01*
X162490803Y-115598009D01*
X162490795Y-115598011D01*
X162353797Y-115649110D01*
X162353792Y-115649112D01*
X162236738Y-115736738D01*
X162149112Y-115853792D01*
X162149110Y-115853797D01*
X162098011Y-115990795D01*
X162098009Y-115990803D01*
X162091500Y-116051350D01*
X162091500Y-116465500D01*
X162071498Y-116533621D01*
X162017842Y-116580114D01*
X161965500Y-116591500D01*
X161684500Y-116591500D01*
X161616379Y-116571498D01*
X161569886Y-116517842D01*
X161558500Y-116465500D01*
X161558500Y-116051367D01*
X161558499Y-116051350D01*
X161551990Y-115990803D01*
X161551988Y-115990795D01*
X161500889Y-115853797D01*
X161500887Y-115853792D01*
X161413261Y-115736738D01*
X161296207Y-115649112D01*
X161296202Y-115649110D01*
X161159204Y-115598011D01*
X161159196Y-115598009D01*
X161098649Y-115591500D01*
X161098638Y-115591500D01*
X159301362Y-115591500D01*
X159301350Y-115591500D01*
X159240803Y-115598009D01*
X159240795Y-115598011D01*
X159103797Y-115649110D01*
X159103792Y-115649112D01*
X158986738Y-115736738D01*
X158899112Y-115853792D01*
X158899110Y-115853797D01*
X158848011Y-115990795D01*
X158848009Y-115990803D01*
X158841500Y-116051350D01*
X158841500Y-117633628D01*
X158821498Y-117701749D01*
X158804595Y-117722723D01*
X152852190Y-123675127D01*
X152789878Y-123709153D01*
X152719063Y-123704088D01*
X152680583Y-123681257D01*
X152572618Y-123587703D01*
X152439672Y-123526986D01*
X152372636Y-123507302D01*
X152372632Y-123507301D01*
X152372629Y-123507300D01*
X152372627Y-123507300D01*
X152227957Y-123486500D01*
X152227953Y-123486500D01*
X151584500Y-123486500D01*
X151516379Y-123466498D01*
X151469886Y-123412842D01*
X151458500Y-123360500D01*
X151458500Y-120391367D01*
X151458499Y-120391352D01*
X151456115Y-120369176D01*
X151468721Y-120299307D01*
X151511393Y-120250941D01*
X151532257Y-120237000D01*
X151579135Y-120205678D01*
X151705678Y-120079135D01*
X151805102Y-119930336D01*
X151873587Y-119765000D01*
X151908500Y-119589479D01*
X151908500Y-119410521D01*
X151907359Y-119404787D01*
X151885339Y-119294081D01*
X151891667Y-119223367D01*
X151935221Y-119167300D01*
X152002174Y-119143681D01*
X152008918Y-119143500D01*
X155552393Y-119143500D01*
X155552394Y-119143500D01*
X155674785Y-119119155D01*
X155790075Y-119071400D01*
X155893833Y-119002071D01*
X156429572Y-118466333D01*
X156498901Y-118362575D01*
X156535577Y-118274030D01*
X156546655Y-118247285D01*
X156571000Y-118124894D01*
X156571000Y-116226358D01*
X156591002Y-116158237D01*
X156644658Y-116111744D01*
X156680555Y-116101436D01*
X156783850Y-116087838D01*
X156931876Y-116026524D01*
X157058987Y-115928987D01*
X157156524Y-115801876D01*
X157217838Y-115653850D01*
X157233500Y-115534885D01*
X157233499Y-115255116D01*
X157221960Y-115167466D01*
X157232899Y-115097321D01*
X157257784Y-115061930D01*
X158065883Y-114253833D01*
X158135212Y-114150075D01*
X158182967Y-114034785D01*
X158207312Y-113912394D01*
X158207312Y-113787606D01*
X158207312Y-113627606D01*
X158182967Y-113505215D01*
X158168945Y-113471362D01*
X158154322Y-113436059D01*
X158135214Y-113389927D01*
X158135213Y-113389925D01*
X158065884Y-113286167D01*
X157783682Y-113003965D01*
X156887645Y-112107929D01*
X156783887Y-112038600D01*
X156668597Y-111990845D01*
X156594898Y-111976185D01*
X156546208Y-111966500D01*
X156546206Y-111966500D01*
X150962394Y-111966500D01*
X150837606Y-111966500D01*
X150837603Y-111966500D01*
X150786930Y-111976580D01*
X150715215Y-111990845D01*
X150715212Y-111990846D01*
X150709145Y-111992053D01*
X150708623Y-111989430D01*
X150649165Y-111989874D01*
X150589155Y-111951936D01*
X150560183Y-111893298D01*
X150548587Y-111835000D01*
X150480102Y-111669664D01*
X150380678Y-111520865D01*
X150254135Y-111394322D01*
X150105336Y-111294898D01*
X149966498Y-111237389D01*
X149940003Y-111226414D01*
X149940001Y-111226413D01*
X149940000Y-111226413D01*
X149851645Y-111208838D01*
X149764481Y-111191500D01*
X149764479Y-111191500D01*
X149585521Y-111191500D01*
X149585515Y-111191500D01*
X149507216Y-111207075D01*
X149436502Y-111200747D01*
X149380435Y-111157192D01*
X149364580Y-111127529D01*
X149325889Y-111023796D01*
X149325887Y-111023792D01*
X149238261Y-110906738D01*
X149121207Y-110819112D01*
X149121202Y-110819110D01*
X148984204Y-110768011D01*
X148984196Y-110768009D01*
X148923649Y-110761500D01*
X148923638Y-110761500D01*
X147226362Y-110761500D01*
X147226350Y-110761500D01*
X147165803Y-110768009D01*
X147165795Y-110768011D01*
X147028797Y-110819110D01*
X147028792Y-110819112D01*
X146911738Y-110906738D01*
X146886987Y-110939803D01*
X146830151Y-110982350D01*
X146810701Y-110987873D01*
X146747632Y-111000418D01*
X146695215Y-111010845D01*
X146695213Y-111010845D01*
X146695212Y-111010846D01*
X146579923Y-111058601D01*
X146476171Y-111127926D01*
X146476164Y-111127931D01*
X146007931Y-111596164D01*
X146007926Y-111596171D01*
X145938601Y-111699923D01*
X145890846Y-111815212D01*
X145866500Y-111937603D01*
X145866500Y-117796497D01*
X145846498Y-117864618D01*
X145829595Y-117885592D01*
X145794324Y-117920862D01*
X145794319Y-117920869D01*
X145710285Y-118046636D01*
X145694898Y-118069664D01*
X145688547Y-118084996D01*
X145626414Y-118234996D01*
X145626413Y-118234999D01*
X145626413Y-118235000D01*
X145623893Y-118247669D01*
X145591500Y-118410518D01*
X145591500Y-118589481D01*
X145607947Y-118672163D01*
X145622414Y-118744898D01*
X145626414Y-118765003D01*
X145646473Y-118813429D01*
X145694898Y-118930336D01*
X145794322Y-119079135D01*
X145920865Y-119205678D01*
X146069664Y-119305102D01*
X146235000Y-119373587D01*
X146410521Y-119408500D01*
X146410522Y-119408500D01*
X146589478Y-119408500D01*
X146589479Y-119408500D01*
X146765000Y-119373587D01*
X146930336Y-119305102D01*
X147079135Y-119205678D01*
X147104408Y-119180405D01*
X147166720Y-119146379D01*
X147193503Y-119143500D01*
X149991082Y-119143500D01*
X150059203Y-119163502D01*
X150105696Y-119217158D01*
X150115800Y-119287432D01*
X150114661Y-119294081D01*
X150091500Y-119410515D01*
X150091500Y-119589481D01*
X150126415Y-119765008D01*
X150127607Y-119768939D01*
X150128232Y-119839933D01*
X150090375Y-119899995D01*
X150026056Y-119930055D01*
X150007028Y-119931500D01*
X145374500Y-119931500D01*
X145306379Y-119911498D01*
X145259886Y-119857842D01*
X145248500Y-119805500D01*
X145248500Y-109704500D01*
X145268502Y-109636379D01*
X145322158Y-109589886D01*
X145374500Y-109578500D01*
X151038632Y-109578500D01*
X151038638Y-109578500D01*
X151038645Y-109578499D01*
X151038649Y-109578499D01*
X151099196Y-109571990D01*
X151099199Y-109571989D01*
X151099201Y-109571989D01*
X151104108Y-109570159D01*
X151118045Y-109564960D01*
X151236204Y-109520889D01*
X151247769Y-109512232D01*
X151353261Y-109433261D01*
X151440887Y-109316207D01*
X151440887Y-109316206D01*
X151440889Y-109316204D01*
X151491989Y-109179201D01*
X151492301Y-109176307D01*
X151498499Y-109118649D01*
X151498500Y-109118632D01*
X151498500Y-106025371D01*
X151518502Y-105957250D01*
X151572158Y-105910757D01*
X151642432Y-105900653D01*
X151707012Y-105930147D01*
X151713595Y-105936276D01*
X158804595Y-113027276D01*
X158838621Y-113089588D01*
X158841500Y-113116371D01*
X158841500Y-114648649D01*
X158848009Y-114709196D01*
X158848011Y-114709204D01*
X158899110Y-114846202D01*
X158899112Y-114846207D01*
X158986738Y-114963261D01*
X159103792Y-115050887D01*
X159103794Y-115050888D01*
X159103796Y-115050889D01*
X159155340Y-115070114D01*
X159240795Y-115101988D01*
X159240803Y-115101990D01*
X159301350Y-115108499D01*
X159301355Y-115108499D01*
X159301362Y-115108500D01*
X159301368Y-115108500D01*
X161098632Y-115108500D01*
X161098638Y-115108500D01*
X161098645Y-115108499D01*
X161098649Y-115108499D01*
X161159196Y-115101990D01*
X161159199Y-115101989D01*
X161159201Y-115101989D01*
X161296204Y-115050889D01*
X161337486Y-115019986D01*
X161413261Y-114963261D01*
X161500887Y-114846207D01*
X161500887Y-114846206D01*
X161500889Y-114846204D01*
X161544960Y-114728045D01*
X161551988Y-114709204D01*
X161551990Y-114709196D01*
X161558499Y-114648649D01*
X161558500Y-114648632D01*
X161558500Y-112835371D01*
X161578502Y-112767250D01*
X161632158Y-112720757D01*
X161702432Y-112710653D01*
X161767012Y-112740147D01*
X161773595Y-112746276D01*
X162054595Y-113027276D01*
X162088621Y-113089588D01*
X162091500Y-113116371D01*
X162091500Y-114648649D01*
X162098009Y-114709196D01*
X162098011Y-114709204D01*
X162149110Y-114846202D01*
X162149112Y-114846207D01*
X162236738Y-114963261D01*
X162353792Y-115050887D01*
X162353794Y-115050888D01*
X162353796Y-115050889D01*
X162405340Y-115070114D01*
X162490795Y-115101988D01*
X162490803Y-115101990D01*
X162551350Y-115108499D01*
X162551355Y-115108499D01*
X162551362Y-115108500D01*
X162551368Y-115108500D01*
X164348632Y-115108500D01*
X164348638Y-115108500D01*
X164348645Y-115108499D01*
X164348649Y-115108499D01*
X164409196Y-115101990D01*
X164409199Y-115101989D01*
X164409201Y-115101989D01*
X164546204Y-115050889D01*
X164587486Y-115019986D01*
X164663261Y-114963261D01*
X164750887Y-114846207D01*
X164750887Y-114846206D01*
X164750889Y-114846204D01*
X164794960Y-114728045D01*
X164801988Y-114709204D01*
X164801990Y-114709196D01*
X164808499Y-114648649D01*
X164808500Y-114648632D01*
X164808500Y-112051367D01*
X164808499Y-112051350D01*
X164801990Y-111990803D01*
X164801988Y-111990795D01*
X164761507Y-111882265D01*
X164750889Y-111853796D01*
X164750888Y-111853794D01*
X164750887Y-111853792D01*
X164663261Y-111736738D01*
X164546207Y-111649112D01*
X164546202Y-111649110D01*
X164409204Y-111598011D01*
X164409196Y-111598009D01*
X164348649Y-111591500D01*
X164348638Y-111591500D01*
X162816371Y-111591500D01*
X162748250Y-111571498D01*
X162727276Y-111554595D01*
X154095405Y-102922724D01*
X154061379Y-102860412D01*
X154058500Y-102833629D01*
X154058500Y-98039500D01*
X154078502Y-97971379D01*
X154132158Y-97924886D01*
X154184500Y-97913500D01*
X154988857Y-97913500D01*
X154988862Y-97913500D01*
X155098019Y-97901764D01*
X155149530Y-97890558D01*
X155253689Y-97855890D01*
X155376644Y-97776871D01*
X155376646Y-97776868D01*
X155376648Y-97776868D01*
X155403046Y-97753993D01*
X155429448Y-97731116D01*
X155525159Y-97620661D01*
X155585876Y-97487713D01*
X155605561Y-97420674D01*
X155605562Y-97420670D01*
X155626362Y-97276000D01*
X155626362Y-89324000D01*
X155614626Y-89214843D01*
X155603420Y-89163332D01*
X155568752Y-89059173D01*
X155489733Y-88936218D01*
X155489732Y-88936217D01*
X155489731Y-88936215D01*
X155489730Y-88936213D01*
X155443981Y-88883417D01*
X155427209Y-88868884D01*
X155333523Y-88787703D01*
X155200577Y-88726986D01*
X155133541Y-88707302D01*
X155133537Y-88707301D01*
X155133534Y-88707300D01*
X155133532Y-88707300D01*
X154988862Y-88686500D01*
X154184500Y-88686500D01*
X154116379Y-88666498D01*
X154069886Y-88612842D01*
X154058500Y-88560500D01*
X154058500Y-74025293D01*
X154058499Y-74025290D01*
X154029351Y-73878754D01*
X153972174Y-73740716D01*
X153889165Y-73616484D01*
X153783516Y-73510835D01*
X150066276Y-69793595D01*
X150032250Y-69731283D01*
X150037315Y-69660468D01*
X150079862Y-69603632D01*
X150146382Y-69578821D01*
X150155371Y-69578500D01*
X151038632Y-69578500D01*
X151038638Y-69578500D01*
X151038645Y-69578499D01*
X151038649Y-69578499D01*
X151099196Y-69571990D01*
X151099199Y-69571989D01*
X151099201Y-69571989D01*
X151236204Y-69520889D01*
X151353261Y-69433261D01*
X151440889Y-69316204D01*
X151491989Y-69179201D01*
X151498500Y-69118638D01*
X151498500Y-66021362D01*
X151498499Y-66021350D01*
X151491990Y-65960803D01*
X151491989Y-65960802D01*
X151491989Y-65960799D01*
X151486294Y-65945532D01*
X151481229Y-65874720D01*
X151515252Y-65812407D01*
X151577564Y-65778380D01*
X151604350Y-65775500D01*
X160745650Y-65775500D01*
X160813771Y-65795502D01*
G37*
%TD.AperFunction*%
%TA.AperFunction,Conductor*%
G36*
X150637821Y-115996123D02*
G01*
X150671472Y-115997927D01*
X150673665Y-115999116D01*
X150674989Y-115999227D01*
X150706259Y-116016788D01*
X150718374Y-116026084D01*
X150718378Y-116026087D01*
X150866281Y-116087350D01*
X150985155Y-116102999D01*
X151467302Y-116102999D01*
X151535423Y-116123001D01*
X151581916Y-116176656D01*
X151592020Y-116246930D01*
X151574543Y-116295145D01*
X151508343Y-116402472D01*
X151452606Y-116570678D01*
X151452605Y-116570681D01*
X151442000Y-116674483D01*
X151442000Y-116946000D01*
X152324000Y-116946000D01*
X152392121Y-116966002D01*
X152438614Y-117019658D01*
X152450000Y-117072000D01*
X152450000Y-117328000D01*
X152429998Y-117396121D01*
X152376342Y-117442614D01*
X152324000Y-117454000D01*
X151442000Y-117454000D01*
X151442000Y-117725507D01*
X151443245Y-117737694D01*
X151430270Y-117807495D01*
X151381617Y-117859200D01*
X151317897Y-117876500D01*
X147259500Y-117876500D01*
X147191379Y-117856498D01*
X147144886Y-117802842D01*
X147133500Y-117750500D01*
X147133500Y-116414500D01*
X147153502Y-116346379D01*
X147207158Y-116299886D01*
X147259500Y-116288500D01*
X147985405Y-116288500D01*
X148053526Y-116308502D01*
X148074500Y-116325405D01*
X148231167Y-116482072D01*
X148334925Y-116551401D01*
X148416447Y-116585168D01*
X148450215Y-116599155D01*
X148572606Y-116623500D01*
X148572607Y-116623500D01*
X148697394Y-116623500D01*
X148896497Y-116623500D01*
X148964618Y-116643502D01*
X148985592Y-116660405D01*
X149020865Y-116695678D01*
X149169664Y-116795102D01*
X149335000Y-116863587D01*
X149510521Y-116898500D01*
X149510522Y-116898500D01*
X149689478Y-116898500D01*
X149689479Y-116898500D01*
X149865000Y-116863587D01*
X150030336Y-116795102D01*
X150179135Y-116695678D01*
X150305678Y-116569135D01*
X150405102Y-116420336D01*
X150473587Y-116255000D01*
X150505976Y-116092166D01*
X150506876Y-116090445D01*
X150506761Y-116088503D01*
X150523257Y-116059128D01*
X150538882Y-116029259D01*
X150540573Y-116028295D01*
X150541526Y-116026600D01*
X150571283Y-116010807D01*
X150600577Y-115994127D01*
X150602520Y-115994231D01*
X150604239Y-115993319D01*
X150637821Y-115996123D01*
G37*
%TD.AperFunction*%
%TA.AperFunction,Conductor*%
G36*
X151854621Y-114173501D02*
G01*
X151901114Y-114227157D01*
X151912500Y-114279499D01*
X151912500Y-115269000D01*
X151892498Y-115337121D01*
X151838842Y-115383614D01*
X151786500Y-115395000D01*
X151638500Y-115395000D01*
X151570379Y-115374998D01*
X151523886Y-115321342D01*
X151512500Y-115269000D01*
X151512500Y-114279499D01*
X151515091Y-114270673D01*
X151513782Y-114261567D01*
X151524937Y-114237141D01*
X151532502Y-114211378D01*
X151539455Y-114205353D01*
X151543276Y-114196987D01*
X151565861Y-114182472D01*
X151586158Y-114164885D01*
X151596844Y-114162560D01*
X151603002Y-114158603D01*
X151638496Y-114153499D01*
X151786501Y-114153499D01*
X151854621Y-114173501D01*
G37*
%TD.AperFunction*%
%TA.AperFunction,Conductor*%
G36*
X149584534Y-113190539D02*
G01*
X149641369Y-113233086D01*
X149666179Y-113299607D01*
X149666500Y-113308594D01*
X149666500Y-114955500D01*
X149646498Y-115023621D01*
X149592842Y-115070114D01*
X149540500Y-115081500D01*
X149504331Y-115081500D01*
X149504331Y-115079198D01*
X149444675Y-115067876D01*
X149393154Y-115019029D01*
X149379785Y-114978241D01*
X149378803Y-114978474D01*
X149376988Y-114970795D01*
X149342009Y-114877014D01*
X149327574Y-114838316D01*
X149322509Y-114767502D01*
X149327575Y-114750251D01*
X149376494Y-114619096D01*
X149382999Y-114558597D01*
X149383000Y-114558585D01*
X149383000Y-114414000D01*
X148201000Y-114414000D01*
X148132879Y-114393998D01*
X148086386Y-114340342D01*
X148075000Y-114288000D01*
X148075000Y-114032000D01*
X148095002Y-113963879D01*
X148148658Y-113917386D01*
X148201000Y-113906000D01*
X149383000Y-113906000D01*
X149383000Y-113761414D01*
X149382999Y-113761402D01*
X149376494Y-113700903D01*
X149327575Y-113569748D01*
X149325849Y-113545626D01*
X149319678Y-113522243D01*
X149322967Y-113505345D01*
X149322509Y-113498932D01*
X149325758Y-113486899D01*
X149326602Y-113484291D01*
X149376989Y-113349201D01*
X149380290Y-113318494D01*
X149384303Y-113306102D01*
X149397263Y-113287106D01*
X149406063Y-113265861D01*
X149415063Y-113255840D01*
X149451408Y-113219495D01*
X149513718Y-113185473D01*
X149584534Y-113190539D01*
G37*
%TD.AperFunction*%
%TA.AperFunction,Conductor*%
G36*
X137443771Y-65795502D02*
G01*
X137490264Y-65849158D01*
X137500368Y-65919432D01*
X137493706Y-65945528D01*
X137488011Y-65960799D01*
X137488010Y-65960802D01*
X137488009Y-65960803D01*
X137481500Y-66021350D01*
X137481500Y-69118649D01*
X137488009Y-69179196D01*
X137488011Y-69179204D01*
X137539110Y-69316202D01*
X137539112Y-69316207D01*
X137626738Y-69433261D01*
X137743792Y-69520887D01*
X137743794Y-69520888D01*
X137743796Y-69520889D01*
X137802875Y-69542924D01*
X137880795Y-69571988D01*
X137880803Y-69571990D01*
X137941350Y-69578499D01*
X137941355Y-69578499D01*
X137941362Y-69578500D01*
X147653629Y-69578500D01*
X147721750Y-69598502D01*
X147742724Y-69615405D01*
X152504595Y-74377276D01*
X152538621Y-74439588D01*
X152541500Y-74466371D01*
X152541500Y-88560500D01*
X152521498Y-88628621D01*
X152467842Y-88675114D01*
X152415500Y-88686500D01*
X133923992Y-88686500D01*
X133830104Y-88696595D01*
X133814843Y-88698236D01*
X133814841Y-88698236D01*
X133814835Y-88698237D01*
X133763332Y-88709441D01*
X133659174Y-88744109D01*
X133536215Y-88823130D01*
X133536213Y-88823131D01*
X133483417Y-88868880D01*
X133387704Y-88979337D01*
X133387703Y-88979338D01*
X133326986Y-89112284D01*
X133307302Y-89179320D01*
X133307301Y-89179324D01*
X133307301Y-89179326D01*
X133307300Y-89179330D01*
X133286502Y-89323992D01*
X133286500Y-89324003D01*
X133286500Y-97276007D01*
X133298237Y-97385164D01*
X133309441Y-97436667D01*
X133344109Y-97540825D01*
X133423130Y-97663784D01*
X133423131Y-97663786D01*
X133468880Y-97716582D01*
X133468882Y-97716583D01*
X133468884Y-97716586D01*
X133579339Y-97812297D01*
X133658416Y-97848411D01*
X133712284Y-97873013D01*
X133712286Y-97873013D01*
X133712287Y-97873014D01*
X133779326Y-97892699D01*
X133779330Y-97892700D01*
X133924000Y-97913500D01*
X133924004Y-97913500D01*
X152415500Y-97913500D01*
X152483621Y-97933502D01*
X152530114Y-97987158D01*
X152541500Y-98039500D01*
X152541500Y-103125295D01*
X152541500Y-103274705D01*
X152570649Y-103421247D01*
X152627826Y-103559284D01*
X152710834Y-103683515D01*
X152710838Y-103683519D01*
X160403724Y-111376405D01*
X160437750Y-111438717D01*
X160432685Y-111509532D01*
X160390138Y-111566368D01*
X160323618Y-111591179D01*
X160314629Y-111591500D01*
X159566371Y-111591500D01*
X159498250Y-111571498D01*
X159477276Y-111554595D01*
X149433519Y-101510838D01*
X149433515Y-101510834D01*
X149309284Y-101427826D01*
X149171247Y-101370649D01*
X149097976Y-101356074D01*
X149097975Y-101356073D01*
X149024711Y-101341500D01*
X149024706Y-101341500D01*
X132916371Y-101341500D01*
X132848250Y-101321498D01*
X132827276Y-101304595D01*
X122045405Y-90522724D01*
X122011379Y-90460412D01*
X122008500Y-90433629D01*
X122008500Y-76444167D01*
X136824500Y-76444167D01*
X136824500Y-82755832D01*
X136860681Y-83065378D01*
X136860682Y-83065384D01*
X136932557Y-83368645D01*
X136932558Y-83368650D01*
X137039146Y-83661497D01*
X137039151Y-83661509D01*
X137179024Y-83940021D01*
X137350279Y-84200400D01*
X137550610Y-84439147D01*
X137777310Y-84653028D01*
X137920893Y-84759921D01*
X138027297Y-84839136D01*
X138297203Y-84994966D01*
X138583374Y-85118408D01*
X138881942Y-85207793D01*
X139188867Y-85261913D01*
X139500000Y-85280034D01*
X139811133Y-85261913D01*
X140118058Y-85207793D01*
X140416626Y-85118408D01*
X140702797Y-84994966D01*
X140972703Y-84839136D01*
X141222693Y-84653025D01*
X141449386Y-84439151D01*
X141649717Y-84200405D01*
X141820978Y-83940017D01*
X141960850Y-83661507D01*
X142067444Y-83368642D01*
X142139318Y-83065383D01*
X142175500Y-82755830D01*
X142175500Y-82600000D01*
X142175500Y-82591715D01*
X142175500Y-76589438D01*
X142175500Y-76444170D01*
X142175500Y-76444167D01*
X146824500Y-76444167D01*
X146824500Y-82755832D01*
X146860681Y-83065378D01*
X146860682Y-83065384D01*
X146932557Y-83368645D01*
X146932558Y-83368650D01*
X147039146Y-83661497D01*
X147039151Y-83661509D01*
X147179024Y-83940021D01*
X147350279Y-84200400D01*
X147550610Y-84439147D01*
X147777310Y-84653028D01*
X147920893Y-84759921D01*
X148027297Y-84839136D01*
X148297203Y-84994966D01*
X148583374Y-85118408D01*
X148881942Y-85207793D01*
X149188867Y-85261913D01*
X149500000Y-85280034D01*
X149811133Y-85261913D01*
X150118058Y-85207793D01*
X150416626Y-85118408D01*
X150702797Y-84994966D01*
X150972703Y-84839136D01*
X151222693Y-84653025D01*
X151449386Y-84439151D01*
X151649717Y-84200405D01*
X151820978Y-83940017D01*
X151960850Y-83661507D01*
X152067444Y-83368642D01*
X152139318Y-83065383D01*
X152175500Y-82755830D01*
X152175500Y-82600000D01*
X152175500Y-82591715D01*
X152175500Y-76589438D01*
X152175500Y-76444170D01*
X152173525Y-76427276D01*
X152139318Y-76134621D01*
X152139318Y-76134617D01*
X152067444Y-75831358D01*
X151960850Y-75538493D01*
X151820978Y-75259983D01*
X151820975Y-75259978D01*
X151649720Y-74999599D01*
X151449389Y-74760852D01*
X151222689Y-74546971D01*
X150972718Y-74360875D01*
X150972715Y-74360873D01*
X150972703Y-74360864D01*
X150702797Y-74205034D01*
X150702798Y-74205034D01*
X150702794Y-74205032D01*
X150416633Y-74081595D01*
X150416632Y-74081594D01*
X150416626Y-74081592D01*
X150118058Y-73992207D01*
X150118059Y-73992207D01*
X150023309Y-73975500D01*
X149811133Y-73938087D01*
X149811129Y-73938086D01*
X149811125Y-73938086D01*
X149500000Y-73919966D01*
X149188877Y-73938086D01*
X149188871Y-73938086D01*
X148881941Y-73992207D01*
X148771423Y-74025294D01*
X148583374Y-74081592D01*
X148583372Y-74081593D01*
X148583366Y-74081595D01*
X148297205Y-74205032D01*
X148297200Y-74205035D01*
X148027308Y-74360857D01*
X148027281Y-74360875D01*
X147777310Y-74546971D01*
X147550610Y-74760852D01*
X147350279Y-74999599D01*
X147179024Y-75259978D01*
X147039151Y-75538490D01*
X147039146Y-75538502D01*
X146932558Y-75831349D01*
X146932557Y-75831354D01*
X146860682Y-76134615D01*
X146860681Y-76134621D01*
X146824500Y-76444167D01*
X142175500Y-76444167D01*
X142173525Y-76427276D01*
X142139318Y-76134621D01*
X142139318Y-76134617D01*
X142067444Y-75831358D01*
X141960850Y-75538493D01*
X141820978Y-75259983D01*
X141820975Y-75259978D01*
X141649720Y-74999599D01*
X141449389Y-74760852D01*
X141222689Y-74546971D01*
X140972718Y-74360875D01*
X140972715Y-74360873D01*
X140972703Y-74360864D01*
X140702797Y-74205034D01*
X140702798Y-74205034D01*
X140702794Y-74205032D01*
X140416633Y-74081595D01*
X140416632Y-74081594D01*
X140416626Y-74081592D01*
X140118058Y-73992207D01*
X140118059Y-73992207D01*
X140023309Y-73975500D01*
X139811133Y-73938087D01*
X139811129Y-73938086D01*
X139811125Y-73938086D01*
X139500000Y-73919966D01*
X139188877Y-73938086D01*
X139188871Y-73938086D01*
X138881941Y-73992207D01*
X138771423Y-74025294D01*
X138583374Y-74081592D01*
X138583372Y-74081593D01*
X138583366Y-74081595D01*
X138297205Y-74205032D01*
X138297200Y-74205035D01*
X138027308Y-74360857D01*
X138027281Y-74360875D01*
X137777310Y-74546971D01*
X137550610Y-74760852D01*
X137350279Y-74999599D01*
X137179024Y-75259978D01*
X137039151Y-75538490D01*
X137039146Y-75538502D01*
X136932558Y-75831349D01*
X136932557Y-75831354D01*
X136860682Y-76134615D01*
X136860681Y-76134621D01*
X136824500Y-76444167D01*
X122008500Y-76444167D01*
X122008500Y-69704500D01*
X122028502Y-69636379D01*
X122082158Y-69589886D01*
X122134500Y-69578500D01*
X127638632Y-69578500D01*
X127638638Y-69578500D01*
X127638645Y-69578499D01*
X127638649Y-69578499D01*
X127699196Y-69571990D01*
X127699199Y-69571989D01*
X127699201Y-69571989D01*
X127836204Y-69520889D01*
X127953261Y-69433261D01*
X128040889Y-69316204D01*
X128091989Y-69179201D01*
X128098500Y-69118638D01*
X128098500Y-66021362D01*
X128098499Y-66021350D01*
X128091990Y-65960803D01*
X128091989Y-65960802D01*
X128091989Y-65960799D01*
X128086294Y-65945532D01*
X128081229Y-65874720D01*
X128115252Y-65812407D01*
X128177564Y-65778380D01*
X128204350Y-65775500D01*
X137375650Y-65775500D01*
X137443771Y-65795502D01*
G37*
%TD.AperFunction*%
%TD*%
%TA.AperFunction,NonConductor*%
G36*
X152294996Y-124019685D02*
G01*
X152340751Y-124072489D01*
X152350695Y-124141647D01*
X152321670Y-124205203D01*
X152315638Y-124211681D01*
X148422138Y-128105181D01*
X148360815Y-128138666D01*
X148334457Y-128141500D01*
X143177103Y-128141500D01*
X143110064Y-128121815D01*
X143064309Y-128069011D01*
X143054365Y-127999853D01*
X143083390Y-127936297D01*
X143142168Y-127898523D01*
X143152912Y-127895883D01*
X143204299Y-127885660D01*
X143265000Y-127873587D01*
X143430336Y-127805102D01*
X143579135Y-127705678D01*
X143705678Y-127579135D01*
X143805102Y-127430336D01*
X143873587Y-127265000D01*
X143908500Y-127089479D01*
X143908500Y-126910521D01*
X143873587Y-126735000D01*
X143805102Y-126569664D01*
X143805100Y-126569661D01*
X143805098Y-126569657D01*
X143705678Y-126420865D01*
X143705675Y-126420861D01*
X143579138Y-126294324D01*
X143579134Y-126294321D01*
X143430342Y-126194901D01*
X143430332Y-126194896D01*
X143265000Y-126126413D01*
X143264992Y-126126411D01*
X143089483Y-126091500D01*
X143089479Y-126091500D01*
X142910521Y-126091500D01*
X142910516Y-126091500D01*
X142735007Y-126126411D01*
X142734999Y-126126413D01*
X142569667Y-126194896D01*
X142569657Y-126194901D01*
X142420865Y-126294321D01*
X142420861Y-126294324D01*
X142294324Y-126420861D01*
X142294321Y-126420865D01*
X142194901Y-126569657D01*
X142194896Y-126569667D01*
X142126413Y-126734999D01*
X142126411Y-126735007D01*
X142091500Y-126910516D01*
X142091500Y-127089483D01*
X142126411Y-127264992D01*
X142126413Y-127265000D01*
X142194896Y-127430332D01*
X142194901Y-127430342D01*
X142284556Y-127564520D01*
X142305434Y-127631198D01*
X142286949Y-127698578D01*
X142234970Y-127745268D01*
X142166000Y-127756444D01*
X142101937Y-127728558D01*
X142093773Y-127721092D01*
X140544819Y-126172138D01*
X140511334Y-126110815D01*
X140508500Y-126084457D01*
X140508500Y-124987696D01*
X140528185Y-124920657D01*
X140529370Y-124918846D01*
X140555102Y-124880336D01*
X140623587Y-124715000D01*
X140658500Y-124539479D01*
X140658500Y-124360521D01*
X140623587Y-124185000D01*
X140617975Y-124171453D01*
X140610506Y-124101986D01*
X140641779Y-124039506D01*
X140701868Y-124003852D01*
X140732536Y-124000000D01*
X152227957Y-124000000D01*
X152294996Y-124019685D01*
G37*
%TD.AperFunction*%
%TA.AperFunction,NonConductor*%
G36*
X142426015Y-127709713D02*
G01*
X142435479Y-127715443D01*
X142569657Y-127805098D01*
X142569661Y-127805100D01*
X142569664Y-127805102D01*
X142735000Y-127873587D01*
X142784253Y-127883384D01*
X142847088Y-127895883D01*
X142908999Y-127928268D01*
X142943573Y-127988983D01*
X142939834Y-128058753D01*
X142898968Y-128115425D01*
X142833949Y-128141006D01*
X142822897Y-128141500D01*
X142565543Y-128141500D01*
X142498504Y-128121815D01*
X142477862Y-128105181D01*
X142278907Y-127906226D01*
X142245422Y-127844903D01*
X142250406Y-127775211D01*
X142292278Y-127719278D01*
X142357742Y-127694861D01*
X142426015Y-127709713D01*
G37*
%TD.AperFunction*%
%TA.AperFunction,NonConductor*%
G36*
X138834503Y-124019685D02*
G01*
X138880258Y-124072489D01*
X138890202Y-124141647D01*
X138882024Y-124171455D01*
X138876413Y-124184999D01*
X138876411Y-124185007D01*
X138841500Y-124360516D01*
X138841500Y-124539483D01*
X138876411Y-124714992D01*
X138876413Y-124715000D01*
X138944898Y-124880336D01*
X138970602Y-124918805D01*
X138991480Y-124985482D01*
X138991500Y-124987696D01*
X138991500Y-126524709D01*
X139020647Y-126671239D01*
X139020649Y-126671247D01*
X139077825Y-126809282D01*
X139160835Y-126933517D01*
X139160836Y-126933518D01*
X140818819Y-128591500D01*
X141610834Y-129383515D01*
X141610835Y-129383516D01*
X141716484Y-129489165D01*
X141716487Y-129489167D01*
X141716488Y-129489168D01*
X141840705Y-129572167D01*
X141840708Y-129572168D01*
X141840716Y-129572174D01*
X141921576Y-129605667D01*
X141978753Y-129629351D01*
X142052024Y-129643925D01*
X142125294Y-129658500D01*
X148774706Y-129658500D01*
X148847976Y-129643925D01*
X148847977Y-129643925D01*
X148866419Y-129640256D01*
X148921247Y-129629351D01*
X149059284Y-129572174D01*
X149183515Y-129489166D01*
X154636362Y-124036319D01*
X154697685Y-124002834D01*
X154724043Y-124000000D01*
X161748638Y-124000000D01*
X161778078Y-124008644D01*
X161808065Y-124015168D01*
X161813080Y-124018922D01*
X161815677Y-124019685D01*
X161836319Y-124036319D01*
X161863681Y-124063681D01*
X161897166Y-124125004D01*
X161900000Y-124151362D01*
X161900000Y-143248638D01*
X161880315Y-143315677D01*
X161863681Y-143336319D01*
X161736319Y-143463681D01*
X161674996Y-143497166D01*
X161648638Y-143500000D01*
X126324000Y-143500000D01*
X126256961Y-143480315D01*
X126211206Y-143427511D01*
X126200000Y-143376000D01*
X126200000Y-130910516D01*
X149091500Y-130910516D01*
X149091500Y-131089483D01*
X149126411Y-131264992D01*
X149126413Y-131265000D01*
X149194896Y-131430332D01*
X149194901Y-131430342D01*
X149294321Y-131579134D01*
X149294324Y-131579138D01*
X149420861Y-131705675D01*
X149420865Y-131705678D01*
X149569657Y-131805098D01*
X149569661Y-131805100D01*
X149569664Y-131805102D01*
X149735000Y-131873587D01*
X149910516Y-131908499D01*
X149910520Y-131908500D01*
X149910521Y-131908500D01*
X150089480Y-131908500D01*
X150089481Y-131908499D01*
X150265000Y-131873587D01*
X150430336Y-131805102D01*
X150579135Y-131705678D01*
X150705678Y-131579135D01*
X150805102Y-131430336D01*
X150873587Y-131265000D01*
X150908500Y-131089479D01*
X150908500Y-130910521D01*
X150873587Y-130735000D01*
X150805102Y-130569664D01*
X150805100Y-130569661D01*
X150805098Y-130569657D01*
X150705678Y-130420865D01*
X150705675Y-130420861D01*
X150579138Y-130294324D01*
X150579134Y-130294321D01*
X150430342Y-130194901D01*
X150430332Y-130194896D01*
X150265000Y-130126413D01*
X150264992Y-130126411D01*
X150089483Y-130091500D01*
X150089479Y-130091500D01*
X149910521Y-130091500D01*
X149910516Y-130091500D01*
X149735007Y-130126411D01*
X149734999Y-130126413D01*
X149569667Y-130194896D01*
X149569657Y-130194901D01*
X149420865Y-130294321D01*
X149420861Y-130294324D01*
X149294324Y-130420861D01*
X149294321Y-130420865D01*
X149194901Y-130569657D01*
X149194896Y-130569667D01*
X149126413Y-130734999D01*
X149126411Y-130735007D01*
X149091500Y-130910516D01*
X126200000Y-130910516D01*
X126200000Y-129410516D01*
X138591500Y-129410516D01*
X138591500Y-129589483D01*
X138626411Y-129764992D01*
X138626413Y-129765000D01*
X138694896Y-129930332D01*
X138694901Y-129930342D01*
X138794321Y-130079134D01*
X138794324Y-130079138D01*
X138920861Y-130205675D01*
X138920865Y-130205678D01*
X139069657Y-130305098D01*
X139069661Y-130305100D01*
X139069664Y-130305102D01*
X139235000Y-130373587D01*
X139410516Y-130408499D01*
X139410520Y-130408500D01*
X139410521Y-130408500D01*
X139589480Y-130408500D01*
X139589481Y-130408499D01*
X139765000Y-130373587D01*
X139930336Y-130305102D01*
X140079135Y-130205678D01*
X140205678Y-130079135D01*
X140305102Y-129930336D01*
X140373587Y-129765000D01*
X140408500Y-129589479D01*
X140408500Y-129410521D01*
X140373587Y-129235000D01*
X140305102Y-129069664D01*
X140305100Y-129069661D01*
X140305098Y-129069657D01*
X140205678Y-128920865D01*
X140205675Y-128920861D01*
X140079138Y-128794324D01*
X140079134Y-128794321D01*
X139930342Y-128694901D01*
X139930332Y-128694896D01*
X139765000Y-128626413D01*
X139764992Y-128626411D01*
X139589483Y-128591500D01*
X139589479Y-128591500D01*
X139410521Y-128591500D01*
X139410516Y-128591500D01*
X139235007Y-128626411D01*
X139234999Y-128626413D01*
X139069667Y-128694896D01*
X139069657Y-128694901D01*
X138920865Y-128794321D01*
X138920861Y-128794324D01*
X138794324Y-128920861D01*
X138794321Y-128920865D01*
X138694901Y-129069657D01*
X138694896Y-129069667D01*
X138626413Y-129234999D01*
X138626411Y-129235007D01*
X138591500Y-129410516D01*
X126200000Y-129410516D01*
X126200000Y-124151362D01*
X126208644Y-124121921D01*
X126215168Y-124091935D01*
X126218922Y-124086919D01*
X126219685Y-124084323D01*
X126236319Y-124063681D01*
X126263681Y-124036319D01*
X126325004Y-124002834D01*
X126351362Y-124000000D01*
X138767464Y-124000000D01*
X138834503Y-124019685D01*
G37*
%TD.AperFunction*%
%TA.AperFunction,NonConductor*%
G36*
X155055901Y-89219685D02*
G01*
X155101656Y-89272489D01*
X155112862Y-89324000D01*
X155112862Y-97276000D01*
X155093177Y-97343039D01*
X155040373Y-97388794D01*
X154988862Y-97400000D01*
X154900000Y-97400000D01*
X154182500Y-97400000D01*
X154115461Y-97380315D01*
X154069706Y-97327511D01*
X154058500Y-97276000D01*
X154058500Y-89324000D01*
X154078185Y-89256961D01*
X154130989Y-89211206D01*
X154182500Y-89200000D01*
X154988862Y-89200000D01*
X155055901Y-89219685D01*
G37*
%TD.AperFunction*%
%TA.AperFunction,NonConductor*%
G36*
X152484539Y-89219685D02*
G01*
X152530294Y-89272489D01*
X152541500Y-89324000D01*
X152541500Y-97276000D01*
X152521815Y-97343039D01*
X152469011Y-97388794D01*
X152417500Y-97400000D01*
X133924000Y-97400000D01*
X133856961Y-97380315D01*
X133811206Y-97327511D01*
X133800000Y-97276000D01*
X133800000Y-89324000D01*
X133819685Y-89256961D01*
X133872489Y-89211206D01*
X133924000Y-89200000D01*
X152417500Y-89200000D01*
X152484539Y-89219685D01*
G37*
%TD.AperFunction*%
D23*
X136850000Y-153000000D02*
X136850000Y-147000000D01*
X142150000Y-153000000D02*
X142150000Y-147000000D01*
X146850000Y-147000000D02*
X146850000Y-153000000D01*
X152150000Y-153000000D02*
X152150000Y-147000000D01*
X142150000Y-76600000D02*
X142150000Y-82600000D01*
X136850000Y-76600000D02*
X136850000Y-82600000D01*
X146850000Y-76600000D02*
X146850000Y-82600000D01*
X152150000Y-76600000D02*
X152150000Y-82600000D01*
X142150000Y-82600000D02*
G75*
G02*
X136850000Y-82600000I-2650000J0D01*
G01*
D24*
X106350000Y-65750000D02*
X182650000Y-65750000D01*
X182650000Y-163750000D01*
X106350000Y-163750000D01*
X106350000Y-65750000D01*
D23*
X133075000Y-117262500D02*
G75*
G02*
X130075000Y-120262500I-3000000J0D01*
G01*
X146850000Y-76600000D02*
G75*
G02*
X152150000Y-76600000I2650000J0D01*
G01*
X136850000Y-76600000D02*
G75*
G02*
X142150000Y-76600000I2650000J0D01*
G01*
X125050000Y-120262500D02*
G75*
G02*
X125050000Y-109287500I12500J5487500D01*
G01*
X136850000Y-147000000D02*
G75*
G02*
X142150000Y-147000000I2650000J0D01*
G01*
X125050000Y-120262500D02*
X130075000Y-120262500D01*
X142150000Y-153000000D02*
G75*
G02*
X136850000Y-153000000I-2650000J0D01*
G01*
D25*
X111087500Y-98250000D02*
G75*
G02*
X108212500Y-98250000I-1437500J0D01*
G01*
X108212500Y-98250000D02*
G75*
G02*
X111087500Y-98250000I1437500J0D01*
G01*
D23*
X146850000Y-147000000D02*
G75*
G02*
X152150000Y-147000000I2650000J0D01*
G01*
D25*
X111087500Y-110250000D02*
G75*
G02*
X108212500Y-110250000I-1437500J0D01*
G01*
X108212500Y-110250000D02*
G75*
G02*
X111087500Y-110250000I1437500J0D01*
G01*
X111087500Y-122250000D02*
G75*
G02*
X108212500Y-122250000I-1437500J0D01*
G01*
X108212500Y-122250000D02*
G75*
G02*
X111087500Y-122250000I1437500J0D01*
G01*
D23*
X152150000Y-153000000D02*
G75*
G02*
X146850000Y-153000000I-2650000J0D01*
G01*
X125050000Y-109287500D02*
X130075000Y-109287500D01*
D25*
X178462500Y-116250000D02*
G75*
G02*
X175587500Y-116250000I-1437500J0D01*
G01*
X175587500Y-116250000D02*
G75*
G02*
X178462500Y-116250000I1437500J0D01*
G01*
D23*
X133075000Y-117262500D02*
X133075000Y-112287500D01*
X152150000Y-82600000D02*
G75*
G02*
X146850000Y-82600000I-2650000J0D01*
G01*
X130075000Y-109287500D02*
G75*
G02*
X133075000Y-112287500I0J-3000000D01*
G01*
M02*
