%TF.GenerationSoftware,KiCad,Pcbnew,9.0.0*%
%TF.CreationDate,2025-04-21T01:21:51-04:00*%
%TF.ProjectId,xy_faces_CUpayload_v2,78795f66-6163-4657-935f-43557061796c,3.0*%
%TF.SameCoordinates,Original*%
%TF.FileFunction,Legend,Bot*%
%TF.FilePolarity,Positive*%
%FSLAX46Y46*%
G04 Gerber Fmt 4.6, Leading zero omitted, Abs format (unit mm)*
G04 Created by KiCad (PCBNEW 9.0.0) date 2025-04-21 01:21:51*
%MOMM*%
%LPD*%
G01*
G04 APERTURE LIST*
%ADD10C,0.150000*%
%ADD11C,0.250000*%
%TA.AperFunction,Profile*%
%ADD12C,0.050000*%
%TD*%
%TA.AperFunction,Profile*%
%ADD13C,0.100000*%
%TD*%
%TA.AperFunction,Profile*%
%ADD14C,0.200000*%
%TD*%
G04 APERTURE END LIST*
D10*
X130735180Y-129386666D02*
X129735180Y-129053333D01*
X129735180Y-129053333D02*
X130735180Y-128720000D01*
X129782800Y-128434285D02*
X129735180Y-128291428D01*
X129735180Y-128291428D02*
X129735180Y-128053333D01*
X129735180Y-128053333D02*
X129782800Y-127958095D01*
X129782800Y-127958095D02*
X129830419Y-127910476D01*
X129830419Y-127910476D02*
X129925657Y-127862857D01*
X129925657Y-127862857D02*
X130020895Y-127862857D01*
X130020895Y-127862857D02*
X130116133Y-127910476D01*
X130116133Y-127910476D02*
X130163752Y-127958095D01*
X130163752Y-127958095D02*
X130211371Y-128053333D01*
X130211371Y-128053333D02*
X130258990Y-128243809D01*
X130258990Y-128243809D02*
X130306609Y-128339047D01*
X130306609Y-128339047D02*
X130354228Y-128386666D01*
X130354228Y-128386666D02*
X130449466Y-128434285D01*
X130449466Y-128434285D02*
X130544704Y-128434285D01*
X130544704Y-128434285D02*
X130639942Y-128386666D01*
X130639942Y-128386666D02*
X130687561Y-128339047D01*
X130687561Y-128339047D02*
X130735180Y-128243809D01*
X130735180Y-128243809D02*
X130735180Y-128005714D01*
X130735180Y-128005714D02*
X130687561Y-127862857D01*
X130735180Y-127243809D02*
X130735180Y-127053333D01*
X130735180Y-127053333D02*
X130687561Y-126958095D01*
X130687561Y-126958095D02*
X130592323Y-126862857D01*
X130592323Y-126862857D02*
X130401847Y-126815238D01*
X130401847Y-126815238D02*
X130068514Y-126815238D01*
X130068514Y-126815238D02*
X129878038Y-126862857D01*
X129878038Y-126862857D02*
X129782800Y-126958095D01*
X129782800Y-126958095D02*
X129735180Y-127053333D01*
X129735180Y-127053333D02*
X129735180Y-127243809D01*
X129735180Y-127243809D02*
X129782800Y-127339047D01*
X129782800Y-127339047D02*
X129878038Y-127434285D01*
X129878038Y-127434285D02*
X130068514Y-127481904D01*
X130068514Y-127481904D02*
X130401847Y-127481904D01*
X130401847Y-127481904D02*
X130592323Y-127434285D01*
X130592323Y-127434285D02*
X130687561Y-127339047D01*
X130687561Y-127339047D02*
X130735180Y-127243809D01*
X129735180Y-125910476D02*
X129735180Y-126386666D01*
X129735180Y-126386666D02*
X130735180Y-126386666D01*
X130020895Y-125624761D02*
X130020895Y-125148571D01*
X129735180Y-125719999D02*
X130735180Y-125386666D01*
X130735180Y-125386666D02*
X129735180Y-125053333D01*
X129735180Y-124148571D02*
X130211371Y-124481904D01*
X129735180Y-124719999D02*
X130735180Y-124719999D01*
X130735180Y-124719999D02*
X130735180Y-124339047D01*
X130735180Y-124339047D02*
X130687561Y-124243809D01*
X130687561Y-124243809D02*
X130639942Y-124196190D01*
X130639942Y-124196190D02*
X130544704Y-124148571D01*
X130544704Y-124148571D02*
X130401847Y-124148571D01*
X130401847Y-124148571D02*
X130306609Y-124196190D01*
X130306609Y-124196190D02*
X130258990Y-124243809D01*
X130258990Y-124243809D02*
X130211371Y-124339047D01*
X130211371Y-124339047D02*
X130211371Y-124719999D01*
X132977257Y-68139903D02*
X132977257Y-67139903D01*
X132977257Y-67139903D02*
X132596305Y-67139903D01*
X132596305Y-67139903D02*
X132501067Y-67187522D01*
X132501067Y-67187522D02*
X132453448Y-67235141D01*
X132453448Y-67235141D02*
X132405829Y-67330379D01*
X132405829Y-67330379D02*
X132405829Y-67473236D01*
X132405829Y-67473236D02*
X132453448Y-67568474D01*
X132453448Y-67568474D02*
X132501067Y-67616093D01*
X132501067Y-67616093D02*
X132596305Y-67663712D01*
X132596305Y-67663712D02*
X132977257Y-67663712D01*
X131405829Y-68139903D02*
X131739162Y-67663712D01*
X131977257Y-68139903D02*
X131977257Y-67139903D01*
X131977257Y-67139903D02*
X131596305Y-67139903D01*
X131596305Y-67139903D02*
X131501067Y-67187522D01*
X131501067Y-67187522D02*
X131453448Y-67235141D01*
X131453448Y-67235141D02*
X131405829Y-67330379D01*
X131405829Y-67330379D02*
X131405829Y-67473236D01*
X131405829Y-67473236D02*
X131453448Y-67568474D01*
X131453448Y-67568474D02*
X131501067Y-67616093D01*
X131501067Y-67616093D02*
X131596305Y-67663712D01*
X131596305Y-67663712D02*
X131977257Y-67663712D01*
X130786781Y-67139903D02*
X130596305Y-67139903D01*
X130596305Y-67139903D02*
X130501067Y-67187522D01*
X130501067Y-67187522D02*
X130405829Y-67282760D01*
X130405829Y-67282760D02*
X130358210Y-67473236D01*
X130358210Y-67473236D02*
X130358210Y-67806569D01*
X130358210Y-67806569D02*
X130405829Y-67997045D01*
X130405829Y-67997045D02*
X130501067Y-68092284D01*
X130501067Y-68092284D02*
X130596305Y-68139903D01*
X130596305Y-68139903D02*
X130786781Y-68139903D01*
X130786781Y-68139903D02*
X130882019Y-68092284D01*
X130882019Y-68092284D02*
X130977257Y-67997045D01*
X130977257Y-67997045D02*
X131024876Y-67806569D01*
X131024876Y-67806569D02*
X131024876Y-67473236D01*
X131024876Y-67473236D02*
X130977257Y-67282760D01*
X130977257Y-67282760D02*
X130882019Y-67187522D01*
X130882019Y-67187522D02*
X130786781Y-67139903D01*
X130072495Y-67139903D02*
X129739162Y-68139903D01*
X129739162Y-68139903D02*
X129405829Y-67139903D01*
X129072495Y-67616093D02*
X128739162Y-67616093D01*
X128596305Y-68139903D02*
X129072495Y-68139903D01*
X129072495Y-68139903D02*
X129072495Y-67139903D01*
X129072495Y-67139903D02*
X128596305Y-67139903D01*
X128215352Y-68092284D02*
X128072495Y-68139903D01*
X128072495Y-68139903D02*
X127834400Y-68139903D01*
X127834400Y-68139903D02*
X127739162Y-68092284D01*
X127739162Y-68092284D02*
X127691543Y-68044664D01*
X127691543Y-68044664D02*
X127643924Y-67949426D01*
X127643924Y-67949426D02*
X127643924Y-67854188D01*
X127643924Y-67854188D02*
X127691543Y-67758950D01*
X127691543Y-67758950D02*
X127739162Y-67711331D01*
X127739162Y-67711331D02*
X127834400Y-67663712D01*
X127834400Y-67663712D02*
X128024876Y-67616093D01*
X128024876Y-67616093D02*
X128120114Y-67568474D01*
X128120114Y-67568474D02*
X128167733Y-67520855D01*
X128167733Y-67520855D02*
X128215352Y-67425617D01*
X128215352Y-67425617D02*
X128215352Y-67330379D01*
X128215352Y-67330379D02*
X128167733Y-67235141D01*
X128167733Y-67235141D02*
X128120114Y-67187522D01*
X128120114Y-67187522D02*
X128024876Y-67139903D01*
X128024876Y-67139903D02*
X127786781Y-67139903D01*
X127786781Y-67139903D02*
X127643924Y-67187522D01*
X126548685Y-67139903D02*
X125882019Y-68139903D01*
X125882019Y-67139903D02*
X126548685Y-68139903D01*
X125310590Y-67663712D02*
X125310590Y-68139903D01*
X125643923Y-67139903D02*
X125310590Y-67663712D01*
X125310590Y-67663712D02*
X124977257Y-67139903D01*
X123882018Y-68139903D02*
X123882018Y-67139903D01*
X123882018Y-67139903D02*
X123643923Y-67139903D01*
X123643923Y-67139903D02*
X123501066Y-67187522D01*
X123501066Y-67187522D02*
X123405828Y-67282760D01*
X123405828Y-67282760D02*
X123358209Y-67377998D01*
X123358209Y-67377998D02*
X123310590Y-67568474D01*
X123310590Y-67568474D02*
X123310590Y-67711331D01*
X123310590Y-67711331D02*
X123358209Y-67901807D01*
X123358209Y-67901807D02*
X123405828Y-67997045D01*
X123405828Y-67997045D02*
X123501066Y-68092284D01*
X123501066Y-68092284D02*
X123643923Y-68139903D01*
X123643923Y-68139903D02*
X123882018Y-68139903D01*
X122882018Y-67616093D02*
X122548685Y-67616093D01*
X122405828Y-68139903D02*
X122882018Y-68139903D01*
X122882018Y-68139903D02*
X122882018Y-67139903D01*
X122882018Y-67139903D02*
X122405828Y-67139903D01*
X121977256Y-68139903D02*
X121977256Y-67139903D01*
X121977256Y-67139903D02*
X121596304Y-67139903D01*
X121596304Y-67139903D02*
X121501066Y-67187522D01*
X121501066Y-67187522D02*
X121453447Y-67235141D01*
X121453447Y-67235141D02*
X121405828Y-67330379D01*
X121405828Y-67330379D02*
X121405828Y-67473236D01*
X121405828Y-67473236D02*
X121453447Y-67568474D01*
X121453447Y-67568474D02*
X121501066Y-67616093D01*
X121501066Y-67616093D02*
X121596304Y-67663712D01*
X121596304Y-67663712D02*
X121977256Y-67663712D01*
X120501066Y-68139903D02*
X120977256Y-68139903D01*
X120977256Y-68139903D02*
X120977256Y-67139903D01*
X119977256Y-67139903D02*
X119786780Y-67139903D01*
X119786780Y-67139903D02*
X119691542Y-67187522D01*
X119691542Y-67187522D02*
X119596304Y-67282760D01*
X119596304Y-67282760D02*
X119548685Y-67473236D01*
X119548685Y-67473236D02*
X119548685Y-67806569D01*
X119548685Y-67806569D02*
X119596304Y-67997045D01*
X119596304Y-67997045D02*
X119691542Y-68092284D01*
X119691542Y-68092284D02*
X119786780Y-68139903D01*
X119786780Y-68139903D02*
X119977256Y-68139903D01*
X119977256Y-68139903D02*
X120072494Y-68092284D01*
X120072494Y-68092284D02*
X120167732Y-67997045D01*
X120167732Y-67997045D02*
X120215351Y-67806569D01*
X120215351Y-67806569D02*
X120215351Y-67473236D01*
X120215351Y-67473236D02*
X120167732Y-67282760D01*
X120167732Y-67282760D02*
X120072494Y-67187522D01*
X120072494Y-67187522D02*
X119977256Y-67139903D01*
X118929637Y-67663712D02*
X118929637Y-68139903D01*
X119262970Y-67139903D02*
X118929637Y-67663712D01*
X118929637Y-67663712D02*
X118596304Y-67139903D01*
X118310589Y-67854188D02*
X117834399Y-67854188D01*
X118405827Y-68139903D02*
X118072494Y-67139903D01*
X118072494Y-67139903D02*
X117739161Y-68139903D01*
X117072494Y-67616093D02*
X116929637Y-67663712D01*
X116929637Y-67663712D02*
X116882018Y-67711331D01*
X116882018Y-67711331D02*
X116834399Y-67806569D01*
X116834399Y-67806569D02*
X116834399Y-67949426D01*
X116834399Y-67949426D02*
X116882018Y-68044664D01*
X116882018Y-68044664D02*
X116929637Y-68092284D01*
X116929637Y-68092284D02*
X117024875Y-68139903D01*
X117024875Y-68139903D02*
X117405827Y-68139903D01*
X117405827Y-68139903D02*
X117405827Y-67139903D01*
X117405827Y-67139903D02*
X117072494Y-67139903D01*
X117072494Y-67139903D02*
X116977256Y-67187522D01*
X116977256Y-67187522D02*
X116929637Y-67235141D01*
X116929637Y-67235141D02*
X116882018Y-67330379D01*
X116882018Y-67330379D02*
X116882018Y-67425617D01*
X116882018Y-67425617D02*
X116929637Y-67520855D01*
X116929637Y-67520855D02*
X116977256Y-67568474D01*
X116977256Y-67568474D02*
X117072494Y-67616093D01*
X117072494Y-67616093D02*
X117405827Y-67616093D01*
X115929637Y-68139903D02*
X116405827Y-68139903D01*
X116405827Y-68139903D02*
X116405827Y-67139903D01*
X115596303Y-67616093D02*
X115262970Y-67616093D01*
X115120113Y-68139903D02*
X115596303Y-68139903D01*
X115596303Y-68139903D02*
X115596303Y-67139903D01*
X115596303Y-67139903D02*
X115120113Y-67139903D01*
X113929636Y-68139903D02*
X113929636Y-67139903D01*
X113929636Y-67139903D02*
X113548684Y-67139903D01*
X113548684Y-67139903D02*
X113453446Y-67187522D01*
X113453446Y-67187522D02*
X113405827Y-67235141D01*
X113405827Y-67235141D02*
X113358208Y-67330379D01*
X113358208Y-67330379D02*
X113358208Y-67473236D01*
X113358208Y-67473236D02*
X113405827Y-67568474D01*
X113405827Y-67568474D02*
X113453446Y-67616093D01*
X113453446Y-67616093D02*
X113548684Y-67663712D01*
X113548684Y-67663712D02*
X113929636Y-67663712D01*
X112977255Y-67854188D02*
X112501065Y-67854188D01*
X113072493Y-68139903D02*
X112739160Y-67139903D01*
X112739160Y-67139903D02*
X112405827Y-68139903D01*
X112072493Y-68139903D02*
X112072493Y-67139903D01*
X112072493Y-67139903D02*
X111501065Y-68139903D01*
X111501065Y-68139903D02*
X111501065Y-67139903D01*
X111024874Y-67616093D02*
X110691541Y-67616093D01*
X110548684Y-68139903D02*
X111024874Y-68139903D01*
X111024874Y-68139903D02*
X111024874Y-67139903D01*
X111024874Y-67139903D02*
X110548684Y-67139903D01*
X109643922Y-68139903D02*
X110120112Y-68139903D01*
X110120112Y-68139903D02*
X110120112Y-67139903D01*
X144977258Y-69654608D02*
X145024877Y-69702228D01*
X145024877Y-69702228D02*
X145167734Y-69749847D01*
X145167734Y-69749847D02*
X145262972Y-69749847D01*
X145262972Y-69749847D02*
X145405829Y-69702228D01*
X145405829Y-69702228D02*
X145501067Y-69606989D01*
X145501067Y-69606989D02*
X145548686Y-69511751D01*
X145548686Y-69511751D02*
X145596305Y-69321275D01*
X145596305Y-69321275D02*
X145596305Y-69178418D01*
X145596305Y-69178418D02*
X145548686Y-68987942D01*
X145548686Y-68987942D02*
X145501067Y-68892704D01*
X145501067Y-68892704D02*
X145405829Y-68797466D01*
X145405829Y-68797466D02*
X145262972Y-68749847D01*
X145262972Y-68749847D02*
X145167734Y-68749847D01*
X145167734Y-68749847D02*
X145024877Y-68797466D01*
X145024877Y-68797466D02*
X144977258Y-68845085D01*
X144596305Y-69702228D02*
X144453448Y-69749847D01*
X144453448Y-69749847D02*
X144215353Y-69749847D01*
X144215353Y-69749847D02*
X144120115Y-69702228D01*
X144120115Y-69702228D02*
X144072496Y-69654608D01*
X144072496Y-69654608D02*
X144024877Y-69559370D01*
X144024877Y-69559370D02*
X144024877Y-69464132D01*
X144024877Y-69464132D02*
X144072496Y-69368894D01*
X144072496Y-69368894D02*
X144120115Y-69321275D01*
X144120115Y-69321275D02*
X144215353Y-69273656D01*
X144215353Y-69273656D02*
X144405829Y-69226037D01*
X144405829Y-69226037D02*
X144501067Y-69178418D01*
X144501067Y-69178418D02*
X144548686Y-69130799D01*
X144548686Y-69130799D02*
X144596305Y-69035561D01*
X144596305Y-69035561D02*
X144596305Y-68940323D01*
X144596305Y-68940323D02*
X144548686Y-68845085D01*
X144548686Y-68845085D02*
X144501067Y-68797466D01*
X144501067Y-68797466D02*
X144405829Y-68749847D01*
X144405829Y-68749847D02*
X144167734Y-68749847D01*
X144167734Y-68749847D02*
X144024877Y-68797466D01*
X143596305Y-69749847D02*
X143596305Y-68749847D01*
X141786782Y-69654608D02*
X141834401Y-69702228D01*
X141834401Y-69702228D02*
X141977258Y-69749847D01*
X141977258Y-69749847D02*
X142072496Y-69749847D01*
X142072496Y-69749847D02*
X142215353Y-69702228D01*
X142215353Y-69702228D02*
X142310591Y-69606989D01*
X142310591Y-69606989D02*
X142358210Y-69511751D01*
X142358210Y-69511751D02*
X142405829Y-69321275D01*
X142405829Y-69321275D02*
X142405829Y-69178418D01*
X142405829Y-69178418D02*
X142358210Y-68987942D01*
X142358210Y-68987942D02*
X142310591Y-68892704D01*
X142310591Y-68892704D02*
X142215353Y-68797466D01*
X142215353Y-68797466D02*
X142072496Y-68749847D01*
X142072496Y-68749847D02*
X141977258Y-68749847D01*
X141977258Y-68749847D02*
X141834401Y-68797466D01*
X141834401Y-68797466D02*
X141786782Y-68845085D01*
X141358210Y-68749847D02*
X141358210Y-69559370D01*
X141358210Y-69559370D02*
X141310591Y-69654608D01*
X141310591Y-69654608D02*
X141262972Y-69702228D01*
X141262972Y-69702228D02*
X141167734Y-69749847D01*
X141167734Y-69749847D02*
X140977258Y-69749847D01*
X140977258Y-69749847D02*
X140882020Y-69702228D01*
X140882020Y-69702228D02*
X140834401Y-69654608D01*
X140834401Y-69654608D02*
X140786782Y-69559370D01*
X140786782Y-69559370D02*
X140786782Y-68749847D01*
X139977258Y-69226037D02*
X139834401Y-69273656D01*
X139834401Y-69273656D02*
X139786782Y-69321275D01*
X139786782Y-69321275D02*
X139739163Y-69416513D01*
X139739163Y-69416513D02*
X139739163Y-69559370D01*
X139739163Y-69559370D02*
X139786782Y-69654608D01*
X139786782Y-69654608D02*
X139834401Y-69702228D01*
X139834401Y-69702228D02*
X139929639Y-69749847D01*
X139929639Y-69749847D02*
X140310591Y-69749847D01*
X140310591Y-69749847D02*
X140310591Y-68749847D01*
X140310591Y-68749847D02*
X139977258Y-68749847D01*
X139977258Y-68749847D02*
X139882020Y-68797466D01*
X139882020Y-68797466D02*
X139834401Y-68845085D01*
X139834401Y-68845085D02*
X139786782Y-68940323D01*
X139786782Y-68940323D02*
X139786782Y-69035561D01*
X139786782Y-69035561D02*
X139834401Y-69130799D01*
X139834401Y-69130799D02*
X139882020Y-69178418D01*
X139882020Y-69178418D02*
X139977258Y-69226037D01*
X139977258Y-69226037D02*
X140310591Y-69226037D01*
X139310591Y-69226037D02*
X138977258Y-69226037D01*
X138834401Y-69749847D02*
X139310591Y-69749847D01*
X139310591Y-69749847D02*
X139310591Y-68749847D01*
X139310591Y-68749847D02*
X138834401Y-68749847D01*
X138453448Y-69702228D02*
X138310591Y-69749847D01*
X138310591Y-69749847D02*
X138072496Y-69749847D01*
X138072496Y-69749847D02*
X137977258Y-69702228D01*
X137977258Y-69702228D02*
X137929639Y-69654608D01*
X137929639Y-69654608D02*
X137882020Y-69559370D01*
X137882020Y-69559370D02*
X137882020Y-69464132D01*
X137882020Y-69464132D02*
X137929639Y-69368894D01*
X137929639Y-69368894D02*
X137977258Y-69321275D01*
X137977258Y-69321275D02*
X138072496Y-69273656D01*
X138072496Y-69273656D02*
X138262972Y-69226037D01*
X138262972Y-69226037D02*
X138358210Y-69178418D01*
X138358210Y-69178418D02*
X138405829Y-69130799D01*
X138405829Y-69130799D02*
X138453448Y-69035561D01*
X138453448Y-69035561D02*
X138453448Y-68940323D01*
X138453448Y-68940323D02*
X138405829Y-68845085D01*
X138405829Y-68845085D02*
X138358210Y-68797466D01*
X138358210Y-68797466D02*
X138262972Y-68749847D01*
X138262972Y-68749847D02*
X138024877Y-68749847D01*
X138024877Y-68749847D02*
X137882020Y-68797466D01*
X137501067Y-69464132D02*
X137024877Y-69464132D01*
X137596305Y-69749847D02*
X137262972Y-68749847D01*
X137262972Y-68749847D02*
X136929639Y-69749847D01*
X136739162Y-68749847D02*
X136167734Y-68749847D01*
X136453448Y-69749847D02*
X136453448Y-68749847D01*
X135120114Y-69702228D02*
X134977257Y-69749847D01*
X134977257Y-69749847D02*
X134739162Y-69749847D01*
X134739162Y-69749847D02*
X134643924Y-69702228D01*
X134643924Y-69702228D02*
X134596305Y-69654608D01*
X134596305Y-69654608D02*
X134548686Y-69559370D01*
X134548686Y-69559370D02*
X134548686Y-69464132D01*
X134548686Y-69464132D02*
X134596305Y-69368894D01*
X134596305Y-69368894D02*
X134643924Y-69321275D01*
X134643924Y-69321275D02*
X134739162Y-69273656D01*
X134739162Y-69273656D02*
X134929638Y-69226037D01*
X134929638Y-69226037D02*
X135024876Y-69178418D01*
X135024876Y-69178418D02*
X135072495Y-69130799D01*
X135072495Y-69130799D02*
X135120114Y-69035561D01*
X135120114Y-69035561D02*
X135120114Y-68940323D01*
X135120114Y-68940323D02*
X135072495Y-68845085D01*
X135072495Y-68845085D02*
X135024876Y-68797466D01*
X135024876Y-68797466D02*
X134929638Y-68749847D01*
X134929638Y-68749847D02*
X134691543Y-68749847D01*
X134691543Y-68749847D02*
X134548686Y-68797466D01*
X133929638Y-69273656D02*
X133929638Y-69749847D01*
X134262971Y-68749847D02*
X133929638Y-69273656D01*
X133929638Y-69273656D02*
X133596305Y-68749847D01*
X133310590Y-69702228D02*
X133167733Y-69749847D01*
X133167733Y-69749847D02*
X132929638Y-69749847D01*
X132929638Y-69749847D02*
X132834400Y-69702228D01*
X132834400Y-69702228D02*
X132786781Y-69654608D01*
X132786781Y-69654608D02*
X132739162Y-69559370D01*
X132739162Y-69559370D02*
X132739162Y-69464132D01*
X132739162Y-69464132D02*
X132786781Y-69368894D01*
X132786781Y-69368894D02*
X132834400Y-69321275D01*
X132834400Y-69321275D02*
X132929638Y-69273656D01*
X132929638Y-69273656D02*
X133120114Y-69226037D01*
X133120114Y-69226037D02*
X133215352Y-69178418D01*
X133215352Y-69178418D02*
X133262971Y-69130799D01*
X133262971Y-69130799D02*
X133310590Y-69035561D01*
X133310590Y-69035561D02*
X133310590Y-68940323D01*
X133310590Y-68940323D02*
X133262971Y-68845085D01*
X133262971Y-68845085D02*
X133215352Y-68797466D01*
X133215352Y-68797466D02*
X133120114Y-68749847D01*
X133120114Y-68749847D02*
X132882019Y-68749847D01*
X132882019Y-68749847D02*
X132739162Y-68797466D01*
X132453447Y-68749847D02*
X131882019Y-68749847D01*
X132167733Y-69749847D02*
X132167733Y-68749847D01*
X131548685Y-69226037D02*
X131215352Y-69226037D01*
X131072495Y-69749847D02*
X131548685Y-69749847D01*
X131548685Y-69749847D02*
X131548685Y-68749847D01*
X131548685Y-68749847D02*
X131072495Y-68749847D01*
X130643923Y-69749847D02*
X130643923Y-68749847D01*
X130643923Y-68749847D02*
X130310590Y-69464132D01*
X130310590Y-69464132D02*
X129977257Y-68749847D01*
X129977257Y-68749847D02*
X129977257Y-69749847D01*
X129548685Y-69702228D02*
X129405828Y-69749847D01*
X129405828Y-69749847D02*
X129167733Y-69749847D01*
X129167733Y-69749847D02*
X129072495Y-69702228D01*
X129072495Y-69702228D02*
X129024876Y-69654608D01*
X129024876Y-69654608D02*
X128977257Y-69559370D01*
X128977257Y-69559370D02*
X128977257Y-69464132D01*
X128977257Y-69464132D02*
X129024876Y-69368894D01*
X129024876Y-69368894D02*
X129072495Y-69321275D01*
X129072495Y-69321275D02*
X129167733Y-69273656D01*
X129167733Y-69273656D02*
X129358209Y-69226037D01*
X129358209Y-69226037D02*
X129453447Y-69178418D01*
X129453447Y-69178418D02*
X129501066Y-69130799D01*
X129501066Y-69130799D02*
X129548685Y-69035561D01*
X129548685Y-69035561D02*
X129548685Y-68940323D01*
X129548685Y-68940323D02*
X129501066Y-68845085D01*
X129501066Y-68845085D02*
X129453447Y-68797466D01*
X129453447Y-68797466D02*
X129358209Y-68749847D01*
X129358209Y-68749847D02*
X129120114Y-68749847D01*
X129120114Y-68749847D02*
X128977257Y-68797466D01*
X127834399Y-69464132D02*
X127358209Y-69464132D01*
X127929637Y-69749847D02*
X127596304Y-68749847D01*
X127596304Y-68749847D02*
X127262971Y-69749847D01*
X126929637Y-69749847D02*
X126929637Y-68749847D01*
X126929637Y-68749847D02*
X126358209Y-69749847D01*
X126358209Y-69749847D02*
X126358209Y-68749847D01*
X125882018Y-69749847D02*
X125882018Y-68749847D01*
X125882018Y-68749847D02*
X125643923Y-68749847D01*
X125643923Y-68749847D02*
X125501066Y-68797466D01*
X125501066Y-68797466D02*
X125405828Y-68892704D01*
X125405828Y-68892704D02*
X125358209Y-68987942D01*
X125358209Y-68987942D02*
X125310590Y-69178418D01*
X125310590Y-69178418D02*
X125310590Y-69321275D01*
X125310590Y-69321275D02*
X125358209Y-69511751D01*
X125358209Y-69511751D02*
X125405828Y-69606989D01*
X125405828Y-69606989D02*
X125501066Y-69702228D01*
X125501066Y-69702228D02*
X125643923Y-69749847D01*
X125643923Y-69749847D02*
X125882018Y-69749847D01*
X124167732Y-69702228D02*
X124024875Y-69749847D01*
X124024875Y-69749847D02*
X123786780Y-69749847D01*
X123786780Y-69749847D02*
X123691542Y-69702228D01*
X123691542Y-69702228D02*
X123643923Y-69654608D01*
X123643923Y-69654608D02*
X123596304Y-69559370D01*
X123596304Y-69559370D02*
X123596304Y-69464132D01*
X123596304Y-69464132D02*
X123643923Y-69368894D01*
X123643923Y-69368894D02*
X123691542Y-69321275D01*
X123691542Y-69321275D02*
X123786780Y-69273656D01*
X123786780Y-69273656D02*
X123977256Y-69226037D01*
X123977256Y-69226037D02*
X124072494Y-69178418D01*
X124072494Y-69178418D02*
X124120113Y-69130799D01*
X124120113Y-69130799D02*
X124167732Y-69035561D01*
X124167732Y-69035561D02*
X124167732Y-68940323D01*
X124167732Y-68940323D02*
X124120113Y-68845085D01*
X124120113Y-68845085D02*
X124072494Y-68797466D01*
X124072494Y-68797466D02*
X123977256Y-68749847D01*
X123977256Y-68749847D02*
X123739161Y-68749847D01*
X123739161Y-68749847D02*
X123596304Y-68797466D01*
X123310589Y-68749847D02*
X122739161Y-68749847D01*
X123024875Y-69749847D02*
X123024875Y-68749847D01*
X121834399Y-69749847D02*
X122167732Y-69273656D01*
X122405827Y-69749847D02*
X122405827Y-68749847D01*
X122405827Y-68749847D02*
X122024875Y-68749847D01*
X122024875Y-68749847D02*
X121929637Y-68797466D01*
X121929637Y-68797466D02*
X121882018Y-68845085D01*
X121882018Y-68845085D02*
X121834399Y-68940323D01*
X121834399Y-68940323D02*
X121834399Y-69083180D01*
X121834399Y-69083180D02*
X121882018Y-69178418D01*
X121882018Y-69178418D02*
X121929637Y-69226037D01*
X121929637Y-69226037D02*
X122024875Y-69273656D01*
X122024875Y-69273656D02*
X122405827Y-69273656D01*
X121405827Y-68749847D02*
X121405827Y-69559370D01*
X121405827Y-69559370D02*
X121358208Y-69654608D01*
X121358208Y-69654608D02*
X121310589Y-69702228D01*
X121310589Y-69702228D02*
X121215351Y-69749847D01*
X121215351Y-69749847D02*
X121024875Y-69749847D01*
X121024875Y-69749847D02*
X120929637Y-69702228D01*
X120929637Y-69702228D02*
X120882018Y-69654608D01*
X120882018Y-69654608D02*
X120834399Y-69559370D01*
X120834399Y-69559370D02*
X120834399Y-68749847D01*
X119786780Y-69654608D02*
X119834399Y-69702228D01*
X119834399Y-69702228D02*
X119977256Y-69749847D01*
X119977256Y-69749847D02*
X120072494Y-69749847D01*
X120072494Y-69749847D02*
X120215351Y-69702228D01*
X120215351Y-69702228D02*
X120310589Y-69606989D01*
X120310589Y-69606989D02*
X120358208Y-69511751D01*
X120358208Y-69511751D02*
X120405827Y-69321275D01*
X120405827Y-69321275D02*
X120405827Y-69178418D01*
X120405827Y-69178418D02*
X120358208Y-68987942D01*
X120358208Y-68987942D02*
X120310589Y-68892704D01*
X120310589Y-68892704D02*
X120215351Y-68797466D01*
X120215351Y-68797466D02*
X120072494Y-68749847D01*
X120072494Y-68749847D02*
X119977256Y-68749847D01*
X119977256Y-68749847D02*
X119834399Y-68797466D01*
X119834399Y-68797466D02*
X119786780Y-68845085D01*
X119501065Y-68749847D02*
X118929637Y-68749847D01*
X119215351Y-69749847D02*
X119215351Y-68749847D01*
X118596303Y-68749847D02*
X118596303Y-69559370D01*
X118596303Y-69559370D02*
X118548684Y-69654608D01*
X118548684Y-69654608D02*
X118501065Y-69702228D01*
X118501065Y-69702228D02*
X118405827Y-69749847D01*
X118405827Y-69749847D02*
X118215351Y-69749847D01*
X118215351Y-69749847D02*
X118120113Y-69702228D01*
X118120113Y-69702228D02*
X118072494Y-69654608D01*
X118072494Y-69654608D02*
X118024875Y-69559370D01*
X118024875Y-69559370D02*
X118024875Y-68749847D01*
X116977256Y-69749847D02*
X117310589Y-69273656D01*
X117548684Y-69749847D02*
X117548684Y-68749847D01*
X117548684Y-68749847D02*
X117167732Y-68749847D01*
X117167732Y-68749847D02*
X117072494Y-68797466D01*
X117072494Y-68797466D02*
X117024875Y-68845085D01*
X117024875Y-68845085D02*
X116977256Y-68940323D01*
X116977256Y-68940323D02*
X116977256Y-69083180D01*
X116977256Y-69083180D02*
X117024875Y-69178418D01*
X117024875Y-69178418D02*
X117072494Y-69226037D01*
X117072494Y-69226037D02*
X117167732Y-69273656D01*
X117167732Y-69273656D02*
X117548684Y-69273656D01*
X116548684Y-69226037D02*
X116215351Y-69226037D01*
X116072494Y-69749847D02*
X116548684Y-69749847D01*
X116548684Y-69749847D02*
X116548684Y-68749847D01*
X116548684Y-68749847D02*
X116072494Y-68749847D01*
X115691541Y-69702228D02*
X115548684Y-69749847D01*
X115548684Y-69749847D02*
X115310589Y-69749847D01*
X115310589Y-69749847D02*
X115215351Y-69702228D01*
X115215351Y-69702228D02*
X115167732Y-69654608D01*
X115167732Y-69654608D02*
X115120113Y-69559370D01*
X115120113Y-69559370D02*
X115120113Y-69464132D01*
X115120113Y-69464132D02*
X115167732Y-69368894D01*
X115167732Y-69368894D02*
X115215351Y-69321275D01*
X115215351Y-69321275D02*
X115310589Y-69273656D01*
X115310589Y-69273656D02*
X115501065Y-69226037D01*
X115501065Y-69226037D02*
X115596303Y-69178418D01*
X115596303Y-69178418D02*
X115643922Y-69130799D01*
X115643922Y-69130799D02*
X115691541Y-69035561D01*
X115691541Y-69035561D02*
X115691541Y-68940323D01*
X115691541Y-68940323D02*
X115643922Y-68845085D01*
X115643922Y-68845085D02*
X115596303Y-68797466D01*
X115596303Y-68797466D02*
X115501065Y-68749847D01*
X115501065Y-68749847D02*
X115262970Y-68749847D01*
X115262970Y-68749847D02*
X115120113Y-68797466D01*
X114072493Y-68749847D02*
X113501065Y-68749847D01*
X113786779Y-69749847D02*
X113786779Y-68749847D01*
X113167731Y-69226037D02*
X112834398Y-69226037D01*
X112691541Y-69749847D02*
X113167731Y-69749847D01*
X113167731Y-69749847D02*
X113167731Y-68749847D01*
X113167731Y-68749847D02*
X112691541Y-68749847D01*
X112310588Y-69464132D02*
X111834398Y-69464132D01*
X112405826Y-69749847D02*
X112072493Y-68749847D01*
X112072493Y-68749847D02*
X111739160Y-69749847D01*
X111405826Y-69749847D02*
X111405826Y-68749847D01*
X111405826Y-68749847D02*
X111072493Y-69464132D01*
X111072493Y-69464132D02*
X110739160Y-68749847D01*
X110739160Y-68749847D02*
X110739160Y-69749847D01*
X110310588Y-69702228D02*
X110167731Y-69749847D01*
X110167731Y-69749847D02*
X109929636Y-69749847D01*
X109929636Y-69749847D02*
X109834398Y-69702228D01*
X109834398Y-69702228D02*
X109786779Y-69654608D01*
X109786779Y-69654608D02*
X109739160Y-69559370D01*
X109739160Y-69559370D02*
X109739160Y-69464132D01*
X109739160Y-69464132D02*
X109786779Y-69368894D01*
X109786779Y-69368894D02*
X109834398Y-69321275D01*
X109834398Y-69321275D02*
X109929636Y-69273656D01*
X109929636Y-69273656D02*
X110120112Y-69226037D01*
X110120112Y-69226037D02*
X110215350Y-69178418D01*
X110215350Y-69178418D02*
X110262969Y-69130799D01*
X110262969Y-69130799D02*
X110310588Y-69035561D01*
X110310588Y-69035561D02*
X110310588Y-68940323D01*
X110310588Y-68940323D02*
X110262969Y-68845085D01*
X110262969Y-68845085D02*
X110215350Y-68797466D01*
X110215350Y-68797466D02*
X110120112Y-68749847D01*
X110120112Y-68749847D02*
X109882017Y-68749847D01*
X109882017Y-68749847D02*
X109739160Y-68797466D01*
X130834400Y-70835981D02*
X130691543Y-70883600D01*
X130691543Y-70883600D02*
X130643924Y-70931219D01*
X130643924Y-70931219D02*
X130596305Y-71026457D01*
X130596305Y-71026457D02*
X130596305Y-71169314D01*
X130596305Y-71169314D02*
X130643924Y-71264552D01*
X130643924Y-71264552D02*
X130691543Y-71312172D01*
X130691543Y-71312172D02*
X130786781Y-71359791D01*
X130786781Y-71359791D02*
X131167733Y-71359791D01*
X131167733Y-71359791D02*
X131167733Y-70359791D01*
X131167733Y-70359791D02*
X130834400Y-70359791D01*
X130834400Y-70359791D02*
X130739162Y-70407410D01*
X130739162Y-70407410D02*
X130691543Y-70455029D01*
X130691543Y-70455029D02*
X130643924Y-70550267D01*
X130643924Y-70550267D02*
X130643924Y-70645505D01*
X130643924Y-70645505D02*
X130691543Y-70740743D01*
X130691543Y-70740743D02*
X130739162Y-70788362D01*
X130739162Y-70788362D02*
X130834400Y-70835981D01*
X130834400Y-70835981D02*
X131167733Y-70835981D01*
X130215352Y-71074076D02*
X129739162Y-71074076D01*
X130310590Y-71359791D02*
X129977257Y-70359791D01*
X129977257Y-70359791D02*
X129643924Y-71359791D01*
X129358209Y-71312172D02*
X129215352Y-71359791D01*
X129215352Y-71359791D02*
X128977257Y-71359791D01*
X128977257Y-71359791D02*
X128882019Y-71312172D01*
X128882019Y-71312172D02*
X128834400Y-71264552D01*
X128834400Y-71264552D02*
X128786781Y-71169314D01*
X128786781Y-71169314D02*
X128786781Y-71074076D01*
X128786781Y-71074076D02*
X128834400Y-70978838D01*
X128834400Y-70978838D02*
X128882019Y-70931219D01*
X128882019Y-70931219D02*
X128977257Y-70883600D01*
X128977257Y-70883600D02*
X129167733Y-70835981D01*
X129167733Y-70835981D02*
X129262971Y-70788362D01*
X129262971Y-70788362D02*
X129310590Y-70740743D01*
X129310590Y-70740743D02*
X129358209Y-70645505D01*
X129358209Y-70645505D02*
X129358209Y-70550267D01*
X129358209Y-70550267D02*
X129310590Y-70455029D01*
X129310590Y-70455029D02*
X129262971Y-70407410D01*
X129262971Y-70407410D02*
X129167733Y-70359791D01*
X129167733Y-70359791D02*
X128929638Y-70359791D01*
X128929638Y-70359791D02*
X128786781Y-70407410D01*
X128358209Y-70835981D02*
X128024876Y-70835981D01*
X127882019Y-71359791D02*
X128358209Y-71359791D01*
X128358209Y-71359791D02*
X128358209Y-70359791D01*
X128358209Y-70359791D02*
X127882019Y-70359791D01*
X127453447Y-71359791D02*
X127453447Y-70359791D01*
X127453447Y-70359791D02*
X127215352Y-70359791D01*
X127215352Y-70359791D02*
X127072495Y-70407410D01*
X127072495Y-70407410D02*
X126977257Y-70502648D01*
X126977257Y-70502648D02*
X126929638Y-70597886D01*
X126929638Y-70597886D02*
X126882019Y-70788362D01*
X126882019Y-70788362D02*
X126882019Y-70931219D01*
X126882019Y-70931219D02*
X126929638Y-71121695D01*
X126929638Y-71121695D02*
X126977257Y-71216933D01*
X126977257Y-71216933D02*
X127072495Y-71312172D01*
X127072495Y-71312172D02*
X127215352Y-71359791D01*
X127215352Y-71359791D02*
X127453447Y-71359791D01*
X125501066Y-70359791D02*
X125310590Y-70359791D01*
X125310590Y-70359791D02*
X125215352Y-70407410D01*
X125215352Y-70407410D02*
X125120114Y-70502648D01*
X125120114Y-70502648D02*
X125072495Y-70693124D01*
X125072495Y-70693124D02*
X125072495Y-71026457D01*
X125072495Y-71026457D02*
X125120114Y-71216933D01*
X125120114Y-71216933D02*
X125215352Y-71312172D01*
X125215352Y-71312172D02*
X125310590Y-71359791D01*
X125310590Y-71359791D02*
X125501066Y-71359791D01*
X125501066Y-71359791D02*
X125596304Y-71312172D01*
X125596304Y-71312172D02*
X125691542Y-71216933D01*
X125691542Y-71216933D02*
X125739161Y-71026457D01*
X125739161Y-71026457D02*
X125739161Y-70693124D01*
X125739161Y-70693124D02*
X125691542Y-70502648D01*
X125691542Y-70502648D02*
X125596304Y-70407410D01*
X125596304Y-70407410D02*
X125501066Y-70359791D01*
X124643923Y-71359791D02*
X124643923Y-70359791D01*
X124643923Y-70359791D02*
X124072495Y-71359791D01*
X124072495Y-71359791D02*
X124072495Y-70359791D01*
X122834399Y-71359791D02*
X122834399Y-70359791D01*
X122834399Y-70359791D02*
X122453447Y-70359791D01*
X122453447Y-70359791D02*
X122358209Y-70407410D01*
X122358209Y-70407410D02*
X122310590Y-70455029D01*
X122310590Y-70455029D02*
X122262971Y-70550267D01*
X122262971Y-70550267D02*
X122262971Y-70693124D01*
X122262971Y-70693124D02*
X122310590Y-70788362D01*
X122310590Y-70788362D02*
X122358209Y-70835981D01*
X122358209Y-70835981D02*
X122453447Y-70883600D01*
X122453447Y-70883600D02*
X122834399Y-70883600D01*
X121262971Y-71359791D02*
X121596304Y-70883600D01*
X121834399Y-71359791D02*
X121834399Y-70359791D01*
X121834399Y-70359791D02*
X121453447Y-70359791D01*
X121453447Y-70359791D02*
X121358209Y-70407410D01*
X121358209Y-70407410D02*
X121310590Y-70455029D01*
X121310590Y-70455029D02*
X121262971Y-70550267D01*
X121262971Y-70550267D02*
X121262971Y-70693124D01*
X121262971Y-70693124D02*
X121310590Y-70788362D01*
X121310590Y-70788362D02*
X121358209Y-70835981D01*
X121358209Y-70835981D02*
X121453447Y-70883600D01*
X121453447Y-70883600D02*
X121834399Y-70883600D01*
X120643923Y-70359791D02*
X120453447Y-70359791D01*
X120453447Y-70359791D02*
X120358209Y-70407410D01*
X120358209Y-70407410D02*
X120262971Y-70502648D01*
X120262971Y-70502648D02*
X120215352Y-70693124D01*
X120215352Y-70693124D02*
X120215352Y-71026457D01*
X120215352Y-71026457D02*
X120262971Y-71216933D01*
X120262971Y-71216933D02*
X120358209Y-71312172D01*
X120358209Y-71312172D02*
X120453447Y-71359791D01*
X120453447Y-71359791D02*
X120643923Y-71359791D01*
X120643923Y-71359791D02*
X120739161Y-71312172D01*
X120739161Y-71312172D02*
X120834399Y-71216933D01*
X120834399Y-71216933D02*
X120882018Y-71026457D01*
X120882018Y-71026457D02*
X120882018Y-70693124D01*
X120882018Y-70693124D02*
X120834399Y-70502648D01*
X120834399Y-70502648D02*
X120739161Y-70407410D01*
X120739161Y-70407410D02*
X120643923Y-70359791D01*
X119929637Y-70359791D02*
X119596304Y-71359791D01*
X119596304Y-71359791D02*
X119262971Y-70359791D01*
X118929637Y-70835981D02*
X118596304Y-70835981D01*
X118453447Y-71359791D02*
X118929637Y-71359791D01*
X118929637Y-71359791D02*
X118929637Y-70359791D01*
X118929637Y-70359791D02*
X118453447Y-70359791D01*
X118072494Y-71312172D02*
X117929637Y-71359791D01*
X117929637Y-71359791D02*
X117691542Y-71359791D01*
X117691542Y-71359791D02*
X117596304Y-71312172D01*
X117596304Y-71312172D02*
X117548685Y-71264552D01*
X117548685Y-71264552D02*
X117501066Y-71169314D01*
X117501066Y-71169314D02*
X117501066Y-71074076D01*
X117501066Y-71074076D02*
X117548685Y-70978838D01*
X117548685Y-70978838D02*
X117596304Y-70931219D01*
X117596304Y-70931219D02*
X117691542Y-70883600D01*
X117691542Y-70883600D02*
X117882018Y-70835981D01*
X117882018Y-70835981D02*
X117977256Y-70788362D01*
X117977256Y-70788362D02*
X118024875Y-70740743D01*
X118024875Y-70740743D02*
X118072494Y-70645505D01*
X118072494Y-70645505D02*
X118072494Y-70550267D01*
X118072494Y-70550267D02*
X118024875Y-70455029D01*
X118024875Y-70455029D02*
X117977256Y-70407410D01*
X117977256Y-70407410D02*
X117882018Y-70359791D01*
X117882018Y-70359791D02*
X117643923Y-70359791D01*
X117643923Y-70359791D02*
X117501066Y-70407410D01*
X116405827Y-70359791D02*
X115739161Y-71359791D01*
X115739161Y-70359791D02*
X116405827Y-71359791D01*
X115167732Y-70883600D02*
X115167732Y-71359791D01*
X115501065Y-70359791D02*
X115167732Y-70883600D01*
X115167732Y-70883600D02*
X114834399Y-70359791D01*
X113882017Y-70359791D02*
X113548684Y-71359791D01*
X113548684Y-71359791D02*
X113215351Y-70359791D01*
X112977255Y-70359791D02*
X112358208Y-70359791D01*
X112358208Y-70359791D02*
X112691541Y-70740743D01*
X112691541Y-70740743D02*
X112548684Y-70740743D01*
X112548684Y-70740743D02*
X112453446Y-70788362D01*
X112453446Y-70788362D02*
X112405827Y-70835981D01*
X112405827Y-70835981D02*
X112358208Y-70931219D01*
X112358208Y-70931219D02*
X112358208Y-71169314D01*
X112358208Y-71169314D02*
X112405827Y-71264552D01*
X112405827Y-71264552D02*
X112453446Y-71312172D01*
X112453446Y-71312172D02*
X112548684Y-71359791D01*
X112548684Y-71359791D02*
X112834398Y-71359791D01*
X112834398Y-71359791D02*
X112929636Y-71312172D01*
X112929636Y-71312172D02*
X112977255Y-71264552D01*
X110834398Y-70835981D02*
X110691541Y-70883600D01*
X110691541Y-70883600D02*
X110643922Y-70931219D01*
X110643922Y-70931219D02*
X110596303Y-71026457D01*
X110596303Y-71026457D02*
X110596303Y-71169314D01*
X110596303Y-71169314D02*
X110643922Y-71264552D01*
X110643922Y-71264552D02*
X110691541Y-71312172D01*
X110691541Y-71312172D02*
X110786779Y-71359791D01*
X110786779Y-71359791D02*
X111167731Y-71359791D01*
X111167731Y-71359791D02*
X111167731Y-70359791D01*
X111167731Y-70359791D02*
X110834398Y-70359791D01*
X110834398Y-70359791D02*
X110739160Y-70407410D01*
X110739160Y-70407410D02*
X110691541Y-70455029D01*
X110691541Y-70455029D02*
X110643922Y-70550267D01*
X110643922Y-70550267D02*
X110643922Y-70645505D01*
X110643922Y-70645505D02*
X110691541Y-70740743D01*
X110691541Y-70740743D02*
X110739160Y-70788362D01*
X110739160Y-70788362D02*
X110834398Y-70835981D01*
X110834398Y-70835981D02*
X111167731Y-70835981D01*
X109977255Y-70883600D02*
X109977255Y-71359791D01*
X110310588Y-70359791D02*
X109977255Y-70883600D01*
X109977255Y-70883600D02*
X109643922Y-70359791D01*
X146405826Y-72684020D02*
X145929636Y-72684020D01*
X146501064Y-72969735D02*
X146167731Y-71969735D01*
X146167731Y-71969735D02*
X145834398Y-72969735D01*
X145501064Y-72969735D02*
X145501064Y-71969735D01*
X145501064Y-71969735D02*
X145167731Y-72684020D01*
X145167731Y-72684020D02*
X144834398Y-71969735D01*
X144834398Y-71969735D02*
X144834398Y-72969735D01*
X144405826Y-72684020D02*
X143929636Y-72684020D01*
X144501064Y-72969735D02*
X144167731Y-71969735D01*
X144167731Y-71969735D02*
X143834398Y-72969735D01*
X143501064Y-72969735D02*
X143501064Y-71969735D01*
X143501064Y-71969735D02*
X142929636Y-72969735D01*
X142929636Y-72969735D02*
X142929636Y-71969735D01*
X142453445Y-72969735D02*
X142453445Y-71969735D01*
X142453445Y-71969735D02*
X142215350Y-71969735D01*
X142215350Y-71969735D02*
X142072493Y-72017354D01*
X142072493Y-72017354D02*
X141977255Y-72112592D01*
X141977255Y-72112592D02*
X141929636Y-72207830D01*
X141929636Y-72207830D02*
X141882017Y-72398306D01*
X141882017Y-72398306D02*
X141882017Y-72541163D01*
X141882017Y-72541163D02*
X141929636Y-72731639D01*
X141929636Y-72731639D02*
X141977255Y-72826877D01*
X141977255Y-72826877D02*
X142072493Y-72922116D01*
X142072493Y-72922116D02*
X142215350Y-72969735D01*
X142215350Y-72969735D02*
X142453445Y-72969735D01*
X141501064Y-72684020D02*
X141024874Y-72684020D01*
X141596302Y-72969735D02*
X141262969Y-71969735D01*
X141262969Y-71969735D02*
X140929636Y-72969735D01*
X139834397Y-72445925D02*
X139501064Y-72445925D01*
X139358207Y-72969735D02*
X139834397Y-72969735D01*
X139834397Y-72969735D02*
X139834397Y-71969735D01*
X139834397Y-71969735D02*
X139358207Y-71969735D01*
X139024873Y-71969735D02*
X138786778Y-72969735D01*
X138786778Y-72969735D02*
X138596302Y-72255449D01*
X138596302Y-72255449D02*
X138405826Y-72969735D01*
X138405826Y-72969735D02*
X138167731Y-71969735D01*
X137786778Y-72969735D02*
X137786778Y-71969735D01*
X137310588Y-72969735D02*
X137310588Y-71969735D01*
X137310588Y-71969735D02*
X136739160Y-72969735D01*
X136739160Y-72969735D02*
X136739160Y-71969735D01*
X135739160Y-72017354D02*
X135834398Y-71969735D01*
X135834398Y-71969735D02*
X135977255Y-71969735D01*
X135977255Y-71969735D02*
X136120112Y-72017354D01*
X136120112Y-72017354D02*
X136215350Y-72112592D01*
X136215350Y-72112592D02*
X136262969Y-72207830D01*
X136262969Y-72207830D02*
X136310588Y-72398306D01*
X136310588Y-72398306D02*
X136310588Y-72541163D01*
X136310588Y-72541163D02*
X136262969Y-72731639D01*
X136262969Y-72731639D02*
X136215350Y-72826877D01*
X136215350Y-72826877D02*
X136120112Y-72922116D01*
X136120112Y-72922116D02*
X135977255Y-72969735D01*
X135977255Y-72969735D02*
X135882017Y-72969735D01*
X135882017Y-72969735D02*
X135739160Y-72922116D01*
X135739160Y-72922116D02*
X135691541Y-72874496D01*
X135691541Y-72874496D02*
X135691541Y-72541163D01*
X135691541Y-72541163D02*
X135882017Y-72541163D01*
X135215350Y-72922116D02*
X135215350Y-72969735D01*
X135215350Y-72969735D02*
X135262969Y-73064973D01*
X135262969Y-73064973D02*
X135310588Y-73112592D01*
X134024874Y-72969735D02*
X134024874Y-71969735D01*
X134024874Y-71969735D02*
X133453446Y-72969735D01*
X133453446Y-72969735D02*
X133453446Y-71969735D01*
X132977255Y-72969735D02*
X132977255Y-71969735D01*
X131929637Y-72874496D02*
X131977256Y-72922116D01*
X131977256Y-72922116D02*
X132120113Y-72969735D01*
X132120113Y-72969735D02*
X132215351Y-72969735D01*
X132215351Y-72969735D02*
X132358208Y-72922116D01*
X132358208Y-72922116D02*
X132453446Y-72826877D01*
X132453446Y-72826877D02*
X132501065Y-72731639D01*
X132501065Y-72731639D02*
X132548684Y-72541163D01*
X132548684Y-72541163D02*
X132548684Y-72398306D01*
X132548684Y-72398306D02*
X132501065Y-72207830D01*
X132501065Y-72207830D02*
X132453446Y-72112592D01*
X132453446Y-72112592D02*
X132358208Y-72017354D01*
X132358208Y-72017354D02*
X132215351Y-71969735D01*
X132215351Y-71969735D02*
X132120113Y-71969735D01*
X132120113Y-71969735D02*
X131977256Y-72017354D01*
X131977256Y-72017354D02*
X131929637Y-72064973D01*
X131310589Y-71969735D02*
X131120113Y-71969735D01*
X131120113Y-71969735D02*
X131024875Y-72017354D01*
X131024875Y-72017354D02*
X130929637Y-72112592D01*
X130929637Y-72112592D02*
X130882018Y-72303068D01*
X130882018Y-72303068D02*
X130882018Y-72636401D01*
X130882018Y-72636401D02*
X130929637Y-72826877D01*
X130929637Y-72826877D02*
X131024875Y-72922116D01*
X131024875Y-72922116D02*
X131120113Y-72969735D01*
X131120113Y-72969735D02*
X131310589Y-72969735D01*
X131310589Y-72969735D02*
X131405827Y-72922116D01*
X131405827Y-72922116D02*
X131501065Y-72826877D01*
X131501065Y-72826877D02*
X131548684Y-72636401D01*
X131548684Y-72636401D02*
X131548684Y-72303068D01*
X131548684Y-72303068D02*
X131501065Y-72112592D01*
X131501065Y-72112592D02*
X131405827Y-72017354D01*
X131405827Y-72017354D02*
X131310589Y-71969735D01*
X129977256Y-72969735D02*
X130453446Y-72969735D01*
X130453446Y-72969735D02*
X130453446Y-71969735D01*
X129643922Y-72445925D02*
X129310589Y-72445925D01*
X129167732Y-72969735D02*
X129643922Y-72969735D01*
X129643922Y-72969735D02*
X129643922Y-71969735D01*
X129643922Y-71969735D02*
X129167732Y-71969735D01*
X127977255Y-72969735D02*
X127977255Y-71969735D01*
X127977255Y-71969735D02*
X127643922Y-72684020D01*
X127643922Y-72684020D02*
X127310589Y-71969735D01*
X127310589Y-71969735D02*
X127310589Y-72969735D01*
X126882017Y-72684020D02*
X126405827Y-72684020D01*
X126977255Y-72969735D02*
X126643922Y-71969735D01*
X126643922Y-71969735D02*
X126310589Y-72969735D01*
X125453446Y-72017354D02*
X125548684Y-71969735D01*
X125548684Y-71969735D02*
X125691541Y-71969735D01*
X125691541Y-71969735D02*
X125834398Y-72017354D01*
X125834398Y-72017354D02*
X125929636Y-72112592D01*
X125929636Y-72112592D02*
X125977255Y-72207830D01*
X125977255Y-72207830D02*
X126024874Y-72398306D01*
X126024874Y-72398306D02*
X126024874Y-72541163D01*
X126024874Y-72541163D02*
X125977255Y-72731639D01*
X125977255Y-72731639D02*
X125929636Y-72826877D01*
X125929636Y-72826877D02*
X125834398Y-72922116D01*
X125834398Y-72922116D02*
X125691541Y-72969735D01*
X125691541Y-72969735D02*
X125596303Y-72969735D01*
X125596303Y-72969735D02*
X125453446Y-72922116D01*
X125453446Y-72922116D02*
X125405827Y-72874496D01*
X125405827Y-72874496D02*
X125405827Y-72541163D01*
X125405827Y-72541163D02*
X125596303Y-72541163D01*
X124453446Y-72017354D02*
X124548684Y-71969735D01*
X124548684Y-71969735D02*
X124691541Y-71969735D01*
X124691541Y-71969735D02*
X124834398Y-72017354D01*
X124834398Y-72017354D02*
X124929636Y-72112592D01*
X124929636Y-72112592D02*
X124977255Y-72207830D01*
X124977255Y-72207830D02*
X125024874Y-72398306D01*
X125024874Y-72398306D02*
X125024874Y-72541163D01*
X125024874Y-72541163D02*
X124977255Y-72731639D01*
X124977255Y-72731639D02*
X124929636Y-72826877D01*
X124929636Y-72826877D02*
X124834398Y-72922116D01*
X124834398Y-72922116D02*
X124691541Y-72969735D01*
X124691541Y-72969735D02*
X124596303Y-72969735D01*
X124596303Y-72969735D02*
X124453446Y-72922116D01*
X124453446Y-72922116D02*
X124405827Y-72874496D01*
X124405827Y-72874496D02*
X124405827Y-72541163D01*
X124405827Y-72541163D02*
X124596303Y-72541163D01*
X124024874Y-72684020D02*
X123548684Y-72684020D01*
X124120112Y-72969735D02*
X123786779Y-71969735D01*
X123786779Y-71969735D02*
X123453446Y-72969735D01*
X122548684Y-72969735D02*
X122882017Y-72493544D01*
X123120112Y-72969735D02*
X123120112Y-71969735D01*
X123120112Y-71969735D02*
X122739160Y-71969735D01*
X122739160Y-71969735D02*
X122643922Y-72017354D01*
X122643922Y-72017354D02*
X122596303Y-72064973D01*
X122596303Y-72064973D02*
X122548684Y-72160211D01*
X122548684Y-72160211D02*
X122548684Y-72303068D01*
X122548684Y-72303068D02*
X122596303Y-72398306D01*
X122596303Y-72398306D02*
X122643922Y-72445925D01*
X122643922Y-72445925D02*
X122739160Y-72493544D01*
X122739160Y-72493544D02*
X123120112Y-72493544D01*
X122120112Y-72969735D02*
X122120112Y-71969735D01*
X122120112Y-71969735D02*
X121882017Y-71969735D01*
X121882017Y-71969735D02*
X121739160Y-72017354D01*
X121739160Y-72017354D02*
X121643922Y-72112592D01*
X121643922Y-72112592D02*
X121596303Y-72207830D01*
X121596303Y-72207830D02*
X121548684Y-72398306D01*
X121548684Y-72398306D02*
X121548684Y-72541163D01*
X121548684Y-72541163D02*
X121596303Y-72731639D01*
X121596303Y-72731639D02*
X121643922Y-72826877D01*
X121643922Y-72826877D02*
X121739160Y-72922116D01*
X121739160Y-72922116D02*
X121882017Y-72969735D01*
X121882017Y-72969735D02*
X122120112Y-72969735D01*
X121072493Y-72922116D02*
X121072493Y-72969735D01*
X121072493Y-72969735D02*
X121120112Y-73064973D01*
X121120112Y-73064973D02*
X121167731Y-73112592D01*
X119882017Y-72969735D02*
X119882017Y-71969735D01*
X119882017Y-71969735D02*
X119548684Y-72684020D01*
X119548684Y-72684020D02*
X119215351Y-71969735D01*
X119215351Y-71969735D02*
X119215351Y-72969735D01*
X118739160Y-72969735D02*
X118739160Y-72303068D01*
X118739160Y-71969735D02*
X118786779Y-72017354D01*
X118786779Y-72017354D02*
X118739160Y-72064973D01*
X118739160Y-72064973D02*
X118691541Y-72017354D01*
X118691541Y-72017354D02*
X118739160Y-71969735D01*
X118739160Y-71969735D02*
X118739160Y-72064973D01*
X117834399Y-72922116D02*
X117929637Y-72969735D01*
X117929637Y-72969735D02*
X118120113Y-72969735D01*
X118120113Y-72969735D02*
X118215351Y-72922116D01*
X118215351Y-72922116D02*
X118262970Y-72874496D01*
X118262970Y-72874496D02*
X118310589Y-72779258D01*
X118310589Y-72779258D02*
X118310589Y-72493544D01*
X118310589Y-72493544D02*
X118262970Y-72398306D01*
X118262970Y-72398306D02*
X118215351Y-72350687D01*
X118215351Y-72350687D02*
X118120113Y-72303068D01*
X118120113Y-72303068D02*
X117929637Y-72303068D01*
X117929637Y-72303068D02*
X117834399Y-72350687D01*
X117405827Y-72969735D02*
X117405827Y-71969735D01*
X116977256Y-72969735D02*
X116977256Y-72445925D01*
X116977256Y-72445925D02*
X117024875Y-72350687D01*
X117024875Y-72350687D02*
X117120113Y-72303068D01*
X117120113Y-72303068D02*
X117262970Y-72303068D01*
X117262970Y-72303068D02*
X117358208Y-72350687D01*
X117358208Y-72350687D02*
X117405827Y-72398306D01*
X116072494Y-72969735D02*
X116072494Y-72445925D01*
X116072494Y-72445925D02*
X116120113Y-72350687D01*
X116120113Y-72350687D02*
X116215351Y-72303068D01*
X116215351Y-72303068D02*
X116405827Y-72303068D01*
X116405827Y-72303068D02*
X116501065Y-72350687D01*
X116072494Y-72922116D02*
X116167732Y-72969735D01*
X116167732Y-72969735D02*
X116405827Y-72969735D01*
X116405827Y-72969735D02*
X116501065Y-72922116D01*
X116501065Y-72922116D02*
X116548684Y-72826877D01*
X116548684Y-72826877D02*
X116548684Y-72731639D01*
X116548684Y-72731639D02*
X116501065Y-72636401D01*
X116501065Y-72636401D02*
X116405827Y-72588782D01*
X116405827Y-72588782D02*
X116167732Y-72588782D01*
X116167732Y-72588782D02*
X116072494Y-72541163D01*
X115215351Y-72922116D02*
X115310589Y-72969735D01*
X115310589Y-72969735D02*
X115501065Y-72969735D01*
X115501065Y-72969735D02*
X115596303Y-72922116D01*
X115596303Y-72922116D02*
X115643922Y-72826877D01*
X115643922Y-72826877D02*
X115643922Y-72445925D01*
X115643922Y-72445925D02*
X115596303Y-72350687D01*
X115596303Y-72350687D02*
X115501065Y-72303068D01*
X115501065Y-72303068D02*
X115310589Y-72303068D01*
X115310589Y-72303068D02*
X115215351Y-72350687D01*
X115215351Y-72350687D02*
X115167732Y-72445925D01*
X115167732Y-72445925D02*
X115167732Y-72541163D01*
X115167732Y-72541163D02*
X115643922Y-72636401D01*
X114596303Y-72969735D02*
X114691541Y-72922116D01*
X114691541Y-72922116D02*
X114739160Y-72826877D01*
X114739160Y-72826877D02*
X114739160Y-71969735D01*
X113453445Y-72969735D02*
X113453445Y-71969735D01*
X113453445Y-71969735D02*
X113072493Y-71969735D01*
X113072493Y-71969735D02*
X112977255Y-72017354D01*
X112977255Y-72017354D02*
X112929636Y-72064973D01*
X112929636Y-72064973D02*
X112882017Y-72160211D01*
X112882017Y-72160211D02*
X112882017Y-72303068D01*
X112882017Y-72303068D02*
X112929636Y-72398306D01*
X112929636Y-72398306D02*
X112977255Y-72445925D01*
X112977255Y-72445925D02*
X113072493Y-72493544D01*
X113072493Y-72493544D02*
X113453445Y-72493544D01*
X112453445Y-72969735D02*
X112453445Y-71969735D01*
X112024874Y-72969735D02*
X112024874Y-72445925D01*
X112024874Y-72445925D02*
X112072493Y-72350687D01*
X112072493Y-72350687D02*
X112167731Y-72303068D01*
X112167731Y-72303068D02*
X112310588Y-72303068D01*
X112310588Y-72303068D02*
X112405826Y-72350687D01*
X112405826Y-72350687D02*
X112453445Y-72398306D01*
X111120112Y-72969735D02*
X111120112Y-72445925D01*
X111120112Y-72445925D02*
X111167731Y-72350687D01*
X111167731Y-72350687D02*
X111262969Y-72303068D01*
X111262969Y-72303068D02*
X111453445Y-72303068D01*
X111453445Y-72303068D02*
X111548683Y-72350687D01*
X111120112Y-72922116D02*
X111215350Y-72969735D01*
X111215350Y-72969735D02*
X111453445Y-72969735D01*
X111453445Y-72969735D02*
X111548683Y-72922116D01*
X111548683Y-72922116D02*
X111596302Y-72826877D01*
X111596302Y-72826877D02*
X111596302Y-72731639D01*
X111596302Y-72731639D02*
X111548683Y-72636401D01*
X111548683Y-72636401D02*
X111453445Y-72588782D01*
X111453445Y-72588782D02*
X111215350Y-72588782D01*
X111215350Y-72588782D02*
X111120112Y-72541163D01*
X110643921Y-72969735D02*
X110643921Y-72303068D01*
X110643921Y-72398306D02*
X110596302Y-72350687D01*
X110596302Y-72350687D02*
X110501064Y-72303068D01*
X110501064Y-72303068D02*
X110358207Y-72303068D01*
X110358207Y-72303068D02*
X110262969Y-72350687D01*
X110262969Y-72350687D02*
X110215350Y-72445925D01*
X110215350Y-72445925D02*
X110215350Y-72969735D01*
X110215350Y-72445925D02*
X110167731Y-72350687D01*
X110167731Y-72350687D02*
X110072493Y-72303068D01*
X110072493Y-72303068D02*
X109929636Y-72303068D01*
X109929636Y-72303068D02*
X109834397Y-72350687D01*
X109834397Y-72350687D02*
X109786778Y-72445925D01*
X109786778Y-72445925D02*
X109786778Y-72969735D01*
X129097561Y-128761904D02*
X129145180Y-128857142D01*
X129145180Y-128857142D02*
X129145180Y-128999999D01*
X129145180Y-128999999D02*
X129097561Y-129142856D01*
X129097561Y-129142856D02*
X129002323Y-129238094D01*
X129002323Y-129238094D02*
X128907085Y-129285713D01*
X128907085Y-129285713D02*
X128716609Y-129333332D01*
X128716609Y-129333332D02*
X128573752Y-129333332D01*
X128573752Y-129333332D02*
X128383276Y-129285713D01*
X128383276Y-129285713D02*
X128288038Y-129238094D01*
X128288038Y-129238094D02*
X128192800Y-129142856D01*
X128192800Y-129142856D02*
X128145180Y-128999999D01*
X128145180Y-128999999D02*
X128145180Y-128904761D01*
X128145180Y-128904761D02*
X128192800Y-128761904D01*
X128192800Y-128761904D02*
X128240419Y-128714285D01*
X128240419Y-128714285D02*
X128573752Y-128714285D01*
X128573752Y-128714285D02*
X128573752Y-128904761D01*
X128145180Y-128285713D02*
X129145180Y-128285713D01*
X129145180Y-128285713D02*
X128145180Y-127714285D01*
X128145180Y-127714285D02*
X129145180Y-127714285D01*
X128145180Y-127238094D02*
X129145180Y-127238094D01*
X129145180Y-127238094D02*
X129145180Y-126999999D01*
X129145180Y-126999999D02*
X129097561Y-126857142D01*
X129097561Y-126857142D02*
X129002323Y-126761904D01*
X129002323Y-126761904D02*
X128907085Y-126714285D01*
X128907085Y-126714285D02*
X128716609Y-126666666D01*
X128716609Y-126666666D02*
X128573752Y-126666666D01*
X128573752Y-126666666D02*
X128383276Y-126714285D01*
X128383276Y-126714285D02*
X128288038Y-126761904D01*
X128288038Y-126761904D02*
X128192800Y-126857142D01*
X128192800Y-126857142D02*
X128145180Y-126999999D01*
X128145180Y-126999999D02*
X128145180Y-127238094D01*
X127585180Y-129348094D02*
X127585180Y-128729047D01*
X127585180Y-128729047D02*
X127204228Y-129062380D01*
X127204228Y-129062380D02*
X127204228Y-128919523D01*
X127204228Y-128919523D02*
X127156609Y-128824285D01*
X127156609Y-128824285D02*
X127108990Y-128776666D01*
X127108990Y-128776666D02*
X127013752Y-128729047D01*
X127013752Y-128729047D02*
X126775657Y-128729047D01*
X126775657Y-128729047D02*
X126680419Y-128776666D01*
X126680419Y-128776666D02*
X126632800Y-128824285D01*
X126632800Y-128824285D02*
X126585180Y-128919523D01*
X126585180Y-128919523D02*
X126585180Y-129205237D01*
X126585180Y-129205237D02*
X126632800Y-129300475D01*
X126632800Y-129300475D02*
X126680419Y-129348094D01*
X127585180Y-128443332D02*
X126585180Y-128109999D01*
X126585180Y-128109999D02*
X127585180Y-127776666D01*
X127585180Y-127538570D02*
X127585180Y-126919523D01*
X127585180Y-126919523D02*
X127204228Y-127252856D01*
X127204228Y-127252856D02*
X127204228Y-127109999D01*
X127204228Y-127109999D02*
X127156609Y-127014761D01*
X127156609Y-127014761D02*
X127108990Y-126967142D01*
X127108990Y-126967142D02*
X127013752Y-126919523D01*
X127013752Y-126919523D02*
X126775657Y-126919523D01*
X126775657Y-126919523D02*
X126680419Y-126967142D01*
X126680419Y-126967142D02*
X126632800Y-127014761D01*
X126632800Y-127014761D02*
X126585180Y-127109999D01*
X126585180Y-127109999D02*
X126585180Y-127395713D01*
X126585180Y-127395713D02*
X126632800Y-127490951D01*
X126632800Y-127490951D02*
X126680419Y-127538570D01*
X123592800Y-129214285D02*
X123545180Y-129071428D01*
X123545180Y-129071428D02*
X123545180Y-128833333D01*
X123545180Y-128833333D02*
X123592800Y-128738095D01*
X123592800Y-128738095D02*
X123640419Y-128690476D01*
X123640419Y-128690476D02*
X123735657Y-128642857D01*
X123735657Y-128642857D02*
X123830895Y-128642857D01*
X123830895Y-128642857D02*
X123926133Y-128690476D01*
X123926133Y-128690476D02*
X123973752Y-128738095D01*
X123973752Y-128738095D02*
X124021371Y-128833333D01*
X124021371Y-128833333D02*
X124068990Y-129023809D01*
X124068990Y-129023809D02*
X124116609Y-129119047D01*
X124116609Y-129119047D02*
X124164228Y-129166666D01*
X124164228Y-129166666D02*
X124259466Y-129214285D01*
X124259466Y-129214285D02*
X124354704Y-129214285D01*
X124354704Y-129214285D02*
X124449942Y-129166666D01*
X124449942Y-129166666D02*
X124497561Y-129119047D01*
X124497561Y-129119047D02*
X124545180Y-129023809D01*
X124545180Y-129023809D02*
X124545180Y-128785714D01*
X124545180Y-128785714D02*
X124497561Y-128642857D01*
X123545180Y-128214285D02*
X124545180Y-128214285D01*
X124545180Y-128214285D02*
X124545180Y-127976190D01*
X124545180Y-127976190D02*
X124497561Y-127833333D01*
X124497561Y-127833333D02*
X124402323Y-127738095D01*
X124402323Y-127738095D02*
X124307085Y-127690476D01*
X124307085Y-127690476D02*
X124116609Y-127642857D01*
X124116609Y-127642857D02*
X123973752Y-127642857D01*
X123973752Y-127642857D02*
X123783276Y-127690476D01*
X123783276Y-127690476D02*
X123688038Y-127738095D01*
X123688038Y-127738095D02*
X123592800Y-127833333D01*
X123592800Y-127833333D02*
X123545180Y-127976190D01*
X123545180Y-127976190D02*
X123545180Y-128214285D01*
X123830895Y-127261904D02*
X123830895Y-126785714D01*
X123545180Y-127357142D02*
X124545180Y-127023809D01*
X124545180Y-127023809D02*
X123545180Y-126690476D01*
X125142800Y-129240475D02*
X125095180Y-129097618D01*
X125095180Y-129097618D02*
X125095180Y-128859523D01*
X125095180Y-128859523D02*
X125142800Y-128764285D01*
X125142800Y-128764285D02*
X125190419Y-128716666D01*
X125190419Y-128716666D02*
X125285657Y-128669047D01*
X125285657Y-128669047D02*
X125380895Y-128669047D01*
X125380895Y-128669047D02*
X125476133Y-128716666D01*
X125476133Y-128716666D02*
X125523752Y-128764285D01*
X125523752Y-128764285D02*
X125571371Y-128859523D01*
X125571371Y-128859523D02*
X125618990Y-129049999D01*
X125618990Y-129049999D02*
X125666609Y-129145237D01*
X125666609Y-129145237D02*
X125714228Y-129192856D01*
X125714228Y-129192856D02*
X125809466Y-129240475D01*
X125809466Y-129240475D02*
X125904704Y-129240475D01*
X125904704Y-129240475D02*
X125999942Y-129192856D01*
X125999942Y-129192856D02*
X126047561Y-129145237D01*
X126047561Y-129145237D02*
X126095180Y-129049999D01*
X126095180Y-129049999D02*
X126095180Y-128811904D01*
X126095180Y-128811904D02*
X126047561Y-128669047D01*
X125190419Y-127669047D02*
X125142800Y-127716666D01*
X125142800Y-127716666D02*
X125095180Y-127859523D01*
X125095180Y-127859523D02*
X125095180Y-127954761D01*
X125095180Y-127954761D02*
X125142800Y-128097618D01*
X125142800Y-128097618D02*
X125238038Y-128192856D01*
X125238038Y-128192856D02*
X125333276Y-128240475D01*
X125333276Y-128240475D02*
X125523752Y-128288094D01*
X125523752Y-128288094D02*
X125666609Y-128288094D01*
X125666609Y-128288094D02*
X125857085Y-128240475D01*
X125857085Y-128240475D02*
X125952323Y-128192856D01*
X125952323Y-128192856D02*
X126047561Y-128097618D01*
X126047561Y-128097618D02*
X126095180Y-127954761D01*
X126095180Y-127954761D02*
X126095180Y-127859523D01*
X126095180Y-127859523D02*
X126047561Y-127716666D01*
X126047561Y-127716666D02*
X125999942Y-127669047D01*
X125095180Y-126764285D02*
X125095180Y-127240475D01*
X125095180Y-127240475D02*
X126095180Y-127240475D01*
X145190476Y-126019580D02*
X145238095Y-126067200D01*
X145238095Y-126067200D02*
X145380952Y-126114819D01*
X145380952Y-126114819D02*
X145476190Y-126114819D01*
X145476190Y-126114819D02*
X145619047Y-126067200D01*
X145619047Y-126067200D02*
X145714285Y-125971961D01*
X145714285Y-125971961D02*
X145761904Y-125876723D01*
X145761904Y-125876723D02*
X145809523Y-125686247D01*
X145809523Y-125686247D02*
X145809523Y-125543390D01*
X145809523Y-125543390D02*
X145761904Y-125352914D01*
X145761904Y-125352914D02*
X145714285Y-125257676D01*
X145714285Y-125257676D02*
X145619047Y-125162438D01*
X145619047Y-125162438D02*
X145476190Y-125114819D01*
X145476190Y-125114819D02*
X145380952Y-125114819D01*
X145380952Y-125114819D02*
X145238095Y-125162438D01*
X145238095Y-125162438D02*
X145190476Y-125210057D01*
X144761904Y-126114819D02*
X144761904Y-125114819D01*
X144761904Y-125114819D02*
X144190476Y-126114819D01*
X144190476Y-126114819D02*
X144190476Y-125114819D01*
X143190476Y-126114819D02*
X143761904Y-126114819D01*
X143476190Y-126114819D02*
X143476190Y-125114819D01*
X143476190Y-125114819D02*
X143571428Y-125257676D01*
X143571428Y-125257676D02*
X143666666Y-125352914D01*
X143666666Y-125352914D02*
X143761904Y-125400533D01*
X145290476Y-131479580D02*
X145338095Y-131527200D01*
X145338095Y-131527200D02*
X145480952Y-131574819D01*
X145480952Y-131574819D02*
X145576190Y-131574819D01*
X145576190Y-131574819D02*
X145719047Y-131527200D01*
X145719047Y-131527200D02*
X145814285Y-131431961D01*
X145814285Y-131431961D02*
X145861904Y-131336723D01*
X145861904Y-131336723D02*
X145909523Y-131146247D01*
X145909523Y-131146247D02*
X145909523Y-131003390D01*
X145909523Y-131003390D02*
X145861904Y-130812914D01*
X145861904Y-130812914D02*
X145814285Y-130717676D01*
X145814285Y-130717676D02*
X145719047Y-130622438D01*
X145719047Y-130622438D02*
X145576190Y-130574819D01*
X145576190Y-130574819D02*
X145480952Y-130574819D01*
X145480952Y-130574819D02*
X145338095Y-130622438D01*
X145338095Y-130622438D02*
X145290476Y-130670057D01*
X144861904Y-131574819D02*
X144861904Y-130574819D01*
X144861904Y-130574819D02*
X144290476Y-131574819D01*
X144290476Y-131574819D02*
X144290476Y-130574819D01*
X143861904Y-130670057D02*
X143814285Y-130622438D01*
X143814285Y-130622438D02*
X143719047Y-130574819D01*
X143719047Y-130574819D02*
X143480952Y-130574819D01*
X143480952Y-130574819D02*
X143385714Y-130622438D01*
X143385714Y-130622438D02*
X143338095Y-130670057D01*
X143338095Y-130670057D02*
X143290476Y-130765295D01*
X143290476Y-130765295D02*
X143290476Y-130860533D01*
X143290476Y-130860533D02*
X143338095Y-131003390D01*
X143338095Y-131003390D02*
X143909523Y-131574819D01*
X143909523Y-131574819D02*
X143290476Y-131574819D01*
D11*
%TO.C,CN1*%
X139700000Y-115650000D02*
X139700000Y-116520000D01*
X139700000Y-116520000D02*
X139700000Y-117030000D01*
X139700000Y-119690000D02*
X139700000Y-120630000D01*
X139700000Y-120630000D02*
X141420000Y-120630000D01*
X142670000Y-120650000D02*
X142580000Y-120650000D01*
X143920000Y-120650000D02*
X143830000Y-120650000D01*
X145170000Y-120650000D02*
X145080000Y-120650000D01*
X146420000Y-120650000D02*
X146330000Y-120650000D01*
X149300000Y-115650000D02*
X139700000Y-115650000D01*
X149300000Y-116670000D02*
X149300000Y-115650000D01*
X149300000Y-116670000D02*
X149300000Y-117030000D01*
X149300000Y-119690000D02*
X149300000Y-120650000D01*
X149300000Y-120650000D02*
X147580000Y-120650000D01*
X148030000Y-121910000D02*
G75*
G02*
X147730000Y-121910000I-150000J0D01*
G01*
X147730000Y-121910000D02*
G75*
G02*
X148030000Y-121910000I150000J0D01*
G01*
%TO.C,CN2*%
X139850000Y-135150000D02*
X141530000Y-135150000D01*
X139850000Y-135450000D02*
X139850000Y-135150000D01*
X139850000Y-138550000D02*
X139850000Y-138310000D01*
X142670000Y-135150000D02*
X142780000Y-135150000D01*
X143920000Y-135150000D02*
X144030000Y-135150000D01*
X144030000Y-135150000D02*
X143920000Y-135150000D01*
X145280000Y-135150000D02*
X145170000Y-135150000D01*
X145280000Y-135150000D02*
X145170000Y-135150000D01*
X146530000Y-135150000D02*
X146420000Y-135150000D01*
X146530000Y-135150000D02*
X146420000Y-135150000D01*
X149350000Y-135150000D02*
X147670000Y-135150000D01*
X149350000Y-135150000D02*
X147670000Y-135150000D01*
X149350000Y-135150000D02*
X149350000Y-135450000D01*
X149350000Y-138310000D02*
X149350000Y-138550000D01*
X149350000Y-138550000D02*
X139850000Y-138550000D01*
%TD*%
D12*
X136850000Y-153000000D02*
X136850000Y-147000000D01*
X142150000Y-153000000D02*
X142150000Y-147000000D01*
X146850000Y-147000000D02*
X146850000Y-153000000D01*
X152150000Y-153000000D02*
X152150000Y-147000000D01*
X142150000Y-76600000D02*
X142150000Y-82600000D01*
X136850000Y-76600000D02*
X136850000Y-82600000D01*
X146850000Y-76600000D02*
X146850000Y-82600000D01*
X152150000Y-76600000D02*
X152150000Y-82600000D01*
X142150000Y-82600000D02*
G75*
G02*
X136850000Y-82600000I-2650000J0D01*
G01*
D13*
X106350000Y-65750000D02*
X182650000Y-65750000D01*
X182650000Y-163750000D01*
X106350000Y-163750000D01*
X106350000Y-65750000D01*
D12*
X133075000Y-117262500D02*
G75*
G02*
X130075000Y-120262500I-3000000J0D01*
G01*
X146850000Y-76600000D02*
G75*
G02*
X152150000Y-76600000I2650000J0D01*
G01*
X136850000Y-76600000D02*
G75*
G02*
X142150000Y-76600000I2650000J0D01*
G01*
X125050000Y-120262500D02*
G75*
G02*
X125050000Y-109287500I12500J5487500D01*
G01*
X136850000Y-147000000D02*
G75*
G02*
X142150000Y-147000000I2650000J0D01*
G01*
X125050000Y-120262500D02*
X130075000Y-120262500D01*
X142150000Y-153000000D02*
G75*
G02*
X136850000Y-153000000I-2650000J0D01*
G01*
D14*
X111087500Y-98250000D02*
G75*
G02*
X108212500Y-98250000I-1437500J0D01*
G01*
X108212500Y-98250000D02*
G75*
G02*
X111087500Y-98250000I1437500J0D01*
G01*
D12*
X146850000Y-147000000D02*
G75*
G02*
X152150000Y-147000000I2650000J0D01*
G01*
D14*
X111087500Y-110250000D02*
G75*
G02*
X108212500Y-110250000I-1437500J0D01*
G01*
X108212500Y-110250000D02*
G75*
G02*
X111087500Y-110250000I1437500J0D01*
G01*
X111087500Y-122250000D02*
G75*
G02*
X108212500Y-122250000I-1437500J0D01*
G01*
X108212500Y-122250000D02*
G75*
G02*
X111087500Y-122250000I1437500J0D01*
G01*
D12*
X152150000Y-153000000D02*
G75*
G02*
X146850000Y-153000000I-2650000J0D01*
G01*
X125050000Y-109287500D02*
X130075000Y-109287500D01*
D14*
X178462500Y-116250000D02*
G75*
G02*
X175587500Y-116250000I-1437500J0D01*
G01*
X175587500Y-116250000D02*
G75*
G02*
X178462500Y-116250000I1437500J0D01*
G01*
D12*
X133075000Y-117262500D02*
X133075000Y-112287500D01*
X152150000Y-82600000D02*
G75*
G02*
X146850000Y-82600000I-2650000J0D01*
G01*
X130075000Y-109287500D02*
G75*
G02*
X133075000Y-112287500I0J-3000000D01*
G01*
M02*
