M48
; DRILL file {KiCad 9.0.0} date 2025-05-06T20:26:56-0400
; FORMAT={-:-/ absolute / inch / decimal}
; #@! TF.CreationDate,2025-05-06T20:26:56-04:00
; #@! TF.GenerationSoftware,Kicad,Pcbnew,9.0.0
; #@! TF.FileFunction,MixedPlating,1,4
FMAT,2
INCH
; #@! TA.AperFunction,Plated,PTH,ViaDrill
T1C0.0079
; #@! TA.AperFunction,Plated,PTH,ComponentDrill
T2C0.0236
; #@! TA.AperFunction,Plated,PTH,ComponentDrill
T3C0.0354
; #@! TA.AperFunction,Plated,PTH,ComponentDrill
T4C0.0394
%
G90
G05
T1
X6.2264Y-4.813
X6.4557Y-4.9823
X6.4882Y-4.0404
X6.5453Y-4.0305
X6.5463Y-4.0748
X6.55Y-4.16
X6.59Y-3.96
X6.6181Y-4.1663
X6.6181Y-4.1996
X6.6378Y-4.0157
X6.6752Y-3.98
X6.6846Y-5.07
X6.752Y-3.9429
X6.9843Y-5.2157
X6.9846Y-3.1195
X6.9852Y-2.7848
X6.9852Y-2.8346
X6.9858Y-2.685
X6.9862Y-2.5551
X6.9862Y-2.7343
X6.9862Y-3.0695
X6.9872Y-2.4961
X6.9872Y-3.0195
X6.9872Y-3.3622
X6.9878Y-3.1673
X6.9882Y-3.4122
X6.9886Y-3.4622
X6.9902Y-3.5122
X7.0161Y-5.2677
X7.0305Y-3.5118
X7.0344Y-3.7215
X7.0344Y-3.8396
X7.0738Y-3.7215
X7.0984Y-3.8976
X7.1132Y-3.6821
X7.1526Y-3.7608
X7.1526Y-3.8002
X7.1526Y-3.8396
X7.1897Y-3.3693
X7.1919Y-3.8002
X7.1919Y-3.8396
X7.2047Y-5.0
X7.2047Y-5.1604
X7.2047Y-5.2657
X7.2589Y-5.2116
X7.2992Y-3.1772
X7.3268Y-3.561
X7.3543Y-2.8819
X7.3543Y-2.9705
X7.3543Y-3.002
X7.3543Y-3.065
X7.3543Y-3.128
X7.3543Y-3.1594
X7.3543Y-3.1909
X7.3543Y-3.2224
X7.3701Y-3.1161
X7.378Y-2.439
X7.3839Y-3.5039
X7.3858Y-3.128
X7.3858Y-3.1594
X7.3858Y-3.1909
X7.3858Y-3.2224
X7.4173Y-3.0965
X7.4173Y-3.128
X7.4173Y-3.1594
X7.4173Y-3.1909
X7.4173Y-3.2224
X7.4213Y-3.3622
X7.4252Y-3.6693
X7.4331Y-3.5354
X7.4352Y-3.0509
X7.438Y-3.002
X7.44Y-3.7166
X7.4437Y-3.936
X7.4567Y-3.4085
X7.4636Y-3.6663
X7.4636Y-3.7244
X7.4636Y-3.5236
X7.4774Y-3.3996
X7.4783Y-3.8957
X7.4843Y-3.5354
X7.5039Y-3.378
X7.5039Y-3.4724
X7.5039Y-3.5039
X7.5039Y-3.6929
X7.5039Y-3.7244
X7.5039Y-3.7559
X7.5039Y-3.7874
X7.5079Y-3.9035
X7.5181Y-2.3614
X7.5305Y-4.1299
X7.5335Y-3.936
X7.5354Y-3.4094
X7.5354Y-3.5039
X7.5354Y-3.5354
X7.5354Y-3.5669
X7.5354Y-3.6614
X7.5354Y-3.6929
X7.5354Y-3.7559
X7.5374Y-2.285
X7.5433Y-3.0325
X7.5433Y-3.0965
X7.5433Y-3.128
X7.5433Y-3.1594
X7.5433Y-3.1909
X7.5433Y-3.2224
X7.5512Y-3.5404
X7.5551Y-2.437
X7.5551Y-3.6152
X7.5561Y-2.3419
X7.5584Y-3.4571
X7.56Y-2.2185
X7.5669Y-3.4409
X7.5669Y-3.5039
X7.5669Y-3.5354
X7.5669Y-3.6614
X7.5748Y-3.3937
X7.5748Y-3.128
X7.5748Y-3.1594
X7.5748Y-3.1909
X7.5748Y-3.2224
X7.5827Y-3.5906
X7.5969Y-3.9028
X7.5974Y-3.5354
X7.5984Y-3.4409
X7.5984Y-3.4724
X7.5984Y-3.5039
X7.5984Y-3.5669
X7.5984Y-3.6614
X7.5984Y-3.6929
X7.5984Y-3.7559
X7.6063Y-2.9705
X7.6063Y-3.065
X7.6063Y-3.0965
X7.6063Y-3.128
X7.6063Y-3.1594
X7.6063Y-3.1909
X7.6063Y-3.2224
X7.6137Y-3.9026
X7.6201Y-3.3937
X7.6215Y-3.5502
X7.624Y-2.5404
X7.6299Y-3.4094
X7.6299Y-3.4409
X7.6299Y-3.4724
X7.6299Y-3.5669
X7.6299Y-3.5984
X7.6299Y-3.6299
X7.6299Y-3.6614
X7.6299Y-3.6929
X7.6299Y-3.7244
X7.6299Y-3.7559
X7.6457Y-3.4567
X7.6575Y-3.8937
X7.6614Y-3.4409
X7.6614Y-3.4724
X7.6614Y-3.5984
X7.6614Y-3.6299
X7.6614Y-3.6614
X7.6614Y-3.7559
X7.6614Y-3.7559
X7.6752Y-3.7717
X7.685Y-4.0768
X7.685Y-4.1142
X7.685Y-4.1555
X7.685Y-4.1949
X7.685Y-4.2343
X7.685Y-4.2717
X7.685Y-4.3917
X7.685Y-4.4902
X7.6929Y-3.5669
X7.6929Y-3.5984
X7.6929Y-3.6299
X7.7016Y-3.3932
X7.7047Y-2.8307
X7.7067Y-3.5827
X7.7073Y-3.5177
X7.7077Y-3.3642
X7.7195Y-2.3415
X7.7195Y-2.439
X7.7244Y-3.4094
X7.7244Y-3.4409
X7.7244Y-3.5039
X7.7244Y-3.5669
X7.7244Y-3.5984
X7.7244Y-3.6299
X7.7244Y-3.6614
X7.7244Y-3.6929
X7.7244Y-3.7559
X7.7244Y-3.7874
X7.7323Y-3.8406
X7.7343Y-4.2923
X7.7362Y-3.3632
X7.7402Y-3.6851
X7.7402Y-3.3976
X7.7402Y-3.4803
X7.7485Y-3.3253
X7.754Y-3.8938
X7.7559Y-3.378
X7.7559Y-3.4085
X7.7559Y-3.4409
X7.7559Y-3.4724
X7.7559Y-3.5039
X7.7559Y-3.6299
X7.7559Y-3.6614
X7.7559Y-3.6929
X7.7559Y-3.7244
X7.7717Y-3.4016
X7.7717Y-3.4646
X7.7717Y-3.5531
X7.7717Y-3.6781
X7.7736Y-3.3484
X7.7776Y-2.6476
X7.7795Y-3.5197
X7.7799Y-3.7077
X7.7835Y-3.2559
X7.7864Y-2.8386
X7.7869Y-3.6304
X7.7874Y-2.2687
X7.7874Y-3.4094
X7.7874Y-3.4724
X7.7874Y-3.5354
X7.7874Y-3.7244
X7.7874Y-3.7874
X7.7876Y-3.5659
X7.7913Y-4.4114
X7.7953Y-4.1358
X7.7953Y-4.1752
X7.7953Y-4.2146
X7.7953Y-4.2539
X7.7953Y-4.2933
X7.7953Y-4.3327
X7.7953Y-4.372
X7.7953Y-4.4508
X7.8041Y-2.7402
X7.809Y-3.6808
X7.811Y-3.4567
X7.8184Y-3.971
X7.8189Y-3.5039
X7.8189Y-3.5354
X7.8189Y-3.5984
X7.8189Y-3.6614
X7.8238Y-2.8711
X7.8317Y-3.8602
X7.8386Y-3.8267
X7.8435Y-3.878
X7.8435Y-4.1467
X7.8484Y-4.0797
X7.8504Y-3.5354
X7.8504Y-3.5669
X7.8504Y-3.5984
X7.8504Y-3.6299
X7.8504Y-3.6614
X7.8504Y-3.6929
X7.8504Y-3.7874
X7.8524Y-3.2185
X7.8553Y-3.9508
X7.8622Y-3.5836
X7.8741Y-4.0531
X7.8789Y-2.2333
X7.8815Y-3.598
X7.8819Y-3.4094
X7.8819Y-3.4409
X7.8819Y-3.4724
X7.8819Y-3.5039
X7.8819Y-3.6299
X7.8819Y-3.6614
X7.8819Y-3.6929
X7.8819Y-3.7244
X7.8917Y-2.3937
X7.8917Y-3.7087
X7.8976Y-3.5502
X7.9006Y-2.9528
X7.9094Y-3.8267
X7.9134Y-3.378
X7.9134Y-3.5669
X7.9134Y-3.6299
X7.9134Y-3.6929
X7.9134Y-3.7559
X7.9134Y-3.7874
X7.935Y-3.4469
X7.9419Y-3.5069
X7.9419Y-3.6181
X7.9547Y-3.8878
X7.9587Y-3.0128
X7.9587Y-3.4173
X7.9665Y-3.6083
X7.9665Y-3.6516
X7.9665Y-3.6683
X7.9734Y-2.2687
X7.9754Y-2.5394
X7.9754Y-2.625
X7.9794Y-3.5699
X7.9813Y-3.6447
X8.0Y-3.4764
X8.0Y-3.7854
X8.001Y-3.8681
X8.0236Y-3.1535
X8.0246Y-3.0276
X8.0256Y-3.1024
X8.0384Y-3.5079
X8.0384Y-3.6181
X8.0394Y-2.876
X8.0433Y-3.2854
X8.0719Y-3.378
X8.1043Y-3.8878
X8.1398Y-2.8504
X8.1417Y-3.0315
X8.163Y-3.0636
X8.1634Y-2.8976
X8.1791Y-3.4734
X8.1791Y-3.5384
X8.189Y-2.876
X8.1988Y-3.0177
X8.2019Y-2.3937
X8.25Y-3.0778
X8.25Y-3.128
X8.2618Y-3.2559
X8.2795Y-2.9291
X8.313Y-2.997
X8.313Y-3.0492
X8.3337Y-3.6673
X8.3337Y-3.7933
X8.3346Y-3.2264
X8.4065Y-2.9104
X8.5748Y-3.3465
T3
X6.4065Y-4.3583
X6.4065Y-4.437
X6.4065Y-4.5157
X6.4065Y-4.5945
X6.4065Y-4.6732
X6.4852Y-4.3583
X6.4852Y-4.437
X6.4852Y-4.5157
X6.4852Y-4.5945
X6.4852Y-4.6732
T4
X6.0433Y-3.8602
X6.0433Y-4.2264
X6.0433Y-4.4094
X6.0472Y-4.0571
X6.2264Y-3.8602
X6.2264Y-3.9602
X6.2264Y-4.0602
X6.2264Y-4.1602
X6.2264Y-4.3425
X6.2264Y-4.4425
X6.2264Y-4.5425
X6.2264Y-4.6425
X6.4104Y-3.8612
X6.4104Y-3.9612
X6.4104Y-4.0612
X6.4104Y-4.1612
X8.2844Y-2.2697
X8.2844Y-2.3697
X8.4656Y-2.2685
X8.4656Y-2.3685
X8.4656Y-2.4685
X8.4941Y-3.4311
X8.4941Y-3.5311
X8.6437Y-3.4291
X8.6437Y-3.5291
X8.6437Y-3.6291
X8.6437Y-3.7291
T2
G00X6.9402Y-5.2746
M15
G01X6.9402Y-5.3061
M16
G05
G00X6.9402Y-5.4242
M15
G01X6.9402Y-5.4715
M16
G05
G00X7.2803Y-5.2746
M15
G01X7.2803Y-5.3061
M16
G05
G00X7.2803Y-5.4242
M15
G01X7.2803Y-5.4715
M16
G05
M30
